<svg xmlns="http://www.w3.org/2000/svg" viewBox="0 0 60 60">
  <defs>
    <style>
      .cls-1 {
        fill: #fff;
      }
    </style>
  </defs>
  <path id="ICON" class="cls-1" d="M1210.626,1389.5a1.626,1.626,0,1,1,0-3.252h2.213l-.01-.187a5.163,5.163,0,0,1-.227-2.567l3.46-20.758,0-.924-5.554-5.611a5.164,5.164,0,0,1,0-7.294l4.37-4.369c2.838-2.84,2.892-2.893,2.994-2.975l.084-.066-.019-.155a7.108,7.108,0,0,1-1.876-4.8,6.925,6.925,0,1,1,13.848,0,7.1,7.1,0,0,1-4.04,6.395l-.1.047.036.15,2.123,4.24,7.419.023a5.158,5.158,0,0,1,0,10.315h-8.931l-.04,1.693,7.07,2.385a5.184,5.184,0,0,1,3.261,3.26l3.532,10.6a5.1,5.1,0,0,1-.031,3.35l-.047.135,4.115.054.04-5.439a1.628,1.628,0,0,1,1.627-1.625h16.23l.04-12.013-.757.66a1.626,1.626,0,0,1-2.3-2.3l3.531-3.531a1.63,1.63,0,0,1,2.3,0l3.532,3.531a1.626,1.626,0,0,1-2.3,2.3l-.688-.689-.068,13.666a1.628,1.628,0,0,1-1.626,1.626h-16.23l-.04,5.438a1.628,1.628,0,0,1-1.625,1.626h-15.995l-.04,5.439a1.628,1.628,0,0,1-1.626,1.626Zm5.184-5.473a1.906,1.906,0,1,0,3.761.628l2.618-15.71-2.6-.9a5.223,5.223,0,0,1-.864-.377l-.173-.095Zm6.968,1.162a5.252,5.252,0,0,1-.225.871l-.047.135,4.114.053.04-5.438a1.628,1.628,0,0,1,1.626-1.625h2.207l-2.729-8.359-2.446-.875Zm-3.431-31.423-.031,9.386a1.927,1.927,0,0,0,1.3,1.807l8.921,2.973a1.632,1.632,0,0,1,1.028,1.028l2.974,8.921a1.9,1.9,0,0,0,1.811,1.3,1.87,1.87,0,0,0,.6-.1,1.908,1.908,0,0,0,1.208-2.413l-3.532-10.6a1.918,1.918,0,0,0-1.207-1.206l-8.181-2.728a1.623,1.623,0,0,1-1.112-1.542v-3.152l-.093-.033a5.1,5.1,0,0,1-2.894-2.558l-.574-1.145Zm-6.536-2.56a1.9,1.9,0,0,0,0,2.694l3.186,3.187.068-9.136Zm8.493-7.641a2.089,2.089,0,0,0-1.739.974,1.8,1.8,0,0,0-.049,1.8l3.532,7.063a1.9,1.9,0,0,0,1.707,1.055h10.6a1.906,1.906,0,0,0,0-3.812h-8.412a1.618,1.618,0,0,1-1.454-.9l-2.548-5.1a1.777,1.777,0,0,0-1.633-1.087Zm1.685-10.813a3.792,3.792,0,1,0,3.672,3.789,3.783,3.783,0,0,0-3.672-3.789Z" transform="translate(-1209 -1329.5)"/>
</svg>
