<svg xmlns="http://www.w3.org/2000/svg" viewBox="0 0 55.498 60">
  <defs>
    <style>
      .cls-1 {
        fill: #fff;
      }
    </style>
  </defs>
  <path id="ICON" class="cls-1" d="M670.207,1389.5a1.573,1.573,0,0,1-1.569-1.45,1.907,1.907,0,0,1,.087-.516l2.412-8.561a2.276,2.276,0,0,1,.432-.718l14.441-14.44,3.618-3.559a2.5,2.5,0,0,1,1.788-.78,2.8,2.8,0,0,1,2.053.9l4.53,4.53a2.662,2.662,0,0,1,.75,1.936,2.849,2.849,0,0,1-.809,1.729l-3.559,3.561-14.532,14.5a1.546,1.546,0,0,1-.685.34l-8.5,2.472a1.619,1.619,0,0,1-.455.056Zm3.875-9.311-1.57,5.376,5.415-1.438,13.082-13.075-3.888-3.9Zm15.3-15.3,3.854,3.865,2.072-2.059-3.831-3.9ZM646.761,1389.5a3.457,3.457,0,0,1-3.51-3.48V1332.98a3.465,3.465,0,0,1,3.51-3.481H662l21,21.049.044,13.114-3.215-.05.05-9.835-17.523-.05a3.488,3.488,0,0,1-3.481-3.568v-17.474l-12.11-.051a.3.3,0,0,0-.345.345v53.039c0,.235.109.343.345.343h19.208l-.049,3.138Zm15.247-39.34c0,.269.115.4.344.4h16.092l-16.435-16.557Zm-11.512,32.6a1.568,1.568,0,0,1,0-3.136h11.737a1.568,1.568,0,1,1,0,3.136Zm0-7.295a1.568,1.568,0,0,1,0-3.136h11.737a1.568,1.568,0,1,1,0,3.136Zm0-7.207a1.583,1.583,0,0,1,0-3.166h25.3a1.583,1.583,0,0,1,0,3.166Zm0-7.295a1.567,1.567,0,0,1-1.568-1.6,1.551,1.551,0,0,1,1.568-1.567h25.3a1.583,1.583,0,0,1,0,3.166Z" transform="translate(-643.251 -1329.5)"/>
</svg>
