<svg xmlns="http://www.w3.org/2000/svg" viewBox="0 0 59.912 60">
  <defs>
    <style>
      .cls-1 {
        fill: #fff;
      }
    </style>
  </defs>
  <path id="ICON" class="cls-1" d="M968.419,1366.668a5.9,5.9,0,0,0-4.28-1.963,6.1,6.1,0,0,0-4.332,1.951l-4,3.988c-.33-.178-.659-.342-.975-.506-.458-.228-.888-.443-1.255-.672a43.513,43.513,0,0,1-10.422-9.5,25.7,25.7,0,0,1-3.42-5.395c1.038-.949,2-1.938,2.939-2.887.354-.355.71-.723,1.063-1.078a5.809,5.809,0,0,0,0-8.762l-3.456-3.457c-.393-.393-.8-.8-1.179-1.2-.759-.785-1.558-1.6-2.381-2.355a5.988,5.988,0,0,0-4.242-1.861,6.2,6.2,0,0,0-4.306,1.861l-.025.026-4.306,4.344a9.269,9.269,0,0,0-2.747,5.889,22.193,22.193,0,0,0,1.62,9.395,54.548,54.548,0,0,0,9.688,16.16,59.618,59.618,0,0,0,19.844,15.539,30.969,30.969,0,0,0,11.144,3.291c.266.014.546.025.8.025a9.541,9.541,0,0,0,7.307-3.141c.013-.025.038-.037.051-.062a28.394,28.394,0,0,1,2.216-2.293c.545-.519,1.1-1.062,1.647-1.633a6.326,6.326,0,0,0,1.912-4.383,6.081,6.081,0,0,0-1.951-4.342ZM972.953,1380c-.013,0-.013.014,0,0-.493.533-1,1.014-1.545,1.545a33.782,33.782,0,0,0-2.443,2.533,6.107,6.107,0,0,1-4.762,2.014c-.189,0-.393,0-.583-.014a27.5,27.5,0,0,1-9.878-2.961,56.249,56.249,0,0,1-18.69-14.641,51.373,51.373,0,0,1-9.118-15.183,18.1,18.1,0,0,1-1.419-7.928,5.816,5.816,0,0,1,1.748-3.76l4.319-4.32a2.877,2.877,0,0,1,1.924-.9,2.708,2.708,0,0,1,1.849.887l.038.039c.772.721,1.507,1.469,2.278,2.266.393.406.8.811,1.2,1.229l3.457,3.457c1.343,1.342,1.343,2.584,0,3.926-.367.367-.722.734-1.089,1.09-1.063,1.088-2.076,2.1-3.179,3.09-.025.025-.05.037-.062.064a2.58,2.58,0,0,0-.659,2.873l.038.113a27.731,27.731,0,0,0,4.091,6.674l.013.014a46.538,46.538,0,0,0,11.245,10.232,17.587,17.587,0,0,0,1.558.848c.455.229.886.443,1.254.672.051.025.1.063.151.088a2.752,2.752,0,0,0,1.255.317,2.706,2.706,0,0,0,1.924-.873l4.331-4.332a2.868,2.868,0,0,1,1.912-.949,2.584,2.584,0,0,1,1.824.924l.024.025,6.977,6.979a2.5,2.5,0,0,1,.013,3.963Zm0,0-19.527-36.23a16.3,16.3,0,0,1,13.272,13.272,1.7,1.7,0,0,0,1.684,1.42,2.42,2.42,0,0,0,.291-.026,1.711,1.711,0,0,0,1.405-1.976,19.7,19.7,0,0,0-16.057-16.057,1.718,1.718,0,0,0-1.976,1.393,1.691,1.691,0,0,0,1.38,1.975Zm0,0,27.5,12.2a32.449,32.449,0,0,0-26.44-26.442,1.707,1.707,0,1,0-.558,3.369,28.985,28.985,0,0,1,23.63,23.631,1.7,1.7,0,0,0,1.685,1.418,2.448,2.448,0,0,0,.291-.025,1.678,1.678,0,0,0,1.393-1.951Zm0,0" transform="translate(-921.044 -1329.5)"/>
</svg>
