<?xml version="1.0" encoding="utf-8"?>
<!-- Generator: Adobe Illustrator 22.0.1, SVG Export Plug-In . SVG Version: 6.00 Build 0)  -->
<svg version="1.1" id="Layer_1" xmlns="http://www.w3.org/2000/svg" xmlns:xlink="http://www.w3.org/1999/xlink" x="0px" y="0px"
	 viewBox="0 0 302 29" style="enable-background:new 0 0 302 29;" xml:space="preserve">
<style type="text/css">
	.st0{fill:#666666;}
</style>
<g>
	<g>
		<path class="st0" d="M285.5,11.3c-0.1,0-0.1,0-0.2,0c-0.2,0-0.5,0.2-0.6,0.4c-0.1,0.3,0,0.7,0.4,0.8l10.5,4.1
			c-3.2-0.2-8.1-0.4-15.1-0.4c-1.5,0-3.1,0-4.8,0c-21.6,0.3-26.7,1.1-26.9,1.1c-0.3,0.1-0.6,0.4-0.5,0.7c0.1,0.3,0.4,0.6,0.7,0.5
			c0.1,0,5.3-0.8,26.7-1.1c10.4-0.1,17.2,0.2,20.8,0.5l-12.4,3.3c-0.3,0.1-0.5,0.4-0.4,0.8c0.1,0.3,0.4,0.5,0.8,0.4l17.5-4.7
			L285.5,11.3z M10.4,7.6c-0.5-0.2-1-0.4-1.6-0.4c-0.6-0.1-1.2,0-1.8,0C6.3,7.3,5.7,7.4,5.1,7.6C4.5,7.9,3.9,8.2,3.4,8.5
			C3.2,8.4,3.1,8.3,3.1,8.2C3,8,3,7.9,2.9,7.8c0-0.1-0.1-0.2-0.2-0.3C2.6,7.4,2.5,7.4,2.4,7.4S2,7.5,1.8,7.8s-0.4,0.6-0.7,1
			C0.9,9.2,0.7,9.6,0.5,10S0.1,10.7,0,10.8v0.1V11c0,0.2,0.1,0.3,0.2,0.4c0.1,0.1,0.2,0.2,0.3,0.2s0.2,0,0.3-0.1s0.2-0.2,0.3-0.3
			s0.2-0.2,0.3-0.3s0.2-0.2,0.3-0.2c0.1,1.2,0.1,2.4,0.1,3.6s0,2.5-0.1,3.9c0,1.3-0.1,2.8-0.2,4.2c-0.1,1.5-0.1,3-0.1,4.7
			c0.1,0.1,0.2,0.1,0.3,0.2s0.3,0.1,0.4,0.1c0.1,0,0.3,0,0.4-0.1c0.1-0.1,0.2-0.1,0.2-0.3L3,19c0,0,0.2-0.2,0.6-0.4
			c0.4-0.2,1-0.5,1.7-0.8C6,17.4,6.7,17,7.5,16.5s1.6-1,2.3-1.7c0.7-0.6,1.3-1.3,1.8-2.1c0.5-0.8,0.7-1.6,0.7-2.5
			c0-0.6-0.3-1.2-0.6-1.6C11.3,8.1,10.9,7.8,10.4,7.6z M9.9,13.1c-0.6,0.7-1.2,1.2-2,1.8c-0.7,0.5-1.6,1-2.4,1.4
			c-0.9,0.4-1.7,0.7-2.5,1v-7.1c0.7-0.6,1.6-1.1,2.4-1.4c1-0.4,1.8-0.6,2.6-0.6s1.5,0.2,2,0.6c0.6,0.4,0.9,1.1,1,2
			C10.9,11.7,10.5,12.4,9.9,13.1z M16.5,16.5c0.6-0.4,1.4-0.9,2.1-1.3c0.8-0.5,1.5-1,2.3-1.5s1.5-1,2.2-1.5c0.6-0.5,1.2-1,1.5-1.5
			c0.4-0.5,0.6-0.9,0.5-1.4c0-0.4-0.3-0.8-0.9-1.2c-0.6-0.3-1.5-0.7-2.8-0.9c-0.8-0.1-1.6-0.1-2.2,0c-0.7,0.1-1.3,0.3-1.8,0.5
			s-1,0.4-1.4,0.6s-0.8,0.3-1.1,0.4l-0.1-1.3c0-0.2-0.1-0.3-0.2-0.4c-0.2,0-0.3,0-0.5,0s-0.3,0-0.5,0.1s-0.2,0.2-0.3,0.3l0.2,19.9
			c0,0.1,0.1,0.2,0.2,0.2c0.1,0.1,0.1,0.1,0.2,0.1c0.1,0,0.2,0,0.3,0s0.3-0.2,0.5-0.3v-7.9l10.3,6c0.3,0,0.5-0.1,0.7-0.3
			c0.2-0.2,0.3-0.5,0.3-0.7l-11-6.7C15.4,17.3,15.9,16.9,16.5,16.5z M14.8,13.2c0-0.5,0-1,0-1.4s0-0.8,0.1-1.1
			c0.3-0.4,0.7-0.8,1.3-1C16.7,9.4,17.3,9.2,18,9c0.6-0.2,1.3-0.3,1.9-0.3c0.6-0.1,1.2-0.1,1.7,0c0.8,0.2,1.4,0.4,1.7,0.7
			c0.3,0.3,0.3,0.6,0.2,0.9c-0.1,0.3-0.4,0.7-0.9,1.1c-0.5,0.4-1,0.8-1.6,1.2s-1.3,0.8-1.9,1.2c-0.7,0.4-1.3,0.7-1.9,1.1
			c-0.6,0.3-1.1,0.6-1.5,0.8S15,16.1,15,16.1v-2.9H14.8z M38,23.3c-0.1-0.1-0.2-0.1-0.4-0.2c-0.3,0-0.7,0.1-1.2,0.3
			c-0.5,0.2-1,0.3-1.6,0.5s-1.1,0.4-1.8,0.7c-0.6,0.2-1.2,0.4-1.7,0.6s-1,0.3-1.5,0.3c-0.4,0.1-0.8,0-1-0.1l0.2-6.3
			c0-0.2,0.2-0.5,0.6-0.7s0.8-0.4,1.4-0.6s1.2-0.4,1.8-0.6s1.2-0.4,1.8-0.6s1-0.5,1.4-0.7c0.4-0.3,0.6-0.6,0.6-0.9
			c-0.1-0.2-0.3-0.3-0.4-0.4c-0.1,0-0.3,0-0.4,0.1c-0.1,0.1-0.3,0.2-0.5,0.4l-6.5,2.3c-0.1-1-0.1-2.1-0.2-3.1s-0.1-2-0.1-3.1
			l8.9-2.5c0.2-0.1,0.4-0.2,0.5-0.3c0.1-0.2,0.2-0.3,0.2-0.5s0-0.3-0.1-0.5c-0.1-0.1-0.2-0.2-0.3-0.3l-9,2.3c0-0.1,0-0.3,0-0.5
			s-0.1-0.5-0.1-0.8c-0.1-0.3-0.2-0.5-0.3-0.8c-0.1-0.2-0.3-0.4-0.5-0.5c-0.1,0-0.2,0-0.4,0C27,7,26.9,7.1,26.8,7.2
			s-0.2,0.2-0.2,0.3c-0.1,0.1-0.1,0.2-0.1,0.3c0.3,1.5,0.6,3.1,0.7,4.7s0.2,3.2,0.2,4.8c0,1.6,0,3.2-0.1,4.8
			c-0.1,1.6-0.1,3.1-0.1,4.7c0.2,0.2,0.3,0.3,0.5,0.4c0.1,0.1,0.3,0.1,0.5,0.2c0.6,0,1.3-0.2,2.2-0.4c0.9-0.2,1.7-0.5,2.7-0.8
			c0.9-0.3,1.8-0.6,2.7-1c0.9-0.3,1.6-0.6,2.2-0.9c0.2-0.1,0.3-0.2,0.3-0.3c0-0.1,0-0.2,0-0.3C38.2,23.4,38.1,23.3,38,23.3z
			 M48.6,15.7c-0.2-1.4-0.4-2.9-0.7-4.3c-0.2-1.4-0.5-2.8-0.7-4C47.2,7.1,47,7,46.8,7s-0.3,0-0.5,0.1C46.2,7.2,46,7.4,46,7.5
			c-0.1,0.2-0.1,0.4,0,0.5c0,0.2,0,0.5,0.1,1.1c0.1,0.5,0.2,1.2,0.3,2s0.3,1.7,0.4,2.7c0.2,1,0.3,2,0.5,3c0.1,1,0.3,2,0.4,3
			c0.1,1,0.2,1.9,0.2,2.8s0,1.6,0,2.3c-0.1,0.7-0.2,1.1-0.4,1.5c-0.5,0.5-1,0.8-1.5,0.9c-0.6,0.1-1.1,0.1-1.7-0.1s-1.1-0.4-1.6-0.8
			s-1-0.8-1.4-1.3s-0.7-1-0.9-1.5s-0.3-1-0.3-1.4c0-0.1,0-0.3-0.1-0.4s-0.2-0.1-0.3-0.1s-0.2,0.1-0.3,0.2s-0.2,0.4-0.3,0.7
			C39,23,39,23.4,39.2,23.9c0.1,0.5,0.4,0.9,0.7,1.4s0.7,0.9,1.2,1.4s0.9,0.9,1.4,1.2c0.5,0.3,1,0.6,1.5,0.8c0.5,0.2,1,0.3,1.4,0.3
			c0.8,0,1.4-0.1,1.9-0.4s0.9-0.6,1.2-1s0.5-1,0.6-1.6s0.2-1.2,0.2-1.9c0-1.3-0.1-2.7-0.2-4.1C49,18.6,48.8,17.2,48.6,15.7z
			 M61.6,19.6c-0.6-0.2-1.2-0.3-1.9-0.4s-1.5-0.2-2.2-0.3c-0.7-0.1-1.5-0.2-2.2-0.3c-0.7-0.1-1.4-0.3-1.9-0.5
			c-0.6-0.2-1-0.5-1.4-0.8c-0.3-0.3-0.5-0.8-0.5-1.3c0-0.4,0.1-0.9,0.3-1.4s0.5-1.1,0.9-1.6s0.8-1,1.3-1.5s1-0.9,1.5-1.3
			c0.5-0.4,1-0.7,1.5-0.9S57.9,9,58.3,9l1,0.3c0.5,0,0.9-0.1,1.2-0.3S61,8.4,61,7.9c0-0.2,0-0.4-0.1-0.5s-0.2-0.2-0.3-0.2
			s-0.3,0-0.5,0s-0.3,0-0.5,0c-0.6,0-1.2,0.1-1.9,0.4s-1.4,0.6-2.1,1c-0.7,0.4-1.4,1-2,1.5c-0.6,0.6-1.2,1.2-1.7,1.9
			s-0.9,1.4-1.2,2.1c-0.3,0.7-0.5,1.4-0.5,2.1c0,0.7,0.2,1.3,0.5,1.8s0.8,0.9,1.4,1.2c0.6,0.3,1.2,0.6,1.9,0.7
			c0.7,0.2,1.5,0.3,2.2,0.4c0.8,0.1,1.5,0.2,2.2,0.3c0.7,0.1,1.4,0.1,1.9,0.2c0.6,0.1,1,0.2,1.4,0.4s0.5,0.3,0.5,0.6
			c-0.3,0.5-0.7,0.9-1.3,1.3s-1.2,0.8-2,1.1c-0.7,0.3-1.5,0.6-2.3,0.9s-1.5,0.5-2.1,0.7s-1.2,0.4-1.6,0.5c-0.4,0.1-0.7,0.3-0.7,0.4
			c-0.1,0.3,0,0.4,0.1,0.5s0.2,0.2,0.4,0.2c0.5,0,1.2,0,2-0.2c0.8-0.1,1.5-0.3,2.3-0.6c0.8-0.3,1.6-0.6,2.4-1
			c0.8-0.4,1.5-0.8,2.1-1.2c0.6-0.4,1.1-0.9,1.5-1.4s0.6-1,0.6-1.4c0-0.5-0.2-0.9-0.5-1.2C62.6,20,62.2,19.8,61.6,19.6z M72.3,5.3
			c0.1,0.1,0.2,0.2,0.3,0.3c0.1,0,0.2,0,0.4,0c0.1,0,0.2-0.1,0.3-0.2c0.1-0.1,0.2-0.1,0.2-0.2l2.3-4.4c0-0.2,0-0.3-0.1-0.4
			s-0.2-0.2-0.4-0.3C75.1,0,75,0,74.8,0s-0.3,0.1-0.4,0.2l-1.7,3.3l-2.1-3.2c-0.1-0.1-0.2-0.1-0.4-0.1c-0.2,0-0.4,0.1-0.5,0.2
			c-0.2,0.1-0.3,0.2-0.3,0.3c-0.1,0.1,0,0.3,0.1,0.5L72.3,5.3z M82.1,7.3c-0.2,0-0.3,0-0.4,0c-2.7,0.1-5.2,0.1-7.8,0.1
			c-0.1,0-0.2-0.1-0.2-0.2c-0.1-0.1-0.1-0.2-0.2-0.4s-0.2-0.3-0.3-0.4c-0.1-0.1-0.3-0.2-0.5-0.2c-0.1,0-0.3,0-0.4,0.1
			S72.1,6.5,72,6.7c0,0.2,0,0.4-0.1,0.5c0,0.2-0.1,0.3-0.1,0.3l-7,0.5c-0.2,0-0.3,0.1-0.5,0.2C64.1,8.4,64,8.6,64,8.8
			c0,0.3,0,0.4,0.2,0.5s0.4,0.1,0.5,0.1c0.6,0,1.2,0,1.8,0c0.6-0.1,1.2-0.1,1.8-0.2C69,9,69.6,9,70.2,8.9s1.2,0,1.8,0
			c0.1,0.8,0.1,1.7,0.2,2.7c0,1,0,2.1,0.1,3.2c0,1.1,0,2.3,0,3.4c0,1.2,0,2.3,0,3.4s0.1,2.1,0.1,3c0.1,0.9,0.2,1.7,0.3,2.4
			c0.5,0.1,0.8,0.1,1,0s0.2-0.4,0.1-0.9c0.1-0.8,0.1-1.7,0.1-2.7s-0.1-1.9-0.1-3c-0.1-1-0.1-2-0.2-3.1c-0.1-1-0.1-2.1-0.1-3.1
			s0-2,0-3s0.1-1.8,0.2-2.7c0.3-0.1,0.8-0.1,1.4-0.1s1.2-0.1,1.9-0.1c0.7,0,1.4,0,2.1-0.1c0.7,0,1.3-0.1,1.8-0.2
			c0.5-0.1,1-0.2,1.2-0.3c0.3-0.2,0.4-0.4,0.3-0.6C82.5,7.3,82.3,7.3,82.1,7.3z M104.6,24c0-0.3,0-0.8,0-1.5s0-1.5,0-2.4
			s0-1.8,0-2.8s0-1.9,0-2.8c0-0.9,0-1.7,0-2.4c0-0.7,0-1.2,0-1.5c0-0.1,0-0.4-0.1-0.7c0-0.4-0.1-0.8-0.2-1.2s-0.2-0.8-0.4-1.1
			c-0.2-0.3-0.4-0.5-0.7-0.5c-0.3,0-0.5,0.1-0.6,0.3c-0.1,0.2-0.1,0.5-0.1,0.7c0.1,0.1,0.2,0.4,0.3,0.8c0.1,0.4,0.1,1,0.2,1.6
			c0.1,0.7,0.1,1.4,0.2,2.2c0,0.8,0.1,1.7,0.1,2.5c0,0.9,0,1.7,0,2.6s0,1.6,0,2.4c0,0.7,0,1.3-0.1,1.9c0,0.5-0.1,0.9-0.1,1.2
			L94.4,8.4c0.1,0,0-0.1-0.1-0.3S94,7.7,93.8,7.5S93.4,7.1,93.1,7c-0.2-0.1-0.4,0-0.6,0.2l1,19.7c-0.1,0.1-0.1,0.2,0.1,0.3
			c0.1,0.1,0.3,0.2,0.5,0.3c0.2,0,0.4,0,0.6-0.1s0.3-0.3,0.3-0.6c0-1,0-2.2-0.1-3.6c-0.1-1.3-0.2-2.7-0.2-4.2
			c-0.1-1.4-0.1-2.8-0.2-4.2c0-1.4,0-2.6,0.1-3.6c0.3,0.3,0.6,0.8,1.1,1.5s0.9,1.6,1.5,2.6c0.5,1,1.1,2,1.6,3.1
			c0.6,1.1,1.1,2.1,1.6,3.1s1,1.9,1.4,2.7c0.4,0.8,0.8,1.3,1.1,1.7c-0.1,0.3-0.1,0.5-0.1,0.7s0.1,0.3,0.1,0.4
			c0.1,0.1,0.2,0.2,0.3,0.2c0.1,0,0.3,0.1,0.5,0.1c0.3,0,0.6-0.1,0.9-0.3c0.3-0.2,0.4-0.4,0.4-0.8s-0.1-0.8-0.2-1.1
			C104.7,24.8,104.6,24.4,104.6,24z M117.3,19.7c0.1,0,0.3-0.1,0.5-0.1s0.4-0.1,0.6-0.2s0.4-0.1,0.5-0.2c0.3-0.1,0.5-0.3,0.7-0.4
			c0.1-0.2,0.2-0.4,0.2-0.5c0-0.2-0.1-0.3-0.2-0.4s-0.3-0.2-0.5-0.2l-2.4,0.7L112,7.1c0-0.1,0-0.2-0.2-0.3c-0.1-0.1-0.3-0.1-0.4-0.2
			c-0.2,0-0.3,0-0.5,0c-0.2,0.1-0.3,0.2-0.4,0.3c-0.8,3.5-1.4,6.5-2,8.9s-1.1,4.4-1.4,6c-0.4,1.6-0.7,2.8-0.9,3.6
			c-0.2,0.8-0.4,1.4-0.5,1.8c0.4,0.3,0.7,0.5,0.9,0.6c0.2,0.1,0.5,0,0.8-0.3c0.1-0.7,0.2-1.3,0.3-2c0.1-0.5,0.2-1,0.2-1.5
			c0.1-0.5,0.1-0.9,0.2-1.1c0.1-0.3,0.2-0.6,0.6-0.9c0.3-0.2,0.7-0.5,1.1-0.6c0.5-0.2,0.9-0.3,1.5-0.4c0.5-0.1,1.1-0.2,1.6-0.3
			c0.5-0.1,1-0.2,1.5-0.3s0.9-0.2,1.2-0.3l2.7,7c0.3,0.2,0.6,0.3,0.8,0.3s0.3,0,0.4-0.1s0.2-0.2,0.2-0.3c0-0.1,0.1-0.2,0.1-0.3
			l-2.6-7.1C117.1,19.8,117.1,19.8,117.3,19.7z M113.2,19.1c-0.6,0.1-1.1,0.3-1.7,0.4c-0.5,0.1-1.1,0.2-1.5,0.4
			c-0.5,0.1-0.8,0.2-1.1,0.3l2.5-10.6l3.3,9.1C114.3,18.9,113.8,19,113.2,19.1z M142.6,6.7c-0.8,0.2-1.5,0.4-2.1,0.5
			c-0.6,0.2-1.2,0.4-1.8,0.6s-1.3,0.5-2,0.7c-0.7,0.3-1.7,0.6-2.8,0.9V7c-0.1,0-0.3,0-0.4,0c-0.2,0-0.3,0-0.5,0s-0.3,0.1-0.4,0.2
			c-0.1,0.1-0.2,0.2-0.2,0.4v1.5c0,0.7,0,1.6,0,2.5c0,1,0,2,0.1,3.2c0,1.2,0.1,2.3,0.1,3.5c0,1.2,0.1,2.3,0.2,3.4
			c0.1,1.1,0.2,2,0.3,2.9c0.1,0.8,0.2,1.5,0.4,2c0.1,0.5,0.3,0.8,0.5,0.8s0.3-0.1,0.4-0.2c0.1-0.1,0.1-0.3,0.1-0.5l-0.1-6.2
			c0-0.1,0.2-0.2,0.6-0.5c0.4-0.3,0.8-0.5,1.4-0.9c0.6-0.3,1.2-0.7,1.9-1.1s1.3-0.8,1.9-1.1c0.6-0.3,1.1-0.7,1.5-0.9
			c0.4-0.3,0.7-0.5,0.8-0.6c0-0.1,0.1-0.3,0.1-0.4c0-0.1,0.1-0.3,0.1-0.4s0-0.2-0.1-0.3s-0.1-0.1-0.3,0c0,0,0,0-0.1,0
			c0,0-0.1,0.1-0.3,0.1c-0.2,0.1-0.4,0.2-0.7,0.4s-0.8,0.4-1.3,0.8c-0.6,0.3-1.3,0.8-2.2,1.3s-2,1.1-3.2,1.9l-0.4-7.7l8.6-3.2
			c0.2-0.1,0.3-0.3,0.3-0.5c0-0.1,0-0.2-0.1-0.3C142.8,6.8,142.7,6.7,142.6,6.7z M154.9,9.4c-0.5-1-1.1-1.7-1.8-2.1
			s-1.5-0.4-2.4-0.2c-0.8,0.2-1.7,0.7-2.5,1.4s-1.6,1.7-2.3,3c-0.7,1.2-1.2,2.7-1.7,4.3c-0.4,1.6-0.6,3.5-0.6,5.5
			c0,0.5,0.1,1.1,0.3,1.8c0.2,0.7,0.5,1.3,0.9,2c0.4,0.6,0.9,1.1,1.5,1.5s1.4,0.6,2.2,0.5c1.1-0.1,2.1-0.5,3-1.2s1.6-1.5,2.2-2.5
			c0.6-1,1.1-2.1,1.5-3.4c0.4-1.2,0.6-2.5,0.7-3.8c0.1-1.3,0.1-2.5-0.1-3.7C155.6,11.3,155.3,10.3,154.9,9.4z M154.3,17.1
			c-0.2,1.1-0.5,2.1-0.9,3.2s-0.9,2-1.4,2.9c-0.5,0.8-1.1,1.5-1.7,2s-1.3,0.7-1.9,0.6c-0.8-0.1-1.5-0.4-1.9-0.9
			c-0.5-0.5-0.8-1.1-1.1-1.8c-0.2-0.7-0.4-1.5-0.4-2.4s0.1-1.8,0.2-2.7c0.1-0.9,0.4-1.8,0.6-2.7c0.3-0.9,0.5-1.7,0.9-2.5
			c0.3-0.8,0.6-1.4,1-2c0.3-0.6,0.6-0.9,0.9-1.2c0.8-0.7,1.5-1.1,2.1-1.2c0.6-0.2,1.2-0.1,1.7,0.1c0.5,0.2,0.9,0.6,1.2,1.2
			c0.3,0.6,0.6,1.2,0.7,2c0.2,0.8,0.3,1.6,0.3,2.5C154.5,15.2,154.4,16.2,154.3,17.1z M160.2,16.5c0.6-0.4,1.4-0.9,2.1-1.3
			c0.8-0.5,1.5-1,2.3-1.5s1.5-1,2.2-1.5c0.6-0.5,1.2-1,1.5-1.5c0.4-0.5,0.6-0.9,0.5-1.4c0-0.4-0.3-0.8-0.9-1.2
			c-0.6-0.3-1.5-0.7-2.8-0.9c-0.8-0.1-1.6-0.1-2.2,0c-0.7,0.1-1.3,0.3-1.8,0.5s-1,0.4-1.4,0.6s-0.8,0.3-1.1,0.4l-0.1-1.3
			c0-0.2-0.1-0.3-0.2-0.4c-0.3,0-0.4,0-0.6,0s-0.3,0-0.5,0.1S157,7.2,157,7.3l0.2,19.9c0,0.1,0.1,0.2,0.2,0.2
			c0.1,0.1,0.1,0.1,0.2,0.1c0.1,0,0.2,0,0.3,0s0.3-0.2,0.5-0.3v-7.9l10.3,6.1c0.3,0,0.5-0.1,0.7-0.3c0.2-0.2,0.3-0.5,0.3-0.7
			l-11-6.7C159,17.3,159.5,16.9,160.2,16.5z M158.5,13.2c0-0.5,0-1,0-1.4s0-0.8,0.1-1.1c0.3-0.4,0.7-0.8,1.3-1
			c0.5-0.3,1.1-0.5,1.8-0.7c0.6-0.2,1.3-0.3,1.9-0.3c0.6-0.1,1.2-0.1,1.7,0c0.8,0.2,1.4,0.4,1.7,0.7s0.3,0.6,0.2,0.9
			c-0.1,0.3-0.4,0.7-0.9,1.1c-0.5,0.4-1,0.8-1.6,1.2s-1.3,0.8-1.9,1.2c-0.7,0.4-1.3,0.7-1.9,1.1c-0.6,0.3-1.1,0.6-1.5,0.8
			s-0.7,0.4-0.7,0.4v-2.9H158.5z M185.4,16.9c-0.2-1.7-0.3-3.4-0.4-5c-0.1-1.6-0.3-3.2-0.4-4.6c0-0.3-0.1-0.4-0.3-0.5
			c-0.1-0.1-0.3-0.2-0.4-0.2c-0.1,0-0.3,0-0.4,0.1c-0.1,0.1-0.2,0.2-0.2,0.3c-0.6,2-1.2,3.6-1.6,5c-0.4,1.4-0.8,2.5-1.1,3.4
			c-0.3,0.9-0.5,1.6-0.7,2.1s-0.3,0.9-0.4,1.1c-0.1,0.2-0.2,0.4-0.2,0.5s-0.1,0.1-0.2,0.1c-0.5-0.6-0.9-1.3-1.2-2
			c-0.4-0.8-0.7-1.6-1.1-2.5c-0.4-0.9-0.8-1.7-1.1-2.6c-0.4-0.9-0.8-1.7-1.3-2.4s-1-1.4-1.5-1.9c-0.6-0.5-1.2-0.9-1.9-1.1
			c-0.2,0-0.3,0-0.5,0.1c-0.1,0.1-0.2,0.3-0.2,0.6c0.3,1.6,0.5,3.2,0.6,4.9s0.2,3.3,0.3,5c0.1,1.7,0.2,3.3,0.3,5s0.2,3.3,0.5,4.9
			c0.2,0.2,0.3,0.4,0.5,0.4s0.4,0,0.5,0c0.1-0.1,0.2-0.2,0.3-0.4c0.1-0.2,0.1-0.3,0-0.5c0-1.3-0.1-2.6-0.2-4.1
			c-0.1-1.5-0.3-3-0.5-4.5s-0.3-3-0.5-4.5c-0.1-1.5-0.2-2.8-0.2-4.1c0.3,0.2,0.7,0.6,1.1,1.1c0.4,0.5,0.8,1.2,1.1,1.9
			c0.4,0.7,0.8,1.5,1.2,2.3s0.7,1.6,1.1,2.4c0.4,0.8,0.7,1.5,1,2.2s0.6,1.2,0.8,1.6c0.2,0.5,0.4,0.8,0.7,0.8c0.2,0,0.5-0.3,0.8-0.7
			c0.3-0.4,0.6-1,0.8-1.7c0.3-0.7,0.6-1.5,0.8-2.4c0.3-0.8,0.5-1.7,0.8-2.5c0.2-0.9,0.5-1.6,0.7-2.3s0.4-1.2,0.5-1.7
			c0.1-0.4,0.2-0.6,0.3-0.6l1.5,17.6c0.2,0.1,0.3,0.2,0.5,0.3c0.2,0.1,0.3,0.1,0.5,0.2c0.2,0,0.3,0,0.4-0.1c0.1-0.1,0.2-0.2,0.2-0.5
			c-0.3-1.7-0.5-3.4-0.7-5.1C185.7,20.3,185.6,18.6,185.4,16.9z M199.3,14c0-1.7,0.1-3.1,0.2-4.2c0.1-1.1,0.1-1.9,0.1-2.3
			c0-0.1-0.1-0.2-0.2-0.3c-0.1-0.1-0.2-0.1-0.4-0.2c-0.1,0-0.3,0-0.4,0.1c-0.1,0.1-0.3,0.2-0.4,0.4c0,0.2,0,0.6,0,1.2
			c0,0.6,0,1.4-0.1,2.2c0,0.9-0.1,1.8-0.2,2.9c-0.1,1.1-0.2,2.2-0.4,3.3c-0.2,1.1-0.3,2.2-0.6,3.2c-0.2,1-0.5,2-0.8,2.8
			s-0.7,1.5-1.1,2c-0.4,0.5-0.9,0.8-1.4,0.8c-0.3-0.1-0.7-0.3-1.1-0.6c-0.4-0.3-0.8-0.7-1.2-1.3c-0.4-0.6-0.8-1.3-1.1-2.2
			c-0.4-0.9-0.6-2-0.8-3.3s-0.3-2.9-0.3-4.7s0.2-3.8,0.5-6.2c0-0.1-0.1-0.2-0.3-0.3c-0.2-0.1-0.4-0.1-0.6-0.1
			c-0.2,0-0.4,0.1-0.5,0.2C188,7.5,187.9,7.7,188,8c0,0.3-0.1,0.7-0.1,1.4c0,0.6-0.1,1.4-0.1,2.3c0,0.9,0,1.9,0,2.9
			c0,1.1,0.1,2.1,0.3,3.2s0.3,2.2,0.6,3.2s0.6,2,1,2.8c0.4,0.9,0.9,1.6,1.5,2.2s1.3,1,2.1,1.2c0.8,0,1.4-0.2,2-0.7s1-1.1,1.4-1.8
			c0.4-0.7,0.7-1.5,1-2.3s0.5-1.5,0.6-2.2l0.7,7.3c0.1,0,0.2,0,0.4,0s0.3,0,0.4,0c0.1,0,0.3-0.1,0.4-0.2c0.1-0.1,0.2-0.2,0.2-0.4
			c-0.5-2.5-0.7-4.9-0.9-7.1C199.3,17.7,199.3,15.7,199.3,14z M213.8,23.4l-10.2,2.2l-0.7-17.5c0-0.4-0.1-0.6-0.2-0.8
			c-0.1-0.2-0.3-0.3-0.4-0.3c-0.2,0-0.3,0.1-0.4,0.2c-0.1,0.1-0.2,0.3-0.2,0.6c0,0.2,0,0.6,0,1.3s0.1,1.7,0.1,3.1s0.1,3.2,0.2,5.5
			c0.1,2.3,0.1,5.1,0.2,8.5c0,0.7,0.2,1,0.7,1l11.8-2.5C215,23.8,214.8,23.4,213.8,23.4z M219.5,6c0.2-0.2,0.4-0.4,0.7-0.6
			s0.5-0.5,0.8-0.7c0.2-0.2,0.5-0.5,0.6-0.7c0.2-0.2,0.3-0.5,0.3-0.7V3.1c0-0.2-0.1-0.4-0.2-0.5c-0.1-0.2-0.3-0.2-0.6-0.2
			c-0.4,0.4-0.8,0.7-1.2,1.1s-0.7,0.8-0.9,1.1c-0.2,0.3-0.3,0.6-0.3,0.9C218.7,5.7,219,5.9,219.5,6z M226.8,19.7
			c0.1,0,0.3-0.1,0.5-0.1s0.4-0.1,0.6-0.2c0.2-0.1,0.4-0.1,0.5-0.2c0.3-0.1,0.5-0.3,0.7-0.4c0.1-0.2,0.2-0.4,0.2-0.5
			c0-0.2-0.1-0.3-0.2-0.4c-0.1-0.1-0.3-0.2-0.5-0.2l-2.4,0.7L221.6,7c0-0.1,0-0.2-0.2-0.3c-0.1-0.1-0.3-0.1-0.4-0.2
			c-0.2,0-0.3,0-0.5,0c-0.2,0.1-0.3,0.2-0.4,0.3c-0.8,3.5-1.4,6.5-2,8.9s-1.1,4.4-1.4,6c-0.4,1.6-0.7,2.8-0.9,3.6
			c-0.2,0.8-0.4,1.4-0.5,1.8c0.4,0.3,0.7,0.5,0.9,0.6s0.5,0,0.8-0.3c0.1-0.7,0.2-1.3,0.3-2c0.1-0.5,0.2-1,0.2-1.5
			c0.1-0.5,0.1-0.9,0.2-1.1c0.1-0.3,0.2-0.6,0.6-0.9c0.3-0.2,0.7-0.5,1.1-0.6c0.5-0.2,0.9-0.3,1.5-0.4c0.5-0.1,1.1-0.2,1.6-0.3
			c0.5-0.1,1-0.2,1.5-0.3s0.9-0.2,1.2-0.3l2.7,7c0.3,0.2,0.6,0.3,0.8,0.3s0.3,0,0.4-0.1c0.1-0.1,0.2-0.2,0.2-0.3
			c0-0.1,0.1-0.2,0.1-0.3l-2.6-7.1C226.6,19.8,226.6,19.8,226.8,19.7z M222.7,19.1c-0.6,0.1-1.1,0.3-1.7,0.4
			c-0.5,0.1-1.1,0.2-1.5,0.4c-0.5,0.1-0.8,0.2-1.1,0.3l2.5-10.6l3.3,9.1C223.8,18.9,223.3,19,222.7,19.1z M233.7,16.5
			c0.6-0.4,1.4-0.9,2.1-1.3c0.8-0.5,1.5-1,2.3-1.5s1.5-1,2.2-1.5c0.6-0.5,1.2-1,1.5-1.5c0.4-0.5,0.6-0.9,0.5-1.4
			c0-0.4-0.3-0.8-0.9-1.2c-0.6-0.3-1.5-0.7-2.8-0.9c-0.8-0.1-1.6-0.1-2.2,0c-0.7,0.1-1.3,0.3-1.8,0.5s-1,0.4-1.4,0.6
			s-0.8,0.3-1.1,0.4L232,7.4c0-0.2-0.1-0.3-0.2-0.4c-0.2,0-0.4,0-0.6,0s-0.3,0-0.5,0.1c-0.1,0.1-0.2,0.2-0.3,0.3l0.2,19.9
			c0,0.1,0.1,0.2,0.2,0.2c0.1,0.1,0.1,0.1,0.2,0.1c0.1,0,0.2,0,0.3,0s0.3-0.2,0.5-0.3v-7.9l10.3,6.1c0.3,0,0.5-0.1,0.7-0.3
			c0.2-0.2,0.3-0.5,0.3-0.7l-11-6.7C232.5,17.3,233,16.9,233.7,16.5z M232,13.2c0-0.5,0-1,0-1.4s0-0.8,0.1-1.1
			c0.3-0.4,0.7-0.8,1.3-1c0.5-0.3,1.1-0.5,1.8-0.7c0.6-0.2,1.3-0.3,1.9-0.3c0.6-0.1,1.2-0.1,1.7,0c0.8,0.2,1.4,0.4,1.7,0.7
			s0.3,0.6,0.2,0.9c-0.1,0.3-0.4,0.7-0.9,1.1c-0.5,0.4-1,0.8-1.6,1.2s-1.3,0.8-1.9,1.2c-0.7,0.4-1.3,0.7-1.9,1.1
			c-0.6,0.3-1.1,0.6-1.5,0.8s-0.7,0.4-0.7,0.4v-2.9H232z"/>
	</g>
</g>
</svg>
