<?xml version="1.0" encoding="utf-8"?>
<!-- Generator: Adobe Illustrator 22.0.1, SVG Export Plug-In . SVG Version: 6.00 Build 0)  -->
<svg version="1.1" id="Layer_1" xmlns="http://www.w3.org/2000/svg" xmlns:xlink="http://www.w3.org/1999/xlink" x="0px" y="0px"
	 viewBox="0 0 228.9 143" style="enable-background:new 0 0 228.9 143;" xml:space="preserve">
<style type="text/css">
	.st0{fill:#FFFFFF;}
</style>
<g>
	<g>
		<path class="st0" d="M155.3,124.3c0,0.5,0.3,0.9,0.8,1l16.4,1.6c-5.1,2.8-18,8.2-31.7,1.6c-9.4-4.5-14.9-10.9-16.4-18.9
			c-1.1-6,0.6-10.7,0.6-10.8c0.2-0.5-0.1-1-0.5-1.2c-0.5-0.2-1,0.1-1.2,0.5c-0.1,0.2-1.9,5.2-0.7,11.6c1.1,5.9,4.9,14.3,17.4,20.3
			c5.1,2.5,10.1,3.3,14.6,3.3c4,0,7.5-0.7,10.4-1.5c2.2-0.6,4.1-1.4,5.7-2.1l-11.1,11.6c-0.3,0.4-0.3,0.9,0,1.3
			c0.2,0.2,0.4,0.3,0.6,0.3c0.2,0,0.5-0.1,0.7-0.3l16.4-17.2l-21-2C155.8,123.5,155.3,123.8,155.3,124.3z M41.6,34.2
			c0.1-0.7,0.1-1.3,0.1-1.9c0-0.5,0.1-1,0.1-1.5c0-0.5,0.1-0.9,0.1-1.1c0-0.3,0.2-0.7,0.5-0.9c0.3-0.3,0.6-0.5,1.1-0.7
			c0.4-0.2,0.9-0.4,1.4-0.6c0.5-0.2,1-0.3,1.6-0.5c0.5-0.1,1-0.3,1.5-0.4c0.5-0.1,0.9-0.3,1.2-0.4l3.4,6.6c0.4,0.2,0.6,0.3,0.8,0.3
			c0.2,0,0.3,0,0.4-0.1c0.1-0.1,0.1-0.2,0.2-0.3c0-0.1,0-0.2,0.1-0.3l-3.3-6.6c0,0,0.1-0.1,0.2-0.2c0.1-0.1,0.3-0.1,0.5-0.2
			c0.2-0.1,0.4-0.1,0.6-0.2c0.2-0.1,0.4-0.1,0.5-0.2c0.3-0.1,0.5-0.3,0.6-0.5c0.1-0.2,0.1-0.4,0.1-0.5c0-0.2-0.1-0.3-0.3-0.4
			c-0.2-0.1-0.3-0.1-0.5-0.1l-2.3,1l-5.7-10.7c0-0.1-0.1-0.2-0.2-0.3c-0.1-0.1-0.3-0.1-0.4-0.1c-0.2,0-0.3,0-0.5,0.1
			c-0.2,0.1-0.3,0.2-0.4,0.4c-0.4,3.5-0.8,6.5-1.1,8.9c-0.3,2.4-0.6,4.4-0.8,6c-0.2,1.6-0.4,2.8-0.6,3.6c-0.2,0.8-0.3,1.5-0.3,1.8
			c0.4,0.3,0.7,0.4,0.9,0.5C41.1,34.6,41.3,34.5,41.6,34.2z M44,16.2l4.2,8.6c-0.4,0.2-0.9,0.4-1.5,0.5c-0.5,0.2-1.1,0.4-1.6,0.5
			c-0.5,0.2-1,0.3-1.5,0.5c-0.5,0.2-0.8,0.3-1.1,0.4L44,16.2z M55.5,32.6c0.2-0.1,0.3-0.4,0.3-0.7c0-0.2,0-0.5,0-0.8
			c0-0.3,0-0.7,0-1.1c0-0.4,0-0.7-0.1-1.1c0-0.3-0.1-0.6-0.1-0.9l9.5,3.3c0.3,0,0.6-0.1,0.7-0.4c0.1-0.2,0.2-0.5,0.2-0.8l-10.2-3.7
			c0.2-0.9,0.5-1.9,0.9-2.8c0.4-0.9,0.9-1.9,1.6-3c0.6-1.1,1.4-2.4,2.3-3.8c0.9-1.4,2-3,3.1-4.9c-0.2-0.3-0.5-0.4-0.8-0.2
			c-0.4,0.2-0.7,0.5-1.2,0.9c-0.4,0.5-0.9,1-1.4,1.7c-0.5,0.7-1,1.5-1.4,2.3c-0.5,0.8-0.9,1.6-1.4,2.4c-0.4,0.8-0.8,1.6-1.2,2.2
			c-0.4,0.7-0.6,1.3-0.9,1.7c-0.2,0.5-0.4,0.8-0.4,0.9c-0.2-1.5-0.3-2.9-0.4-4.1c-0.1-1.2-0.2-2.1-0.3-3c-0.1-0.8-0.2-1.5-0.2-2
			c-0.1-0.5-0.1-0.9-0.2-1.2c0-0.3-0.1-0.5-0.1-0.6c-0.1-0.1-0.1-0.2-0.2-0.2c-0.1-0.1-0.3-0.2-0.4-0.2c-0.1,0-0.2,0.1-0.3,0.2
			c-0.1,0.1-0.2,0.2-0.3,0.4c-0.1,0.2-0.1,0.3-0.1,0.5l2.2,18.8C55,32.7,55.2,32.8,55.5,32.6z M66.5,27.2c0.3,0.7,0.6,1.3,1.1,1.8
			c0.5,0.6,1,1,1.7,1.3c0.7,0.3,1.4,0.4,2.3,0.3c1.1-0.2,2-0.7,2.8-1.4c0.8-0.7,1.4-1.6,2-2.7c0.5-1,0.9-2.2,1.1-3.4
			c0.2-1.2,0.3-2.5,0.3-3.8c0-1.3-0.2-2.5-0.5-3.6c-0.3-1.2-0.7-2.2-1.2-3c-0.6-0.9-1.2-1.6-2-1.8c-0.8-0.3-1.6-0.3-2.4,0
			c-0.8,0.3-1.6,0.8-2.4,1.7c-0.8,0.8-1.4,1.9-2,3.1c-0.6,1.3-1,2.7-1.2,4.4c-0.3,1.6-0.3,3.4-0.1,5.4
			C66.1,25.9,66.2,26.5,66.5,27.2z M67.4,22.2c0.1-0.9,0.2-1.8,0.3-2.7c0.2-0.9,0.4-1.8,0.6-2.5c0.2-0.8,0.5-1.5,0.8-2
			c0.3-0.6,0.5-1,0.8-1.2c0.7-0.7,1.4-1.2,2-1.4c0.6-0.2,1.2-0.2,1.7,0c0.5,0.2,0.9,0.5,1.3,1c0.4,0.5,0.7,1.1,0.9,1.9
			c0.2,0.7,0.4,1.5,0.5,2.4c0.1,0.9,0.1,1.8,0,2.8c-0.1,1.1-0.3,2.1-0.6,3.2s-0.7,2.1-1.1,2.9c-0.4,0.9-1,1.6-1.5,2.1
			c-0.6,0.5-1.2,0.8-1.8,0.8c-0.8,0-1.5-0.2-2-0.7c-0.5-0.4-0.9-0.9-1.2-1.6c-0.3-0.7-0.5-1.4-0.6-2.3C67.3,24,67.3,23.1,67.4,22.2z
			 M90.2,13.2c0.1,0.1,0.2,0.1,0.4,0.1c0.1,0,0.2-0.1,0.3-0.2c0.1-0.1,0.2-0.2,0.3-0.3c0.1-0.1,0.2-0.2,0.3-0.4
			c0.1-0.1,0.2-0.2,0.2-0.3c0.2,1.1,0.4,2.3,0.5,3.5c0.1,1.2,0.2,2.5,0.3,3.8c0.1,1.3,0.2,2.7,0.3,4.2c0.1,1.4,0.2,3,0.4,4.6
			c0.1,0.1,0.2,0.1,0.3,0.2c0.1,0,0.3,0.1,0.4,0.1c0.1,0,0.3,0,0.4-0.1c0.1-0.1,0.1-0.2,0.1-0.3l-0.5-7.8c0,0,0.2-0.2,0.6-0.4
			c0.4-0.2,0.9-0.6,1.6-1c0.6-0.4,1.4-0.9,2.1-1.5c0.8-0.6,1.5-1.2,2.1-1.9c0.6-0.7,1.2-1.4,1.6-2.2c0.4-0.8,0.6-1.6,0.5-2.5
			c-0.2-0.6-0.5-1.2-0.8-1.6c-0.4-0.4-0.8-0.7-1.3-0.9c-0.5-0.2-1.1-0.3-1.7-0.3c-0.6,0-1.2,0.1-1.8,0.2c-0.6,0.1-1.2,0.4-1.8,0.7
			c-0.6,0.3-1.1,0.6-1.6,1C93,10,92.9,9.9,92.8,9.8c-0.1-0.1-0.1-0.2-0.2-0.3c-0.1-0.1-0.1-0.2-0.2-0.3c-0.1-0.1-0.2-0.1-0.4-0.1
			c-0.2,0-0.3,0.2-0.5,0.5c-0.2,0.3-0.4,0.7-0.6,1.1c-0.2,0.4-0.4,0.8-0.5,1.2c-0.2,0.4-0.3,0.7-0.4,0.9c0,0,0,0.1,0,0.1l0,0.1
			C90,13,90.1,13.1,90.2,13.2z M95.2,10.1c0.8-0.4,1.7-0.7,2.4-0.7c0.8-0.1,1.5,0.1,2.1,0.4c0.6,0.3,1,0.9,1.2,1.8
			c-0.1,0.9-0.4,1.6-0.9,2.3c-0.5,0.7-1.1,1.3-1.8,1.9c-0.7,0.6-1.4,1.1-2.3,1.6c-0.8,0.5-1.6,0.9-2.4,1.3l-0.7-7
			C93.6,11.1,94.4,10.6,95.2,10.1z M105.3,27.6c0.1,0.1,0.1,0.1,0.2,0.1c0.1,0,0.2,0,0.3-0.1c0.1-0.1,0.3-0.2,0.4-0.4l-0.8-7.7
			l10.9,4.9c0.3,0,0.5-0.1,0.7-0.4c0.2-0.2,0.3-0.5,0.2-0.7l-11.6-5.5c0.3-0.4,0.7-0.8,1.3-1.3c0.6-0.5,1.3-1,2-1.5
			c0.7-0.5,1.4-1.1,2.2-1.7c0.7-0.6,1.4-1.1,2-1.7c0.6-0.5,1-1.1,1.4-1.6c0.3-0.5,0.5-1,0.4-1.4c-0.1-0.4-0.4-0.8-1-1
			c-0.6-0.3-1.6-0.5-2.9-0.6c-0.8,0-1.6,0.1-2.2,0.3c-0.7,0.2-1.2,0.4-1.8,0.6c-0.5,0.2-1,0.5-1.4,0.7c-0.4,0.2-0.7,0.4-1,0.5
			L104.3,8c-0.1-0.2-0.1-0.3-0.3-0.4c-0.1-0.1-0.3-0.1-0.4-0.1c-0.2,0-0.3,0.1-0.5,0.1c-0.1,0.1-0.2,0.2-0.3,0.3l2.2,19.5
			C105.1,27.5,105.2,27.6,105.3,27.6z M104.8,12.1c0-0.4,0-0.8,0-1.1c0.3-0.4,0.7-0.8,1.2-1.2c0.5-0.3,1.1-0.6,1.7-0.8
			c0.6-0.2,1.2-0.4,1.9-0.5c0.6-0.1,1.2-0.2,1.6-0.2c0.9,0.1,1.4,0.2,1.7,0.5c0.3,0.2,0.4,0.5,0.3,0.9c-0.1,0.4-0.4,0.8-0.8,1.2
			c-0.4,0.4-0.9,0.9-1.5,1.4c-0.6,0.5-1.2,0.9-1.8,1.4c-0.6,0.4-1.2,0.9-1.8,1.2c-0.6,0.4-1,0.7-1.4,0.9c-0.4,0.3-0.6,0.4-0.7,0.5
			c0-0.4-0.1-0.8-0.1-1.3c0-0.5-0.1-1-0.1-1.4C104.9,13,104.9,12.6,104.8,12.1z M117.9,16.2c0.2,1.6,0.3,3.1,0.4,4.7
			c0.1,1.6,0.2,3.1,0.4,4.6c0.2,0.2,0.4,0.3,0.5,0.3c0.1,0.1,0.3,0.1,0.5,0.1c0.6-0.1,1.3-0.3,2.1-0.6c0.8-0.3,1.7-0.7,2.6-1.1
			c0.9-0.4,1.7-0.8,2.5-1.2c0.8-0.4,1.5-0.8,2.1-1.1c0.2-0.1,0.3-0.2,0.3-0.3c0-0.1,0-0.2,0-0.3c-0.1-0.1-0.1-0.2-0.3-0.3
			c-0.1-0.1-0.2-0.1-0.4-0.1c-0.3,0-0.7,0.2-1.1,0.4c-0.5,0.2-1,0.4-1.5,0.7c-0.5,0.3-1.1,0.5-1.7,0.8c-0.6,0.3-1.1,0.5-1.7,0.7
			c-0.5,0.2-1,0.4-1.4,0.5c-0.4,0.1-0.8,0.1-1,0l-0.5-6.1c0-0.2,0.1-0.5,0.5-0.7c0.4-0.2,0.8-0.5,1.3-0.8c0.5-0.3,1.1-0.5,1.7-0.8
			c0.6-0.3,1.2-0.5,1.7-0.8c0.5-0.3,1-0.6,1.3-0.9c0.3-0.3,0.5-0.6,0.5-0.9c-0.2-0.2-0.3-0.3-0.5-0.3c-0.1,0-0.3,0-0.4,0.1
			c-0.1,0.1-0.3,0.2-0.4,0.4l-6.2,2.9c-0.2-1-0.4-2-0.5-3c-0.2-1-0.3-2-0.4-3l8.6-3.3c0.2-0.1,0.3-0.2,0.4-0.4
			c0.1-0.2,0.1-0.3,0.1-0.5c0-0.2-0.1-0.3-0.2-0.4c-0.1-0.1-0.2-0.2-0.4-0.2l-8.7,3.1c0-0.1,0-0.3-0.1-0.5c0-0.2-0.1-0.5-0.2-0.7
			c-0.1-0.3-0.2-0.5-0.4-0.7c-0.2-0.2-0.3-0.3-0.5-0.4c-0.1,0-0.2,0-0.4,0c-0.1,0.1-0.2,0.2-0.3,0.3c-0.1,0.1-0.2,0.2-0.2,0.3
			C116,6.9,116,7,116,7.1c0.5,1.5,0.9,3,1.2,4.5C117.5,13.1,117.7,14.7,117.9,16.2z M129.4,7.4l1.7,17.5c0,0,0,0,0.1,0
			c0.1,0,0.1,0,0.2,0c0.4,0,0.6-0.1,0.7-0.3c0.1-0.2,0.1-0.5,0.1-0.9c0-0.5,0-1,0-1.5c0-0.5-0.1-1-0.1-1.6c0-0.5-0.1-1-0.1-1.6
			c0-0.5,0-1,0-1.5c0.1-0.5,0.3-1,0.8-1.4c0.5-0.5,1-0.9,1.7-1.3c0.6-0.4,1.3-0.7,2.1-1c0.7-0.3,1.4-0.5,2-0.5
			c0.6-0.1,1.1,0,1.5,0.2c0.4,0.2,0.6,0.6,0.6,1.1c0,0.4-0.2,0.9-0.6,1.5c-0.3,0.6-0.8,1.2-1.3,1.8c-0.5,0.6-1.1,1.3-1.7,1.9
			c-0.6,0.6-1.2,1.2-1.7,1.7c-0.5,0.5-1,0.9-1.4,1.2c-0.4,0.3-0.6,0.5-0.7,0.5l0.7,0.9c0.2,0,0.4-0.1,0.7-0.3
			c0.3-0.2,0.7-0.5,1.2-0.8c0.4-0.4,0.9-0.8,1.4-1.3c0.5-0.5,1-1,1.5-1.6c0.5-0.6,1-1.2,1.4-1.8c0.4-0.6,0.8-1.2,1.1-1.8
			c0.3-0.6,0.6-1.1,0.7-1.7c0.2-0.5,0.2-1,0.1-1.4c-0.3-0.6-0.7-1.1-1.3-1.3c-0.6-0.2-1.2-0.3-1.9-0.3c-0.7,0-1.4,0.1-2.1,0.4
			c-0.7,0.2-1.3,0.5-1.8,0.7c0.1-0.2,0.3-0.5,0.6-0.8c0.3-0.3,0.5-0.7,0.8-1.1c0.3-0.4,0.6-0.9,0.9-1.3c0.3-0.5,0.6-0.9,0.8-1.4
			c0.2-0.5,0.4-1,0.5-1.4c0.1-0.5,0.2-0.9,0.1-1.3c0-0.2-0.1-0.4-0.2-0.6c-0.1-0.1-0.3-0.3-0.5-0.4c-0.2-0.1-0.4-0.2-0.7-0.2
			c-0.2,0-0.4-0.1-0.6-0.1c-0.5,0-1.1,0.1-1.6,0.2c-0.6,0.1-1.1,0.3-1.6,0.6c-0.5,0.2-1,0.5-1.5,0.8c-0.5,0.3-0.9,0.6-1.3,0.9
			c0-0.1-0.1-0.2-0.1-0.3c-0.1-0.1-0.1-0.3-0.2-0.4c-0.1-0.1-0.2-0.3-0.3-0.4c-0.1-0.1-0.2-0.2-0.3-0.2c-0.2,0-0.3-0.1-0.4,0
			c-0.1,0-0.2,0.1-0.2,0.1c0,0.1-0.1,0.1-0.1,0.2c0,0.1,0,0.2,0,0.3c0,0.3,0,0.5,0.1,0.7C129.2,7,129.2,7.2,129.4,7.4z M131,9.1
			c0-0.4,0.1-0.7,0.3-1c0.2-0.3,0.5-0.6,0.8-0.9c0.3-0.3,0.7-0.5,1.1-0.7c0.4-0.2,0.8-0.4,1.3-0.5c0.4-0.1,0.8-0.2,1.2-0.3
			c0.4-0.1,0.7-0.1,1-0.1c0.3,0.2,0.5,0.6,0.4,1c0,0.5-0.2,1-0.5,1.5c-0.3,0.6-0.7,1.2-1.1,1.8c-0.5,0.6-1,1.2-1.5,1.8
			c-0.5,0.6-1,1.1-1.4,1.6c-0.4,0.5-0.8,0.8-1.1,1.1c-0.1-0.3-0.2-0.7-0.3-1.2c-0.1-0.5-0.2-1-0.2-1.5c-0.1-0.5-0.1-1-0.1-1.5
			C131,9.8,130.9,9.4,131,9.1z M145,23.5c0.1,0,0.3,0,0.4,0c0.1,0,0.2-0.1,0.3-0.2c0.1-0.1,0.1-0.2,0.1-0.4l-2.3-19
			c-0.1-0.1-0.2-0.1-0.3-0.2c-0.1,0-0.3-0.1-0.4-0.1c-0.1,0-0.3,0-0.4,0.1c-0.1,0.1-0.2,0.1-0.3,0.2l2.5,19.4
			C144.8,23.4,144.9,23.5,145,23.5z M147.1,13.3c0.2,1.6,0.3,3.1,0.4,4.7c0.1,1.6,0.2,3.1,0.4,4.6c0.2,0.2,0.4,0.3,0.5,0.3
			c0.1,0.1,0.3,0.1,0.5,0.1c0.6-0.1,1.3-0.3,2.1-0.6c0.8-0.3,1.7-0.7,2.6-1.1c0.9-0.4,1.7-0.8,2.5-1.2c0.8-0.4,1.5-0.8,2.1-1.1
			c0.2-0.1,0.3-0.2,0.3-0.3c0-0.1,0-0.2,0-0.3c-0.1-0.1-0.1-0.2-0.3-0.3c-0.1-0.1-0.2-0.1-0.4-0.1c-0.3,0-0.7,0.2-1.1,0.4
			c-0.5,0.2-1,0.4-1.5,0.7c-0.5,0.3-1.1,0.5-1.7,0.8c-0.6,0.3-1.1,0.5-1.7,0.7c-0.5,0.2-1,0.4-1.4,0.5c-0.4,0.1-0.8,0.1-1,0
			l-0.5-6.1c0-0.2,0.1-0.5,0.5-0.7c0.4-0.2,0.8-0.5,1.3-0.8c0.5-0.3,1.1-0.5,1.7-0.8c0.6-0.3,1.2-0.5,1.7-0.8c0.5-0.3,1-0.6,1.3-0.9
			c0.3-0.3,0.5-0.6,0.5-0.9c-0.2-0.2-0.3-0.3-0.5-0.3c-0.1,0-0.3,0-0.4,0.1c-0.1,0.1-0.3,0.2-0.4,0.4l-6.2,2.9c-0.2-1-0.4-2-0.5-3
			c-0.2-1-0.3-2-0.4-3l8.6-3.3c0.2-0.1,0.3-0.2,0.4-0.4c0.1-0.2,0.1-0.3,0.1-0.5c0-0.2-0.1-0.3-0.2-0.4c-0.1-0.1-0.2-0.2-0.4-0.2
			l-8.7,3.1c0-0.1,0-0.3-0.1-0.5c0-0.2-0.1-0.5-0.2-0.7c-0.1-0.3-0.2-0.5-0.4-0.7c-0.2-0.2-0.3-0.3-0.5-0.4c-0.1,0-0.2,0-0.4,0
			c-0.1,0.1-0.2,0.2-0.3,0.3c-0.1,0.1-0.2,0.2-0.2,0.3c-0.1,0.1-0.1,0.2-0.1,0.3c0.5,1.5,0.9,3,1.2,4.5
			C146.7,10.1,146.9,11.7,147.1,13.3z M160.3,22c0.1,0,0.2,0,0.3,0c0.2,0,0.4-0.1,0.6-0.4c0.1-0.2,0.2-0.4,0.2-0.7
			c0-0.3-0.1-0.7-0.2-1.1c-0.1-0.4-0.2-0.9-0.2-1.4c-0.1-0.5-0.1-1-0.2-1.5c-0.1-0.5-0.1-1-0.1-1.5c0-0.5,0.1-0.9,0.2-1.3
			c0.1-0.4,0.3-0.7,0.5-0.9c0.1-0.1,0.3-0.2,0.7-0.4c0.3-0.2,0.7-0.4,1.1-0.6c0.4-0.2,0.8-0.4,1.3-0.6c0.5-0.2,0.9-0.4,1.3-0.6
			c0.4-0.2,0.8-0.4,1.1-0.5c0.3-0.2,0.5-0.3,0.6-0.4c0,0.2,0.1,0.5,0.1,1c0,0.5,0.1,1,0.2,1.7c0.1,0.6,0.1,1.3,0.2,2
			c0.1,0.7,0.1,1.4,0.2,2c0.1,0.6,0.1,1.2,0.2,1.7c0,0.5,0.1,0.8,0.1,1c0,0.3,0.1,0.6,0.2,0.9c0.1,0.3,0.2,0.5,0.6,0.7
			c0.2-0.1,0.3-0.2,0.4-0.3c0.1-0.1,0.2-0.2,0.2-0.3c0-0.1,0-0.3,0-0.4c0-0.1,0-0.3,0-0.4c0-0.3,0-0.8-0.1-1.3
			c0-0.6-0.1-1.1-0.2-1.7c-0.1-0.6-0.1-1.2-0.2-1.7c-0.1-0.5-0.1-1-0.2-1.3c0-0.3-0.1-0.7-0.1-1.2c-0.1-0.6-0.2-1.2-0.2-1.9
			c-0.1-0.7-0.2-1.4-0.3-2.2c-0.1-0.8-0.2-1.5-0.3-2.2c-0.1-0.7-0.2-1.3-0.2-1.9c-0.1-0.6-0.1-1-0.2-1.2c0-0.2,0-0.4-0.1-0.6
			c0-0.2-0.1-0.4-0.2-0.5c-0.1-0.2-0.2-0.3-0.3-0.4c-0.1-0.1-0.3-0.1-0.5-0.1c-0.2,0-0.4,0.1-0.5,0.2c-0.1,0.1-0.2,0.3-0.1,0.6
			c0.2,0.5,0.3,0.9,0.4,1.3c0.1,0.4,0.2,0.7,0.2,1c0.1,0.3,0.1,0.6,0.1,1c0,0.3,0.1,0.7,0.1,1.1c0,0.8-0.1,1.5-0.5,2
			c-0.4,0.5-0.9,1-1.5,1.3c-0.6,0.4-1.3,0.7-2.1,1c-0.8,0.3-1.5,0.7-2.2,1.1c-0.2-0.6-0.3-1.3-0.4-2.1c-0.1-0.8-0.2-1.7-0.3-2.6
			c-0.1-0.9-0.2-1.8-0.3-2.7c-0.1-0.9-0.2-1.7-0.3-2.3c-0.1-0.1-0.3-0.1-0.4-0.2c-0.2,0-0.3-0.1-0.5,0c-0.1,0-0.2,0.1-0.3,0.2
			c-0.1,0.1-0.1,0.3-0.1,0.5l2,19C160.1,21.9,160.1,22,160.3,22z M172,20.9c0.1-0.7,0.1-1.3,0.1-1.9c0-0.5,0.1-1,0.1-1.5
			c0-0.5,0.1-0.9,0.1-1.1c0-0.3,0.2-0.7,0.5-0.9c0.3-0.3,0.6-0.5,1.1-0.7c0.4-0.2,0.9-0.4,1.4-0.6c0.5-0.2,1-0.3,1.6-0.5
			c0.5-0.1,1-0.3,1.5-0.4c0.5-0.1,0.9-0.3,1.2-0.4l3.4,6.6c0.4,0.2,0.6,0.3,0.8,0.3c0.2,0,0.3,0,0.4-0.1c0.1-0.1,0.1-0.2,0.2-0.3
			c0-0.1,0-0.2,0.1-0.3l-3.3-6.6c0,0,0.1-0.1,0.2-0.2c0.1-0.1,0.3-0.1,0.5-0.2c0.2-0.1,0.4-0.1,0.6-0.2c0.2-0.1,0.4-0.1,0.5-0.2
			c0.3-0.1,0.5-0.3,0.6-0.5c0.1-0.2,0.1-0.4,0.1-0.5c0-0.2-0.1-0.3-0.3-0.4c-0.2-0.1-0.3-0.1-0.5-0.1l-2.3,1l-5.7-10.7
			c0-0.1-0.1-0.2-0.2-0.3C174.4,0,174.2,0,174.1,0c-0.2,0-0.3,0-0.5,0.1c-0.2,0.1-0.3,0.2-0.4,0.4c-0.4,3.5-0.8,6.5-1.1,8.9
			c-0.3,2.4-0.6,4.4-0.8,6c-0.2,1.6-0.4,2.8-0.6,3.6c-0.2,0.8-0.3,1.5-0.3,1.8c0.4,0.3,0.7,0.4,0.9,0.5
			C171.5,21.4,171.7,21.2,172,20.9z M174.4,2.9l4.2,8.6c-0.4,0.2-0.9,0.4-1.5,0.5c-0.5,0.2-1.1,0.4-1.6,0.5c-0.5,0.2-1,0.3-1.5,0.5
			c-0.5,0.2-0.8,0.3-1.1,0.4L174.4,2.9z M9.7,58.8c-0.3-1.4-0.6-2.8-0.9-4.2c-0.3-1.4-0.7-2.8-1.1-4.1c-0.4-1.4-0.7-2.7-1.1-3.9
			c-0.2-0.2-0.3-0.3-0.5-0.3c-0.2,0-0.3,0.1-0.5,0.2c-0.1,0.1-0.2,0.3-0.3,0.5c-0.1,0.2,0,0.4,0.1,0.5c0,0.2,0.1,0.5,0.2,1
			c0.1,0.5,0.3,1.2,0.5,1.9c0.2,0.8,0.4,1.6,0.7,2.6c0.3,0.9,0.5,1.9,0.8,2.9c0.2,1,0.5,2,0.7,2.9c0.2,1,0.4,1.9,0.5,2.7
			C8.9,62.4,9,63.2,9,63.8c0,0.6-0.1,1.1-0.2,1.5c-0.4,0.5-0.9,0.9-1.4,1c-0.5,0.2-1.1,0.2-1.7,0.1c-0.6-0.1-1.1-0.3-1.7-0.6
			c-0.6-0.3-1.1-0.7-1.5-1.1c-0.4-0.4-0.8-0.9-1.1-1.3c-0.3-0.5-0.4-0.9-0.4-1.3c0-0.1,0-0.3-0.1-0.3c-0.1-0.1-0.2-0.1-0.3-0.1
			c-0.1,0-0.2,0.1-0.3,0.3c-0.1,0.2-0.2,0.4-0.2,0.7c-0.1,0.4,0,0.8,0.2,1.2c0.2,0.4,0.5,0.9,0.8,1.3c0.4,0.4,0.8,0.8,1.3,1.2
			c0.5,0.4,1,0.7,1.5,1c0.5,0.3,1.1,0.5,1.6,0.7C6,68,6.5,68.1,6.9,68c0.8-0.1,1.4-0.3,1.9-0.6c0.5-0.3,0.8-0.7,1.1-1.1
			c0.3-0.5,0.4-1,0.5-1.6c0.1-0.6,0.1-1.2,0-1.9C10.2,61.5,10,60.2,9.7,58.8z M20.4,62.8c0.8-0.4,1.5-0.8,2.1-1.1
			c0.2-0.1,0.3-0.2,0.3-0.3c0-0.1,0-0.2,0-0.3c-0.1-0.1-0.1-0.2-0.3-0.3c-0.1-0.1-0.2-0.1-0.4-0.1c-0.3,0-0.7,0.2-1.1,0.4
			c-0.5,0.2-1,0.4-1.5,0.7c-0.5,0.3-1.1,0.5-1.7,0.8c-0.6,0.3-1.1,0.5-1.7,0.7c-0.5,0.2-1,0.4-1.4,0.5c-0.4,0.1-0.8,0.1-1,0
			l-0.5-6.1c0-0.2,0.1-0.5,0.5-0.7c0.4-0.2,0.8-0.5,1.3-0.8c0.5-0.3,1.1-0.5,1.7-0.8c0.6-0.3,1.2-0.5,1.7-0.8c0.5-0.3,1-0.6,1.3-0.9
			c0.3-0.3,0.5-0.6,0.5-0.9c-0.2-0.2-0.3-0.3-0.5-0.3c-0.1,0-0.3,0-0.4,0.1c-0.1,0.1-0.3,0.2-0.4,0.4l-6.2,2.9c-0.2-1-0.4-2-0.5-3
			c-0.2-1-0.3-2-0.4-3l8.6-3.3c0.2-0.1,0.3-0.2,0.4-0.4c0.1-0.2,0.1-0.3,0.1-0.5c0-0.2-0.1-0.3-0.2-0.4c-0.1-0.1-0.2-0.2-0.4-0.2
			l-8.7,3.1c0-0.1,0-0.3-0.1-0.5c0-0.2-0.1-0.5-0.2-0.7c-0.1-0.3-0.2-0.5-0.4-0.7c-0.2-0.2-0.3-0.3-0.5-0.4c-0.1,0-0.2,0-0.4,0
			c-0.1,0.1-0.2,0.2-0.3,0.3c-0.1,0.1-0.2,0.2-0.2,0.3c-0.1,0.1-0.1,0.2-0.1,0.3c0.5,1.5,0.9,3,1.2,4.5c0.3,1.5,0.5,3.1,0.7,4.7
			c0.2,1.6,0.3,3.1,0.4,4.7c0.1,1.6,0.2,3.1,0.4,4.6c0.2,0.2,0.4,0.3,0.5,0.3c0.1,0.1,0.3,0.1,0.5,0.1c0.6-0.1,1.3-0.3,2.1-0.6
			c0.8-0.3,1.7-0.7,2.6-1.1C18.7,63.6,19.6,63.2,20.4,62.8z M22.7,48.3c0.1,0,0.2,0,0.3,0c0,0,0,0,0.1,0c0,0,0.1,0,0.1,0
			c0,0,0.1-0.1,0.2-0.2c0.1-0.1,0.2-0.2,0.4-0.2c0.1-0.1,0.3-0.2,0.4-0.2c0.1-0.1,0.2-0.1,0.3-0.2L27,61.9c0.1,0.2,0.3,0.3,0.5,0.3
			c0.2,0,0.4-0.1,0.5-0.3c0.1-0.2,0.3-0.3,0.3-0.5c0.1-0.2,0-0.4,0-0.6l-2.5-14c0.1-0.1,0.3-0.2,0.5-0.3c0.2-0.1,0.4-0.1,0.6-0.2
			c0.2-0.1,0.3-0.1,0.5-0.1c0.1,0,0.3,0,0.3,0c0.3,0,0.7,0,1.2,0c0.5,0,1,0.1,1.5,0.2c0.5,0.1,1.1,0.2,1.6,0.4
			c0.5,0.2,1,0.4,1.5,0.6c0.4,0.3,0.8,0.6,1.1,0.9c0.3,0.4,0.5,0.8,0.5,1.3c0,1-0.1,2.1-0.5,3.1c-0.4,1-0.8,2.1-1.4,3
			c-0.6,1-1.2,1.9-1.8,2.7c-0.7,0.9-1.3,1.6-1.8,2.3c-0.6,0.7-1,1.2-1.4,1.7c-0.4,0.5-0.5,0.8-0.5,0.9c0,0.2,0.1,0.3,0.2,0.5
			c0.1,0.2,0.3,0.3,0.4,0.3c0,0,0,0,0.1,0c0,0,0.1,0,0.1,0c1.1-1.2,2.1-2.3,3.1-3.5c1-1.2,1.8-2.4,2.5-3.6c0.7-1.2,1.3-2.4,1.7-3.7
			c0.4-1.2,0.6-2.5,0.6-3.8c0-0.8-0.3-1.5-0.7-2.1c-0.4-0.6-0.9-1.1-1.6-1.4c-0.6-0.4-1.3-0.7-2.1-0.8c-0.8-0.2-1.5-0.3-2.3-0.4
			c-0.8-0.1-1.5-0.1-2.2,0c-0.7,0.1-1.3,0.1-1.8,0.2c-0.2-0.1-0.4-0.2-0.4-0.3c0-0.2-0.1-0.3-0.1-0.5c0-0.2-0.1-0.3-0.2-0.4
			c-0.1-0.1-0.3-0.2-0.7-0.1c0.1,0.5,0,0.9,0,1.3c-0.1,0.3-0.2,0.6-0.4,0.9c-0.2,0.2-0.3,0.4-0.5,0.6c-0.2,0.2-0.4,0.3-0.5,0.5
			c-0.2,0.2-0.3,0.3-0.4,0.5s-0.1,0.4-0.1,0.7C22.5,48.2,22.6,48.3,22.7,48.3z M38.7,53.2c0.2,1.6,0.3,3.1,0.4,4.7
			c0.1,1.6,0.2,3.1,0.4,4.6c0.2,0.2,0.4,0.3,0.5,0.3c0.1,0.1,0.3,0.1,0.5,0.1c0.6-0.1,1.3-0.3,2.1-0.6c0.8-0.3,1.7-0.7,2.6-1.1
			c0.9-0.4,1.7-0.8,2.5-1.2c0.8-0.4,1.5-0.8,2.1-1.1c0.2-0.1,0.3-0.2,0.3-0.3c0-0.1,0-0.2,0-0.3C50,58.1,50,58,49.8,58
			c-0.1-0.1-0.2-0.1-0.4-0.1c-0.3,0-0.7,0.2-1.1,0.4c-0.5,0.2-1,0.4-1.5,0.7c-0.5,0.3-1.1,0.5-1.7,0.8c-0.6,0.3-1.1,0.5-1.7,0.7
			c-0.5,0.2-1,0.4-1.4,0.5c-0.4,0.1-0.8,0.1-1,0l-0.5-6.1c0-0.2,0.1-0.5,0.5-0.7c0.4-0.2,0.8-0.5,1.3-0.8c0.5-0.3,1.1-0.5,1.7-0.8
			c0.6-0.3,1.2-0.5,1.7-0.8c0.5-0.3,1-0.6,1.3-0.9c0.3-0.3,0.5-0.6,0.5-0.9c-0.2-0.2-0.3-0.3-0.5-0.3c-0.1,0-0.3,0-0.4,0.1
			c-0.1,0.1-0.3,0.2-0.4,0.4L40,53.1c-0.2-1-0.4-2-0.5-3c-0.2-1-0.3-2-0.4-3l8.6-3.3c0.2-0.1,0.3-0.2,0.4-0.4
			c0.1-0.2,0.1-0.3,0.1-0.5c0-0.2-0.1-0.3-0.2-0.4c-0.1-0.1-0.2-0.2-0.4-0.2L39,45.5c0-0.1,0-0.3-0.1-0.5c0-0.2-0.1-0.5-0.2-0.7
			c-0.1-0.3-0.2-0.5-0.4-0.7c-0.2-0.2-0.3-0.3-0.5-0.4c-0.1,0-0.2,0-0.4,0c-0.1,0.1-0.2,0.2-0.3,0.3c-0.1,0.1-0.2,0.2-0.2,0.3
			c-0.1,0.1-0.1,0.2-0.1,0.3c0.5,1.5,0.9,3,1.2,4.5C38.3,50.1,38.5,51.6,38.7,53.2z M61.8,60c0,0.2,0.1,0.3,0.2,0.4
			c0.1,0.1,0.2,0.2,0.3,0.2c0.1,0,0.3,0,0.5,0c0.3,0,0.6-0.1,0.8-0.3c0.2-0.2,0.3-0.5,0.3-0.8c0-0.4-0.1-0.8-0.3-1.1
			c-0.1-0.3-0.2-0.7-0.3-1.1c0-0.3-0.1-0.8-0.2-1.5c-0.1-0.7-0.2-1.5-0.2-2.3c-0.1-0.9-0.2-1.8-0.3-2.7c-0.1-1-0.2-1.9-0.3-2.7
			c-0.1-0.9-0.2-1.6-0.3-2.3C62,45,62,44.5,61.9,44.2c0-0.1-0.1-0.3-0.1-0.7c-0.1-0.4-0.2-0.7-0.3-1.1c-0.1-0.4-0.3-0.7-0.5-1
			c-0.2-0.3-0.4-0.4-0.7-0.4c-0.3,0-0.5,0.2-0.5,0.4c-0.1,0.2-0.1,0.5-0.1,0.7c0.1,0.1,0.2,0.3,0.4,0.8c0.1,0.4,0.2,0.9,0.4,1.6
			c0.1,0.6,0.3,1.4,0.4,2.2c0.1,0.8,0.2,1.6,0.4,2.5c0.1,0.8,0.2,1.7,0.3,2.5c0.1,0.8,0.2,1.6,0.2,2.3c0.1,0.7,0.1,1.3,0.1,1.8
			c0,0.5,0,0.9,0,1.1l-10-13.7c0.1,0,0-0.1-0.1-0.3c-0.1-0.2-0.3-0.4-0.6-0.6c-0.2-0.2-0.5-0.3-0.7-0.4c-0.3-0.1-0.4,0-0.6,0.3
			l3,19.1c-0.1,0.1-0.1,0.2,0.1,0.3c0.2,0.1,0.3,0.2,0.5,0.2c0.2,0,0.4,0,0.6-0.1c0.2-0.1,0.3-0.3,0.2-0.6c-0.1-1-0.3-2.2-0.5-3.5
			c-0.2-1.3-0.4-2.7-0.7-4c-0.2-1.4-0.4-2.7-0.6-4.1c-0.2-1.3-0.3-2.5-0.3-3.5c0.3,0.2,0.7,0.7,1.2,1.4c0.5,0.7,1.1,1.5,1.7,2.4
			c0.6,0.9,1.3,1.9,1.9,2.9c0.7,1,1.3,2,1.9,2.9c0.6,0.9,1.2,1.7,1.7,2.5c0.5,0.7,0.9,1.2,1.2,1.5C61.8,59.6,61.8,59.8,61.8,60z
			 M87.1,40.7c-0.6-0.4-1.3-0.7-2.1-0.8c-0.8-0.2-1.5-0.3-2.3-0.4c-0.8-0.1-1.5-0.1-2.2,0c-0.7,0.1-1.3,0.1-1.8,0.2
			c-0.2-0.1-0.4-0.2-0.4-0.3c0-0.2-0.1-0.3-0.1-0.5c0-0.2-0.1-0.3-0.2-0.4c-0.1-0.1-0.3-0.2-0.7-0.1c0.1,0.5,0,0.9,0,1.3
			c-0.1,0.3-0.2,0.6-0.4,0.9c-0.2,0.2-0.3,0.4-0.5,0.6c-0.2,0.2-0.4,0.3-0.5,0.5c-0.2,0.2-0.3,0.3-0.4,0.5c-0.1,0.2-0.1,0.4-0.1,0.7
			c0,0.2,0.1,0.3,0.2,0.3c0.1,0,0.2,0,0.3,0c0,0,0,0,0.1,0c0,0,0.1,0,0.1,0c0,0,0.1-0.1,0.2-0.2c0.1-0.1,0.2-0.2,0.4-0.2
			c0.1-0.1,0.3-0.2,0.4-0.2c0.1-0.1,0.2-0.1,0.3-0.2l2.6,14.4c0.1,0.2,0.3,0.3,0.5,0.3c0.2,0,0.4-0.1,0.5-0.3
			c0.1-0.2,0.3-0.3,0.3-0.5c0.1-0.2,0-0.4,0-0.6l-2.5-14c0.1-0.1,0.3-0.2,0.5-0.3c0.2-0.1,0.4-0.1,0.6-0.2c0.2-0.1,0.3-0.1,0.5-0.1
			c0.1,0,0.3,0,0.3,0c0.3,0,0.7,0,1.2,0c0.5,0,1,0.1,1.5,0.2c0.5,0.1,1.1,0.2,1.6,0.4c0.5,0.2,1,0.4,1.5,0.6
			c0.4,0.3,0.8,0.6,1.1,0.9c0.3,0.4,0.5,0.8,0.5,1.3c0,1-0.1,2.1-0.5,3.1c-0.4,1-0.8,2.1-1.4,3c-0.6,1-1.2,1.9-1.8,2.7
			c-0.7,0.9-1.3,1.6-1.8,2.3c-0.6,0.7-1,1.2-1.4,1.7c-0.4,0.5-0.5,0.8-0.5,0.9c0,0.2,0.1,0.3,0.2,0.5c0.1,0.2,0.3,0.3,0.4,0.3
			c0,0,0,0,0.1,0c0,0,0.1,0,0.1,0c1.1-1.2,2.1-2.3,3.1-3.5c1-1.2,1.8-2.4,2.5-3.6c0.7-1.2,1.3-2.4,1.7-3.7c0.4-1.2,0.6-2.5,0.6-3.8
			c0-0.8-0.3-1.5-0.7-2.1C88.3,41.5,87.8,41,87.1,40.7z M98.1,55.8c0.9-0.4,1.7-0.8,2.5-1.2c0.8-0.4,1.5-0.8,2.1-1.1
			c0.2-0.1,0.3-0.2,0.3-0.3c0-0.1,0-0.2,0-0.3c-0.1-0.1-0.1-0.2-0.3-0.3c-0.1-0.1-0.2-0.1-0.4-0.1c-0.3,0-0.7,0.2-1.1,0.4
			c-0.5,0.2-1,0.4-1.5,0.7c-0.5,0.3-1.1,0.5-1.7,0.8c-0.6,0.3-1.1,0.5-1.7,0.7c-0.5,0.2-1,0.4-1.4,0.5c-0.4,0.1-0.8,0.1-1,0
			l-0.5-6.1c0-0.2,0.1-0.5,0.5-0.7c0.4-0.2,0.8-0.5,1.3-0.8c0.5-0.3,1.1-0.5,1.7-0.8c0.6-0.3,1.2-0.5,1.7-0.8c0.5-0.3,1-0.6,1.3-0.9
			c0.3-0.3,0.5-0.6,0.5-0.9c-0.2-0.2-0.3-0.3-0.5-0.3c-0.1,0-0.3,0-0.4,0.1c-0.1,0.1-0.3,0.2-0.4,0.4l-6.2,2.9c-0.2-1-0.4-2-0.5-3
			c-0.2-1-0.3-2-0.4-3l8.6-3.3c0.2-0.1,0.3-0.2,0.4-0.4c0.1-0.2,0.1-0.3,0.1-0.5c0-0.2-0.1-0.3-0.2-0.4c-0.1-0.1-0.2-0.2-0.4-0.2
			l-8.7,3.1c0-0.1,0-0.3-0.1-0.5c0-0.2-0.1-0.5-0.2-0.7c-0.1-0.3-0.2-0.5-0.4-0.7c-0.2-0.2-0.3-0.3-0.5-0.4c-0.1,0-0.2,0-0.4,0
			c-0.1,0.1-0.2,0.2-0.3,0.3c-0.1,0.1-0.2,0.2-0.2,0.3c-0.1,0.1-0.1,0.2-0.1,0.3c0.5,1.5,0.9,3,1.2,4.5c0.3,1.5,0.5,3.1,0.7,4.7
			c0.2,1.6,0.3,3.1,0.4,4.7c0.1,1.6,0.2,3.1,0.4,4.6c0.2,0.2,0.4,0.3,0.5,0.3c0.1,0.1,0.3,0.1,0.5,0.1c0.6-0.1,1.3-0.3,2.1-0.6
			C96.4,56.6,97.2,56.2,98.1,55.8z M109.4,30.1c-0.2,0-0.3,0.1-0.4,0.2l-1.4,3.4l-2.4-2.9c-0.1-0.1-0.2-0.1-0.4,0
			c-0.2,0-0.4,0.1-0.5,0.2c-0.1,0.1-0.2,0.2-0.3,0.4c-0.1,0.1,0,0.3,0.2,0.5l3.3,3.7c0.1,0.1,0.2,0.2,0.3,0.2c0.1,0,0.2,0,0.4-0.1
			c0.1-0.1,0.2-0.1,0.3-0.2c0.1-0.1,0.2-0.2,0.2-0.2l1.8-4.5c0-0.2-0.1-0.3-0.2-0.4c-0.1-0.1-0.2-0.2-0.4-0.2
			C109.7,30.1,109.6,30.1,109.4,30.1z M105.7,56.1c0.2,0.1,0.3,0.2,0.5,0.2c0.2,0,0.4,0,0.6-0.1c0.2-0.1,0.2-0.3,0.2-0.6
			c-0.1-1-0.3-2.2-0.5-3.5c-0.2-1.3-0.4-2.7-0.7-4c-0.2-1.4-0.4-2.7-0.6-4.1c-0.2-1.3-0.3-2.5-0.3-3.5c0.3,0.2,0.7,0.7,1.2,1.4
			c0.5,0.7,1.1,1.5,1.7,2.4c0.6,0.9,1.3,1.9,1.9,2.9c0.7,1,1.3,2,1.9,2.9c0.6,0.9,1.2,1.7,1.7,2.5c0.5,0.7,0.9,1.2,1.2,1.5
			c-0.1,0.3-0.1,0.5,0,0.7c0,0.2,0.1,0.3,0.2,0.4c0.1,0.1,0.2,0.2,0.3,0.2c0.1,0,0.3,0,0.5,0c0.3,0,0.6-0.1,0.8-0.3
			c0.2-0.2,0.3-0.5,0.3-0.8c0-0.4-0.1-0.8-0.3-1.1c-0.1-0.3-0.2-0.7-0.3-1.1c0-0.3-0.1-0.8-0.2-1.5c-0.1-0.7-0.2-1.5-0.2-2.3
			c-0.1-0.9-0.2-1.8-0.3-2.7c-0.1-1-0.2-1.9-0.3-2.7c-0.1-0.9-0.2-1.6-0.3-2.3c-0.1-0.7-0.1-1.2-0.2-1.5c0-0.1-0.1-0.3-0.1-0.7
			c-0.1-0.4-0.2-0.7-0.3-1.1c-0.1-0.4-0.3-0.7-0.5-1c-0.2-0.3-0.4-0.4-0.7-0.4c-0.3,0-0.5,0.2-0.5,0.4c-0.1,0.2-0.1,0.5-0.1,0.7
			c0.1,0.1,0.2,0.3,0.4,0.8c0.1,0.4,0.2,0.9,0.4,1.6c0.1,0.6,0.3,1.4,0.4,2.2c0.1,0.8,0.2,1.6,0.4,2.5c0.1,0.8,0.2,1.7,0.3,2.5
			c0.1,0.8,0.2,1.6,0.2,2.3c0.1,0.7,0.1,1.3,0.1,1.8c0,0.5,0,0.9,0,1.1l-10-13.7c0.1,0,0-0.1-0.1-0.3c-0.1-0.2-0.3-0.4-0.6-0.6
			c-0.2-0.2-0.5-0.3-0.7-0.4c-0.3-0.1-0.4,0-0.6,0.3l3,19.1C105.5,55.9,105.5,56,105.7,56.1z M137.4,53c0.3,0,0.6-0.1,1-0.4
			l3.5-19.5c0-0.1-0.1-0.3-0.2-0.4c-0.1-0.1-0.3-0.2-0.4-0.2c-0.2,0-0.3,0-0.5,0c-0.1,0.1-0.2,0.2-0.3,0.3l-3.2,18l-7.5-16.5
			c-0.1-0.2-0.3-0.4-0.5-0.5c-0.2-0.1-0.4-0.1-0.5-0.1c-0.2,0-0.3,0.1-0.4,0.2c-0.1,0.1-0.1,0.3,0,0.5l8.2,18.2
			C136.9,52.9,137.1,53,137.4,53z M160,29.9c0.1,0,0.2,0,0.4-0.1c0.1-0.1,0.2-0.1,0.3-0.2c0.1-0.1,0.2-0.2,0.2-0.2l1.8-4.5
			c0-0.2-0.1-0.3-0.2-0.4c-0.1-0.1-0.2-0.2-0.4-0.2c-0.2,0-0.3-0.1-0.5,0c-0.2,0-0.3,0.1-0.4,0.2l-1.4,3.4l-2.4-2.9
			c-0.1-0.1-0.2-0.1-0.4,0c-0.2,0-0.4,0.1-0.5,0.2c-0.1,0.1-0.2,0.2-0.3,0.4c-0.1,0.1,0,0.3,0.2,0.5l3.3,3.7
			C159.8,29.8,159.9,29.9,160,29.9z M168.3,49.5c0.1-0.1,0.1-0.3,0.1-0.4c0-0.1,0-0.3-0.1-0.4c-0.1-0.1-0.2-0.2-0.3-0.3l-10.1,1
			l8.3-18.2l-0.2-1.1c0,0-0.2,0-0.6,0.1c-0.3,0-0.8,0.1-1.3,0.2c-0.5,0.1-1.2,0.1-1.8,0.2c-0.7,0.1-1.4,0.2-2.1,0.3
			c-0.7,0.1-1.4,0.2-2.1,0.3c-0.7,0.1-1.3,0.2-1.8,0.2c-0.5,0.1-1,0.1-1.3,0.2c-0.3,0.1-0.5,0.1-0.5,0.1c-0.1,0.1-0.2,0.1-0.2,0.3
			c0,0.1,0,0.2,0,0.3c0,0.1,0.1,0.2,0.2,0.3c0.1,0.1,0.2,0.1,0.4,0.2l9.6-1.1l-8.2,17.7c0,0.1,0,0.3,0.1,0.5c0,0.2,0.1,0.3,0.1,0.5
			c0.1,0.2,0.1,0.3,0.2,0.4c0.1,0.1,0.2,0.1,0.4,0.1l10.8-1.1C168.1,49.7,168.2,49.6,168.3,49.5z M170.7,49.8c0.1,0,0.3,0,0.4,0
			c0.1,0,0.2-0.1,0.3-0.2c0.1-0.1,0.1-0.2,0.1-0.4l-2.3-19c-0.1-0.1-0.2-0.1-0.3-0.2c-0.1,0-0.3-0.1-0.4-0.1c-0.1,0-0.3,0-0.4,0.1
			c-0.1,0.1-0.2,0.1-0.3,0.2l2.5,19.4C170.4,49.7,170.5,49.7,170.7,49.8z M179.6,48.7c0.3,0,0.6-0.1,1-0.4l3.5-19.5
			c0-0.1-0.1-0.3-0.2-0.4c-0.1-0.1-0.3-0.2-0.4-0.2c-0.2,0-0.3,0-0.5,0c-0.1,0.1-0.2,0.2-0.3,0.3l-3.2,18L172,30.1
			c-0.1-0.2-0.3-0.4-0.5-0.5c-0.2-0.1-0.4-0.1-0.5-0.1c-0.2,0-0.3,0.1-0.4,0.2c-0.1,0.1-0.1,0.3,0,0.5l8.2,18.2
			C179.1,48.6,179.3,48.7,179.6,48.7z M185.6,43.9c0.3,0.7,0.6,1.3,1.1,1.8c0.5,0.6,1,1,1.7,1.3c0.7,0.3,1.4,0.4,2.3,0.3
			c1.1-0.2,2-0.7,2.8-1.4c0.8-0.7,1.4-1.6,2-2.7c0.5-1,0.9-2.2,1.1-3.4c0.2-1.2,0.3-2.5,0.3-3.8c0-1.3-0.2-2.5-0.5-3.6
			c-0.3-1.2-0.7-2.2-1.2-3c-0.6-0.9-1.2-1.6-2-1.8c-0.8-0.3-1.6-0.3-2.4,0c-0.8,0.3-1.6,0.8-2.4,1.7c-0.8,0.8-1.4,1.9-2,3.1
			c-0.6,1.3-1,2.7-1.2,4.4s-0.3,3.4-0.1,5.4C185.2,42.7,185.4,43.3,185.6,43.9z M186.5,39c0.1-0.9,0.2-1.8,0.3-2.7
			c0.2-0.9,0.4-1.8,0.6-2.5c0.2-0.8,0.5-1.5,0.8-2c0.3-0.6,0.5-1,0.8-1.2c0.7-0.7,1.4-1.2,2-1.4c0.6-0.2,1.2-0.2,1.7,0
			c0.5,0.2,0.9,0.5,1.3,1c0.4,0.5,0.7,1.1,0.9,1.9c0.2,0.7,0.4,1.5,0.5,2.4c0.1,0.9,0.1,1.8,0,2.8c-0.1,1.1-0.3,2.1-0.6,3.2
			c-0.3,1.1-0.7,2.1-1.1,2.9c-0.4,0.9-1,1.6-1.5,2.1c-0.6,0.5-1.2,0.8-1.8,0.8c-0.8,0-1.5-0.2-2-0.7c-0.5-0.4-0.9-0.9-1.2-1.6
			c-0.3-0.7-0.5-1.4-0.6-2.3C186.4,40.8,186.4,39.9,186.5,39z M196.9,29.2c0.2,0,0.4,0.1,0.5,0.1c0.6,0,1.2-0.1,1.8-0.2
			c0.6-0.1,1.2-0.3,1.8-0.4c0.6-0.1,1.2-0.3,1.8-0.4c0.6-0.1,1.2-0.2,1.8-0.1c0.2,0.8,0.3,1.6,0.4,2.6c0.1,1,0.2,2,0.4,3.1
			c0.1,1.1,0.2,2.2,0.4,3.4c0.1,1.1,0.2,2.2,0.4,3.3c0.1,1.1,0.3,2,0.4,2.9c0.2,0.9,0.3,1.7,0.5,2.3c0.5,0,0.8,0,1-0.1
			c0.2-0.1,0.2-0.4,0-0.9c0-0.8-0.1-1.7-0.2-2.6c-0.1-0.9-0.2-1.9-0.4-2.9c-0.2-1-0.3-2-0.5-3c-0.2-1-0.3-2-0.4-3
			c-0.1-1-0.2-2-0.3-2.9c-0.1-0.9-0.1-1.8-0.1-2.6c0.3-0.1,0.8-0.2,1.4-0.3c0.6-0.1,1.2-0.2,1.9-0.3c0.7-0.1,1.4-0.2,2-0.3
			c0.7-0.1,1.3-0.2,1.8-0.3c0.5-0.1,0.9-0.3,1.2-0.5c0.3-0.2,0.3-0.4,0.2-0.6c-0.1,0-0.2,0-0.4,0c-0.2,0-0.3,0-0.4,0
			c-2.6,0.4-5.2,0.7-7.7,0.9c-0.1,0-0.2-0.1-0.3-0.2c-0.1-0.1-0.2-0.2-0.2-0.3c-0.1-0.1-0.2-0.2-0.3-0.3c-0.1-0.1-0.3-0.2-0.5-0.1
			c-0.1,0-0.3,0.1-0.4,0.2c-0.1,0.1-0.2,0.2-0.2,0.4c-0.1,0.1-0.1,0.3-0.1,0.4c0,0.2-0.1,0.3-0.1,0.3l-7,1.1c-0.2,0-0.3,0.1-0.5,0.3
			c-0.1,0.2-0.2,0.4-0.2,0.5C196.6,29,196.7,29.2,196.9,29.2z M228.9,40.1c-0.1-0.1-0.1-0.2-0.3-0.3c-0.1-0.1-0.2-0.1-0.4-0.1
			c-0.3,0-0.7,0.2-1.1,0.4c-0.5,0.2-1,0.4-1.5,0.7c-0.5,0.3-1.1,0.5-1.7,0.8c-0.6,0.3-1.1,0.5-1.7,0.7c-0.5,0.2-1,0.4-1.4,0.5
			c-0.4,0.1-0.8,0.1-1,0l-0.5-6.1c0-0.2,0.1-0.5,0.5-0.7c0.4-0.2,0.8-0.5,1.3-0.8c0.5-0.3,1.1-0.5,1.7-0.8c0.6-0.3,1.2-0.5,1.7-0.8
			c0.5-0.3,1-0.6,1.3-0.9c0.3-0.3,0.5-0.6,0.5-0.9c-0.2-0.2-0.3-0.3-0.5-0.3c-0.1,0-0.3,0-0.4,0.1c-0.1,0.1-0.3,0.2-0.4,0.4
			l-6.2,2.9c-0.2-1-0.4-2-0.5-3c-0.2-1-0.3-2-0.4-3l8.6-3.3c0.2-0.1,0.3-0.2,0.4-0.4c0.1-0.2,0.1-0.3,0.1-0.5c0-0.2-0.1-0.3-0.2-0.4
			c-0.1-0.1-0.2-0.2-0.4-0.2l-8.7,3.1c0-0.1,0-0.3-0.1-0.5c0-0.2-0.1-0.5-0.2-0.7c-0.1-0.3-0.2-0.5-0.4-0.7
			c-0.2-0.2-0.3-0.3-0.5-0.4c-0.1,0-0.2,0-0.4,0c-0.1,0.1-0.2,0.2-0.3,0.3c-0.1,0.1-0.2,0.2-0.2,0.3c-0.1,0.1-0.1,0.2-0.1,0.3
			c0.5,1.5,0.9,3,1.2,4.5c0.3,1.5,0.5,3.1,0.7,4.7c0.2,1.6,0.3,3.1,0.4,4.7c0.1,1.6,0.2,3.1,0.4,4.6c0.2,0.2,0.4,0.3,0.5,0.3
			c0.1,0.1,0.3,0.1,0.5,0.1c0.6-0.1,1.3-0.3,2.1-0.6c0.8-0.3,1.7-0.7,2.6-1.1c0.9-0.4,1.7-0.8,2.5-1.2c0.8-0.4,1.5-0.8,2.1-1.1
			c0.2-0.1,0.3-0.2,0.3-0.3C229,40.3,228.9,40.2,228.9,40.1z M29.8,89.6c0-0.3-0.1-0.8-0.2-1.5c-0.1-0.7-0.2-1.5-0.2-2.3
			c-0.1-0.9-0.2-1.8-0.3-2.7c-0.1-1-0.2-1.9-0.3-2.7c-0.1-0.9-0.2-1.6-0.3-2.3c-0.1-0.7-0.1-1.2-0.2-1.5c0-0.1-0.1-0.3-0.1-0.7
			c-0.1-0.4-0.2-0.7-0.3-1.1c-0.1-0.4-0.3-0.7-0.5-1c-0.2-0.3-0.4-0.4-0.7-0.4c-0.3,0-0.5,0.2-0.5,0.4c-0.1,0.2-0.1,0.5-0.1,0.7
			c0.1,0.1,0.2,0.3,0.4,0.8c0.1,0.4,0.2,0.9,0.4,1.6c0.1,0.6,0.3,1.4,0.4,2.2c0.1,0.8,0.2,1.6,0.4,2.5c0.1,0.8,0.2,1.7,0.3,2.5
			c0.1,0.8,0.2,1.6,0.2,2.3c0.1,0.7,0.1,1.3,0.1,1.8c0,0.5,0,0.9,0,1.1l-10-13.7c0.1,0,0-0.1-0.1-0.3c-0.1-0.2-0.3-0.4-0.6-0.6
			c-0.2-0.2-0.5-0.3-0.7-0.4c-0.3-0.1-0.4,0-0.6,0.3l3,19.1c-0.1,0.1-0.1,0.2,0.1,0.3c0.2,0.1,0.3,0.2,0.5,0.2c0.2,0,0.4,0,0.6-0.1
			c0.2-0.1,0.2-0.3,0.2-0.6c-0.1-1-0.3-2.2-0.5-3.5c-0.2-1.3-0.4-2.7-0.7-4c-0.2-1.4-0.4-2.7-0.6-4.1c-0.2-1.3-0.3-2.5-0.3-3.5
			c0.3,0.2,0.7,0.7,1.2,1.4c0.5,0.7,1.1,1.5,1.7,2.4c0.6,0.9,1.3,1.9,1.9,2.9c0.7,1,1.3,2,1.9,2.9c0.6,0.9,1.2,1.7,1.7,2.5
			c0.5,0.7,0.9,1.2,1.2,1.5c-0.1,0.3-0.1,0.5,0,0.7c0,0.2,0.1,0.3,0.2,0.4c0.1,0.1,0.2,0.2,0.3,0.2c0.1,0,0.3,0,0.5,0
			c0.3,0,0.6-0.1,0.8-0.3c0.2-0.2,0.3-0.5,0.3-0.8c0-0.4-0.1-0.8-0.3-1.1C30,90.4,29.9,90,29.8,89.6z M34.6,67.7
			c-0.4,0.4-0.7,0.8-1.1,1.2c-0.4,0.4-0.6,0.8-0.8,1.2c-0.2,0.4-0.3,0.7-0.2,0.9c0.1,0.3,0.3,0.4,0.8,0.5c0.2-0.2,0.4-0.4,0.6-0.7
			c0.2-0.3,0.5-0.5,0.7-0.8c0.2-0.3,0.4-0.5,0.6-0.8c0.2-0.3,0.2-0.5,0.2-0.7l0-0.2c0-0.2-0.1-0.4-0.2-0.5
			C35.1,67.7,34.9,67.7,34.6,67.7z M42,84.2c0.1-0.1,0.3-0.1,0.5-0.2c0.2-0.1,0.4-0.1,0.6-0.2c0.2-0.1,0.4-0.1,0.5-0.2
			c0.3-0.1,0.5-0.3,0.6-0.5c0.1-0.2,0.1-0.4,0.1-0.5c0-0.2-0.1-0.3-0.3-0.4c-0.2-0.1-0.3-0.1-0.5-0.1l-2.3,1l-5.7-10.7
			c0-0.1-0.1-0.2-0.2-0.3c-0.1-0.1-0.3-0.1-0.4-0.1c-0.2,0-0.3,0-0.5,0.1c-0.2,0.1-0.3,0.2-0.4,0.4c-0.4,3.5-0.8,6.5-1.1,8.9
			c-0.3,2.4-0.6,4.4-0.8,6c-0.2,1.6-0.4,2.8-0.6,3.6c-0.2,0.8-0.3,1.5-0.3,1.8c0.4,0.3,0.7,0.4,0.9,0.5c0.2,0.1,0.5,0,0.7-0.4
			c0.1-0.7,0.1-1.3,0.1-1.9c0-0.5,0.1-1,0.1-1.5c0-0.5,0.1-0.9,0.1-1.1c0-0.3,0.2-0.7,0.5-0.9c0.3-0.3,0.6-0.5,1.1-0.7
			c0.4-0.2,0.9-0.4,1.4-0.6c0.5-0.2,1-0.3,1.6-0.5c0.5-0.1,1-0.3,1.5-0.4c0.5-0.1,0.9-0.3,1.2-0.4l3.4,6.6c0.4,0.2,0.6,0.3,0.8,0.3
			c0.2,0,0.3,0,0.4-0.1c0.1-0.1,0.1-0.2,0.2-0.3c0-0.1,0-0.2,0.1-0.3l-3.3-6.6C41.8,84.3,41.9,84.2,42,84.2z M37.9,84
			c-0.5,0.2-1.1,0.4-1.6,0.5c-0.5,0.2-1,0.3-1.5,0.5c-0.5,0.2-0.8,0.3-1.1,0.4l1.4-10.6l4.2,8.6C38.9,83.6,38.4,83.8,37.9,84z
			 M58.2,83.1c-0.4-0.3-0.8-0.4-1.4-0.5c-0.6-0.1-1.2-0.2-2-0.2c-0.7,0-1.5,0-2.2,0c-0.8,0-1.5,0-2.2,0c-0.7,0-1.4-0.1-2-0.3
			c-0.6-0.1-1.1-0.4-1.4-0.7c-0.4-0.3-0.6-0.7-0.6-1.2c0-0.4,0-0.9,0.2-1.4c0.2-0.5,0.4-1.1,0.7-1.6c0.3-0.6,0.7-1.1,1.1-1.6
			c0.4-0.5,0.9-1,1.3-1.5c0.5-0.4,0.9-0.8,1.4-1.1c0.5-0.3,0.9-0.4,1.3-0.5l1,0.2c0.5,0,0.9-0.2,1.2-0.4c0.3-0.3,0.4-0.6,0.4-1.1
			c0-0.2-0.1-0.3-0.2-0.4c-0.1-0.1-0.2-0.1-0.3-0.2c-0.1,0-0.3,0-0.5,0c-0.2,0-0.3,0-0.5,0.1c-0.6,0.1-1.2,0.2-1.9,0.6
			c-0.7,0.3-1.3,0.7-2,1.2c-0.7,0.5-1.3,1.1-1.9,1.7c-0.6,0.6-1.1,1.3-1.5,2c-0.4,0.7-0.8,1.4-1,2.1c-0.2,0.7-0.3,1.4-0.2,2.1
			c0.1,0.7,0.3,1.2,0.7,1.7c0.4,0.4,0.9,0.8,1.5,1c0.6,0.2,1.3,0.4,2,0.5c0.7,0.1,1.5,0.2,2.2,0.2c0.8,0,1.5,0,2.2,0
			c0.7,0,1.4,0,1.9,0s1,0.1,1.4,0.2c0.4,0.1,0.5,0.3,0.6,0.5c-0.2,0.5-0.6,1-1.1,1.4c-0.5,0.5-1.1,0.9-1.8,1.3
			c-0.7,0.4-1.4,0.8-2.2,1.1c-0.8,0.3-1.4,0.6-2.1,0.9c-0.6,0.3-1.1,0.5-1.5,0.7c-0.4,0.2-0.6,0.3-0.6,0.4c0,0.3,0,0.4,0.1,0.5
			c0.1,0.1,0.3,0.1,0.4,0.1c0.5,0,1.2-0.2,1.9-0.4c0.7-0.2,1.5-0.5,2.3-0.8c0.8-0.3,1.5-0.7,2.3-1.2c0.7-0.4,1.4-0.9,2-1.4
			c0.6-0.5,1-1,1.3-1.5c0.3-0.5,0.5-1,0.4-1.5C58.8,83.7,58.6,83.4,58.2,83.1z M52.2,64.7c-0.2,0-0.3-0.1-0.5,0
			c-0.2,0-0.3,0.1-0.4,0.2l-1.4,3.4l-2.4-2.9c-0.1-0.1-0.2-0.1-0.4,0c-0.2,0-0.4,0.1-0.5,0.2c-0.1,0.1-0.2,0.2-0.3,0.4
			c-0.1,0.1,0,0.3,0.2,0.5l3.3,3.7c0.1,0.1,0.2,0.2,0.3,0.2c0.1,0,0.2,0,0.4-0.1c0.1-0.1,0.2-0.1,0.3-0.2c0.1-0.1,0.2-0.2,0.2-0.2
			l1.8-4.5c0-0.2-0.1-0.3-0.2-0.4C52.5,64.9,52.3,64.8,52.2,64.7z M70.3,86.2c0-0.6-0.1-1.1-0.2-1.7c-0.1-0.6-0.1-1.2-0.2-1.7
			c-0.1-0.5-0.1-1-0.2-1.3c0-0.3-0.1-0.7-0.1-1.2c-0.1-0.6-0.2-1.2-0.2-1.9c-0.1-0.7-0.2-1.4-0.3-2.2c-0.1-0.8-0.2-1.5-0.3-2.2
			c-0.1-0.7-0.2-1.3-0.2-1.9c-0.1-0.6-0.1-1-0.2-1.2c0-0.2,0-0.4-0.1-0.6c0-0.2-0.1-0.4-0.2-0.5c-0.1-0.2-0.2-0.3-0.3-0.4
			c-0.1-0.1-0.3-0.1-0.5-0.1c-0.2,0-0.4,0.1-0.5,0.2c-0.1,0.1-0.2,0.3-0.1,0.6c0.2,0.5,0.3,0.9,0.4,1.3c0.1,0.4,0.2,0.7,0.2,1
			c0.1,0.3,0.1,0.6,0.1,1c0,0.3,0.1,0.7,0.1,1.1c0,0.8-0.1,1.5-0.5,2c-0.4,0.5-0.9,1-1.5,1.3c-0.6,0.4-1.3,0.7-2.1,1
			c-0.8,0.3-1.5,0.7-2.2,1.1c-0.2-0.6-0.3-1.3-0.4-2.1c-0.1-0.8-0.2-1.7-0.3-2.6c-0.1-0.9-0.2-1.8-0.3-2.7c-0.1-0.9-0.2-1.7-0.3-2.3
			c-0.1-0.1-0.3-0.1-0.4-0.2c-0.2,0-0.3-0.1-0.5,0c-0.1,0-0.2,0.1-0.3,0.2c-0.1,0.1-0.1,0.3-0.1,0.5l2,19c0,0.1,0.1,0.2,0.2,0.2
			c0.1,0,0.2,0,0.3,0c0.2,0,0.4-0.1,0.6-0.4c0.1-0.2,0.2-0.4,0.2-0.7c0-0.3-0.1-0.7-0.2-1.1c-0.1-0.4-0.2-0.9-0.2-1.4
			c-0.1-0.5-0.1-1-0.2-1.5c-0.1-0.5-0.1-1-0.1-1.5c0-0.5,0.1-0.9,0.2-1.3c0.1-0.4,0.3-0.7,0.5-0.9c0.1-0.1,0.3-0.2,0.7-0.4
			c0.3-0.2,0.7-0.4,1.1-0.6c0.4-0.2,0.8-0.4,1.3-0.6c0.5-0.2,0.9-0.4,1.3-0.6c0.4-0.2,0.8-0.4,1.1-0.5c0.3-0.2,0.5-0.3,0.6-0.4
			c0,0.2,0.1,0.5,0.1,1c0,0.5,0.1,1,0.2,1.7c0.1,0.6,0.1,1.3,0.2,2c0.1,0.7,0.1,1.4,0.2,2c0.1,0.6,0.1,1.2,0.2,1.7
			c0,0.5,0.1,0.8,0.1,1c0,0.3,0.1,0.6,0.2,0.9c0.1,0.3,0.2,0.5,0.6,0.7c0.2-0.1,0.3-0.2,0.4-0.3c0.1-0.1,0.2-0.2,0.2-0.3
			c0-0.1,0-0.3,0-0.4c0-0.1,0-0.3,0-0.4C70.4,87.2,70.4,86.8,70.3,86.2z M81,70c-0.6-0.9-1.2-1.6-2-1.8c-0.8-0.3-1.6-0.3-2.4,0
			c-0.8,0.3-1.6,0.8-2.4,1.7c-0.8,0.8-1.4,1.9-2,3.1c-0.6,1.3-1,2.7-1.2,4.4c-0.3,1.6-0.3,3.4-0.1,5.4c0.1,0.5,0.2,1.1,0.5,1.7
			c0.3,0.7,0.6,1.3,1.1,1.8c0.5,0.6,1,1,1.7,1.3c0.7,0.3,1.4,0.4,2.3,0.3c1.1-0.2,2-0.7,2.8-1.4c0.8-0.7,1.4-1.6,2-2.7
			c0.5-1,0.9-2.2,1.1-3.4c0.2-1.2,0.3-2.5,0.3-3.8c0-1.3-0.2-2.5-0.5-3.6C81.9,71.8,81.5,70.8,81,70z M81.1,77.6
			c-0.1,1.1-0.3,2.1-0.6,3.2c-0.3,1.1-0.7,2.1-1.1,2.9c-0.4,0.9-1,1.6-1.5,2.1c-0.6,0.5-1.2,0.8-1.8,0.8c-0.8,0-1.5-0.2-2-0.7
			c-0.5-0.4-0.9-0.9-1.2-1.6c-0.3-0.7-0.5-1.4-0.6-2.3c-0.1-0.9-0.1-1.7-0.1-2.7c0.1-0.9,0.2-1.8,0.3-2.7c0.2-0.9,0.4-1.8,0.6-2.5
			c0.2-0.8,0.5-1.5,0.8-2c0.3-0.6,0.5-1,0.8-1.2c0.7-0.7,1.4-1.2,2-1.4c0.6-0.2,1.2-0.2,1.7,0c0.5,0.2,0.9,0.5,1.3,1
			c0.4,0.5,0.7,1.1,0.9,1.9c0.2,0.7,0.4,1.5,0.5,2.4C81.2,75.7,81.2,76.7,81.1,77.6z M107.1,68.2c-0.2-0.6-0.5-1.2-0.8-1.6
			c-0.4-0.4-0.8-0.7-1.3-0.9c-0.5-0.2-1.1-0.3-1.7-0.3c-0.6,0-1.2,0.1-1.8,0.2c-0.6,0.1-1.2,0.4-1.8,0.7c-0.6,0.3-1.1,0.6-1.6,1
			c-0.1-0.1-0.2-0.2-0.3-0.3c-0.1-0.1-0.1-0.2-0.2-0.3c-0.1-0.1-0.1-0.2-0.2-0.3c-0.1-0.1-0.2-0.1-0.4-0.1c-0.2,0-0.3,0.2-0.5,0.5
			c-0.2,0.3-0.4,0.7-0.6,1.1c-0.2,0.4-0.4,0.8-0.5,1.2c-0.2,0.4-0.3,0.7-0.4,0.9c0,0,0,0.1,0,0.1l0,0.1c0,0.2,0.1,0.3,0.2,0.4
			c0.1,0.1,0.2,0.1,0.4,0.1c0.1,0,0.2-0.1,0.3-0.2c0.1-0.1,0.2-0.2,0.3-0.3c0.1-0.1,0.2-0.2,0.3-0.4c0.1-0.1,0.2-0.2,0.2-0.3
			c0.2,1.1,0.4,2.3,0.5,3.5c0.1,1.2,0.2,2.5,0.3,3.8c0.1,1.3,0.2,2.7,0.3,4.2c0.1,1.4,0.2,3,0.4,4.6c0.1,0.1,0.2,0.1,0.3,0.2
			c0.1,0,0.3,0.1,0.4,0.1c0.1,0,0.3,0,0.4-0.1c0.1-0.1,0.1-0.2,0.1-0.3l-0.5-7.8c0,0,0.2-0.2,0.6-0.4c0.4-0.2,0.9-0.6,1.6-1
			c0.6-0.4,1.4-0.9,2.1-1.5c0.8-0.6,1.5-1.2,2.1-1.9c0.6-0.7,1.2-1.4,1.6-2.2C107,69.9,107.2,69.1,107.1,68.2z M104.9,71.2
			c-0.5,0.7-1.1,1.3-1.8,1.9c-0.7,0.6-1.4,1.1-2.3,1.6c-0.8,0.5-1.6,0.9-2.4,1.3l-0.7-7c0.7-0.7,1.4-1.2,2.3-1.6
			c0.8-0.4,1.7-0.7,2.4-0.7c0.8-0.1,1.5,0.1,2.1,0.4c0.6,0.3,1,0.9,1.2,1.8C105.7,69.8,105.4,70.5,104.9,71.2z M117.4,76.5
			c0.1-0.1,0.3-0.1,0.5-0.2c0.2-0.1,0.4-0.1,0.6-0.2c0.2-0.1,0.4-0.1,0.5-0.2c0.3-0.1,0.5-0.3,0.6-0.5c0.1-0.2,0.1-0.4,0.1-0.5
			c0-0.2-0.1-0.3-0.3-0.4c-0.2-0.1-0.3-0.1-0.5-0.1l-2.3,1l-5.7-10.7c0-0.1-0.1-0.2-0.2-0.3c-0.1-0.1-0.3-0.1-0.4-0.1
			c-0.2,0-0.3,0-0.5,0.1c-0.2,0.1-0.3,0.2-0.4,0.4c-0.4,3.5-0.8,6.5-1.1,8.9c-0.3,2.4-0.6,4.4-0.8,6c-0.2,1.6-0.4,2.8-0.6,3.6
			c-0.2,0.8-0.3,1.5-0.3,1.8c0.4,0.3,0.7,0.4,0.9,0.5c0.2,0.1,0.5,0,0.7-0.4c0.1-0.7,0.1-1.3,0.1-1.9c0-0.5,0.1-1,0.1-1.5
			c0-0.5,0.1-0.9,0.1-1.1c0-0.3,0.2-0.7,0.5-0.9c0.3-0.3,0.6-0.5,1.1-0.7c0.4-0.2,0.9-0.4,1.4-0.6c0.5-0.2,1-0.3,1.6-0.5
			c0.5-0.1,1-0.3,1.5-0.4c0.5-0.1,0.9-0.3,1.2-0.4l3.4,6.6c0.4,0.2,0.6,0.3,0.8,0.3c0.2,0,0.3,0,0.4-0.1c0.1-0.1,0.1-0.2,0.2-0.3
			c0-0.1,0-0.2,0.1-0.3l-3.3-6.6C117.2,76.6,117.3,76.6,117.4,76.5z M113.3,76.3c-0.5,0.2-1.1,0.4-1.6,0.5c-0.5,0.2-1,0.3-1.5,0.5
			c-0.5,0.2-0.8,0.3-1.1,0.4l1.4-10.6l4.2,8.6C114.3,76,113.8,76.2,113.3,76.3z M121.7,75.7l10.9,4.9c0.3,0,0.5-0.1,0.7-0.4
			c0.2-0.2,0.3-0.5,0.2-0.7L121.9,74c0.3-0.4,0.7-0.8,1.3-1.3c0.6-0.5,1.3-1,2-1.5c0.7-0.5,1.4-1.1,2.2-1.7c0.7-0.6,1.4-1.1,2-1.7
			c0.6-0.5,1-1.1,1.4-1.6c0.3-0.5,0.5-1,0.4-1.4c-0.1-0.4-0.4-0.8-1-1c-0.6-0.3-1.6-0.5-2.9-0.6c-0.8,0-1.6,0.1-2.2,0.3
			c-0.7,0.2-1.2,0.4-1.8,0.6c-0.5,0.2-1,0.5-1.4,0.7c-0.4,0.2-0.7,0.4-1,0.5l-0.3-1.3c-0.1-0.2-0.1-0.3-0.3-0.4
			c-0.1-0.1-0.3-0.1-0.4-0.1c-0.2,0-0.3,0.1-0.5,0.1c-0.1,0.1-0.2,0.2-0.3,0.3l2.2,19.5c0.1,0.1,0.1,0.1,0.2,0.2
			c0.1,0.1,0.1,0.1,0.2,0.1c0.1,0,0.2,0,0.3-0.1c0.1-0.1,0.3-0.2,0.4-0.4L121.7,75.7z M121.5,72.4c0-0.4-0.1-0.8-0.1-1.3
			c0-0.5-0.1-1-0.1-1.4c0-0.5-0.1-1-0.1-1.4c0-0.4,0-0.8,0-1.1c0.3-0.4,0.7-0.8,1.2-1.2c0.5-0.3,1.1-0.6,1.7-0.8
			c0.6-0.2,1.2-0.4,1.9-0.5c0.6-0.1,1.2-0.2,1.6-0.2c0.9,0.1,1.4,0.2,1.7,0.5c0.3,0.2,0.4,0.5,0.3,0.9c-0.1,0.4-0.4,0.8-0.8,1.2
			c-0.4,0.4-0.9,0.9-1.5,1.4c-0.6,0.5-1.2,0.9-1.8,1.4c-0.6,0.4-1.2,0.9-1.8,1.2c-0.6,0.4-1,0.7-1.4,0.9
			C121.8,72.1,121.6,72.3,121.5,72.4z M143.1,62.9c0.6-0.1,1.2-0.2,1.9-0.3c0.7-0.1,1.4-0.2,2-0.3c0.7-0.1,1.3-0.2,1.8-0.3
			c0.5-0.1,0.9-0.3,1.2-0.5c0.3-0.2,0.3-0.4,0.2-0.6c-0.1,0-0.2,0-0.4,0c-0.2,0-0.3,0-0.4,0c-2.6,0.4-5.2,0.7-7.7,0.9
			c-0.1,0-0.2-0.1-0.3-0.2c-0.1-0.1-0.2-0.2-0.2-0.3c-0.1-0.1-0.2-0.2-0.3-0.3c-0.1-0.1-0.3-0.2-0.5-0.1c-0.1,0-0.3,0.1-0.4,0.2
			c-0.1,0.1-0.2,0.2-0.2,0.4c-0.1,0.1-0.1,0.3-0.1,0.4c0,0.2-0.1,0.3-0.1,0.3l-7,1.1c-0.2,0-0.3,0.1-0.5,0.3
			c-0.1,0.2-0.2,0.4-0.2,0.5c0,0.3,0.1,0.4,0.3,0.5c0.2,0,0.4,0.1,0.5,0.1c0.6,0,1.2-0.1,1.8-0.2c0.6-0.1,1.2-0.3,1.8-0.4
			c0.6-0.1,1.2-0.3,1.8-0.4c0.6-0.1,1.2-0.2,1.8-0.1c0.2,0.8,0.3,1.6,0.4,2.6c0.1,1,0.2,2,0.4,3.1c0.1,1.1,0.2,2.2,0.4,3.4
			c0.1,1.1,0.2,2.2,0.4,3.3c0.1,1.1,0.3,2,0.4,2.9c0.2,0.9,0.3,1.7,0.5,2.3c0.5,0,0.8,0,1-0.1c0.2-0.1,0.2-0.4,0-0.9
			c0-0.8-0.1-1.7-0.2-2.6c-0.1-0.9-0.2-1.9-0.4-2.9c-0.2-1-0.3-2-0.5-3c-0.2-1-0.3-2-0.4-3c-0.1-1-0.2-2-0.3-2.9
			c-0.1-0.9-0.1-1.8-0.1-2.6C142,63.1,142.5,63,143.1,62.9z M163.7,78.5c0,0.2,0.1,0.3,0.2,0.4c0.1,0.1,0.2,0.2,0.3,0.2
			c0.1,0,0.3,0,0.5,0c0.3,0,0.6-0.1,0.8-0.3c0.2-0.2,0.3-0.5,0.3-0.8c0-0.4-0.1-0.8-0.3-1.1c-0.1-0.3-0.2-0.7-0.3-1.1
			c0-0.3-0.1-0.8-0.2-1.5c-0.1-0.7-0.2-1.5-0.2-2.3c-0.1-0.9-0.2-1.8-0.3-2.7c-0.1-1-0.2-1.9-0.3-2.7c-0.1-0.9-0.2-1.6-0.3-2.3
			c-0.1-0.7-0.1-1.2-0.2-1.5c0-0.1-0.1-0.3-0.1-0.7c-0.1-0.4-0.2-0.7-0.3-1.1c-0.1-0.4-0.3-0.7-0.5-1c-0.2-0.3-0.4-0.4-0.7-0.4
			c-0.3,0-0.5,0.2-0.5,0.4c-0.1,0.2-0.1,0.5-0.1,0.7c0.1,0.1,0.2,0.3,0.4,0.8c0.1,0.4,0.2,0.9,0.4,1.6c0.1,0.6,0.3,1.4,0.4,2.2
			c0.1,0.8,0.2,1.6,0.4,2.5c0.1,0.8,0.2,1.7,0.3,2.5c0.1,0.8,0.2,1.6,0.2,2.3c0.1,0.7,0.1,1.3,0.1,1.8c0,0.5,0,0.9,0,1.1l-10-13.7
			c0.1,0,0-0.1-0.1-0.3c-0.1-0.2-0.3-0.4-0.6-0.6c-0.2-0.2-0.5-0.3-0.7-0.4c-0.3-0.1-0.4,0-0.6,0.3l3,19.1c-0.1,0.1-0.1,0.2,0.1,0.3
			c0.2,0.1,0.3,0.2,0.5,0.2c0.2,0,0.4,0,0.6-0.1c0.2-0.1,0.2-0.3,0.2-0.6c-0.1-1-0.3-2.2-0.5-3.5c-0.2-1.3-0.4-2.7-0.7-4
			c-0.2-1.4-0.4-2.7-0.6-4.1c-0.2-1.3-0.3-2.5-0.3-3.5c0.3,0.2,0.7,0.7,1.2,1.4c0.5,0.7,1.1,1.5,1.7,2.4c0.6,0.9,1.3,1.9,1.9,2.9
			c0.7,1,1.3,2,1.9,2.9c0.6,0.9,1.2,1.7,1.7,2.5c0.5,0.7,0.9,1.2,1.2,1.5C163.7,78.1,163.7,78.4,163.7,78.5z M178,73.8
			c-0.1-0.1-0.2-0.1-0.4-0.1c-0.3,0-0.7,0.2-1.1,0.4c-0.5,0.2-1,0.4-1.5,0.7c-0.5,0.3-1.1,0.5-1.7,0.8c-0.6,0.3-1.1,0.5-1.7,0.7
			c-0.5,0.2-1,0.4-1.4,0.5c-0.4,0.1-0.8,0.1-1,0l-0.5-6.1c0-0.2,0.1-0.5,0.5-0.7c0.4-0.2,0.8-0.5,1.3-0.8c0.5-0.3,1.1-0.5,1.7-0.8
			c0.6-0.3,1.2-0.5,1.7-0.8c0.5-0.3,1-0.6,1.3-0.9c0.3-0.3,0.5-0.6,0.5-0.9c-0.2-0.2-0.3-0.3-0.5-0.3c-0.1,0-0.3,0-0.4,0.1
			c-0.1,0.1-0.3,0.2-0.4,0.4l-6.2,2.9c-0.2-1-0.4-2-0.5-3c-0.2-1-0.3-2-0.4-3l8.6-3.3c0.2-0.1,0.3-0.2,0.4-0.4
			c0.1-0.2,0.1-0.3,0.1-0.5c0-0.2-0.1-0.3-0.2-0.4c-0.1-0.1-0.2-0.2-0.4-0.2l-8.7,3.1c0-0.1,0-0.3-0.1-0.5c0-0.2-0.1-0.5-0.2-0.7
			c-0.1-0.3-0.2-0.5-0.4-0.7c-0.2-0.2-0.3-0.3-0.5-0.4c-0.1,0-0.2,0-0.4,0c-0.1,0.1-0.2,0.2-0.3,0.3c-0.1,0.1-0.2,0.2-0.2,0.3
			c-0.1,0.1-0.1,0.2-0.1,0.3c0.5,1.5,0.9,3,1.2,4.5c0.3,1.5,0.5,3.1,0.7,4.7c0.2,1.6,0.3,3.1,0.4,4.7c0.1,1.6,0.2,3.1,0.4,4.6
			c0.2,0.2,0.4,0.3,0.5,0.3c0.1,0.1,0.3,0.1,0.5,0.1c0.6-0.1,1.3-0.3,2.1-0.6c0.8-0.3,1.7-0.7,2.6-1.1c0.9-0.4,1.7-0.8,2.5-1.2
			c0.8-0.4,1.5-0.8,2.1-1.1c0.2-0.1,0.3-0.2,0.3-0.3c0-0.1,0-0.2,0-0.3C178.2,74,178.1,73.9,178,73.8z M182,66.8
			c0.6-0.5,1.3-1,2-1.5c0.7-0.5,1.4-1.1,2.2-1.7c0.7-0.6,1.4-1.1,2-1.7c0.6-0.5,1-1.1,1.4-1.6c0.3-0.5,0.5-1,0.4-1.4
			c-0.1-0.4-0.4-0.8-1-1c-0.6-0.3-1.6-0.5-2.9-0.6c-0.8,0-1.6,0.1-2.2,0.3c-0.7,0.2-1.2,0.4-1.8,0.6c-0.5,0.2-1,0.5-1.4,0.7
			c-0.4,0.2-0.7,0.4-1,0.5l-0.3-1.3c-0.1-0.2-0.1-0.3-0.3-0.4c-0.1-0.1-0.3-0.1-0.4-0.1c-0.2,0-0.3,0.1-0.5,0.1
			c-0.1,0.1-0.2,0.2-0.3,0.3l2.2,19.5c0.1,0.1,0.1,0.1,0.2,0.2c0.1,0.1,0.1,0.1,0.2,0.1c0.1,0,0.2,0,0.3-0.1
			c0.1-0.1,0.3-0.2,0.4-0.4l-0.8-7.7l10.9,4.9c0.3,0,0.5-0.1,0.7-0.4c0.2-0.2,0.3-0.5,0.2-0.7L180.7,68
			C181,67.7,181.4,67.2,182,66.8z M180.3,66.4c0-0.4-0.1-0.8-0.1-1.3c0-0.5-0.1-1-0.1-1.4c0-0.5-0.1-1-0.1-1.4c0-0.4,0-0.8,0-1.1
			c0.3-0.4,0.7-0.8,1.2-1.2c0.5-0.3,1.1-0.6,1.7-0.8c0.6-0.2,1.2-0.4,1.9-0.5c0.6-0.1,1.2-0.2,1.6-0.2c0.9,0.1,1.4,0.2,1.7,0.5
			c0.3,0.2,0.4,0.5,0.3,0.9c-0.1,0.4-0.4,0.8-0.8,1.2c-0.4,0.4-0.9,0.9-1.5,1.4c-0.6,0.5-1.2,0.9-1.8,1.4c-0.6,0.4-1.2,0.9-1.8,1.2
			c-0.6,0.4-1,0.7-1.4,0.9C180.6,66.1,180.3,66.3,180.3,66.4z M203.5,67.7c0.1-0.1,0.3-0.1,0.5-0.2c0.2-0.1,0.4-0.1,0.6-0.2
			c0.2-0.1,0.4-0.1,0.5-0.2c0.3-0.1,0.5-0.3,0.6-0.5c0.1-0.2,0.1-0.4,0.1-0.5c0-0.2-0.1-0.3-0.3-0.4c-0.2-0.1-0.3-0.1-0.5-0.1
			l-2.3,1L197,55.9c0-0.1-0.1-0.2-0.2-0.3c-0.1-0.1-0.3-0.1-0.4-0.1c-0.2,0-0.3,0-0.5,0.1c-0.2,0.1-0.3,0.2-0.4,0.4
			c-0.4,3.5-0.8,6.5-1.1,8.9c-0.3,2.4-0.6,4.4-0.8,6c-0.2,1.6-0.4,2.8-0.6,3.6c-0.2,0.8-0.3,1.5-0.3,1.8c0.4,0.3,0.7,0.4,0.9,0.5
			c0.2,0.1,0.5,0,0.7-0.4c0.1-0.7,0.1-1.3,0.1-1.9c0-0.5,0.1-1,0.1-1.5c0-0.5,0.1-0.9,0.1-1.1c0-0.3,0.2-0.7,0.5-0.9
			c0.3-0.3,0.6-0.5,1.1-0.7c0.4-0.2,0.9-0.4,1.4-0.6c0.5-0.2,1-0.3,1.6-0.5c0.5-0.1,1-0.3,1.5-0.4c0.5-0.1,0.9-0.3,1.2-0.4l3.4,6.6
			c0.4,0.2,0.6,0.3,0.8,0.3c0.2,0,0.3,0,0.4-0.1c0.1-0.1,0.1-0.2,0.2-0.3c0-0.1,0-0.2,0.1-0.3l-3.3-6.6
			C203.3,67.9,203.4,67.8,203.5,67.7z M199.4,67.6c-0.5,0.2-1.1,0.4-1.6,0.5c-0.5,0.2-1,0.3-1.5,0.5c-0.5,0.2-0.8,0.3-1.1,0.4
			l1.4-10.6l4.2,8.6C200.4,67.2,199.9,67.4,199.4,67.6z M215.2,50.7c-0.3-0.3-0.6-0.5-1-0.6c-0.4-0.1-0.8-0.2-1.3-0.2
			c-0.5,0-0.9,0-1.3,0c-0.2,0-0.5,0.1-1,0.2c-0.4,0.1-0.9,0.3-1.4,0.4c-0.5,0.2-1.1,0.4-1.6,0.6c-0.5,0.2-1,0.5-1.5,0.7
			c-0.4,0.2-0.8,0.5-1.1,0.7c-0.3,0.2-0.4,0.5-0.4,0.7c0,0.4,0.1,0.6,0.3,0.6c0.2,0,0.3,0,0.6,0c0.5,0,0.9-0.2,1.3-0.5
			c0.4-0.3,0.9-0.5,1.3-0.8c0.4-0.3,0.9-0.6,1.4-0.9c0.5-0.3,1-0.4,1.6-0.5c0.3,0,0.6-0.1,1-0.1c0.4,0,0.7,0,1,0
			c0.3,0,0.6,0.1,0.8,0.3c0.2,0.2,0.4,0.5,0.4,0.9c0.1,0.7,0,1.4-0.3,2c-0.3,0.6-0.6,1.2-1.1,1.8c-0.4,0.6-0.9,1.1-1.5,1.7
			c-0.5,0.5-1,1.1-1.5,1.7c-0.4,0.6-0.8,1.1-1.1,1.7c-0.3,0.6-0.4,1.2-0.3,1.9c0,0.3,0.1,0.6,0.3,0.9c0.2,0.3,0.4,0.5,0.7,0.6
			c0.3,0.2,0.6,0.3,0.9,0.4c0.3,0.1,0.7,0.1,1,0.1c0.4,0,0.9-0.1,1.4-0.3c0.5-0.1,0.9-0.4,1.2-0.7l-0.6-1c-0.4,0.3-0.8,0.5-1.2,0.6
			c-0.4,0.1-0.7,0.1-1,0c-0.3-0.1-0.5-0.2-0.7-0.4c-0.2-0.2-0.4-0.4-0.4-0.6c-0.1-0.2-0.1-0.5-0.1-0.7c0-0.2,0.2-0.4,0.4-0.5
			c0.4-0.6,1-1.2,1.6-1.9c0.6-0.7,1.2-1.5,1.8-2.3c0.6-0.8,1-1.7,1.4-2.6c0.4-0.9,0.5-1.8,0.4-2.7C215.6,51.4,215.4,51,215.2,50.7z
			 M211.7,72.6c-0.2,0-0.4,0.1-0.5,0.2c-0.1,0.1-0.1,0.3-0.1,0.6c0,0.1,0,0.2,0.1,0.3c0.1,0.1,0.1,0.2,0.2,0.3
			c0.1,0.1,0.2,0.2,0.3,0.3c0.1,0.1,0.2,0.1,0.3,0.1c0.2,0,0.4-0.1,0.6-0.2c0.2-0.1,0.2-0.3,0.2-0.5c0-0.3-0.2-0.5-0.4-0.7
			C212.3,72.7,212,72.6,211.7,72.6z"/>
	</g>
</g>
</svg>
