<?xml version="1.0" encoding="utf-8"?>
<!-- Generator: Adobe Illustrator 22.0.1, SVG Export Plug-In . SVG Version: 6.00 Build 0)  -->
<svg version="1.1" id="Layer_1" xmlns="http://www.w3.org/2000/svg" xmlns:xlink="http://www.w3.org/1999/xlink" x="0px" y="0px"
	 viewBox="0 0 278.9 219.9" style="enable-background:new 0 0 278.9 219.9;" xml:space="preserve">
<style type="text/css">
	.st0{fill:#FFFFFF;}
</style>
<g>
	<g>
		<path class="st0" d="M80.5,174.6c2.4-13.3,1.2-20.9,1.2-21.4c-0.1-0.5-0.6-0.9-1.1-0.8c-0.5,0.1-0.9,0.6-0.8,1.1
			c0,0.1,2.3,15.1-6.1,39.4c-4.3,12.5-8.1,19-10.2,22.1l1.4-16.4c0-0.5-0.3-1-0.9-1c-0.5,0-1,0.3-1,0.9l-1.8,21.5l20.3-13.4
			c0.2-0.1,0.4-0.4,0.4-0.6c0-0.2,0-0.5-0.1-0.7c-0.3-0.4-0.9-0.5-1.3-0.3l-14.3,9.4c2.3-3.7,5.6-10.1,9.3-20.9
			C77.9,186.4,79.5,180,80.5,174.6z M55.6,17.1c0.2,0.5,0.5,0.9,0.8,1.3c0.4,0.4,0.8,0.6,1.4,0.7c0.3,0.2,0.7,0.3,1.2,0.2
			c0.5-0.1,1.1-0.2,1.7-0.5c0.6-0.3,1.3-0.6,2-1c0.7-0.4,1.3-0.9,1.9-1.4c0.6-0.5,1.1-1,1.6-1.6c0.5-0.6,0.8-1.1,1-1.6
			c0-0.3,0-0.4-0.2-0.5c-0.2-0.1-0.4-0.1-0.6-0.2c0,0-0.1,0-0.2,0c-0.1,0-0.2,0-0.2,0c-0.3,0.5-0.7,1.1-1.2,1.7
			c-0.5,0.6-1.1,1.2-1.8,1.7c-0.7,0.5-1.3,0.9-2.1,1.2c-0.7,0.3-1.4,0.4-2.1,0.3c-0.6-0.1-1-0.3-1.3-0.5c-0.3-0.3-0.5-0.6-0.6-1
			c-0.1-0.4-0.1-0.8-0.1-1.3c0-0.5,0.1-0.9,0.2-1.4c0.1-0.4,0.2-0.9,0.4-1.7c0.2-0.8,0.5-1.6,0.8-2.5c0.3-0.9,0.7-1.9,1.1-2.8
			c0.4-1,0.9-1.8,1.4-2.6c0.5-0.8,1-1.4,1.6-1.8c0.5-0.5,1.1-0.7,1.6-0.6c0.2,0.1,0.4,0.3,0.5,0.5c0.1,0.3,0.2,0.5,0.3,0.8
			c0.1,0.2,0.2,0.4,0.4,0.6c0.2,0.1,0.5,0.1,1,0C66,2.9,66,2.5,66,2.1c0-0.4-0.1-0.7-0.3-1c-0.2-0.3-0.4-0.5-0.7-0.7
			c-0.3-0.2-0.6-0.3-1-0.4c-0.7-0.1-1.5,0.1-2.2,0.6c-0.7,0.5-1.4,1.2-2,2c-0.6,0.8-1.2,1.8-1.7,2.9c-0.5,1.1-1,2.2-1.4,3.2
			c-0.4,1.1-0.7,2.1-1,3c-0.3,0.9-0.4,1.7-0.5,2.2c-0.1,0.4-0.1,0.9,0,1.5C55.3,16,55.4,16.6,55.6,17.1z M67.2,20.7
			c0.1,0.1,0.2,0.1,0.3,0.1c0.2,0,0.5,0,0.7-0.2c0.2-0.2,0.3-0.4,0.4-0.6c0-0.3,0.1-0.7,0.1-1.1c0-0.5,0.1-0.9,0.1-1.4
			c0-0.5,0.1-1,0.2-1.5c0.1-0.5,0.2-1,0.3-1.4c0.1-0.4,0.3-0.8,0.5-1.2c0.2-0.3,0.4-0.6,0.8-0.7c0.1-0.1,0.4-0.2,0.7-0.2
			c0.4-0.1,0.8-0.2,1.2-0.3c0.4-0.1,0.9-0.2,1.4-0.3c0.5-0.1,1-0.2,1.4-0.3c0.4-0.1,0.8-0.2,1.2-0.3c0.3-0.1,0.6-0.2,0.7-0.2
			c0,0.2-0.1,0.5-0.1,1c-0.1,0.5-0.2,1-0.3,1.7c-0.1,0.6-0.2,1.3-0.3,2c-0.1,0.7-0.2,1.4-0.3,2c-0.1,0.6-0.2,1.2-0.3,1.7
			c-0.1,0.5-0.1,0.8-0.2,1c0,0.3-0.1,0.6-0.1,0.9c0,0.3,0.1,0.5,0.4,0.8c0.2,0,0.4-0.1,0.5-0.1c0.1-0.1,0.2-0.2,0.3-0.3
			c0.1-0.1,0.1-0.2,0.1-0.4c0-0.1,0.1-0.3,0.1-0.4c0.1-0.3,0.1-0.8,0.2-1.3c0.1-0.5,0.2-1.1,0.3-1.7c0.1-0.6,0.2-1.1,0.3-1.7
			c0.1-0.5,0.1-1,0.2-1.3c0-0.3,0.1-0.7,0.2-1.2c0.1-0.6,0.1-1.2,0.2-1.9c0.1-0.7,0.2-1.4,0.3-2.2c0.1-0.8,0.2-1.5,0.3-2.2
			C79,6.7,79.1,6,79.1,5.5c0.1-0.6,0.1-1,0.1-1.2c0-0.2,0-0.4,0.1-0.6c0-0.2,0-0.4,0-0.6c0-0.2-0.1-0.3-0.2-0.4
			c-0.1-0.1-0.3-0.2-0.5-0.2c-0.2,0-0.4,0-0.5,0.1c-0.1,0.1-0.2,0.3-0.3,0.6c0,0.5,0.1,1,0.1,1.3c0,0.4,0,0.7,0,1.1
			c0,0.3-0.1,0.7-0.1,1c0,0.3-0.1,0.7-0.2,1.1c-0.2,0.8-0.5,1.4-1,1.8c-0.5,0.4-1.1,0.7-1.8,0.9c-0.7,0.2-1.4,0.4-2.3,0.5
			c-0.8,0.1-1.6,0.3-2.4,0.5c0-0.6,0-1.3,0.1-2.2c0.1-0.8,0.2-1.7,0.3-2.6c0.1-0.9,0.3-1.8,0.4-2.7c0.1-0.9,0.2-1.7,0.3-2.3
			c-0.1-0.1-0.2-0.2-0.4-0.3C70.7,1,70.6,1,70.4,0.9c-0.1,0-0.3,0-0.4,0.1c-0.1,0.1-0.2,0.2-0.2,0.5l-2.8,18.9
			C67,20.5,67.1,20.6,67.2,20.7z M78.6,17.5c-0.1,0.4-0.1,0.9,0,1.5c0,0.5,0.1,1.1,0.3,1.6c0.2,0.5,0.5,0.9,0.8,1.3
			c0.4,0.4,0.8,0.6,1.4,0.7c0.3,0.2,0.7,0.3,1.2,0.2c0.5-0.1,1.1-0.2,1.7-0.5c0.6-0.3,1.3-0.6,2-1c0.7-0.4,1.3-0.9,1.9-1.4
			c0.6-0.5,1.1-1,1.6-1.6c0.5-0.6,0.8-1.1,1-1.6c0-0.3,0-0.4-0.2-0.5c-0.2-0.1-0.4-0.1-0.6-0.2c0,0-0.1,0-0.2,0c-0.1,0-0.2,0-0.2,0
			c-0.3,0.5-0.7,1.1-1.2,1.7c-0.5,0.6-1.1,1.2-1.8,1.7c-0.7,0.5-1.3,0.9-2.1,1.2c-0.7,0.3-1.4,0.4-2.1,0.3c-0.6-0.1-1-0.3-1.3-0.5
			c-0.3-0.3-0.5-0.6-0.6-1c-0.1-0.4-0.1-0.8-0.1-1.3c0-0.5,0.1-0.9,0.2-1.4c0.1-0.4,0.2-0.9,0.4-1.7c0.2-0.8,0.5-1.6,0.8-2.5
			c0.3-0.9,0.7-1.9,1.1-2.8c0.4-1,0.9-1.8,1.4-2.6c0.5-0.8,1-1.4,1.6-1.8C86,5,86.6,4.8,87.1,4.9c0.2,0.1,0.4,0.3,0.5,0.5
			c0.1,0.3,0.2,0.5,0.3,0.8c0.1,0.2,0.2,0.4,0.4,0.6c0.2,0.1,0.5,0.1,1,0c0.1-0.4,0.1-0.8,0-1.1c0-0.4-0.1-0.7-0.3-1
			c-0.2-0.3-0.4-0.5-0.7-0.7c-0.3-0.2-0.6-0.3-1-0.4c-0.7-0.1-1.5,0.1-2.2,0.6c-0.7,0.5-1.4,1.2-2,2C82.6,7,82,8,81.5,9
			c-0.5,1.1-1,2.2-1.4,3.2c-0.4,1.1-0.7,2.1-1,3C78.8,16.2,78.7,17,78.6,17.5z M91.4,24c0.1,0.1,0.3,0.2,0.5,0.2
			c0.6,0,1.3,0,2.2-0.1c0.9-0.1,1.8-0.2,2.7-0.4c0.9-0.2,1.9-0.3,2.8-0.5c0.9-0.2,1.7-0.4,2.3-0.5c0.2-0.1,0.3-0.1,0.4-0.2
			c0.1-0.1,0.1-0.2,0-0.3c0-0.1-0.1-0.2-0.2-0.3c-0.1-0.1-0.2-0.2-0.3-0.2c-0.3,0-0.7,0-1.2,0.1c-0.5,0.1-1,0.2-1.6,0.3
			c-0.6,0.1-1.2,0.2-1.8,0.4c-0.6,0.1-1.2,0.2-1.8,0.3c-0.6,0.1-1.1,0.1-1.5,0.1c-0.4,0-0.8-0.1-1-0.3l1.1-6.1
			c0-0.2,0.3-0.4,0.7-0.6c0.4-0.2,0.9-0.3,1.5-0.4c0.6-0.1,1.2-0.2,1.9-0.3c0.7-0.1,1.3-0.2,1.9-0.3c0.6-0.1,1.1-0.3,1.5-0.5
			c0.4-0.2,0.6-0.5,0.7-0.8c-0.1-0.2-0.2-0.4-0.4-0.4c-0.1,0-0.3,0-0.4,0c-0.1,0-0.3,0.1-0.5,0.3l-6.8,1.3c0.1-1,0.2-2,0.3-3
			c0.1-1,0.2-2,0.4-3l9.1-1.1c0.2,0,0.4-0.1,0.5-0.3c0.1-0.1,0.2-0.3,0.2-0.4c0-0.2,0-0.3,0-0.5c-0.1-0.1-0.2-0.2-0.3-0.3L94.7,7
			c0-0.1,0-0.3,0-0.5c0-0.2,0-0.5,0-0.8c0-0.3-0.1-0.5-0.2-0.8c-0.1-0.2-0.2-0.4-0.4-0.5c-0.1-0.1-0.2-0.1-0.4,0
			c-0.1,0-0.2,0.1-0.3,0.2c-0.1,0.1-0.2,0.2-0.3,0.3C93.1,4.9,93,5,93,5.1c0.1,1.5,0.1,3.1,0,4.6c-0.1,1.6-0.3,3.1-0.5,4.7
			c-0.2,1.6-0.5,3.1-0.8,4.7c-0.3,1.5-0.5,3-0.8,4.5C91.1,23.8,91.2,24,91.4,24z M104.6,16.8c0.3,0.5,0.7,1,1.2,1.3
			c0.5,0.4,1.1,0.7,1.8,1c0.7,0.3,1.4,0.5,2.1,0.7c0.7,0.2,1.4,0.4,2.1,0.6c0.7,0.2,1.3,0.3,1.9,0.5c0.5,0.2,1,0.4,1.3,0.6
			c0.3,0.2,0.5,0.4,0.4,0.7c-0.3,0.4-0.8,0.8-1.4,1.1c-0.6,0.3-1.3,0.6-2.1,0.8c-0.8,0.2-1.6,0.4-2.4,0.5c-0.8,0.1-1.5,0.3-2.2,0.4
			c-0.7,0.1-1.2,0.2-1.7,0.3c-0.4,0.1-0.7,0.2-0.7,0.2c-0.1,0.2-0.1,0.4,0,0.5c0.1,0.1,0.2,0.2,0.4,0.2c0.5,0.1,1.2,0.1,2,0.1
			c0.8,0,1.6-0.1,2.4-0.2c0.8-0.1,1.7-0.3,2.5-0.6c0.8-0.2,1.6-0.5,2.3-0.9c0.7-0.3,1.2-0.7,1.7-1.1c0.4-0.4,0.7-0.8,0.8-1.3
			c0.1-0.5,0-0.9-0.3-1.2c-0.3-0.3-0.7-0.6-1.2-0.9c-0.5-0.2-1.1-0.5-1.9-0.7c-0.7-0.2-1.4-0.4-2.1-0.6c-0.7-0.2-1.4-0.4-2.1-0.6
			c-0.7-0.2-1.3-0.5-1.8-0.7c-0.5-0.3-0.9-0.6-1.2-1c-0.3-0.4-0.4-0.8-0.3-1.4c0.1-0.4,0.2-0.9,0.5-1.3c0.3-0.5,0.7-1,1.1-1.4
			c0.4-0.5,0.9-0.9,1.5-1.3c0.5-0.4,1.1-0.8,1.6-1.1c0.6-0.3,1.1-0.5,1.6-0.7c0.5-0.1,1-0.2,1.4-0.1l0.9,0.5c0.5,0.1,0.9,0,1.2-0.1
			c0.4-0.2,0.6-0.5,0.6-1c0-0.2,0-0.4-0.1-0.5c-0.1-0.1-0.2-0.2-0.3-0.2c-0.1-0.1-0.3-0.1-0.4-0.1c-0.2,0-0.3,0-0.5-0.1
			c-0.6-0.1-1.2-0.1-2,0.1c-0.7,0.1-1.5,0.4-2.2,0.7c-0.8,0.3-1.5,0.7-2.2,1.2c-0.7,0.5-1.4,1-2,1.6c-0.6,0.6-1.1,1.2-1.5,1.8
			c-0.4,0.6-0.7,1.3-0.8,2C104.2,15.7,104.3,16.3,104.6,16.8z M111.5,6.3c0,0.1,0.1,0.2,0.2,0.3c0.1,0,0.2,0.1,0.4,0
			c0.1,0,0.2-0.1,0.4-0.1c0.1-0.1,0.2-0.1,0.2-0.2l2.9-3.9c0-0.2,0-0.3-0.1-0.4c-0.1-0.1-0.2-0.2-0.3-0.3c-0.1-0.1-0.3-0.1-0.4-0.1
			c-0.2,0-0.3,0-0.4,0.1l-2.2,2.9l-1.6-3.4c-0.1-0.1-0.2-0.1-0.4-0.1c-0.2,0-0.4,0-0.5,0.1c-0.2,0.1-0.3,0.2-0.4,0.3
			c-0.1,0.1-0.1,0.3,0,0.5L111.5,6.3z M129.4,30.1c0.1,0,0.1,0,0.2,0c0.4,0.1,0.6,0.1,0.7-0.1c0.1-0.2,0.2-0.5,0.3-0.8
			c0.1-0.5,0.2-0.9,0.3-1.4c0.1-0.5,0.2-1,0.3-1.5c0.1-0.5,0.2-1,0.3-1.5c0.1-0.5,0.2-1,0.3-1.5c0.2-0.4,0.6-0.8,1.2-1.2
			c0.6-0.4,1.2-0.6,2-0.9c0.7-0.2,1.5-0.4,2.3-0.5c0.8-0.1,1.5-0.1,2.1,0c0.6,0.1,1.1,0.3,1.4,0.6c0.3,0.3,0.4,0.7,0.3,1.2
			c-0.1,0.4-0.4,0.8-0.9,1.3c-0.5,0.5-1.1,0.9-1.7,1.4c-0.7,0.5-1.4,1-2.1,1.4c-0.7,0.5-1.4,0.9-2.1,1.2c-0.6,0.4-1.2,0.6-1.7,0.8
			c-0.5,0.2-0.7,0.3-0.8,0.3l0.4,1c0.1,0.1,0.4,0,0.8-0.1c0.4-0.1,0.8-0.3,1.3-0.5c0.5-0.2,1.1-0.5,1.7-0.9c0.6-0.3,1.2-0.7,1.9-1.2
			c0.6-0.4,1.2-0.9,1.8-1.3c0.6-0.5,1.1-0.9,1.6-1.4c0.5-0.5,0.8-1,1.1-1.4c0.3-0.5,0.4-0.9,0.4-1.3c-0.1-0.7-0.4-1.2-0.9-1.6
			c-0.5-0.4-1.1-0.6-1.8-0.8c-0.7-0.2-1.4-0.2-2.1-0.2c-0.7,0-1.4,0.1-1.9,0.2c0.2-0.2,0.4-0.4,0.8-0.7c0.3-0.3,0.7-0.6,1.1-0.9
			c0.4-0.3,0.8-0.7,1.2-1.1c0.4-0.4,0.8-0.8,1.1-1.2c0.3-0.4,0.6-0.8,0.9-1.2c0.2-0.4,0.4-0.8,0.5-1.3c0.1-0.2,0-0.4-0.1-0.6
			c-0.1-0.2-0.2-0.3-0.4-0.5c-0.2-0.1-0.4-0.3-0.6-0.4c-0.2-0.1-0.4-0.2-0.6-0.2c-0.5-0.1-1-0.2-1.6-0.2c-0.6,0-1.1,0-1.7,0.1
			c-0.6,0.1-1.1,0.2-1.7,0.4c-0.5,0.2-1,0.4-1.5,0.5c0-0.1,0-0.2,0-0.4c0-0.1-0.1-0.3-0.1-0.5c0-0.2-0.1-0.3-0.2-0.4
			c-0.1-0.1-0.2-0.2-0.2-0.3c-0.1-0.1-0.3-0.1-0.4-0.1c-0.1,0-0.2,0-0.2,0.1c-0.1,0-0.1,0.1-0.1,0.2c0,0.1-0.1,0.2-0.1,0.2
			c-0.1,0.2-0.1,0.5-0.1,0.7c0,0.2,0,0.5,0.1,0.7l-2.7,17.3C129.3,30.1,129.3,30.1,129.4,30.1z M132.4,18.9c0-0.5,0.1-1,0.2-1.5
			c0.1-0.5,0.2-1,0.3-1.5c0.1-0.5,0.2-0.9,0.3-1.2c0.1-0.3,0.3-0.6,0.6-0.9c0.3-0.3,0.6-0.5,1-0.6c0.4-0.2,0.8-0.3,1.3-0.4
			c0.5-0.1,0.9-0.1,1.4-0.2c0.4,0,0.9,0,1.3,0s0.7,0.1,1,0.2c0.3,0.3,0.3,0.7,0.2,1.1c-0.2,0.4-0.5,0.9-0.9,1.4
			c-0.4,0.5-0.9,1-1.6,1.5c-0.6,0.5-1.2,1-1.9,1.4c-0.6,0.4-1.2,0.8-1.8,1.2c-0.5,0.3-1,0.6-1.3,0.8
			C132.4,19.8,132.4,19.4,132.4,18.9z M145.3,32.1c0,0.2,0.1,0.4,0.3,0.4c0.2,0,0.5,0.1,0.7,0.1c0.6-1.2,1.1-2.2,1.6-3
			c0.4-0.8,0.8-1.5,1-2c0.3-0.5,0.5-1,0.6-1.3c0.2-0.3,0.3-0.6,0.4-0.8c0.1-0.2,0.2-0.5,0.3-0.7c0.1-0.2,0.2-0.5,0.3-0.8
			c0.1-0.3,0.3-0.7,0.5-1.2c0.2-0.5,0.5-1.1,0.9-1.8c0.4-0.7,0.8-1.6,1.4-2.7c0.5-1.1,1.2-2.4,2-3.9c0-0.1,0-0.2-0.1-0.4
			c-0.1-0.1-0.1-0.3-0.2-0.4c-0.1-0.1-0.2-0.2-0.3-0.2c-0.1-0.1-0.3,0-0.4,0.1c-0.1,0.4-0.3,0.9-0.6,1.5c-0.3,0.6-0.6,1.2-0.9,1.9
			c-0.3,0.7-0.7,1.4-1,2c-0.4,0.7-0.7,1.3-1,1.9c-0.3,0.6-0.6,1.1-0.8,1.5c-0.2,0.4-0.4,0.7-0.5,0.8l-5.5-9.3c-0.2,0-0.4,0-0.6,0.1
			c-0.2,0.1-0.4,0.2-0.4,0.4l5.7,10.5L145.3,32.1z M164.1,13.3c0,0.1,0.1,0.2,0.2,0.3c0.1,0,0.2,0.1,0.4,0c0.1,0,0.2-0.1,0.4-0.1
			c0.1-0.1,0.2-0.1,0.2-0.2l2.9-3.9c0-0.2,0-0.3-0.1-0.4c-0.1-0.1-0.2-0.2-0.3-0.3c-0.1-0.1-0.3-0.1-0.4-0.1c-0.2,0-0.3,0-0.4,0.1
			l-2.2,2.9l-1.6-3.4c-0.1-0.1-0.2-0.1-0.4-0.1c-0.2,0-0.4,0-0.5,0.1c-0.2,0.1-0.3,0.2-0.4,0.3c-0.1,0.1-0.1,0.3,0,0.5L164.1,13.3z
			 M156.1,16.2c0.6,0.1,1.2,0.2,1.8,0.2c0.6,0,1.2,0,1.8,0.1c0.6,0,1.2,0,1.8,0.1c0.6,0,1.2,0.1,1.8,0.3c0,0.8-0.1,1.6-0.2,2.6
			c-0.1,1-0.3,2-0.4,3.1c-0.2,1.1-0.3,2.2-0.5,3.3c-0.2,1.1-0.3,2.2-0.5,3.3c-0.1,1.1-0.2,2-0.3,3c-0.1,0.9-0.1,1.7-0.1,2.3
			c0.5,0.2,0.8,0.2,1,0.2c0.2,0,0.3-0.3,0.3-0.8c0.2-0.8,0.3-1.7,0.5-2.6c0.1-0.9,0.2-1.9,0.3-2.9c0.1-1,0.2-2,0.3-3
			c0.1-1,0.2-2,0.3-3c0.1-1,0.3-1.9,0.4-2.9c0.2-0.9,0.4-1.8,0.6-2.6c0.3,0,0.8,0,1.4,0.1c0.6,0.1,1.2,0.1,1.9,0.2
			c0.7,0.1,1.4,0.2,2,0.2c0.7,0.1,1.3,0.1,1.8,0.1c0.5,0,1,0,1.3-0.1c0.3-0.1,0.4-0.3,0.4-0.6c-0.1,0-0.2-0.1-0.4-0.1
			c-0.2,0-0.3-0.1-0.4-0.1c-2.6-0.3-5.2-0.6-7.7-1c-0.1,0-0.2-0.1-0.2-0.2c0-0.1-0.1-0.2-0.2-0.4c-0.1-0.1-0.1-0.3-0.2-0.4
			c-0.1-0.1-0.2-0.2-0.4-0.3c-0.1,0-0.3,0-0.4,0.1c-0.1,0.1-0.2,0.2-0.3,0.3c-0.1,0.1-0.2,0.3-0.3,0.4c-0.1,0.1-0.1,0.2-0.1,0.3
			l-7-0.6c-0.2,0-0.3,0-0.5,0.2c-0.2,0.1-0.3,0.3-0.3,0.5c-0.1,0.3,0,0.4,0.1,0.5C155.8,16.1,155.9,16.2,156.1,16.2z M181,38.4
			c0.2,0.1,0.5,0.1,0.8-0.2c0.2-0.7,0.4-1.3,0.6-1.8c0.2-0.5,0.3-1,0.5-1.4c0.2-0.5,0.3-0.8,0.3-1c0.1-0.3,0.3-0.6,0.7-0.8
			c0.3-0.2,0.8-0.3,1.2-0.4c0.5-0.1,1-0.2,1.5-0.2c0.6,0,1.1-0.1,1.6-0.1c0.5,0,1.1,0,1.5,0c0.5,0,0.9,0,1.2-0.1l1.6,7.2
			c0.3,0.3,0.6,0.4,0.7,0.5c0.2,0.1,0.3,0,0.4,0c0.1-0.1,0.2-0.1,0.2-0.2c0-0.1,0.1-0.2,0.1-0.3l-1.5-7.2c0,0,0.1-0.1,0.2-0.1
			c0.1,0,0.3,0,0.5-0.1c0.2,0,0.4,0,0.6-0.1c0.2,0,0.4,0,0.5-0.1c0.3-0.1,0.6-0.2,0.7-0.3c0.2-0.2,0.2-0.3,0.2-0.5
			c0-0.2,0-0.3-0.2-0.4c-0.1-0.1-0.3-0.2-0.5-0.2l-2.5,0.4L189.6,19c0-0.1,0-0.2-0.1-0.3c-0.1-0.1-0.2-0.2-0.4-0.2
			c-0.2,0-0.3-0.1-0.5,0c-0.2,0-0.3,0.1-0.4,0.3c-1.3,3.3-2.4,6.1-3.3,8.4c-0.9,2.3-1.7,4.1-2.3,5.6c-0.6,1.5-1.1,2.6-1.5,3.4
			c-0.4,0.8-0.6,1.3-0.8,1.7C180.5,38,180.8,38.3,181,38.4z M188.6,21.4l1.9,9.4c-0.5,0.1-1,0.1-1.6,0.2c-0.6,0-1.1,0.1-1.7,0.1
			c-0.6,0-1.1,0.1-1.6,0.1c-0.5,0-0.9,0.1-1.1,0.1L188.6,21.4z M195.1,35.3c-0.2,0.3-0.2,0.7-0.1,1.2c0.1,0.5,0.2,0.9,0.5,1.4
			c0.2,0.5,0.6,1,0.9,1.5c0.4,0.5,0.8,1,1.2,1.4c0.4,0.4,0.9,0.8,1.4,1c0.5,0.3,0.9,0.5,1.4,0.5c0.8,0.1,1.4,0.1,1.9-0.1
			c0.5-0.2,1-0.5,1.3-0.8c0.4-0.4,0.6-0.9,0.8-1.4c0.2-0.6,0.4-1.2,0.5-1.9c0.2-1.3,0.3-2.6,0.4-4c0.1-1.4,0.1-2.8,0.1-4.3
			c0-1.4,0-2.9,0-4.3c0-1.4,0-2.8-0.1-4c-0.1-0.3-0.2-0.4-0.4-0.4c-0.2,0-0.3,0-0.5,0.1c-0.2,0.1-0.3,0.2-0.4,0.4
			c-0.1,0.2-0.1,0.3-0.1,0.5c0,0.2-0.1,0.5-0.1,1.1c0,0.5,0,1.2,0,2c0,0.8,0,1.7,0,2.6c0,1,0,2,0,3c0,1,0,2-0.1,3
			c0,1-0.1,1.9-0.2,2.8c-0.1,0.8-0.2,1.6-0.4,2.2c-0.2,0.6-0.4,1.1-0.6,1.4c-0.5,0.4-1.1,0.6-1.6,0.6c-0.6,0-1.1-0.1-1.6-0.3
			c-0.5-0.2-1-0.6-1.5-1c-0.5-0.4-0.9-0.9-1.2-1.5c-0.3-0.5-0.6-1-0.7-1.6c-0.1-0.5-0.2-1-0.1-1.4c0-0.1,0-0.3,0-0.4
			c-0.1-0.1-0.1-0.2-0.3-0.2c-0.1,0-0.2,0-0.4,0.2C195.4,34.8,195.2,35,195.1,35.3z M220.2,25.9c0.6,0.1,1.2,0.2,1.8,0.2
			c0.6,0,1.2,0,1.8,0.1c0.6,0,1.2,0,1.8,0.1c0.6,0,1.2,0.1,1.8,0.3c0,0.8-0.1,1.6-0.2,2.6c-0.1,1-0.3,2-0.4,3.1
			c-0.2,1.1-0.3,2.2-0.5,3.3c-0.2,1.1-0.3,2.2-0.5,3.3c-0.1,1.1-0.2,2-0.3,3c-0.1,0.9-0.1,1.7-0.1,2.3c0.5,0.2,0.8,0.2,1,0.2
			c0.2,0,0.3-0.3,0.3-0.8c0.2-0.8,0.3-1.7,0.5-2.6c0.1-0.9,0.2-1.9,0.3-2.9c0.1-1,0.2-2,0.3-3c0.1-1,0.2-2,0.3-3
			c0.1-1,0.3-1.9,0.4-2.9c0.2-0.9,0.4-1.8,0.6-2.6c0.3,0,0.8,0,1.4,0.1c0.6,0.1,1.2,0.1,1.9,0.2c0.7,0.1,1.4,0.2,2,0.2
			c0.7,0.1,1.3,0.1,1.8,0.1c0.5,0,1,0,1.3-0.1c0.3-0.1,0.4-0.3,0.4-0.6c-0.1,0-0.2-0.1-0.4-0.1c-0.2,0-0.3-0.1-0.4-0.1
			c-2.6-0.3-5.2-0.6-7.7-1c-0.1,0-0.2-0.1-0.2-0.2c0-0.1-0.1-0.2-0.2-0.4c-0.1-0.1-0.1-0.3-0.2-0.4c-0.1-0.1-0.2-0.2-0.4-0.3
			c-0.1,0-0.3,0-0.4,0.1c-0.1,0.1-0.2,0.2-0.3,0.3c-0.1,0.1-0.2,0.3-0.3,0.4c-0.1,0.1-0.1,0.2-0.1,0.3l-7-0.6c-0.2,0-0.3,0-0.5,0.2
			c-0.2,0.1-0.3,0.3-0.3,0.5c-0.1,0.3,0,0.4,0.1,0.5C219.9,25.8,220.1,25.9,220.2,25.9z M237.6,28.8l5.7,10.5l-3.4,7.2
			c0,0.2,0.1,0.4,0.3,0.4c0.2,0,0.5,0.1,0.7,0.1c0.6-1.2,1.1-2.2,1.6-3c0.4-0.8,0.8-1.5,1-2c0.3-0.5,0.5-1,0.6-1.3
			c0.2-0.3,0.3-0.6,0.4-0.8c0.1-0.2,0.2-0.5,0.3-0.7c0.1-0.2,0.2-0.5,0.3-0.8c0.1-0.3,0.3-0.7,0.5-1.2c0.2-0.5,0.5-1.1,0.9-1.8
			c0.4-0.7,0.8-1.6,1.4-2.7c0.5-1.1,1.2-2.4,2-3.9c0-0.1,0-0.2-0.1-0.4c-0.1-0.1-0.1-0.3-0.2-0.4c-0.1-0.1-0.2-0.2-0.3-0.2
			c-0.1-0.1-0.3,0-0.4,0.1c-0.1,0.4-0.3,0.9-0.6,1.5c-0.3,0.6-0.6,1.2-0.9,1.9c-0.3,0.7-0.7,1.4-1,2c-0.4,0.7-0.7,1.3-1,1.9
			c-0.3,0.6-0.6,1.1-0.8,1.5c-0.2,0.4-0.4,0.7-0.5,0.8l-5.5-9.3c-0.2,0-0.4,0-0.6,0.1C237.8,28.4,237.7,28.6,237.6,28.8z M38.4,45.2
			c0.3,0.1,0.6,0,1.1-0.1l8.2-18c0-0.1,0-0.3-0.1-0.4c-0.1-0.1-0.2-0.2-0.4-0.3c-0.1-0.1-0.3-0.1-0.5-0.1c-0.2,0-0.3,0.1-0.3,0.2
			l-7.6,16.7l-3.1-17.9c-0.1-0.2-0.2-0.4-0.3-0.6c-0.2-0.1-0.3-0.2-0.5-0.2c-0.2,0-0.3,0-0.4,0.1c-0.1,0.1-0.2,0.3-0.2,0.5l3.4,19.7
			C37.9,45,38.1,45.1,38.4,45.2z M62.2,40.2c0.5-0.1,1.1-0.3,1.8-0.6c0.7-0.2,1.5-0.5,2.4-0.9c0.9-0.3,1.7-0.8,2.5-1.3
			c0.8-0.5,1.5-1.1,2.1-1.8c0.6-0.7,1-1.4,1.1-2.3c0-0.7-0.2-1.2-0.4-1.7c-0.3-0.5-0.6-0.9-1.1-1.2c-0.5-0.3-1-0.5-1.5-0.7
			c-0.6-0.1-1.2-0.2-1.8-0.2c-0.6,0-1.3,0.1-1.9,0.2c-0.7,0.1-1.3,0.3-1.8,0.5c-0.1-0.1-0.2-0.2-0.2-0.3c0-0.1-0.1-0.3-0.1-0.4
			c0-0.1-0.1-0.2-0.2-0.3c-0.1-0.1-0.2-0.1-0.3-0.2c-0.2,0-0.4,0.1-0.6,0.3c-0.3,0.3-0.5,0.5-0.8,0.9c-0.3,0.3-0.5,0.7-0.8,1
			c-0.2,0.3-0.5,0.6-0.6,0.7c0,0,0,0.1,0,0.1l0,0.1c0,0.2,0,0.3,0.1,0.4c0.1,0.1,0.2,0.2,0.3,0.2c0.1,0,0.2,0,0.3-0.1
			c0.1-0.1,0.2-0.1,0.4-0.2c0.1-0.1,0.2-0.2,0.4-0.3c0.1-0.1,0.2-0.2,0.3-0.2c-0.1,1.2-0.2,2.3-0.4,3.5c-0.2,1.2-0.4,2.5-0.7,3.8
			c-0.2,1.3-0.5,2.7-0.8,4.1c-0.3,1.4-0.5,2.9-0.8,4.5c0,0.1,0.1,0.2,0.3,0.2c0.1,0.1,0.3,0.1,0.4,0.2c0.1,0,0.3,0,0.4,0
			c0.1,0,0.2-0.1,0.2-0.2l1.5-7.7C61.6,40.4,61.8,40.3,62.2,40.2z M62.9,32c0.8-0.5,1.7-0.8,2.6-1c0.9-0.2,1.8-0.2,2.6-0.1
			c0.8,0.1,1.4,0.4,1.9,0.9c0.5,0.5,0.8,1.2,0.7,2.1c-0.3,0.8-0.8,1.5-1.5,2c-0.7,0.6-1.4,1-2.2,1.4c-0.8,0.4-1.7,0.7-2.6,1
			c-0.9,0.3-1.8,0.5-2.6,0.6L62.9,32z M74.7,30.7c-0.1-0.1-0.2-0.2-0.4-0.2c-0.2,0-0.3,0-0.5,0c-0.2,0-0.3,0.1-0.3,0.2l-2.8,19.4
			c0,0.1,0.1,0.2,0.1,0.2c0.1,0.1,0.1,0.1,0.2,0.2c0.1,0,0.2,0,0.3,0c0.1,0,0.3-0.1,0.5-0.2l1.2-7.7l9.3,7.4c0.3,0.1,0.5,0,0.7-0.2
			c0.2-0.2,0.4-0.4,0.4-0.7L73.7,41c0.4-0.3,0.9-0.6,1.6-0.9c0.7-0.3,1.5-0.6,2.3-1c0.8-0.3,1.7-0.7,2.5-1.1
			c0.9-0.4,1.6-0.8,2.4-1.1c0.7-0.4,1.3-0.8,1.7-1.2c0.4-0.4,0.7-0.8,0.7-1.2c0-0.4-0.2-0.8-0.7-1.3c-0.5-0.4-1.4-0.9-2.6-1.3
			c-0.8-0.2-1.5-0.3-2.2-0.3c-0.7,0-1.3,0.1-1.9,0.2c-0.6,0.1-1.1,0.2-1.5,0.4c-0.4,0.1-0.8,0.2-1.1,0.2l0.1-1.3
			C74.9,31,74.8,30.8,74.7,30.7z M76,33.3c0.6-0.2,1.2-0.3,1.8-0.4c0.6-0.1,1.3-0.1,1.9-0.1c0.6,0,1.2,0.1,1.6,0.2
			c0.8,0.3,1.3,0.6,1.6,0.9c0.2,0.3,0.3,0.6,0.1,0.9c-0.2,0.3-0.5,0.6-1,1c-0.5,0.3-1.1,0.6-1.8,1c-0.7,0.3-1.4,0.6-2.1,0.9
			c-0.7,0.3-1.4,0.5-2,0.7c-0.6,0.2-1.2,0.4-1.6,0.5c-0.4,0.1-0.7,0.3-0.8,0.3c0.1-0.4,0.1-0.8,0.2-1.3c0.1-0.5,0.1-0.9,0.2-1.4
			c0.1-0.5,0.2-0.9,0.2-1.4c0.1-0.4,0.2-0.8,0.2-1.1C74.9,33.8,75.4,33.5,76,33.3z M96.4,46.4c0.2,0,0.4,0,0.6-0.1
			c0.2,0,0.4,0,0.5-0.1c0.3-0.1,0.6-0.2,0.7-0.3c0.2-0.2,0.2-0.3,0.2-0.5c0-0.2,0-0.3-0.2-0.4c-0.1-0.1-0.3-0.2-0.5-0.2l-2.5,0.4
			l-2.9-11.8c0-0.1,0-0.2-0.1-0.3c-0.1-0.1-0.2-0.2-0.4-0.2c-0.2,0-0.3-0.1-0.5,0c-0.2,0-0.3,0.1-0.4,0.3c-1.3,3.3-2.4,6.1-3.3,8.4
			c-0.9,2.3-1.7,4.1-2.3,5.6c-0.6,1.5-1.1,2.6-1.5,3.4c-0.4,0.8-0.6,1.3-0.8,1.7c0.3,0.4,0.6,0.6,0.8,0.7c0.2,0.1,0.5,0.1,0.8-0.2
			c0.2-0.7,0.4-1.3,0.6-1.8c0.2-0.5,0.3-1,0.5-1.4c0.2-0.5,0.3-0.8,0.3-1c0.1-0.3,0.3-0.6,0.7-0.8c0.3-0.2,0.8-0.3,1.2-0.4
			c0.5-0.1,1-0.2,1.5-0.2c0.6,0,1.1-0.1,1.6-0.1c0.5,0,1.1,0,1.5,0c0.5,0,0.9,0,1.2-0.1l1.6,7.2c0.3,0.3,0.6,0.4,0.7,0.5
			c0.2,0.1,0.3,0,0.4,0c0.1-0.1,0.2-0.1,0.2-0.2c0-0.1,0.1-0.2,0.1-0.3l-1.5-7.2c0,0,0.1-0.1,0.2-0.1C96,46.4,96.2,46.4,96.4,46.4z
			 M91.9,45.3c-0.6,0-1.1,0.1-1.7,0.1c-0.6,0-1.1,0.1-1.6,0.1c-0.5,0-0.9,0.1-1.1,0.1l4-9.9l1.9,9.4C93,45.2,92.5,45.2,91.9,45.3z
			 M91.4,31.6c0.3-0.2,0.6-0.4,0.9-0.6c0.3-0.2,0.5-0.4,0.7-0.6c0.2-0.2,0.4-0.4,0.4-0.6l0-0.2c0-0.2,0-0.4-0.1-0.6
			c-0.1-0.2-0.3-0.3-0.5-0.3c-0.5,0.3-0.9,0.6-1.4,0.9c-0.5,0.3-0.8,0.6-1.1,0.9c-0.3,0.3-0.4,0.6-0.4,0.9c0,0.3,0.2,0.5,0.7,0.6
			C90.9,31.9,91.1,31.7,91.4,31.6z M110.8,48.5c-0.2-0.1-0.4-0.1-0.6-0.2c0,0-0.1,0-0.2,0c-0.1,0-0.2,0-0.2,0
			c-0.3,0.5-0.7,1.1-1.2,1.7c-0.5,0.6-1.1,1.2-1.8,1.7c-0.7,0.5-1.3,0.9-2.1,1.2c-0.7,0.3-1.4,0.4-2.1,0.3c-0.6-0.1-1-0.3-1.3-0.5
			c-0.3-0.3-0.5-0.6-0.6-1c-0.1-0.4-0.1-0.8-0.1-1.3c0-0.5,0.1-0.9,0.2-1.4c0.1-0.4,0.2-0.9,0.4-1.7c0.2-0.8,0.5-1.6,0.8-2.5
			c0.3-0.9,0.7-1.9,1.1-2.8c0.4-1,0.9-1.8,1.4-2.6c0.5-0.8,1-1.4,1.6-1.8c0.5-0.5,1.1-0.7,1.6-0.6c0.2,0.1,0.4,0.3,0.5,0.5
			c0.1,0.3,0.2,0.5,0.3,0.8c0.1,0.2,0.2,0.4,0.4,0.6c0.2,0.1,0.5,0.1,1,0c0.1-0.4,0.1-0.8,0-1.1c0-0.4-0.1-0.7-0.3-1
			c-0.2-0.3-0.4-0.5-0.7-0.7c-0.3-0.2-0.6-0.3-1-0.4c-0.7-0.1-1.5,0.1-2.2,0.6c-0.7,0.5-1.4,1.2-2,2c-0.6,0.8-1.2,1.8-1.7,2.9
			c-0.5,1.1-1,2.2-1.4,3.2c-0.4,1.1-0.7,2.1-1,3c-0.3,0.9-0.4,1.7-0.5,2.2c-0.1,0.4-0.1,0.9,0,1.5c0,0.5,0.1,1.1,0.3,1.6
			c0.2,0.5,0.5,0.9,0.8,1.3c0.4,0.4,0.8,0.6,1.4,0.7c0.3,0.2,0.7,0.3,1.2,0.2c0.5-0.1,1.1-0.2,1.7-0.5c0.6-0.3,1.3-0.6,2-1
			c0.7-0.4,1.3-0.9,1.9-1.4c0.6-0.5,1.1-1,1.6-1.6c0.5-0.6,0.8-1.1,1-1.6C111.1,48.7,111,48.6,110.8,48.5z M114.7,36.7
			c-0.1,0-0.3,0-0.4,0c-0.1,0-0.2,0.1-0.3,0.2l-2.4,19.4c0.1,0.1,0.2,0.2,0.3,0.3c0.1,0.1,0.3,0.1,0.4,0.1c0.1,0,0.3,0,0.4-0.1
			c0.1-0.1,0.2-0.2,0.2-0.4l2.5-19c0-0.1-0.1-0.2-0.2-0.2C115,36.8,114.8,36.8,114.7,36.7z M128.9,50.8c0.5,0.4,1.1,0.7,1.8,1
			c0.7,0.3,1.4,0.5,2.1,0.7c0.7,0.2,1.4,0.4,2.1,0.6c0.7,0.2,1.3,0.3,1.9,0.5c0.5,0.2,1,0.4,1.3,0.6c0.3,0.2,0.5,0.4,0.4,0.7
			c-0.3,0.4-0.8,0.8-1.4,1.1c-0.6,0.3-1.3,0.6-2.1,0.8c-0.8,0.2-1.6,0.4-2.4,0.5c-0.8,0.1-1.5,0.3-2.2,0.4c-0.7,0.1-1.2,0.2-1.7,0.3
			c-0.4,0.1-0.7,0.2-0.7,0.2c-0.1,0.2-0.1,0.4,0,0.5c0.1,0.1,0.2,0.2,0.4,0.2c0.5,0.1,1.2,0.1,2,0.1c0.8,0,1.6-0.1,2.4-0.2
			c0.8-0.1,1.7-0.3,2.5-0.6c0.8-0.2,1.6-0.5,2.3-0.9c0.7-0.3,1.2-0.7,1.7-1.1c0.4-0.4,0.7-0.8,0.8-1.3c0.1-0.5,0-0.9-0.3-1.2
			c-0.3-0.3-0.7-0.6-1.2-0.9c-0.5-0.2-1.1-0.5-1.9-0.7c-0.7-0.2-1.4-0.4-2.1-0.6c-0.7-0.2-1.4-0.4-2.1-0.6c-0.7-0.2-1.3-0.5-1.8-0.7
			c-0.5-0.3-0.9-0.6-1.2-1c-0.3-0.4-0.4-0.8-0.3-1.4c0.1-0.4,0.2-0.9,0.5-1.3c0.3-0.5,0.7-1,1.1-1.4c0.4-0.5,0.9-0.9,1.5-1.3
			c0.5-0.4,1.1-0.8,1.6-1.1c0.6-0.3,1.1-0.5,1.6-0.7c0.5-0.1,1-0.2,1.4-0.1l0.9,0.5c0.5,0.1,0.9,0,1.2-0.1c0.4-0.2,0.6-0.5,0.6-1
			c0-0.2,0-0.4-0.1-0.5c-0.1-0.1-0.2-0.2-0.3-0.2c-0.1-0.1-0.3-0.1-0.4-0.1c-0.2,0-0.3,0-0.5-0.1c-0.6-0.1-1.2-0.1-2,0.1
			c-0.7,0.1-1.5,0.4-2.2,0.7c-0.8,0.3-1.5,0.7-2.2,1.2c-0.7,0.5-1.4,1-2,1.6c-0.6,0.6-1.1,1.2-1.5,1.8c-0.4,0.6-0.7,1.3-0.8,2
			c-0.1,0.7,0,1.3,0.3,1.8C128,49.9,128.3,50.4,128.9,50.8z M147.8,40.1c0.3-0.2,0.6-0.4,0.9-0.6c0.3-0.2,0.5-0.4,0.7-0.6
			c0.2-0.2,0.4-0.4,0.4-0.6l0-0.2c0-0.2,0-0.4-0.1-0.6c-0.1-0.2-0.3-0.3-0.5-0.3c-0.5,0.3-0.9,0.6-1.4,0.9c-0.5,0.3-0.8,0.6-1.1,0.9
			c-0.3,0.3-0.4,0.6-0.4,0.9c0,0.3,0.2,0.5,0.7,0.6C147.2,40.4,147.5,40.3,147.8,40.1z M141.7,59.3c0.2-0.5,0.3-1,0.5-1.4
			c0.2-0.5,0.3-0.8,0.3-1c0.1-0.3,0.3-0.6,0.7-0.8c0.3-0.2,0.8-0.3,1.2-0.4c0.5-0.1,1-0.2,1.5-0.2c0.6,0,1.1-0.1,1.6-0.1
			c0.5,0,1.1,0,1.5,0c0.5,0,0.9,0,1.2-0.1l1.6,7.2c0.3,0.3,0.6,0.4,0.7,0.5c0.2,0.1,0.3,0,0.4,0c0.1-0.1,0.2-0.1,0.2-0.2
			c0-0.1,0.1-0.2,0.1-0.3l-1.5-7.2c0,0,0.1-0.1,0.2-0.1c0.1,0,0.3,0,0.5-0.1c0.2,0,0.4,0,0.6-0.1c0.2,0,0.4,0,0.5-0.1
			c0.3-0.1,0.6-0.2,0.7-0.3c0.2-0.2,0.2-0.3,0.2-0.5c0-0.2,0-0.3-0.2-0.4c-0.1-0.1-0.3-0.2-0.5-0.2l-2.5,0.4l-2.9-11.8
			c0-0.1,0-0.2-0.1-0.3c-0.1-0.1-0.2-0.2-0.4-0.2c-0.2,0-0.3-0.1-0.5,0c-0.2,0-0.3,0.1-0.4,0.3c-1.3,3.3-2.4,6.1-3.3,8.4
			c-0.9,2.3-1.7,4.1-2.3,5.6c-0.6,1.5-1.1,2.6-1.5,3.4c-0.4,0.8-0.6,1.3-0.8,1.7c0.3,0.4,0.6,0.6,0.8,0.7c0.2,0.1,0.5,0.1,0.8-0.2
			C141.3,60.5,141.5,59.9,141.7,59.3z M147.9,44.3l1.9,9.4c-0.5,0.1-1,0.1-1.6,0.2c-0.6,0-1.1,0.1-1.7,0.1c-0.6,0-1.1,0.1-1.6,0.1
			c-0.5,0-0.9,0.1-1.1,0.1L147.9,44.3z M162.8,56.1c0.2,0.7,0.4,1.2,0.6,1.7c0.1,0.6,0.3,0.8,0.5,0.8c0.2,0,0.5-0.2,0.9-0.6
			c0.3-0.4,0.7-0.9,1.1-1.6c0.4-0.7,0.8-1.4,1.2-2.2c0.4-0.8,0.8-1.6,1.1-2.4c0.4-0.8,0.7-1.5,1-2.1c0.3-0.6,0.5-1.1,0.7-1.5
			c0.2-0.4,0.3-0.6,0.4-0.5l-1.1,17.4c0.1,0.1,0.3,0.3,0.5,0.4c0.2,0.1,0.3,0.2,0.5,0.2c0.2,0,0.3,0,0.4,0c0.1-0.1,0.2-0.2,0.3-0.4
			c0-1.7,0-3.4,0-5.1c0.1-1.7,0.1-3.4,0.2-5.1c0.1-1.7,0.2-3.3,0.3-4.9c0.1-1.6,0.2-3.1,0.3-4.6c0-0.3-0.1-0.4-0.2-0.6
			c-0.1-0.1-0.2-0.2-0.4-0.2c-0.1,0-0.3,0-0.4,0c-0.1,0.1-0.2,0.1-0.3,0.2c-0.9,1.8-1.7,3.4-2.3,4.6c-0.6,1.3-1.2,2.3-1.6,3.2
			c-0.4,0.8-0.8,1.5-1,2c-0.2,0.5-0.4,0.8-0.6,1c-0.1,0.2-0.2,0.4-0.3,0.4c-0.1,0-0.1,0.1-0.2,0.1c-0.4-0.6-0.7-1.3-0.9-2.2
			c-0.3-0.8-0.5-1.7-0.7-2.6c-0.2-0.9-0.5-1.8-0.7-2.7c-0.2-0.9-0.5-1.8-0.9-2.5c-0.3-0.8-0.8-1.5-1.2-2.1c-0.5-0.6-1-1.1-1.7-1.4
			c-0.2,0-0.3,0-0.5,0c-0.1,0.1-0.2,0.2-0.3,0.6c0,1.6,0,3.2-0.1,4.8c-0.1,1.6-0.2,3.3-0.4,4.9c-0.2,1.6-0.3,3.3-0.5,4.9
			c-0.2,1.6-0.2,3.2-0.3,4.8c0.1,0.3,0.3,0.4,0.4,0.5c0.2,0.1,0.3,0.1,0.5,0c0.2-0.1,0.3-0.2,0.4-0.3c0.1-0.1,0.1-0.3,0.1-0.5
			c0.2-1.2,0.3-2.6,0.4-4c0.1-1.5,0.1-2.9,0.2-4.4c0.1-1.5,0.1-3,0.2-4.4c0.1-1.5,0.2-2.8,0.4-4c0.3,0.3,0.6,0.7,0.9,1.2
			c0.3,0.6,0.6,1.2,0.9,2c0.3,0.8,0.5,1.6,0.8,2.4c0.3,0.9,0.5,1.7,0.7,2.5C162.4,54.7,162.6,55.5,162.8,56.1z M192.6,65.5
			c-0.8,0.2-1.6,0.4-2.4,0.5c-0.8,0.1-1.5,0.3-2.2,0.4c-0.7,0.1-1.2,0.2-1.7,0.3c-0.4,0.1-0.7,0.2-0.7,0.2c-0.1,0.2-0.1,0.4,0,0.5
			c0.1,0.1,0.2,0.2,0.4,0.2c0.5,0.1,1.2,0.1,2,0.1c0.8,0,1.6-0.1,2.4-0.2c0.8-0.1,1.7-0.3,2.5-0.6c0.8-0.2,1.6-0.5,2.3-0.9
			c0.7-0.3,1.2-0.7,1.7-1.1c0.4-0.4,0.7-0.8,0.8-1.3c0.1-0.5,0-0.9-0.3-1.2c-0.3-0.3-0.7-0.6-1.2-0.9c-0.5-0.2-1.1-0.5-1.9-0.7
			c-0.7-0.2-1.4-0.4-2.1-0.6c-0.7-0.2-1.4-0.4-2.1-0.6c-0.7-0.2-1.3-0.5-1.8-0.7c-0.5-0.3-0.9-0.6-1.2-1c-0.3-0.4-0.4-0.8-0.3-1.4
			c0.1-0.4,0.2-0.9,0.5-1.3c0.3-0.5,0.7-1,1.1-1.4c0.4-0.5,0.9-0.9,1.5-1.3c0.5-0.4,1.1-0.8,1.6-1.1c0.6-0.3,1.1-0.5,1.6-0.7
			c0.5-0.1,1-0.2,1.4-0.1l0.9,0.5c0.5,0.1,0.9,0,1.2-0.1c0.4-0.2,0.6-0.5,0.6-1c0-0.2,0-0.4-0.1-0.5c-0.1-0.1-0.2-0.2-0.3-0.2
			c-0.1-0.1-0.3-0.1-0.4-0.1c-0.2,0-0.3,0-0.5-0.1c-0.6-0.1-1.2-0.1-2,0.1c-0.7,0.1-1.5,0.4-2.2,0.7c-0.8,0.3-1.5,0.7-2.2,1.2
			c-0.7,0.5-1.4,1-2,1.6c-0.6,0.6-1.1,1.2-1.5,1.8c-0.4,0.6-0.7,1.3-0.8,2c-0.1,0.7,0,1.3,0.3,1.8c0.3,0.5,0.7,1,1.2,1.3
			c0.5,0.4,1.1,0.7,1.8,1c0.7,0.3,1.4,0.5,2.1,0.7c0.7,0.2,1.4,0.4,2.1,0.6c0.7,0.2,1.3,0.3,1.9,0.5c0.5,0.2,1,0.4,1.3,0.6
			c0.3,0.2,0.5,0.4,0.4,0.7c-0.3,0.4-0.8,0.8-1.4,1.1C194.1,65,193.4,65.3,192.6,65.5z M202.2,51.9c0-0.2,0-0.5,0-0.8
			c0-0.3-0.1-0.5-0.2-0.8c-0.1-0.2-0.2-0.4-0.4-0.5c-0.1-0.1-0.2-0.1-0.4,0c-0.1,0-0.2,0.1-0.3,0.2c-0.1,0.1-0.2,0.2-0.3,0.3
			c-0.1,0.1-0.1,0.2-0.1,0.3c0.1,1.5,0.1,3.1,0,4.6c-0.1,1.6-0.3,3.1-0.5,4.7c-0.2,1.6-0.5,3.1-0.8,4.7c-0.3,1.5-0.5,3-0.8,4.5
			c0.1,0.2,0.3,0.4,0.4,0.5c0.1,0.1,0.3,0.2,0.5,0.2c0.6,0,1.3,0,2.2-0.1c0.9-0.1,1.8-0.2,2.7-0.4c0.9-0.2,1.9-0.3,2.8-0.5
			c0.9-0.2,1.7-0.4,2.3-0.5c0.2-0.1,0.3-0.1,0.4-0.2c0.1-0.1,0.1-0.2,0-0.3c0-0.1-0.1-0.2-0.2-0.3c-0.1-0.1-0.2-0.2-0.3-0.2
			c-0.3,0-0.7,0-1.2,0.1c-0.5,0.1-1,0.2-1.6,0.3c-0.6,0.1-1.2,0.2-1.8,0.4c-0.6,0.1-1.2,0.2-1.8,0.3c-0.6,0.1-1.1,0.1-1.5,0.1
			c-0.4,0-0.8-0.1-1-0.3l1.1-6.1c0-0.2,0.3-0.4,0.7-0.6c0.4-0.2,0.9-0.3,1.5-0.4c0.6-0.1,1.2-0.2,1.9-0.3c0.7-0.1,1.3-0.2,1.9-0.3
			c0.6-0.1,1.1-0.3,1.5-0.5c0.4-0.2,0.6-0.5,0.7-0.8c-0.1-0.2-0.2-0.4-0.4-0.4c-0.1,0-0.3,0-0.4,0c-0.1,0-0.3,0.1-0.5,0.3l-6.8,1.3
			c0.1-1,0.2-2,0.3-3c0.1-1,0.2-2,0.4-3l9.1-1.1c0.2,0,0.4-0.1,0.5-0.3c0.1-0.1,0.2-0.3,0.2-0.4c0-0.2,0-0.3,0-0.5
			c-0.1-0.1-0.2-0.2-0.3-0.3l-9.3,0.9C202.2,52.3,202.2,52.1,202.2,51.9z M210.6,71.5c0,0,0,0,0.1,0.1c0.1,0,0.1,0,0.2,0
			c0.4,0.1,0.6,0.1,0.7-0.1c0.1-0.2,0.2-0.5,0.3-0.8c0.1-0.5,0.2-0.9,0.3-1.4c0.1-0.5,0.2-1,0.3-1.5c0.1-0.5,0.2-1,0.3-1.5
			c0.1-0.5,0.2-1,0.3-1.5c0.2-0.4,0.6-0.8,1.2-1.2c0.6-0.4,1.2-0.6,2-0.9c0.7-0.2,1.5-0.4,2.3-0.5c0.8-0.1,1.5-0.1,2.1,0
			c0.6,0.1,1.1,0.3,1.4,0.6c0.3,0.3,0.4,0.7,0.3,1.2c-0.1,0.4-0.4,0.8-0.9,1.3c-0.5,0.5-1.1,0.9-1.7,1.4c-0.7,0.5-1.4,1-2.1,1.4
			c-0.7,0.5-1.4,0.9-2.1,1.2c-0.6,0.4-1.2,0.6-1.7,0.8c-0.5,0.2-0.7,0.3-0.8,0.3l0.4,1c0.1,0.1,0.4,0,0.8-0.1
			c0.4-0.1,0.8-0.3,1.3-0.5c0.5-0.2,1.1-0.5,1.7-0.9c0.6-0.3,1.2-0.7,1.9-1.2c0.6-0.4,1.2-0.9,1.8-1.3c0.6-0.5,1.1-0.9,1.6-1.4
			c0.5-0.5,0.8-1,1.1-1.4c0.3-0.5,0.4-0.9,0.4-1.3c-0.1-0.7-0.4-1.2-0.9-1.6c-0.5-0.4-1.1-0.6-1.8-0.8c-0.7-0.2-1.4-0.2-2.1-0.2
			c-0.7,0-1.4,0.1-1.9,0.2c0.2-0.2,0.4-0.4,0.8-0.7c0.3-0.3,0.7-0.6,1.1-0.9c0.4-0.3,0.8-0.7,1.2-1.1c0.4-0.4,0.8-0.8,1.1-1.2
			c0.3-0.4,0.6-0.8,0.9-1.2c0.2-0.4,0.4-0.8,0.5-1.3c0.1-0.2,0-0.4-0.1-0.6c-0.1-0.2-0.2-0.3-0.4-0.5c-0.2-0.1-0.4-0.3-0.6-0.4
			c-0.2-0.1-0.4-0.2-0.6-0.2c-0.5-0.1-1-0.2-1.6-0.2c-0.6,0-1.1,0-1.7,0.1c-0.6,0.1-1.1,0.2-1.7,0.4c-0.5,0.2-1,0.4-1.5,0.5
			c0-0.1,0-0.2,0-0.4c0-0.1-0.1-0.3-0.1-0.5c0-0.2-0.1-0.3-0.2-0.4c-0.1-0.1-0.2-0.2-0.2-0.3c-0.1-0.1-0.3-0.1-0.4-0.1
			c-0.1,0-0.2,0-0.2,0.1c-0.1,0-0.1,0.1-0.1,0.2c0,0.1-0.1,0.2-0.1,0.2c-0.1,0.2-0.1,0.5-0.1,0.7c0,0.2,0,0.5,0.1,0.7L210.6,71.5z
			 M213.7,60.3c0-0.5,0.1-1,0.2-1.5c0.1-0.5,0.2-1,0.3-1.5c0.1-0.5,0.2-0.9,0.3-1.2c0.1-0.3,0.3-0.7,0.6-0.9c0.3-0.3,0.6-0.5,1-0.6
			c0.4-0.2,0.8-0.3,1.3-0.4c0.5-0.1,0.9-0.1,1.4-0.2c0.4,0,0.9,0,1.3,0c0.4,0,0.7,0.1,1,0.2c0.3,0.3,0.3,0.7,0.2,1.1
			c-0.2,0.4-0.5,0.9-0.9,1.4c-0.4,0.5-0.9,1-1.6,1.5c-0.6,0.5-1.2,1-1.9,1.4c-0.6,0.4-1.2,0.8-1.8,1.2c-0.5,0.3-1,0.6-1.3,0.8
			C213.7,61.2,213.7,60.8,213.7,60.3z M235.8,55.3c-0.7-0.5-1.5-0.7-2.3-0.6c-0.9,0.1-1.8,0.4-2.7,1c-1,0.6-1.9,1.5-2.7,2.5
			c-0.9,1.1-1.6,2.4-2.3,3.9c-0.7,1.5-1.1,3.3-1.4,5.2c-0.1,0.5-0.1,1.1,0,1.8c0.1,0.7,0.3,1.4,0.6,2c0.3,0.7,0.7,1.2,1.3,1.7
			c0.6,0.5,1.3,0.8,2.1,0.9c1.1,0.1,2.1-0.2,3.1-0.7c0.9-0.5,1.8-1.2,2.6-2.1c0.8-0.9,1.4-1.9,1.9-3.1c0.5-1.1,1-2.3,1.2-3.6
			c0.3-1.2,0.4-2.4,0.5-3.6c0-1.2-0.1-2.3-0.4-3.2C237,56.6,236.5,55.8,235.8,55.3z M236.2,62.4c-0.1,0.9-0.3,1.8-0.6,2.7
			c-0.3,1-0.8,2-1.3,3c-0.6,1-1.2,1.8-1.8,2.6c-0.6,0.7-1.3,1.3-2,1.7c-0.7,0.4-1.3,0.5-2,0.3c-0.8-0.2-1.4-0.6-1.8-1.1
			c-0.4-0.5-0.7-1.2-0.8-1.9c-0.1-0.7-0.1-1.5,0-2.4c0.1-0.8,0.3-1.7,0.6-2.6c0.3-0.9,0.6-1.7,1-2.6c0.4-0.8,0.8-1.6,1.2-2.3
			c0.4-0.7,0.8-1.3,1.2-1.8c0.4-0.5,0.8-0.8,1.1-1c0.9-0.5,1.6-0.8,2.3-0.9c0.6-0.1,1.2,0.1,1.6,0.4c0.4,0.3,0.8,0.8,1,1.3
			c0.2,0.6,0.4,1.3,0.4,2C236.4,60.6,236.3,61.5,236.2,62.4z M249.7,58.8c-0.1,0.6-0.2,1.3-0.4,2.2c-0.2,0.8-0.4,1.8-0.6,2.8
			c-0.3,1-0.5,2.1-0.9,3.1c-0.3,1-0.7,2-1,3c-0.4,1-0.8,1.8-1.2,2.6c-0.4,0.7-0.9,1.3-1.4,1.8c-0.5,0.4-1,0.6-1.5,0.6
			c-0.3-0.1-0.7-0.4-1-0.7c-0.4-0.3-0.7-0.8-1-1.5c-0.3-0.6-0.6-1.4-0.8-2.3c-0.2-0.9-0.3-2.1-0.3-3.4c0-1.3,0.2-2.8,0.4-4.6
			c0.3-1.7,0.7-3.7,1.4-5.9c0-0.1-0.1-0.2-0.2-0.3c-0.2-0.1-0.4-0.2-0.6-0.2c-0.2,0-0.4,0-0.6,0.1c-0.2,0.1-0.3,0.3-0.2,0.5
			c-0.1,0.3-0.2,0.7-0.3,1.3c-0.1,0.6-0.3,1.4-0.4,2.2c-0.1,0.9-0.3,1.8-0.4,2.8c-0.1,1-0.2,2.1-0.2,3.2c0,1.1,0,2.1,0.1,3.2
			c0.1,1,0.3,2,0.6,2.9c0.3,0.9,0.7,1.7,1.1,2.4c0.5,0.7,1.1,1.2,1.9,1.5c0.8,0.1,1.5,0,2.1-0.4c0.6-0.4,1.2-0.9,1.7-1.5
			c0.5-0.6,0.9-1.3,1.3-2.1c0.4-0.7,0.7-1.4,0.9-2l-0.4,7.2c0.1,0,0.2,0.1,0.4,0.1c0.2,0,0.3,0,0.4,0c0.1,0,0.3,0,0.4-0.1
			c0.1-0.1,0.2-0.2,0.2-0.3c-0.1-2.5,0-4.9,0.2-7c0.2-2.2,0.4-4.1,0.7-5.7c0.3-1.6,0.5-3,0.8-4.1c0.2-1.1,0.4-1.8,0.4-2.2
			c0-0.1-0.1-0.2-0.2-0.3c-0.1-0.1-0.2-0.2-0.3-0.2c-0.1,0-0.3,0-0.4,0c-0.2,0-0.3,0.1-0.4,0.3C249.9,57.8,249.8,58.2,249.7,58.8z
			 M255.1,76.4c-0.2,0-0.4,0-0.5,0.1c-0.1,0.1-0.2,0.2-0.2,0.5c0,0.1,0,0.2,0,0.3c0,0.1,0.1,0.2,0.1,0.4c0.1,0.1,0.1,0.2,0.2,0.3
			c0.1,0.1,0.2,0.1,0.3,0.2c0.2,0,0.4,0,0.6,0c0.2-0.1,0.3-0.2,0.3-0.5c0-0.3,0-0.5-0.2-0.8C255.6,76.5,255.3,76.4,255.1,76.4z
			 M253.8,56.7c0.5,0.1,0.9,0,1.4-0.1c0.5-0.1,1-0.3,1.5-0.5c0.5-0.2,1-0.3,1.5-0.5c0.5-0.1,1.1-0.2,1.6-0.1c0.3,0,0.6,0.1,1,0.1
			c0.4,0,0.7,0.1,1,0.2c0.3,0.1,0.5,0.3,0.7,0.5c0.2,0.2,0.2,0.5,0.2,0.9c-0.1,0.7-0.4,1.3-0.8,1.8c-0.4,0.5-0.9,1-1.5,1.4
			c-0.6,0.4-1.2,0.9-1.8,1.3c-0.7,0.4-1.3,0.8-1.8,1.2c-0.6,0.4-1.1,0.9-1.5,1.4c-0.4,0.5-0.7,1.1-0.8,1.8c-0.1,0.3,0,0.7,0.1,0.9
			c0.1,0.3,0.3,0.6,0.5,0.8c0.2,0.2,0.5,0.4,0.8,0.6c0.3,0.1,0.6,0.2,0.9,0.3c0.4,0.1,0.9,0.1,1.4,0.1c0.5,0,0.9-0.1,1.3-0.4
			l-0.3-1.1c-0.5,0.2-0.9,0.3-1.3,0.3c-0.4,0-0.7-0.1-0.9-0.2c-0.3-0.1-0.5-0.3-0.6-0.6c-0.2-0.2-0.2-0.5-0.3-0.7
			c0-0.2,0-0.5,0.1-0.7c0.1-0.2,0.2-0.3,0.5-0.4c0.6-0.4,1.2-0.9,2-1.5c0.8-0.6,1.5-1.2,2.3-1.8c0.7-0.7,1.4-1.4,2-2.2
			c0.6-0.8,0.9-1.6,1.1-2.5c0.1-0.5,0-0.9-0.2-1.2c-0.2-0.3-0.5-0.6-0.8-0.8c-0.3-0.2-0.7-0.4-1.2-0.5c-0.4-0.1-0.9-0.2-1.2-0.3
			c-0.2,0-0.5,0-1,0c-0.4,0-0.9,0-1.5,0.1c-0.6,0-1.1,0.1-1.7,0.2c-0.6,0.1-1.1,0.2-1.6,0.3c-0.5,0.1-0.9,0.3-1.2,0.4
			c-0.3,0.2-0.5,0.3-0.5,0.5c-0.1,0.4,0,0.6,0.1,0.6C253.4,56.6,253.6,56.7,253.8,56.7z M10.9,91.7c-0.5-0.2-1.1-0.5-1.9-0.7
			c-0.7-0.2-1.4-0.4-2.1-0.6c-0.7-0.2-1.4-0.4-2.1-0.6c-0.7-0.2-1.3-0.5-1.8-0.7c-0.5-0.3-0.9-0.6-1.2-1c-0.3-0.4-0.4-0.8-0.3-1.4
			c0.1-0.4,0.2-0.9,0.5-1.3c0.3-0.5,0.7-1,1.1-1.4C3.5,83.5,4,83,4.5,82.6c0.5-0.4,1.1-0.8,1.6-1.1c0.6-0.3,1.1-0.5,1.6-0.7
			c0.5-0.1,1-0.2,1.4-0.1l0.9,0.5c0.5,0.1,0.9,0,1.2-0.1c0.4-0.2,0.6-0.5,0.6-1c0-0.2,0-0.4-0.1-0.5c-0.1-0.1-0.2-0.2-0.3-0.2
			c-0.1-0.1-0.3-0.1-0.4-0.1c-0.2,0-0.3,0-0.5-0.1c-0.6-0.1-1.2-0.1-2,0.1C8,79.4,7.3,79.6,6.5,80c-0.8,0.3-1.5,0.7-2.2,1.2
			c-0.7,0.5-1.4,1-2,1.6c-0.6,0.6-1.1,1.2-1.5,1.8c-0.4,0.6-0.7,1.3-0.8,2c-0.1,0.7,0,1.3,0.3,1.8c0.3,0.5,0.7,1,1.2,1.3
			c0.5,0.4,1.1,0.7,1.8,1c0.7,0.3,1.4,0.5,2.1,0.7c0.7,0.2,1.4,0.4,2.1,0.6c0.7,0.2,1.3,0.3,1.9,0.5c0.5,0.2,1,0.4,1.3,0.6
			c0.3,0.2,0.5,0.4,0.4,0.7c-0.3,0.4-0.8,0.8-1.4,1.1c-0.6,0.3-1.3,0.6-2.1,0.8C6.8,95.8,6,96,5.2,96.1c-0.8,0.1-1.5,0.3-2.2,0.4
			c-0.7,0.1-1.2,0.2-1.7,0.3c-0.4,0.1-0.7,0.2-0.7,0.2c-0.1,0.2-0.1,0.4,0,0.5c0.1,0.1,0.2,0.2,0.4,0.2c0.5,0.1,1.2,0.1,2,0.1
			c0.8,0,1.6-0.1,2.4-0.2C6.2,97.5,7,97.3,7.8,97c0.8-0.2,1.6-0.5,2.3-0.9c0.7-0.3,1.2-0.7,1.7-1.1c0.4-0.4,0.7-0.8,0.8-1.3
			c0.1-0.5,0-0.9-0.3-1.2C11.9,92.2,11.4,91.9,10.9,91.7z M21,99.7c0.2-0.8,0.3-1.7,0.5-2.6c0.1-0.9,0.2-1.9,0.3-2.9
			c0.1-1,0.2-2,0.3-3c0.1-1,0.2-2,0.3-3c0.1-1,0.3-1.9,0.4-2.9c0.2-0.9,0.4-1.8,0.6-2.6c0.3,0,0.8,0,1.4,0.1
			c0.6,0.1,1.2,0.1,1.9,0.2c0.7,0.1,1.4,0.2,2,0.2c0.7,0.1,1.3,0.1,1.8,0.1c0.5,0,1,0,1.3-0.1c0.3-0.1,0.4-0.3,0.4-0.6
			c-0.1,0-0.2-0.1-0.4-0.1c-0.2,0-0.3-0.1-0.4-0.1c-2.6-0.3-5.2-0.6-7.7-1c-0.1,0-0.2-0.1-0.2-0.2c0-0.1-0.1-0.2-0.2-0.4
			c-0.1-0.1-0.1-0.3-0.2-0.4c-0.1-0.1-0.2-0.2-0.4-0.3c-0.1,0-0.3,0-0.4,0.1c-0.1,0.1-0.2,0.2-0.3,0.3c-0.1,0.1-0.2,0.3-0.3,0.4
			c-0.1,0.1-0.1,0.2-0.1,0.3l-7-0.6c-0.2,0-0.3,0-0.5,0.2c-0.2,0.1-0.3,0.3-0.3,0.5c-0.1,0.3,0,0.4,0.1,0.5c0.2,0.1,0.3,0.2,0.5,0.2
			c0.6,0.1,1.2,0.2,1.8,0.2c0.6,0,1.2,0,1.8,0.1c0.6,0,1.2,0,1.8,0.1c0.6,0,1.2,0.1,1.8,0.3c0,0.8-0.1,1.6-0.2,2.6
			c-0.1,1-0.3,2-0.4,3.1c-0.2,1.1-0.3,2.2-0.5,3.3c-0.2,1.1-0.3,2.2-0.5,3.3c-0.1,1.1-0.2,2-0.3,3c-0.1,0.9-0.1,1.7-0.1,2.3
			c0.5,0.2,0.8,0.2,1,0.2C20.9,100.5,21,100.2,21,99.7z M41.9,94.6c-0.1-0.1-0.3-0.2-0.5-0.2l-2.5,0.4L36,83c0-0.1,0-0.2-0.1-0.3
			c-0.1-0.1-0.2-0.2-0.4-0.2c-0.2,0-0.3-0.1-0.5,0c-0.2,0-0.3,0.1-0.4,0.3c-1.3,3.3-2.4,6.1-3.3,8.4c-0.9,2.3-1.7,4.1-2.3,5.6
			c-0.6,1.5-1.1,2.6-1.5,3.4c-0.4,0.8-0.6,1.3-0.8,1.7c0.3,0.4,0.6,0.6,0.8,0.7c0.2,0.1,0.5,0.1,0.8-0.2c0.2-0.7,0.4-1.3,0.6-1.8
			c0.2-0.5,0.3-1,0.5-1.4c0.2-0.5,0.3-0.8,0.3-1c0.1-0.3,0.3-0.6,0.7-0.8c0.3-0.2,0.8-0.3,1.2-0.4c0.5-0.1,1-0.2,1.5-0.2
			c0.6,0,1.1-0.1,1.6-0.1c0.5,0,1.1,0,1.5,0c0.5,0,0.9,0,1.2-0.1l1.6,7.2c0.3,0.3,0.6,0.4,0.7,0.5c0.2,0.1,0.3,0,0.4,0
			c0.1-0.1,0.2-0.1,0.2-0.2c0-0.1,0.1-0.2,0.1-0.3l-1.5-7.2c0,0,0.1-0.1,0.2-0.1c0.1,0,0.3,0,0.5-0.1c0.2,0,0.4,0,0.6-0.1
			c0.2,0,0.4,0,0.5-0.1c0.3-0.1,0.6-0.2,0.7-0.3c0.2-0.2,0.2-0.3,0.2-0.5C42.1,94.9,42,94.8,41.9,94.6z M35.5,94.9
			c-0.6,0-1.1,0.1-1.7,0.1c-0.6,0-1.1,0.1-1.6,0.1c-0.5,0-0.9,0.1-1.1,0.1l4-9.9l1.9,9.4C36.6,94.8,36.1,94.9,35.5,94.9z M47.4,79.2
			c-0.1,0.1-0.1,0.3,0,0.5l2.2,4.4c0,0.1,0.1,0.2,0.2,0.3c0.1,0,0.2,0.1,0.4,0c0.1,0,0.2-0.1,0.4-0.1c0.1-0.1,0.2-0.1,0.2-0.2
			l2.9-3.9c0-0.2,0-0.3-0.1-0.4c-0.1-0.1-0.2-0.2-0.3-0.3c-0.1-0.1-0.3-0.1-0.4-0.1c-0.2,0-0.3,0-0.4,0.1l-2.2,2.9L48.8,79
			c-0.1-0.1-0.2-0.1-0.4-0.1c-0.2,0-0.4,0-0.5,0.1C47.7,79,47.5,79.1,47.4,79.2z M51.3,101.7c0.6-0.5,1.1-1,1.6-1.6
			c0.5-0.6,0.8-1.1,1-1.6c0-0.3,0-0.4-0.2-0.5c-0.2-0.1-0.4-0.1-0.6-0.2c0,0-0.1,0-0.2,0c-0.1,0-0.2,0-0.2,0
			c-0.3,0.5-0.7,1.1-1.2,1.7c-0.5,0.6-1.1,1.2-1.8,1.7c-0.7,0.5-1.3,0.9-2.1,1.2c-0.7,0.3-1.4,0.4-2.1,0.3c-0.6-0.1-1-0.3-1.3-0.5
			s-0.5-0.6-0.6-1c-0.1-0.4-0.1-0.8-0.1-1.3c0-0.5,0.1-0.9,0.2-1.4c0.1-0.4,0.2-0.9,0.4-1.7c0.2-0.8,0.5-1.6,0.8-2.5
			c0.3-0.9,0.7-1.9,1.1-2.8c0.4-1,0.9-1.8,1.4-2.6c0.5-0.8,1-1.4,1.6-1.8c0.5-0.5,1.1-0.7,1.6-0.6c0.2,0.1,0.4,0.3,0.5,0.5
			c0.1,0.3,0.2,0.5,0.3,0.8c0.1,0.2,0.2,0.4,0.4,0.6c0.2,0.1,0.5,0.1,1,0c0.1-0.4,0.1-0.8,0-1.1c0-0.4-0.1-0.7-0.3-1
			c-0.2-0.3-0.4-0.5-0.7-0.7c-0.3-0.2-0.6-0.3-1-0.4c-0.7-0.1-1.5,0.1-2.2,0.6c-0.7,0.5-1.4,1.2-2,2c-0.6,0.8-1.2,1.8-1.7,2.9
			c-0.5,1.1-1,2.2-1.4,3.2c-0.4,1.1-0.7,2.1-1,3c-0.3,0.9-0.4,1.7-0.5,2.2c-0.1,0.4-0.1,0.9,0,1.5c0,0.5,0.1,1.1,0.3,1.6
			c0.2,0.5,0.5,0.9,0.8,1.3c0.4,0.4,0.8,0.6,1.4,0.7c0.3,0.2,0.7,0.3,1.2,0.2c0.5-0.1,1.1-0.2,1.7-0.5c0.6-0.3,1.3-0.6,2-1
			C50.1,102.7,50.7,102.2,51.3,101.7z M59,86.6c-0.1-0.1-0.3-0.1-0.4-0.2c-0.1,0-0.3,0-0.4,0c-0.1,0-0.2,0.1-0.3,0.2l-2.4,19.4
			c0.1,0.1,0.2,0.2,0.3,0.3c0.1,0.1,0.3,0.1,0.4,0.1c0.1,0,0.3,0,0.4-0.1c0.1-0.1,0.2-0.2,0.2-0.4l2.5-19
			C59.2,86.7,59.1,86.7,59,86.6z M60.7,83.3c0.2-0.2,0.4-0.4,0.4-0.6l0-0.2c0-0.2,0-0.4-0.1-0.6c-0.1-0.2-0.3-0.3-0.5-0.3
			c-0.5,0.3-0.9,0.6-1.4,0.9c-0.5,0.3-0.8,0.6-1.1,0.9c-0.3,0.3-0.4,0.6-0.4,0.9c0,0.3,0.2,0.5,0.7,0.6c0.2-0.1,0.5-0.3,0.8-0.5
			c0.3-0.2,0.6-0.4,0.9-0.6C60.3,83.7,60.5,83.5,60.7,83.3z M85.8,90.6c-0.1-0.1-0.2-0.2-0.4-0.3c-0.1-0.1-0.3-0.1-0.5-0.1
			c-0.2,0-0.3,0.1-0.3,0.2L77,107.2l-3.1-17.9c-0.1-0.2-0.2-0.4-0.3-0.6c-0.2-0.1-0.3-0.2-0.5-0.2c-0.2,0-0.3,0-0.4,0.1
			c-0.1,0.1-0.2,0.3-0.2,0.5l3.4,19.7c0.2,0.2,0.4,0.3,0.6,0.4c0.3,0.1,0.6,0,1.1-0.1l8.2-18C85.9,90.9,85.9,90.7,85.8,90.6z
			 M91.7,106.3c0.3-0.5,0.5-1,0.6-1.3c0.2-0.3,0.3-0.6,0.4-0.8c0.1-0.2,0.2-0.5,0.3-0.7c0.1-0.2,0.2-0.5,0.3-0.8
			c0.1-0.3,0.3-0.7,0.5-1.2c0.2-0.5,0.5-1.1,0.9-1.8c0.4-0.7,0.8-1.6,1.4-2.7c0.5-1.1,1.2-2.4,2-3.9c0-0.1,0-0.2-0.1-0.4
			c-0.1-0.1-0.1-0.3-0.2-0.4c-0.1-0.1-0.2-0.2-0.3-0.2c-0.1-0.1-0.3,0-0.4,0.1c-0.1,0.4-0.3,0.9-0.6,1.5c-0.3,0.6-0.6,1.2-0.9,1.9
			c-0.3,0.7-0.7,1.4-1,2c-0.4,0.7-0.7,1.3-1,1.9c-0.3,0.6-0.6,1.1-0.8,1.5c-0.2,0.4-0.4,0.7-0.5,0.8l-5.5-9.3c-0.2,0-0.4,0-0.6,0.1
			c-0.2,0.1-0.4,0.2-0.4,0.4l5.7,10.5l-3.4,7.2c0,0.2,0.1,0.4,0.3,0.4c0.2,0,0.5,0.1,0.7,0.1c0.6-1.2,1.1-2.2,1.6-3
			C91.1,107.5,91.4,106.8,91.7,106.3z M98.9,103.4c-0.2,1.3-0.5,2.7-0.8,4.1c-0.3,1.4-0.5,2.9-0.8,4.5c0,0.1,0.1,0.2,0.3,0.2
			c0.1,0.1,0.3,0.1,0.4,0.2c0.1,0,0.3,0,0.4,0c0.1,0,0.2-0.1,0.2-0.2l1.5-7.7c0-0.1,0.2-0.1,0.7-0.3c0.5-0.1,1.1-0.3,1.8-0.6
			c0.7-0.2,1.5-0.5,2.4-0.9c0.9-0.3,1.7-0.8,2.5-1.3c0.8-0.5,1.5-1.1,2.1-1.8c0.6-0.7,1-1.4,1.1-2.3c0-0.7-0.2-1.2-0.4-1.7
			c-0.3-0.5-0.6-0.9-1.1-1.2c-0.5-0.3-1-0.5-1.5-0.7c-0.6-0.1-1.2-0.2-1.8-0.2c-0.6,0-1.3,0.1-1.9,0.2c-0.7,0.1-1.3,0.3-1.8,0.5
			c-0.1-0.1-0.2-0.2-0.2-0.3c0-0.1-0.1-0.3-0.1-0.4c0-0.1-0.1-0.2-0.2-0.3c-0.1-0.1-0.2-0.1-0.3-0.2c-0.2,0-0.4,0.1-0.6,0.3
			c-0.3,0.3-0.5,0.5-0.8,0.9c-0.3,0.3-0.5,0.7-0.8,1c-0.2,0.3-0.5,0.6-0.6,0.7c0,0,0,0.1,0,0.1l0,0.1c0,0.2,0,0.3,0.1,0.4
			c0.1,0.1,0.2,0.2,0.3,0.2c0.1,0,0.2,0,0.3-0.1c0.1-0.1,0.2-0.1,0.4-0.2c0.1-0.1,0.2-0.2,0.4-0.3c0.1-0.1,0.2-0.2,0.3-0.2
			c-0.1,1.2-0.2,2.3-0.4,3.5C99.3,100.9,99.1,102.1,98.9,103.4z M101.3,96c0.8-0.5,1.7-0.8,2.6-1c0.9-0.2,1.8-0.2,2.6-0.1
			c0.8,0.1,1.4,0.4,1.9,0.9c0.5,0.5,0.8,1.2,0.7,2.1c-0.3,0.8-0.8,1.5-1.5,2c-0.7,0.6-1.4,1-2.2,1.4c-0.8,0.4-1.7,0.7-2.6,1
			c-0.9,0.3-1.8,0.5-2.6,0.6L101.3,96z M121.8,112.2l-10.4,0.6l1.8-17.1c0-0.4,0-0.6-0.1-0.8c-0.1-0.2-0.2-0.3-0.4-0.3
			c-0.2,0-0.3,0-0.5,0.1c-0.2,0.1-0.2,0.3-0.3,0.5c0,0.2-0.1,0.6-0.1,1.3c-0.1,0.7-0.2,1.7-0.3,3c-0.2,1.4-0.4,3.2-0.6,5.4
			c-0.3,2.2-0.6,5-1.1,8.3c-0.1,0.7,0.1,1,0.5,1.1l12-0.7C123,112.8,122.8,112.3,121.8,112.2z M131.7,111.9c0.4,1,0.7,2,1,2.8
			c0.3,0.8,0.6,1.4,0.8,1.8c-0.1,0.3-0.2,0.5-0.2,0.6c0,0.2,0,0.3,0.1,0.4c0.1,0.1,0.2,0.2,0.3,0.3c0.1,0.1,0.3,0.1,0.4,0.1
			c0.3,0,0.6,0,0.9-0.1c0.3-0.1,0.4-0.4,0.5-0.7c0.1-0.4,0.1-0.8,0-1.1c-0.1-0.3-0.1-0.7,0-1.2c0-0.3,0.1-0.8,0.2-1.5
			c0.1-0.7,0.2-1.5,0.3-2.3c0.1-0.9,0.3-1.8,0.4-2.7c0.1-0.9,0.3-1.9,0.4-2.7c0.1-0.9,0.2-1.6,0.3-2.3c0.1-0.7,0.2-1.2,0.2-1.5
			c0-0.1,0-0.4,0.1-0.7c0-0.4,0-0.8,0-1.2c0-0.4-0.1-0.8-0.2-1.1c-0.1-0.3-0.3-0.5-0.6-0.6c-0.3,0-0.5,0-0.6,0.3
			c-0.1,0.2-0.2,0.4-0.2,0.7c0.1,0.1,0.1,0.4,0.2,0.8c0,0.4,0,1,0,1.6c0,0.6-0.1,1.4-0.2,2.2c-0.1,0.8-0.2,1.6-0.3,2.5
			c-0.1,0.8-0.2,1.7-0.3,2.5c-0.1,0.8-0.2,1.6-0.4,2.3c-0.1,0.7-0.2,1.3-0.4,1.8c-0.1,0.5-0.2,0.9-0.3,1.1l-6.3-15.8
			c0.1,0,0-0.1,0-0.3c-0.1-0.2-0.2-0.5-0.4-0.7c-0.2-0.2-0.4-0.4-0.6-0.6c-0.2-0.1-0.4-0.1-0.6,0.1l-1.9,19.2c-0.1,0-0.1,0.1,0,0.3
			c0.1,0.1,0.3,0.2,0.5,0.3c0.2,0.1,0.4,0.1,0.6,0c0.2-0.1,0.3-0.2,0.4-0.6c0.2-1,0.3-2.2,0.4-3.5c0.1-1.3,0.2-2.7,0.4-4.1
			c0.1-1.4,0.3-2.8,0.5-4.1c0.2-1.3,0.4-2.5,0.6-3.5c0.2,0.3,0.5,0.8,0.9,1.6c0.3,0.8,0.7,1.7,1.1,2.7c0.4,1,0.8,2.1,1.2,3.3
			C131,109.7,131.3,110.8,131.7,111.9z M140.4,98.8c-0.1,0-0.3,0-0.4,0c-0.1,0-0.2,0.1-0.3,0.2l-2.4,19.4c0.1,0.1,0.2,0.2,0.3,0.3
			c0.1,0.1,0.3,0.1,0.4,0.1c0.1,0,0.3,0,0.4-0.1c0.1-0.1,0.2-0.2,0.2-0.4l2.5-19c0-0.1-0.1-0.2-0.2-0.2
			C140.7,98.9,140.6,98.8,140.4,98.8z M160.2,102c-0.2,0-0.3-0.1-0.4-0.1c-2.6-0.3-5.2-0.6-7.7-1c-0.1,0-0.2-0.1-0.2-0.2
			c0-0.1-0.1-0.2-0.2-0.4c-0.1-0.1-0.1-0.3-0.2-0.4c-0.1-0.1-0.2-0.2-0.4-0.3c-0.1,0-0.3,0-0.4,0.1c-0.1,0.1-0.2,0.2-0.3,0.3
			c-0.1,0.1-0.2,0.3-0.3,0.4c-0.1,0.1-0.1,0.2-0.1,0.3l-7-0.6c-0.2,0-0.3,0-0.5,0.2c-0.2,0.1-0.3,0.3-0.3,0.5
			c-0.1,0.3,0,0.4,0.1,0.5c0.2,0.1,0.3,0.2,0.5,0.2c0.6,0.1,1.2,0.2,1.8,0.2c0.6,0,1.2,0,1.8,0.1c0.6,0,1.2,0,1.8,0.1
			c0.6,0,1.2,0.1,1.8,0.3c0,0.8-0.1,1.6-0.2,2.6c-0.1,1-0.3,2-0.4,3.1c-0.2,1.1-0.3,2.2-0.5,3.3c-0.2,1.1-0.3,2.2-0.5,3.3
			c-0.1,1.1-0.2,2-0.3,3c-0.1,0.9-0.1,1.7-0.1,2.3c0.5,0.2,0.8,0.2,1,0.2c0.2,0,0.3-0.3,0.3-0.8c0.2-0.8,0.3-1.7,0.5-2.6
			c0.1-0.9,0.2-1.9,0.3-2.9c0.1-1,0.2-2,0.3-3c0.1-1,0.2-2,0.3-3c0.1-1,0.3-1.9,0.4-2.9c0.2-0.9,0.4-1.8,0.6-2.6
			c0.3,0,0.8,0,1.4,0.1c0.6,0.1,1.2,0.1,1.9,0.2c0.7,0.1,1.4,0.2,2,0.2c0.7,0.1,1.3,0.1,1.8,0.1c0.5,0,1,0,1.3-0.1
			c0.3-0.1,0.4-0.3,0.4-0.6C160.5,102.1,160.4,102.1,160.2,102z M150.8,98.6c0,0.1,0.1,0.2,0.2,0.3c0.1,0,0.2,0.1,0.4,0
			c0.1,0,0.2-0.1,0.4-0.1c0.1-0.1,0.2-0.1,0.2-0.2l2.9-3.9c0-0.2,0-0.3-0.1-0.4c-0.1-0.1-0.2-0.2-0.3-0.3c-0.1-0.1-0.3-0.1-0.4-0.1
			c-0.2,0-0.3,0-0.4,0.1l-2.2,2.9l-1.6-3.4c-0.1-0.1-0.2-0.1-0.4-0.1c-0.2,0-0.4,0-0.5,0.1c-0.2,0.1-0.3,0.2-0.4,0.3
			c-0.1,0.1-0.1,0.3,0,0.5L150.8,98.6z M172.1,103.5c-0.1,0-0.3,0-0.4,0c-0.2,0-0.3,0-0.5,0c-0.2,0-0.3,0-0.4,0.1
			c-0.1,0.1-0.2,0.2-0.2,0.4c0,0.3-0.1,0.7-0.2,1.4c-0.1,0.7-0.2,1.5-0.3,2.5c-0.1,0.9-0.3,2-0.4,3.1c-0.1,1.1-0.3,2.3-0.4,3.4
			c-0.1,1.1-0.2,2.2-0.3,3.3c-0.1,1.1-0.1,2-0.1,2.8c0,0.8,0,1.5,0.1,2c0.1,0.5,0.2,0.8,0.4,0.8c0.2,0,0.3,0,0.4-0.1
			c0.1-0.1,0.2-0.3,0.2-0.5l0.8-6c0-0.1,0.2-0.2,0.6-0.4c0.4-0.2,0.9-0.4,1.5-0.6c0.6-0.2,1.3-0.5,2-0.8c0.7-0.3,1.4-0.5,2-0.8
			c0.6-0.3,1.2-0.5,1.7-0.7c0.5-0.2,0.7-0.3,0.8-0.4c0.1-0.1,0.1-0.2,0.2-0.4c0.1-0.1,0.1-0.3,0.1-0.4c0-0.1,0-0.2,0-0.3
			c0-0.1-0.1-0.1-0.3-0.1c0,0,0,0-0.1,0c0,0-0.1,0-0.3,0.1c-0.2,0.1-0.4,0.1-0.8,0.3c-0.3,0.1-0.8,0.3-1.4,0.5
			c-0.6,0.2-1.4,0.5-2.4,0.9c-0.9,0.4-2.1,0.8-3.5,1.3l0.7-7.6l9-1.8c0.2-0.1,0.4-0.2,0.4-0.4c0-0.1,0-0.2,0-0.3
			c0-0.1-0.1-0.2-0.2-0.2c-0.8,0.1-1.5,0.1-2.1,0.2c-0.6,0.1-1.2,0.2-1.8,0.3c-0.6,0.1-1.3,0.3-2.1,0.4c-0.8,0.2-1.8,0.3-2.9,0.5
			L172.1,103.5z M192.5,115.8c0.3-1.2,0.4-2.4,0.5-3.6c0-1.2-0.1-2.3-0.4-3.2c-0.3-1.1-0.8-1.8-1.5-2.3c-0.7-0.5-1.5-0.7-2.3-0.6
			c-0.9,0.1-1.8,0.4-2.7,1c-1,0.6-1.9,1.5-2.7,2.5c-0.9,1.1-1.6,2.4-2.3,3.9c-0.7,1.5-1.1,3.3-1.4,5.2c-0.1,0.5-0.1,1.1,0,1.8
			c0.1,0.7,0.3,1.4,0.6,2c0.3,0.7,0.7,1.2,1.3,1.7c0.6,0.5,1.3,0.8,2.1,0.9c1.1,0.1,2.1-0.2,3.1-0.7c0.9-0.5,1.8-1.2,2.6-2.1
			c0.8-0.9,1.4-1.9,1.9-3.1C191.8,118.2,192.2,117,192.5,115.8z M189.4,119.4c-0.6,1-1.2,1.8-1.8,2.6c-0.6,0.7-1.3,1.3-2,1.7
			c-0.7,0.4-1.4,0.5-2,0.3c-0.8-0.2-1.4-0.6-1.8-1.1c-0.4-0.5-0.7-1.2-0.8-1.9c-0.1-0.7-0.1-1.5,0-2.4c0.1-0.8,0.3-1.7,0.6-2.6
			c0.3-0.9,0.6-1.7,1-2.6c0.4-0.8,0.8-1.6,1.2-2.3c0.4-0.7,0.8-1.3,1.2-1.8c0.4-0.5,0.8-0.8,1.1-1c0.9-0.5,1.6-0.8,2.3-0.9
			c0.6-0.1,1.2,0.1,1.6,0.4c0.4,0.3,0.8,0.8,1,1.3c0.2,0.6,0.4,1.3,0.4,2c0.1,0.8,0,1.6-0.1,2.5c-0.1,0.9-0.3,1.8-0.6,2.7
			C190.4,117.4,190,118.4,189.4,119.4z M199,115.7c0.8-0.3,1.7-0.7,2.5-1.1c0.9-0.4,1.6-0.8,2.4-1.1c0.7-0.4,1.3-0.8,1.7-1.2
			c0.4-0.4,0.7-0.8,0.7-1.2c0-0.4-0.2-0.8-0.7-1.3c-0.5-0.4-1.4-0.9-2.6-1.3c-0.8-0.2-1.5-0.3-2.2-0.3c-0.7,0-1.3,0.1-1.9,0.2
			c-0.6,0.1-1.1,0.2-1.5,0.4c-0.4,0.1-0.8,0.2-1.1,0.2l0.1-1.3c0-0.2-0.1-0.3-0.2-0.4c-0.1-0.1-0.2-0.2-0.4-0.2c-0.2,0-0.3,0-0.5,0
			c-0.2,0-0.3,0.1-0.3,0.2l-2.8,19.4c0,0.1,0.1,0.2,0.1,0.2c0.1,0.1,0.1,0.1,0.2,0.2c0.1,0,0.2,0,0.3,0c0.1,0,0.3-0.1,0.5-0.2
			l1.2-7.7l9.3,7.4c0.3,0.1,0.5,0,0.7-0.2c0.2-0.2,0.4-0.4,0.4-0.7l-9.9-8.2c0.4-0.3,0.9-0.6,1.6-0.9
			C197.4,116.4,198.1,116.1,199,115.7z M195.1,115.9c0.1-0.4,0.1-0.8,0.2-1.3c0.1-0.5,0.1-0.9,0.2-1.4s0.2-0.9,0.2-1.4
			c0.1-0.4,0.2-0.8,0.2-1.1c0.4-0.4,0.8-0.6,1.4-0.8c0.6-0.2,1.2-0.3,1.8-0.4c0.6-0.1,1.3-0.1,1.9-0.1c0.6,0,1.2,0.1,1.6,0.2
			c0.8,0.3,1.3,0.6,1.6,0.9c0.2,0.3,0.3,0.6,0.1,0.9c-0.2,0.3-0.5,0.6-1,1c-0.5,0.3-1.1,0.6-1.8,1c-0.7,0.3-1.4,0.6-2.1,0.9
			c-0.7,0.3-1.4,0.5-2,0.7c-0.6,0.2-1.2,0.4-1.6,0.5C195.4,115.7,195.2,115.9,195.1,115.9z M221.6,120.9c0.1-1.7,0.2-3.3,0.3-4.9
			c0.1-1.6,0.2-3.1,0.3-4.6c0-0.3-0.1-0.4-0.2-0.6c-0.1-0.1-0.2-0.2-0.4-0.2c-0.1,0-0.3,0-0.4,0c-0.1,0.1-0.2,0.1-0.3,0.2
			c-0.9,1.8-1.7,3.4-2.3,4.6c-0.6,1.3-1.2,2.3-1.6,3.2c-0.4,0.8-0.8,1.5-1,2c-0.2,0.5-0.4,0.8-0.6,1c-0.1,0.2-0.2,0.4-0.3,0.4
			c-0.1,0-0.1,0.1-0.2,0.1c-0.4-0.6-0.7-1.3-0.9-2.2c-0.3-0.8-0.5-1.7-0.7-2.6c-0.2-0.9-0.5-1.8-0.7-2.7c-0.2-0.9-0.5-1.8-0.9-2.5
			c-0.3-0.8-0.8-1.5-1.2-2.1c-0.5-0.6-1-1.1-1.7-1.4c-0.2,0-0.3,0-0.5,0c-0.1,0.1-0.2,0.2-0.3,0.6c0,1.6,0,3.2-0.1,4.8
			c-0.1,1.6-0.2,3.3-0.4,4.9c-0.2,1.6-0.3,3.3-0.5,4.9c-0.2,1.6-0.2,3.2-0.3,4.8c0.1,0.3,0.3,0.4,0.4,0.5c0.2,0.1,0.3,0.1,0.5,0
			c0.2-0.1,0.3-0.2,0.4-0.3c0.1-0.1,0.1-0.3,0.1-0.5c0.2-1.2,0.3-2.6,0.4-4c0.1-1.5,0.1-2.9,0.2-4.4c0.1-1.5,0.1-3,0.2-4.4
			c0.1-1.5,0.2-2.8,0.4-4c0.3,0.3,0.6,0.7,0.9,1.2c0.3,0.6,0.6,1.2,0.9,2c0.3,0.8,0.5,1.6,0.8,2.4c0.3,0.9,0.5,1.7,0.7,2.5
			c0.2,0.8,0.5,1.6,0.7,2.3c0.2,0.7,0.4,1.2,0.6,1.7c0.1,0.6,0.3,0.8,0.5,0.8c0.2,0,0.5-0.2,0.9-0.6c0.3-0.4,0.7-0.9,1.1-1.6
			c0.4-0.7,0.8-1.4,1.2-2.2c0.4-0.8,0.8-1.6,1.1-2.4c0.4-0.8,0.7-1.5,1-2.1c0.3-0.6,0.5-1.1,0.7-1.5c0.2-0.4,0.3-0.6,0.4-0.5
			l-1.1,17.4c0.1,0.1,0.3,0.3,0.5,0.4c0.2,0.1,0.3,0.2,0.5,0.2c0.2,0,0.3,0,0.4,0c0.1-0.1,0.2-0.2,0.3-0.4c0-1.7,0-3.4,0-5.1
			C221.4,124.3,221.5,122.6,221.6,120.9z M232.8,128.1c0.4-0.7,0.7-1.4,0.9-2l-0.4,7.2c0.1,0,0.2,0.1,0.4,0.1c0.2,0,0.3,0,0.4,0
			c0.1,0,0.3,0,0.4-0.1c0.1-0.1,0.2-0.2,0.2-0.3c-0.1-2.5,0-4.9,0.2-7c0.2-2.2,0.4-4.1,0.7-5.7c0.3-1.6,0.5-3,0.8-4.1
			c0.2-1.1,0.4-1.8,0.4-2.2c0-0.1-0.1-0.2-0.2-0.3c-0.1-0.1-0.2-0.2-0.3-0.2c-0.1,0-0.3,0-0.4,0c-0.2,0-0.3,0.1-0.4,0.3
			c0,0.2-0.1,0.6-0.2,1.1c-0.1,0.6-0.2,1.3-0.4,2.2c-0.2,0.8-0.4,1.8-0.6,2.8c-0.3,1-0.5,2.1-0.8,3.1c-0.3,1-0.7,2-1,3
			c-0.4,1-0.8,1.8-1.2,2.6c-0.4,0.7-0.9,1.3-1.4,1.8c-0.5,0.4-1,0.6-1.5,0.6c-0.3-0.1-0.7-0.4-1-0.7c-0.4-0.3-0.7-0.8-1-1.5
			c-0.3-0.6-0.6-1.4-0.8-2.3c-0.2-0.9-0.3-2.1-0.3-3.4c0-1.3,0.2-2.8,0.4-4.6c0.3-1.7,0.7-3.7,1.4-5.9c0-0.1-0.1-0.2-0.2-0.3
			c-0.2-0.1-0.4-0.2-0.6-0.2c-0.2,0-0.4,0-0.6,0.1c-0.2,0.1-0.3,0.3-0.2,0.5c-0.1,0.3-0.2,0.7-0.3,1.3c-0.1,0.6-0.3,1.4-0.4,2.2
			c-0.1,0.9-0.3,1.8-0.4,2.8c-0.1,1-0.2,2.1-0.2,3.2c0,1.1,0,2.1,0.1,3.2c0.1,1,0.3,2,0.6,2.9c0.3,0.9,0.7,1.7,1.1,2.4
			c0.5,0.7,1.1,1.2,1.9,1.5c0.8,0.1,1.5,0,2.1-0.4c0.6-0.4,1.2-0.9,1.7-1.5C232.1,129.5,232.5,128.8,232.8,128.1z M248.6,131.4
			l-10.4,0.6l1.8-17.1c0-0.4,0-0.6-0.1-0.8c-0.1-0.2-0.2-0.3-0.4-0.3c-0.2,0-0.3,0-0.5,0.1c-0.2,0.1-0.2,0.3-0.3,0.5
			c0,0.2-0.1,0.6-0.1,1.3c-0.1,0.7-0.2,1.7-0.3,3c-0.2,1.4-0.4,3.2-0.6,5.4c-0.3,2.2-0.6,5-1.1,8.3c-0.1,0.7,0.1,1,0.5,1.1l12-0.7
			C249.8,132,249.7,131.6,248.6,131.4z M259,112c-0.5,0.3-0.9,0.6-1.4,0.9c-0.5,0.3-0.8,0.6-1.1,0.9c-0.3,0.3-0.4,0.6-0.4,0.9
			c0,0.3,0.2,0.5,0.7,0.6c0.2-0.1,0.5-0.3,0.8-0.5c0.3-0.2,0.6-0.4,0.9-0.6c0.3-0.2,0.5-0.4,0.7-0.6c0.2-0.2,0.4-0.4,0.4-0.6l0-0.2
			c0-0.2,0-0.4-0.1-0.6C259.5,112.2,259.3,112.1,259,112z M264,128.1l-2.5,0.4l-2.9-11.8c0-0.1,0-0.2-0.1-0.3
			c-0.1-0.1-0.2-0.2-0.4-0.2c-0.2,0-0.3-0.1-0.5,0c-0.2,0-0.3,0.1-0.4,0.3c-1.3,3.3-2.4,6.1-3.3,8.4c-0.9,2.3-1.7,4.1-2.3,5.6
			c-0.6,1.5-1.1,2.6-1.5,3.4c-0.4,0.8-0.6,1.3-0.8,1.7c0.3,0.4,0.6,0.6,0.8,0.7c0.2,0.1,0.5,0.1,0.8-0.2c0.2-0.7,0.4-1.3,0.6-1.8
			c0.2-0.5,0.3-1,0.5-1.4c0.2-0.5,0.3-0.8,0.3-1c0.1-0.3,0.3-0.6,0.7-0.8c0.3-0.2,0.8-0.3,1.2-0.4c0.5-0.1,1-0.2,1.5-0.2
			c0.6,0,1.1-0.1,1.6-0.1c0.5,0,1.1,0,1.5,0c0.5,0,0.9,0,1.2-0.1l1.6,7.2c0.3,0.3,0.6,0.4,0.7,0.5c0.2,0.1,0.3,0,0.4,0
			c0.1-0.1,0.2-0.1,0.2-0.2c0-0.1,0.1-0.2,0.1-0.3l-1.5-7.2c0,0,0.1-0.1,0.2-0.1c0.1,0,0.3,0,0.5-0.1c0.2,0,0.4,0,0.6-0.1
			c0.2,0,0.4,0,0.5-0.1c0.3-0.1,0.6-0.2,0.7-0.3c0.2-0.2,0.2-0.3,0.2-0.5c0-0.2,0-0.3-0.2-0.4C264.4,128.3,264.2,128.2,264,128.1z
			 M258.1,128.6c-0.6,0-1.1,0.1-1.7,0.1c-0.6,0-1.1,0.1-1.6,0.1c-0.5,0-0.9,0.1-1.1,0.1l4-9.9l1.9,9.4
			C259.2,128.5,258.7,128.6,258.1,128.6z M271.6,126.7c0.8-0.3,1.7-0.7,2.5-1.1c0.9-0.4,1.6-0.8,2.4-1.1c0.7-0.4,1.3-0.8,1.7-1.2
			c0.4-0.4,0.7-0.8,0.7-1.2c0-0.4-0.2-0.8-0.7-1.3c-0.5-0.4-1.4-0.9-2.6-1.3c-0.8-0.2-1.5-0.3-2.2-0.3c-0.7,0-1.3,0.1-1.9,0.2
			c-0.6,0.1-1.1,0.2-1.5,0.4c-0.4,0.1-0.8,0.2-1.1,0.2l0.1-1.3c0-0.2-0.1-0.3-0.2-0.4c-0.1-0.1-0.2-0.2-0.4-0.2c-0.2,0-0.3,0-0.5,0
			c-0.2,0-0.3,0.1-0.3,0.2l-2.8,19.4c0,0.1,0.1,0.2,0.1,0.2c0.1,0.1,0.1,0.1,0.2,0.2c0.1,0,0.2,0,0.3,0c0.1,0,0.3-0.1,0.5-0.2
			l1.2-7.7l9.3,7.4c0.3,0.1,0.5,0,0.7-0.2c0.2-0.2,0.4-0.4,0.4-0.7l-9.9-8.2c0.4-0.3,0.9-0.6,1.6-0.9
			C270,127.4,270.8,127.1,271.6,126.7z M267.7,126.9c0.1-0.4,0.1-0.8,0.2-1.3c0.1-0.5,0.1-0.9,0.2-1.4c0.1-0.5,0.2-0.9,0.2-1.4
			c0.1-0.4,0.2-0.8,0.2-1.1c0.4-0.4,0.8-0.6,1.4-0.8c0.6-0.2,1.2-0.3,1.8-0.4c0.6-0.1,1.3-0.1,1.9-0.1c0.6,0,1.2,0.1,1.6,0.2
			c0.8,0.3,1.3,0.6,1.6,0.9c0.2,0.3,0.3,0.6,0.1,0.9c-0.2,0.3-0.5,0.6-1,1c-0.5,0.3-1.1,0.6-1.8,1c-0.7,0.3-1.4,0.6-2.1,0.9
			c-0.7,0.3-1.4,0.5-2,0.7c-0.6,0.2-1.2,0.4-1.6,0.5C268.1,126.8,267.8,126.9,267.7,126.9z M35.5,122.6L33,123l-2.9-11.8
			c0-0.1,0-0.2-0.1-0.3c-0.1-0.1-0.2-0.2-0.4-0.2c-0.2,0-0.3-0.1-0.5,0c-0.2,0-0.3,0.1-0.4,0.3c-1.3,3.3-2.4,6.1-3.3,8.4
			c-0.9,2.3-1.7,4.1-2.3,5.6c-0.6,1.5-1.1,2.6-1.5,3.4c-0.4,0.8-0.6,1.3-0.8,1.7c0.3,0.4,0.6,0.6,0.8,0.7c0.2,0.1,0.5,0.1,0.8-0.2
			c0.2-0.7,0.4-1.3,0.6-1.8c0.2-0.5,0.3-1,0.5-1.4c0.2-0.5,0.3-0.8,0.3-1c0.1-0.3,0.3-0.6,0.7-0.8c0.3-0.2,0.8-0.3,1.2-0.4
			c0.5-0.1,1-0.2,1.5-0.2c0.6,0,1.1-0.1,1.6-0.1c0.5,0,1.1,0,1.5,0c0.5,0,0.9,0,1.2-0.1l1.6,7.2c0.3,0.3,0.6,0.4,0.7,0.5
			c0.2,0.1,0.3,0,0.4,0c0.1-0.1,0.2-0.1,0.2-0.2c0-0.1,0.1-0.2,0.1-0.3l-1.5-7.2c0,0,0.1-0.1,0.2-0.1c0.1,0,0.3,0,0.5-0.1
			c0.2,0,0.4,0,0.6-0.1c0.2,0,0.4,0,0.5-0.1c0.3-0.1,0.6-0.2,0.7-0.3c0.2-0.2,0.2-0.3,0.2-0.5c0-0.2,0-0.3-0.2-0.4
			C35.9,122.7,35.7,122.6,35.5,122.6z M29.6,123.1c-0.6,0-1.1,0.1-1.7,0.1c-0.6,0-1.1,0.1-1.6,0.1c-0.5,0-0.9,0.1-1.1,0.1l4-9.9
			l1.9,9.4C30.7,123,30.2,123.1,29.6,123.1z M62.5,119.2c0.2-0.4,0.3-0.6,0.4-0.5l-1.1,17.4c0.1,0.1,0.3,0.3,0.5,0.4
			c0.2,0.1,0.3,0.2,0.5,0.2c0.2,0,0.3,0,0.4,0c0.1-0.1,0.2-0.2,0.3-0.4c0-1.7,0-3.4,0-5.1c0.1-1.7,0.1-3.4,0.2-5.1
			c0.1-1.7,0.2-3.3,0.3-4.9c0.1-1.6,0.2-3.1,0.3-4.6c0-0.3-0.1-0.4-0.2-0.6c-0.1-0.1-0.2-0.2-0.4-0.2c-0.1,0-0.3,0-0.4,0
			c-0.1,0.1-0.2,0.1-0.3,0.2c-0.9,1.8-1.7,3.4-2.3,4.6c-0.6,1.3-1.2,2.3-1.6,3.2c-0.4,0.8-0.8,1.5-1,2c-0.2,0.5-0.4,0.8-0.6,1
			c-0.1,0.2-0.2,0.4-0.3,0.4c-0.1,0-0.1,0.1-0.2,0.1c-0.4-0.6-0.7-1.3-0.9-2.2c-0.3-0.8-0.5-1.7-0.7-2.6c-0.2-0.9-0.5-1.8-0.7-2.7
			c-0.2-0.9-0.5-1.8-0.9-2.5c-0.3-0.8-0.8-1.5-1.2-2.1c-0.5-0.6-1-1.1-1.7-1.4c-0.2,0-0.3,0-0.5,0c-0.1,0.1-0.2,0.2-0.3,0.6
			c0,1.6,0,3.2-0.1,4.8c-0.1,1.6-0.2,3.3-0.4,4.9c-0.2,1.6-0.3,3.3-0.5,4.9c-0.2,1.6-0.2,3.2-0.3,4.8c0.1,0.3,0.3,0.4,0.4,0.5
			c0.2,0.1,0.3,0.1,0.5,0c0.2-0.1,0.3-0.2,0.4-0.3c0.1-0.1,0.1-0.3,0.1-0.5c0.2-1.2,0.3-2.6,0.4-4c0.1-1.5,0.1-2.9,0.2-4.4
			c0.1-1.5,0.1-3,0.2-4.4c0.1-1.5,0.2-2.8,0.4-4c0.3,0.3,0.6,0.7,0.9,1.2c0.3,0.6,0.6,1.2,0.9,2c0.3,0.8,0.5,1.6,0.8,2.4
			c0.3,0.9,0.5,1.7,0.7,2.5c0.2,0.8,0.5,1.6,0.7,2.3c0.2,0.7,0.4,1.2,0.6,1.7c0.1,0.6,0.3,0.8,0.5,0.8c0.2,0,0.5-0.2,0.9-0.6
			c0.3-0.4,0.7-0.9,1.1-1.6c0.4-0.7,0.8-1.4,1.2-2.2c0.4-0.8,0.8-1.6,1.1-2.4c0.4-0.8,0.7-1.5,1-2.1C62,120.2,62.3,119.6,62.5,119.2
			z M68.9,137.3c0.2,0,0.5,0.1,0.7,0.1c0.6-1.2,1.1-2.2,1.6-3c0.4-0.8,0.8-1.5,1-2c0.3-0.5,0.5-1,0.6-1.3c0.2-0.3,0.3-0.6,0.4-0.8
			c0.1-0.2,0.2-0.5,0.3-0.7c0.1-0.2,0.2-0.5,0.3-0.8c0.1-0.3,0.3-0.7,0.5-1.2c0.2-0.5,0.5-1.1,0.9-1.8c0.4-0.7,0.8-1.6,1.4-2.7
			c0.5-1.1,1.2-2.4,2-3.9c0-0.1,0-0.2-0.1-0.4c-0.1-0.1-0.1-0.3-0.2-0.4c-0.1-0.1-0.2-0.2-0.3-0.2c-0.1-0.1-0.3,0-0.4,0.1
			c-0.1,0.4-0.3,0.9-0.6,1.5c-0.3,0.6-0.6,1.2-0.9,1.9c-0.3,0.7-0.7,1.4-1,2c-0.4,0.7-0.7,1.3-1,1.9c-0.3,0.6-0.6,1.1-0.8,1.5
			c-0.2,0.4-0.4,0.7-0.5,0.8l-5.5-9.3c-0.2,0-0.4,0-0.6,0.1c-0.2,0.1-0.4,0.2-0.4,0.4l5.7,10.5l-3.4,7.2
			C68.6,137.1,68.7,137.2,68.9,137.3z M101.9,135.2c-0.3-0.3-0.7-0.6-1.2-0.9c-0.5-0.2-1.1-0.5-1.9-0.7c-0.7-0.2-1.4-0.4-2.1-0.6
			c-0.7-0.2-1.4-0.4-2.1-0.6c-0.7-0.2-1.3-0.5-1.8-0.7c-0.5-0.3-0.9-0.6-1.2-1c-0.3-0.4-0.4-0.8-0.3-1.4c0.1-0.4,0.2-0.9,0.5-1.3
			c0.3-0.5,0.7-1,1.1-1.4c0.4-0.5,0.9-0.9,1.5-1.3c0.5-0.4,1.1-0.8,1.6-1.1c0.6-0.3,1.1-0.5,1.6-0.7c0.5-0.1,1-0.2,1.4-0.1l0.9,0.5
			c0.5,0.1,0.9,0,1.2-0.1c0.4-0.2,0.6-0.5,0.6-1c0-0.2,0-0.4-0.1-0.5c-0.1-0.1-0.2-0.2-0.3-0.2c-0.1-0.1-0.3-0.1-0.4-0.1
			c-0.2,0-0.3,0-0.5-0.1c-0.6-0.1-1.2-0.1-2,0.1c-0.7,0.1-1.5,0.4-2.2,0.7c-0.8,0.3-1.5,0.7-2.2,1.2c-0.7,0.5-1.4,1-2,1.6
			c-0.6,0.6-1.1,1.2-1.5,1.8c-0.4,0.6-0.7,1.3-0.8,2c-0.1,0.7,0,1.3,0.3,1.8c0.3,0.5,0.7,1,1.2,1.3c0.5,0.4,1.1,0.7,1.8,1
			c0.7,0.3,1.4,0.5,2.1,0.7c0.7,0.2,1.4,0.4,2.1,0.6c0.7,0.2,1.3,0.3,1.9,0.5c0.5,0.2,1,0.4,1.3,0.6c0.3,0.2,0.5,0.4,0.4,0.7
			c-0.3,0.4-0.8,0.8-1.4,1.1c-0.6,0.3-1.3,0.6-2.1,0.8c-0.8,0.2-1.6,0.4-2.4,0.5c-0.8,0.1-1.5,0.3-2.2,0.4c-0.7,0.1-1.2,0.2-1.7,0.3
			c-0.4,0.1-0.7,0.2-0.7,0.2c-0.1,0.2-0.1,0.4,0,0.5c0.1,0.1,0.2,0.2,0.4,0.2c0.5,0.1,1.2,0.1,2,0.1c0.8,0,1.6-0.1,2.4-0.2
			c0.8-0.1,1.7-0.3,2.5-0.6c0.8-0.2,1.6-0.5,2.3-0.9c0.7-0.3,1.2-0.7,1.7-1.1c0.4-0.4,0.7-0.8,0.8-1.3
			C102.3,136,102.2,135.6,101.9,135.2z M116.2,134.8l-2.5,0.4l-2.9-11.8c0-0.1,0-0.2-0.1-0.3c-0.1-0.1-0.2-0.2-0.4-0.2
			c-0.2,0-0.3-0.1-0.5,0c-0.2,0-0.3,0.1-0.4,0.3c-1.3,3.3-2.4,6.1-3.3,8.4c-0.9,2.3-1.7,4.1-2.3,5.6c-0.6,1.5-1.1,2.6-1.5,3.4
			c-0.4,0.8-0.6,1.3-0.8,1.7c0.3,0.4,0.6,0.6,0.8,0.7c0.2,0.1,0.5,0.1,0.8-0.2c0.2-0.7,0.4-1.3,0.6-1.8c0.2-0.5,0.3-1,0.5-1.4
			c0.2-0.5,0.3-0.8,0.3-1c0.1-0.3,0.3-0.6,0.7-0.8c0.3-0.2,0.8-0.3,1.2-0.4c0.5-0.1,1-0.2,1.5-0.2c0.6,0,1.1-0.1,1.6-0.1
			c0.5,0,1.1,0,1.5,0c0.5,0,0.9,0,1.2-0.1l1.6,7.2c0.3,0.3,0.6,0.4,0.7,0.5c0.2,0.1,0.3,0,0.4,0c0.1-0.1,0.2-0.1,0.2-0.2
			c0-0.1,0.1-0.2,0.1-0.3l-1.5-7.2c0,0,0.1-0.1,0.2-0.1c0.1,0,0.3,0,0.5-0.1c0.2,0,0.4,0,0.6-0.1c0.2,0,0.4,0,0.5-0.1
			c0.3-0.1,0.6-0.2,0.7-0.3c0.2-0.2,0.2-0.3,0.2-0.5c0-0.2,0-0.3-0.2-0.4C116.5,134.9,116.4,134.9,116.2,134.8z M110.3,135.3
			c-0.6,0-1.1,0.1-1.7,0.1c-0.6,0-1.1,0.1-1.6,0.1c-0.5,0-0.9,0.1-1.1,0.1l4-9.9l1.9,9.4C111.4,135.2,110.8,135.3,110.3,135.3z
			 M148.2,130c0.3-0.1,0.4-0.3,0.4-0.6c-0.1,0-0.2-0.1-0.4-0.1c-0.2,0-0.3-0.1-0.4-0.1c-2.6-0.3-5.2-0.6-7.7-1
			c-0.1,0-0.2-0.1-0.2-0.2c0-0.1-0.1-0.2-0.2-0.4c-0.1-0.1-0.1-0.3-0.2-0.4c-0.1-0.1-0.2-0.2-0.4-0.3c-0.1,0-0.3,0-0.4,0.1
			c-0.1,0.1-0.2,0.2-0.3,0.3c-0.1,0.1-0.2,0.3-0.3,0.4c-0.1,0.1-0.1,0.2-0.1,0.3l-7-0.6c-0.2,0-0.3,0-0.5,0.2
			c-0.2,0.1-0.3,0.3-0.3,0.5c-0.1,0.3,0,0.4,0.1,0.5c0.2,0.1,0.3,0.2,0.5,0.2c0.6,0.1,1.2,0.2,1.8,0.2c0.6,0,1.2,0,1.8,0.1
			c0.6,0,1.2,0,1.8,0.1c0.6,0,1.2,0.1,1.8,0.3c0,0.8-0.1,1.6-0.2,2.6c-0.1,1-0.3,2-0.4,3.1c-0.2,1.1-0.3,2.2-0.5,3.3
			c-0.2,1.1-0.3,2.2-0.5,3.3c-0.1,1.1-0.2,2-0.3,3c-0.1,0.9-0.1,1.7-0.1,2.3c0.5,0.2,0.8,0.2,1,0.2c0.2,0,0.3-0.3,0.3-0.8
			c0.2-0.8,0.3-1.7,0.5-2.6c0.1-0.9,0.2-1.9,0.3-2.9c0.1-1,0.2-2,0.3-3c0.1-1,0.2-2,0.3-3c0.1-1,0.3-1.9,0.4-2.9
			c0.2-0.9,0.4-1.8,0.6-2.6c0.3,0,0.8,0,1.4,0.1c0.6,0.1,1.2,0.1,1.9,0.2c0.7,0.1,1.4,0.2,2,0.2c0.7,0.1,1.3,0.1,1.8,0.1
			C147.4,130.1,147.9,130.1,148.2,130z M150.4,129.5c-0.1-0.1-0.3-0.1-0.4-0.2c-0.1,0-0.3,0-0.4,0c-0.1,0-0.2,0.1-0.3,0.2l-2.4,19.4
			c0.1,0.1,0.2,0.2,0.3,0.3c0.1,0.1,0.3,0.1,0.4,0.1c0.1,0,0.3,0,0.4-0.1c0.1-0.1,0.2-0.2,0.2-0.4l2.5-19
			C150.6,129.7,150.5,129.6,150.4,129.5z M175.5,138.6c0-1.2-0.1-2.3-0.4-3.2c-0.3-1.1-0.8-1.8-1.5-2.3c-0.7-0.5-1.5-0.7-2.3-0.6
			c-0.9,0.1-1.8,0.4-2.7,1c-1,0.6-1.9,1.5-2.7,2.5c-0.9,1.1-1.6,2.4-2.3,3.9c-0.7,1.5-1.1,3.3-1.4,5.2c-0.1,0.5-0.1,1.1,0,1.8
			c0.1,0.7,0.3,1.4,0.6,2c0.3,0.7,0.7,1.2,1.3,1.7c0.6,0.5,1.3,0.8,2.1,0.9c1.1,0.1,2.1-0.2,3.1-0.7c0.9-0.5,1.8-1.2,2.6-2.1
			c0.8-0.9,1.4-1.9,1.9-3.1c0.5-1.1,1-2.3,1.2-3.6C175.4,141,175.5,139.8,175.5,138.6z M174,140.2c-0.1,0.9-0.3,1.8-0.6,2.7
			c-0.3,1-0.8,2-1.3,3c-0.6,1-1.2,1.8-1.8,2.6c-0.6,0.7-1.3,1.3-2,1.7c-0.7,0.4-1.3,0.5-2,0.3c-0.8-0.2-1.4-0.6-1.8-1.1
			c-0.4-0.5-0.7-1.2-0.8-1.9c-0.1-0.7-0.1-1.5,0-2.4c0.1-0.8,0.3-1.7,0.6-2.6c0.3-0.9,0.6-1.7,1-2.6c0.4-0.8,0.8-1.6,1.2-2.3
			c0.4-0.7,0.8-1.3,1.2-1.8c0.4-0.5,0.8-0.8,1.1-1c0.9-0.5,1.6-0.8,2.3-0.9c0.6-0.1,1.2,0.1,1.6,0.4c0.4,0.3,0.8,0.8,1,1.3
			c0.2,0.6,0.4,1.3,0.4,2C174.2,138.5,174.2,139.3,174,140.2z M186.9,134.9c-0.5-0.1-1.2-0.2-1.8-0.3c-0.7-0.1-1.4-0.2-2.1-0.3
			c-0.7-0.1-1.4-0.2-2.1-0.3c-0.7-0.1-1.3-0.2-1.8-0.2c-0.5-0.1-1-0.1-1.3-0.1c-0.3,0-0.5,0-0.5,0c-0.1,0-0.2,0.1-0.3,0.2
			c-0.1,0.1-0.1,0.2-0.1,0.3c0,0.1,0,0.2,0.1,0.3c0.1,0.1,0.2,0.2,0.3,0.3l9.6,1.3l-12.3,15.1c0,0.1,0,0.3-0.1,0.5
			c0,0.2,0,0.3,0,0.5c0,0.2,0.1,0.3,0.1,0.4c0.1,0.1,0.2,0.2,0.4,0.2l10.7,1.6c0.2,0,0.3,0,0.5-0.1c0.1-0.1,0.2-0.2,0.2-0.4
			c0-0.1,0-0.3,0-0.4c0-0.1-0.1-0.3-0.3-0.3l-10-1.5l12.6-15.6l0.1-1.1c0,0-0.2,0-0.6-0.1C187.8,135.1,187.4,135,186.9,134.9z
			 M202.8,137.4c-0.1-0.1-0.2-0.2-0.4-0.3c-0.1-0.1-0.3-0.1-0.5-0.1c-0.2,0-0.3,0.1-0.3,0.2L194,154l-3.1-17.9
			c-0.1-0.2-0.2-0.4-0.3-0.6c-0.2-0.1-0.3-0.2-0.5-0.2c-0.2,0-0.3,0-0.4,0.1c-0.1,0.1-0.2,0.3-0.2,0.5l3.4,19.7
			c0.2,0.2,0.4,0.3,0.6,0.4c0.3,0.1,0.6,0,1.1-0.1l8.2-18C202.9,137.7,202.9,137.6,202.8,137.4z M214.5,139.2l-9.3,0.9
			c0-0.1,0-0.3,0-0.5c0-0.2,0-0.5,0-0.8c0-0.3-0.1-0.5-0.2-0.8c-0.1-0.2-0.2-0.4-0.4-0.5c-0.1-0.1-0.2-0.1-0.4,0
			c-0.1,0-0.2,0.1-0.3,0.2c-0.1,0.1-0.2,0.2-0.3,0.3c-0.1,0.1-0.1,0.2-0.1,0.3c0.1,1.5,0.1,3.1,0,4.6c-0.1,1.6-0.3,3.1-0.5,4.7
			c-0.2,1.6-0.5,3.1-0.8,4.7c-0.3,1.5-0.5,3-0.8,4.5c0.1,0.2,0.3,0.4,0.4,0.5c0.1,0.1,0.3,0.2,0.5,0.2c0.6,0,1.3,0,2.2-0.1
			c0.9-0.1,1.8-0.2,2.7-0.4c0.9-0.2,1.9-0.3,2.8-0.5c0.9-0.2,1.7-0.4,2.3-0.5c0.2-0.1,0.3-0.1,0.4-0.2c0.1-0.1,0.1-0.2,0-0.3
			c0-0.1-0.1-0.2-0.2-0.3c-0.1-0.1-0.2-0.2-0.3-0.2c-0.3,0-0.7,0-1.2,0.1c-0.5,0.1-1,0.2-1.6,0.3c-0.6,0.1-1.2,0.2-1.8,0.4
			c-0.6,0.1-1.2,0.2-1.8,0.3c-0.6,0.1-1.1,0.1-1.5,0.1c-0.4,0-0.8-0.1-1-0.3l1.1-6.1c0-0.2,0.3-0.4,0.7-0.6c0.4-0.2,0.9-0.3,1.5-0.4
			c0.6-0.1,1.2-0.2,1.9-0.3c0.7-0.1,1.3-0.2,1.9-0.3c0.6-0.1,1.1-0.3,1.5-0.5c0.4-0.2,0.6-0.5,0.7-0.8c-0.1-0.2-0.2-0.4-0.4-0.4
			c-0.1,0-0.3,0-0.4,0c-0.1,0-0.3,0.1-0.5,0.3l-6.8,1.3c0.1-1,0.2-2,0.3-3c0.1-1,0.2-2,0.4-3l9.1-1.1c0.2,0,0.4-0.1,0.5-0.3
			c0.1-0.1,0.2-0.3,0.2-0.4c0-0.2,0-0.3,0-0.5C214.7,139.4,214.6,139.3,214.5,139.2z M229.9,141c-0.1,0-0.3,0-0.4,0
			c-0.1,0.1-0.2,0.1-0.3,0.2c-0.9,1.8-1.7,3.4-2.3,4.6c-0.6,1.3-1.2,2.3-1.6,3.2c-0.4,0.8-0.8,1.5-1,2c-0.2,0.5-0.4,0.8-0.6,1
			c-0.1,0.2-0.2,0.4-0.3,0.4c-0.1,0-0.1,0.1-0.2,0.1c-0.4-0.6-0.7-1.3-0.9-2.2c-0.3-0.8-0.5-1.7-0.7-2.6c-0.2-0.9-0.5-1.8-0.7-2.7
			c-0.2-0.9-0.5-1.8-0.9-2.5c-0.3-0.8-0.8-1.5-1.2-2.1c-0.5-0.6-1-1.1-1.7-1.4c-0.2,0-0.3,0-0.5,0c-0.1,0.1-0.2,0.2-0.2,0.6
			c0,1.6,0,3.2-0.1,4.8c-0.1,1.6-0.2,3.3-0.4,4.9c-0.2,1.6-0.3,3.3-0.5,4.9c-0.2,1.6-0.2,3.2-0.3,4.8c0.1,0.3,0.3,0.4,0.4,0.5
			c0.2,0.1,0.3,0.1,0.5,0c0.2-0.1,0.3-0.2,0.4-0.3c0.1-0.1,0.1-0.3,0.1-0.5c0.2-1.2,0.3-2.6,0.4-4c0.1-1.5,0.1-2.9,0.2-4.4
			c0.1-1.5,0.1-3,0.2-4.4c0.1-1.5,0.2-2.8,0.4-4c0.3,0.3,0.6,0.7,0.9,1.2c0.3,0.6,0.6,1.2,0.9,2c0.3,0.8,0.5,1.6,0.8,2.4
			c0.3,0.9,0.5,1.7,0.7,2.5c0.2,0.8,0.5,1.6,0.7,2.3c0.2,0.7,0.4,1.2,0.6,1.7c0.1,0.6,0.3,0.8,0.5,0.8c0.2,0,0.5-0.2,0.9-0.6
			c0.3-0.4,0.7-0.9,1.1-1.6c0.4-0.7,0.8-1.4,1.2-2.2c0.4-0.8,0.8-1.6,1.1-2.4c0.4-0.8,0.7-1.5,1-2.1c0.3-0.6,0.5-1.1,0.7-1.5
			c0.2-0.4,0.3-0.6,0.4-0.5l-1.1,17.4c0.1,0.1,0.3,0.3,0.5,0.4c0.2,0.1,0.3,0.2,0.5,0.2c0.2,0,0.3,0,0.4,0c0.1-0.1,0.2-0.2,0.3-0.4
			c0-1.7,0-3.4,0-5.1c0.1-1.7,0.1-3.4,0.2-5.1c0.1-1.7,0.2-3.3,0.3-4.9c0.1-1.6,0.2-3.1,0.3-4.6c0-0.3-0.1-0.4-0.2-0.6
			C230.1,141.1,230,141,229.9,141z M242.4,159.4c-0.1-0.1-0.2-0.2-0.3-0.2c-0.3,0-0.7,0-1.2,0.1c-0.5,0.1-1,0.2-1.6,0.3
			c-0.6,0.1-1.2,0.2-1.8,0.4c-0.6,0.1-1.2,0.2-1.8,0.3c-0.6,0.1-1.1,0.1-1.5,0.1c-0.4,0-0.8-0.1-1-0.3l1.1-6.1
			c0-0.2,0.3-0.4,0.7-0.6c0.4-0.2,0.9-0.3,1.5-0.4c0.6-0.1,1.2-0.2,1.9-0.3c0.7-0.1,1.3-0.2,1.9-0.3c0.6-0.1,1.1-0.3,1.5-0.5
			c0.4-0.2,0.6-0.5,0.7-0.8c-0.1-0.2-0.2-0.4-0.4-0.4c-0.1,0-0.3,0-0.4,0c-0.1,0-0.3,0.1-0.5,0.3l-6.8,1.3c0.1-1,0.2-2,0.3-3
			c0.1-1,0.2-2,0.4-3l9.1-1.1c0.2,0,0.4-0.1,0.5-0.3c0.1-0.1,0.2-0.3,0.2-0.4c0-0.2,0-0.3,0-0.5c-0.1-0.1-0.2-0.2-0.3-0.3l-9.3,0.9
			c0-0.1,0-0.3,0-0.5c0-0.2,0-0.5,0-0.8c0-0.3-0.1-0.5-0.2-0.8c-0.1-0.2-0.2-0.4-0.4-0.5c-0.1-0.1-0.2-0.1-0.4,0
			c-0.1,0-0.2,0.1-0.3,0.2c-0.1,0.1-0.2,0.2-0.3,0.3c-0.1,0.1-0.1,0.2-0.1,0.3c0.1,1.5,0.1,3.1,0,4.6c-0.1,1.6-0.3,3.1-0.5,4.7
			c-0.2,1.6-0.5,3.1-0.8,4.7c-0.3,1.5-0.5,3-0.8,4.5c0.1,0.2,0.3,0.4,0.4,0.5c0.1,0.1,0.3,0.2,0.5,0.2c0.6,0,1.3,0,2.2-0.1
			c0.9-0.1,1.8-0.2,2.7-0.4c0.9-0.2,1.9-0.3,2.8-0.5c0.9-0.2,1.7-0.4,2.3-0.5c0.2-0.1,0.3-0.1,0.4-0.2c0.1-0.1,0.1-0.2,0-0.3
			C242.5,159.6,242.5,159.5,242.4,159.4z M244.8,162c-0.2-0.1-0.4,0-0.6,0.1c-0.2,0.1-0.3,0.3-0.3,0.6c-0.1,0.3,0,0.5,0.1,0.7
			c0.1,0.2,0.3,0.3,0.5,0.3c0.2,0,0.4,0,0.6-0.1c0.2-0.1,0.3-0.3,0.4-0.6c0-0.2,0-0.5-0.2-0.6C245.1,162.2,245,162.1,244.8,162z
			 M247.5,144.2c-0.1,0-0.3-0.1-0.4,0c-0.1,0-0.3,0.1-0.4,0.3l-2.2,14c0,0.1,0.1,0.3,0.2,0.4c0.1,0.1,0.2,0.2,0.4,0.2
			c0.1,0,0.3,0,0.5,0c0.2,0,0.3-0.2,0.4-0.3c0-0.9,0.2-2,0.3-3.3c0.2-1.2,0.4-2.5,0.6-3.8c0.2-1.3,0.4-2.6,0.6-3.8
			c0.2-1.2,0.4-2.3,0.5-3.3c0,0-0.1-0.1-0.1-0.2C247.7,144.3,247.6,144.2,247.5,144.2z"/>
	</g>
</g>
</svg>
