<?xml version="1.0" encoding="utf-8"?>
<!-- Generator: Adobe Illustrator 22.0.1, SVG Export Plug-In . SVG Version: 6.00 Build 0)  -->
<svg version="1.1" id="Layer_1" xmlns="http://www.w3.org/2000/svg" xmlns:xlink="http://www.w3.org/1999/xlink" x="0px" y="0px"
	 viewBox="0 0 373 235" style="enable-background:new 0 0 373 235;" xml:space="preserve">
<style type="text/css">
	.st0{fill:#666666;}
</style>
<g>
	<g>
		<path class="st0" d="M129.3,187.8c-0.4,0.2-0.6,0.6-0.4,1c0,0,2,4.9,1.1,11c-1.2,8.3-6.6,15-16.2,20c-14.4,7.5-28.3,1.7-33.2-0.8
			l17.3-2.2c0.4-0.1,0.7-0.4,0.6-0.8c-0.1-0.4-0.4-0.7-0.8-0.6l-21.1,2.7l17.1,16.7c0.2,0.1,0.4,0.2,0.6,0.2c0.2,0,0.4-0.1,0.5-0.2
			c0.3-0.3,0.3-0.8,0-1.1l-12.4-12.1c1.8,0.8,4.1,1.7,6.8,2.3c2.9,0.7,6.6,1.3,10.6,1.2c4.5-0.2,9.6-1.2,14.7-3.9
			c12.5-6.5,16.1-15.1,17-21.2c0.9-6.6-1.1-11.6-1.2-11.8C130.1,187.8,129.7,187.7,129.3,187.8z M91.6,20.7c0.3,0.1,0.6,0,1.1-0.1
			l8.2-18c0-0.1,0-0.3-0.1-0.4c-0.1-0.1-0.2-0.2-0.4-0.3c-0.1-0.1-0.3-0.1-0.5-0.1c-0.2,0-0.3,0.1-0.3,0.2l-7.6,16.7L89,0.8
			c-0.1-0.2-0.2-0.4-0.3-0.6C88.5,0.1,88.3,0,88.2,0c-0.2,0-0.3,0-0.4,0.1c-0.1,0.1-0.2,0.3-0.2,0.5L91,20.3
			C91.2,20.5,91.4,20.6,91.6,20.7z M106.6,15l-3.4,7.2c0,0.2,0.1,0.4,0.3,0.4c0.2,0,0.5,0.1,0.7,0.1c0.6-1.2,1.1-2.2,1.6-3
			c0.4-0.8,0.8-1.5,1-2c0.3-0.5,0.5-1,0.6-1.3c0.2-0.3,0.3-0.6,0.4-0.8c0.1-0.2,0.2-0.5,0.3-0.7c0.1-0.2,0.2-0.5,0.3-0.8
			c0.1-0.3,0.3-0.7,0.5-1.2c0.2-0.5,0.5-1.1,0.9-1.8c0.4-0.7,0.8-1.6,1.4-2.7c0.5-1.1,1.2-2.4,2-3.9c0-0.1,0-0.2-0.1-0.4
			c-0.1-0.1-0.1-0.3-0.2-0.4c-0.1-0.1-0.2-0.2-0.3-0.2c-0.1-0.1-0.3,0-0.4,0.1c-0.1,0.4-0.3,0.9-0.6,1.5c-0.3,0.6-0.6,1.2-0.9,1.9
			c-0.3,0.7-0.7,1.4-1,2c-0.4,0.7-0.7,1.3-1,1.9c-0.3,0.6-0.6,1.1-0.8,1.5c-0.2,0.4-0.4,0.7-0.5,0.8L101.9,4c-0.2,0-0.4,0-0.6,0.1
			c-0.2,0.1-0.4,0.2-0.4,0.4L106.6,15z M113.8,8.4c0.1,0,0.2,0,0.3-0.1c0.1-0.1,0.2-0.1,0.4-0.2c0.1-0.1,0.2-0.2,0.4-0.3
			c0.1-0.1,0.2-0.2,0.3-0.2c-0.1,1.2-0.2,2.3-0.4,3.5c-0.2,1.2-0.4,2.5-0.7,3.8c-0.2,1.3-0.5,2.7-0.8,4.1c-0.3,1.4-0.5,2.9-0.8,4.5
			c0,0.1,0.1,0.2,0.3,0.2c0.1,0.1,0.3,0.1,0.4,0.2c0.1,0,0.3,0,0.4,0c0.1,0,0.2-0.1,0.2-0.2l1.5-7.7c0-0.1,0.2-0.1,0.7-0.3
			c0.5-0.1,1.1-0.3,1.8-0.6c0.7-0.2,1.5-0.5,2.4-0.9c0.9-0.3,1.7-0.8,2.5-1.3c0.8-0.5,1.5-1.1,2.1-1.8c0.6-0.7,1-1.4,1.1-2.3
			c0-0.7-0.2-1.2-0.4-1.7c-0.3-0.5-0.6-0.9-1.1-1.2c-0.5-0.3-1-0.5-1.5-0.7c-0.6-0.1-1.2-0.2-1.8-0.2c-0.6,0-1.3,0.1-1.9,0.2
			c-0.7,0.1-1.3,0.3-1.8,0.5c-0.1-0.1-0.2-0.2-0.2-0.3c0-0.1-0.1-0.3-0.1-0.4c0-0.1-0.1-0.2-0.2-0.3c-0.1-0.1-0.2-0.1-0.3-0.2
			c-0.2,0-0.4,0.1-0.6,0.3c-0.3,0.3-0.5,0.5-0.8,0.9c-0.3,0.3-0.5,0.7-0.8,1c-0.2,0.3-0.5,0.6-0.6,0.7c0,0,0,0.1,0,0.1l0,0.1
			c0,0.2,0,0.3,0.1,0.4C113.5,8.3,113.6,8.4,113.8,8.4z M116.5,7.4c0.8-0.5,1.7-0.8,2.6-1c0.9-0.2,1.8-0.2,2.6-0.1
			c0.8,0.1,1.4,0.4,1.9,0.9c0.5,0.5,0.8,1.2,0.7,2.1c-0.3,0.8-0.8,1.5-1.5,2c-0.7,0.6-1.4,1-2.2,1.4c-0.8,0.4-1.7,0.7-2.6,1
			c-0.9,0.3-1.8,0.5-2.6,0.6L116.5,7.4z M125.4,25.8l12-0.7c0.7-0.8,0.6-1.3-0.5-1.4l-10.4,0.6l1.8-17.1c0-0.4,0-0.6-0.1-0.8
			c-0.1-0.2-0.2-0.3-0.4-0.3c-0.2,0-0.3,0-0.5,0.1c-0.2,0.1-0.2,0.3-0.3,0.5c0,0.2-0.1,0.6-0.1,1.3c-0.1,0.7-0.2,1.7-0.3,3
			c-0.2,1.4-0.4,3.2-0.6,5.4c-0.3,2.2-0.6,5-1.1,8.3C124.8,25.4,125,25.7,125.4,25.8z M139.8,28.1c0.2,0.1,0.4,0.1,0.6,0
			c0.2-0.1,0.3-0.2,0.4-0.6c0.2-1,0.3-2.2,0.4-3.5c0.1-1.3,0.2-2.7,0.4-4.1c0.1-1.4,0.3-2.7,0.5-4.1c0.2-1.3,0.4-2.5,0.6-3.5
			c0.2,0.3,0.5,0.8,0.9,1.6c0.3,0.8,0.7,1.7,1.1,2.7c0.4,1,0.8,2.1,1.2,3.3c0.4,1.1,0.8,2.2,1.2,3.3c0.4,1,0.7,2,1,2.8
			c0.3,0.8,0.6,1.4,0.8,1.8c-0.1,0.3-0.2,0.5-0.2,0.6c0,0.2,0,0.3,0.1,0.4c0.1,0.1,0.2,0.2,0.3,0.3c0.1,0.1,0.3,0.1,0.4,0.1
			c0.3,0,0.6,0,0.9-0.1c0.3-0.1,0.4-0.4,0.5-0.7c0.1-0.4,0.1-0.8,0-1.1c-0.1-0.3-0.1-0.7,0-1.2c0-0.3,0.1-0.8,0.2-1.5
			c0.1-0.7,0.2-1.5,0.3-2.3c0.1-0.9,0.3-1.8,0.4-2.7c0.1-0.9,0.3-1.9,0.4-2.7c0.1-0.9,0.2-1.6,0.3-2.3c0.1-0.7,0.2-1.2,0.2-1.5
			c0-0.1,0-0.3,0.1-0.7c0-0.4,0-0.8,0-1.2c0-0.4-0.1-0.8-0.2-1.1c-0.1-0.3-0.3-0.5-0.6-0.6c-0.3,0-0.5,0-0.6,0.3
			c-0.1,0.2-0.2,0.4-0.2,0.7c0.1,0.1,0.1,0.4,0.2,0.8c0,0.4,0,1,0,1.6c0,0.6-0.1,1.4-0.2,2.2c-0.1,0.8-0.2,1.6-0.3,2.5
			c-0.1,0.8-0.2,1.7-0.3,2.5c-0.1,0.8-0.2,1.6-0.4,2.3c-0.1,0.7-0.2,1.3-0.4,1.8c-0.1,0.5-0.2,0.9-0.3,1.1l-6.3-15.8
			c0.1,0,0-0.1,0-0.3c-0.1-0.2-0.2-0.5-0.4-0.7c-0.2-0.2-0.4-0.4-0.6-0.6c-0.2-0.1-0.4-0.1-0.6,0.1l-1.9,19.2c-0.1,0-0.1,0.1,0,0.3
			C139.5,27.9,139.6,28,139.8,28.1z M152.8,29.8c0.1,0.1,0.3,0.2,0.5,0.2c0.6,0,1.3,0,2.2-0.1c0.9-0.1,1.8-0.2,2.8-0.4
			c0.9-0.2,1.9-0.3,2.8-0.5c0.9-0.2,1.7-0.4,2.3-0.5c0.2-0.1,0.3-0.1,0.4-0.2c0.1-0.1,0.1-0.2,0-0.3c0-0.1-0.1-0.2-0.2-0.3
			c-0.1-0.1-0.2-0.2-0.3-0.2c-0.3,0-0.7,0-1.2,0.1c-0.5,0.1-1,0.2-1.6,0.3c-0.6,0.1-1.2,0.2-1.8,0.4c-0.6,0.1-1.2,0.2-1.8,0.3
			c-0.6,0.1-1.1,0.1-1.5,0.1c-0.4,0-0.8-0.1-1-0.3l1.1-6.1c0-0.2,0.3-0.4,0.7-0.6c0.4-0.2,0.9-0.3,1.5-0.4c0.6-0.1,1.2-0.2,1.9-0.3
			c0.7-0.1,1.3-0.2,1.9-0.3c0.6-0.1,1.1-0.3,1.5-0.5c0.4-0.2,0.6-0.5,0.7-0.8c-0.1-0.2-0.2-0.4-0.4-0.4c-0.1,0-0.3,0-0.4,0
			c-0.1,0-0.3,0.1-0.5,0.3l-6.8,1.3c0.1-1,0.2-2,0.3-3c0.1-1,0.2-2,0.4-3l9.1-1.1c0.2,0,0.4-0.1,0.5-0.3c0.1-0.1,0.2-0.3,0.2-0.4
			c0-0.2,0-0.3,0-0.5c-0.1-0.1-0.2-0.2-0.3-0.3l-9.3,0.9c0-0.1,0-0.3,0-0.5c0-0.2,0-0.5,0-0.8c0-0.3-0.1-0.5-0.2-0.8
			c-0.1-0.2-0.2-0.4-0.4-0.5c-0.1-0.1-0.2-0.1-0.4,0c-0.1,0-0.2,0.1-0.3,0.2c-0.1,0.1-0.2,0.2-0.3,0.3c-0.1,0.1-0.1,0.2-0.1,0.3
			c0.1,1.5,0.1,3.1,0,4.6c-0.1,1.6-0.3,3.1-0.5,4.7c-0.2,1.6-0.5,3.1-0.8,4.7c-0.3,1.5-0.5,3-0.8,4.5
			C152.5,29.6,152.7,29.7,152.8,29.8z M165.5,31.8c0.1,0.1,0.3,0.2,0.5,0.3c0.2,0.1,0.4,0.1,0.6,0c0.2-0.1,0.3-0.2,0.4-0.6
			c0.2-1,0.3-2.2,0.4-3.5c0.1-1.3,0.2-2.7,0.4-4.1c0.1-1.4,0.3-2.7,0.5-4.1c0.2-1.3,0.4-2.5,0.6-3.5c0.2,0.3,0.5,0.8,0.9,1.6
			c0.3,0.8,0.7,1.7,1.1,2.7c0.4,1,0.8,2.1,1.2,3.3c0.4,1.1,0.8,2.2,1.2,3.3c0.4,1,0.7,2,1,2.8c0.3,0.8,0.6,1.4,0.8,1.8
			c-0.1,0.3-0.2,0.5-0.2,0.6c0,0.2,0,0.3,0.1,0.4c0.1,0.1,0.2,0.2,0.3,0.3c0.1,0.1,0.3,0.1,0.4,0.1c0.3,0,0.6,0,0.9-0.1
			c0.3-0.1,0.4-0.4,0.5-0.7c0.1-0.4,0.1-0.8,0-1.1c-0.1-0.3-0.1-0.7,0-1.2c0-0.3,0.1-0.8,0.2-1.5c0.1-0.7,0.2-1.5,0.3-2.3
			c0.1-0.9,0.3-1.8,0.4-2.7c0.1-0.9,0.3-1.9,0.4-2.7c0.1-0.9,0.2-1.6,0.3-2.3c0.1-0.7,0.2-1.2,0.2-1.5c0-0.1,0-0.3,0.1-0.7
			c0-0.4,0-0.8,0-1.2c0-0.4-0.1-0.8-0.2-1.1c-0.1-0.3-0.3-0.5-0.6-0.6c-0.3,0-0.5,0-0.6,0.3c-0.1,0.2-0.2,0.4-0.2,0.7
			c0.1,0.1,0.1,0.4,0.2,0.8c0,0.4,0,1,0,1.6c0,0.6-0.1,1.4-0.2,2.2c-0.1,0.8-0.2,1.6-0.3,2.5c-0.1,0.8-0.2,1.7-0.3,2.5
			c-0.1,0.8-0.2,1.6-0.4,2.3c-0.1,0.7-0.2,1.3-0.4,1.8c-0.1,0.5-0.2,0.9-0.3,1.1l-6.3-15.8c0.1,0,0-0.1,0-0.3
			c-0.1-0.2-0.2-0.5-0.4-0.7c-0.2-0.2-0.4-0.4-0.6-0.6c-0.2-0.1-0.4-0.1-0.6,0.1l-1.9,19.2C165.4,31.5,165.4,31.6,165.5,31.8z
			 M178.9,34c0.1,0.1,0.3,0.1,0.4,0.1c0.1,0,0.3,0,0.4-0.1c0.1-0.1,0.2-0.2,0.2-0.4l2.5-19c0-0.1-0.1-0.2-0.2-0.2
			c-0.1-0.1-0.3-0.1-0.4-0.2c-0.1,0-0.3,0-0.4,0c-0.1,0-0.2,0.1-0.3,0.2l-2.4,19.4C178.6,33.9,178.7,34,178.9,34z M182.3,34.3
			c0.1,0.1,0.3,0.2,0.5,0.2c0.6,0,1.3,0,2.2-0.1c0.9-0.1,1.8-0.2,2.8-0.4c0.9-0.2,1.9-0.3,2.8-0.5c0.9-0.2,1.7-0.4,2.3-0.5
			c0.2-0.1,0.3-0.1,0.4-0.2c0.1-0.1,0.1-0.2,0-0.3c0-0.1-0.1-0.2-0.2-0.3c-0.1-0.1-0.2-0.2-0.3-0.2c-0.3,0-0.7,0-1.2,0.1
			c-0.5,0.1-1,0.2-1.6,0.3c-0.6,0.1-1.2,0.2-1.8,0.4c-0.6,0.1-1.2,0.2-1.8,0.3c-0.6,0.1-1.1,0.1-1.5,0.1c-0.4,0-0.8-0.1-1-0.3
			l1.1-6.1c0-0.2,0.3-0.4,0.7-0.6c0.4-0.2,0.9-0.3,1.5-0.4c0.6-0.1,1.2-0.2,1.9-0.3c0.7-0.1,1.3-0.2,1.9-0.3
			c0.6-0.1,1.1-0.3,1.5-0.5c0.4-0.2,0.6-0.5,0.7-0.8c-0.1-0.2-0.2-0.4-0.4-0.4c-0.1,0-0.3,0-0.4,0c-0.1,0-0.3,0.1-0.5,0.3l-6.8,1.3
			c0.1-1,0.2-2,0.3-3c0.1-1,0.2-2,0.4-3l9.1-1.1c0.2,0,0.4-0.1,0.5-0.3c0.1-0.1,0.2-0.3,0.2-0.4c0-0.2,0-0.3,0-0.5
			c-0.1-0.1-0.2-0.2-0.3-0.3l-9.3,0.9c0-0.1,0-0.3,0-0.5c0-0.2,0-0.5,0-0.8c0-0.3-0.1-0.5-0.2-0.8c-0.1-0.2-0.2-0.4-0.4-0.5
			c-0.1-0.1-0.2-0.1-0.4,0c-0.1,0-0.2,0.1-0.3,0.2c-0.1,0.1-0.2,0.2-0.3,0.3c-0.1,0.1-0.1,0.2-0.1,0.3c0.1,1.5,0.1,3.1,0,4.6
			c-0.1,1.6-0.3,3.1-0.5,4.7c-0.2,1.6-0.5,3.1-0.8,4.7c-0.3,1.5-0.5,3-0.8,4.5C182,34,182.1,34.2,182.3,34.3z M207.4,38.2
			c0.2,0,0.3,0,0.4-0.1c0.1-0.1,0.2-0.3,0.2-0.5l0.8-6c0-0.1,0.2-0.2,0.6-0.4c0.4-0.2,0.9-0.4,1.5-0.6c0.6-0.2,1.3-0.5,2-0.8
			c0.7-0.3,1.4-0.5,2-0.8c0.6-0.3,1.2-0.5,1.7-0.7c0.5-0.2,0.7-0.3,0.8-0.4c0.1-0.1,0.1-0.2,0.2-0.4c0.1-0.1,0.1-0.3,0.1-0.4
			c0-0.1,0-0.2,0-0.3c0-0.1-0.1-0.1-0.3-0.1c0,0,0,0-0.1,0c0,0-0.1,0-0.3,0.1c-0.2,0.1-0.4,0.1-0.8,0.3c-0.3,0.1-0.8,0.3-1.4,0.5
			c-0.6,0.2-1.4,0.5-2.4,0.9c-0.9,0.4-2.1,0.8-3.5,1.3l0.7-7.6l9-1.8c0.2-0.1,0.4-0.2,0.4-0.4c0-0.1,0-0.2,0-0.3
			c0-0.1-0.1-0.2-0.2-0.2c-0.8,0.1-1.5,0.1-2.1,0.2c-0.6,0.1-1.2,0.2-1.8,0.3c-0.6,0.1-1.3,0.3-2.1,0.4c-0.8,0.2-1.8,0.3-2.9,0.5
			l0.4-2.5c-0.1,0-0.3,0-0.4,0c-0.2,0-0.3,0-0.5,0c-0.2,0-0.3,0-0.4,0.1c-0.1,0.1-0.2,0.2-0.2,0.4c0,0.3-0.1,0.7-0.2,1.4
			c-0.1,0.7-0.2,1.5-0.3,2.5c-0.1,0.9-0.3,2-0.4,3.1c-0.1,1.1-0.3,2.3-0.4,3.4c-0.1,1.1-0.2,2.2-0.3,3.3c-0.1,1.1-0.1,2-0.1,2.8
			c0,0.8,0,1.5,0.1,2C207.1,37.9,207.2,38.2,207.4,38.2z M217.8,33.8c-0.1,0.5-0.1,1.1,0,1.8c0.1,0.7,0.3,1.4,0.6,2
			c0.3,0.7,0.7,1.2,1.3,1.7c0.6,0.5,1.3,0.8,2.1,0.9c1.1,0.1,2.1-0.2,3.1-0.7c0.9-0.5,1.8-1.2,2.6-2.1c0.8-0.9,1.4-1.9,1.9-3.1
			c0.5-1.1,1-2.3,1.2-3.6c0.3-1.2,0.4-2.4,0.5-3.6c0-1.2-0.1-2.3-0.4-3.2c-0.3-1.1-0.8-1.8-1.5-2.3c-0.7-0.5-1.5-0.7-2.3-0.6
			c-0.9,0.1-1.8,0.4-2.7,1c-1,0.6-1.9,1.5-2.7,2.5c-0.9,1.1-1.6,2.4-2.3,3.9C218.6,30.1,218.1,31.9,217.8,33.8z M219.9,31
			c0.3-0.9,0.6-1.7,1-2.6c0.4-0.8,0.8-1.6,1.2-2.3c0.4-0.7,0.8-1.3,1.2-1.8c0.4-0.5,0.8-0.8,1.1-1c0.9-0.5,1.6-0.8,2.3-0.9
			c0.6-0.1,1.2,0.1,1.6,0.4c0.4,0.3,0.8,0.8,1,1.3c0.2,0.6,0.4,1.3,0.5,2c0.1,0.8,0,1.6-0.1,2.5c-0.1,0.9-0.4,1.8-0.6,2.7
			c-0.3,1-0.8,2-1.3,3c-0.6,1-1.2,1.8-1.8,2.6c-0.6,0.7-1.3,1.3-2,1.7c-0.7,0.4-1.4,0.5-2,0.3c-0.8-0.2-1.4-0.6-1.8-1.1
			c-0.4-0.5-0.7-1.2-0.8-1.9c-0.1-0.7-0.1-1.5,0-2.4C219.4,32.7,219.6,31.9,219.9,31z M230.5,41.9c0.1,0.1,0.1,0.1,0.2,0.2
			c0.1,0,0.2,0,0.3,0c0.1,0,0.3-0.1,0.5-0.2l1.2-7.7l9.3,7.4c0.3,0.1,0.5,0,0.7-0.2c0.2-0.2,0.4-0.4,0.4-0.7l-9.9-8.2
			c0.4-0.3,0.9-0.6,1.6-0.9c0.7-0.3,1.5-0.6,2.3-1c0.8-0.3,1.7-0.7,2.5-1.1c0.9-0.4,1.6-0.8,2.4-1.1c0.7-0.4,1.3-0.8,1.7-1.2
			c0.4-0.4,0.7-0.8,0.7-1.2c0-0.4-0.2-0.8-0.7-1.3c-0.5-0.4-1.4-0.9-2.6-1.3c-0.8-0.2-1.5-0.3-2.2-0.3c-0.7,0-1.3,0.1-1.9,0.2
			c-0.6,0.1-1.1,0.2-1.5,0.4c-0.4,0.1-0.8,0.2-1.1,0.2l0.1-1.3c0-0.2-0.1-0.3-0.2-0.4c-0.1-0.1-0.2-0.2-0.4-0.2c-0.2,0-0.3,0-0.5,0
			c-0.2,0-0.3,0.1-0.3,0.2l-2.8,19.4C230.4,41.8,230.5,41.9,230.5,41.9z M233.5,29.6c0.1-0.5,0.1-0.9,0.2-1.4
			c0.1-0.5,0.2-0.9,0.2-1.4c0.1-0.4,0.2-0.8,0.2-1.1c0.4-0.4,0.8-0.6,1.4-0.8c0.6-0.2,1.2-0.3,1.9-0.4c0.7-0.1,1.3-0.1,1.9-0.1
			c0.6,0,1.2,0.1,1.6,0.2c0.8,0.3,1.3,0.6,1.6,0.9c0.2,0.3,0.3,0.6,0.1,0.9c-0.2,0.3-0.5,0.6-1,1c-0.5,0.3-1.1,0.6-1.8,1
			c-0.7,0.3-1.4,0.6-2.1,0.9c-0.7,0.3-1.4,0.5-2,0.7c-0.6,0.2-1.2,0.4-1.6,0.5c-0.4,0.1-0.7,0.3-0.8,0.3
			C233.4,30.5,233.5,30.1,233.5,29.6z M245.5,44.1c0.2,0.1,0.3,0.1,0.5,0c0.2-0.1,0.3-0.2,0.4-0.3c0.1-0.1,0.1-0.3,0.1-0.5
			c0.2-1.2,0.3-2.6,0.4-4c0.1-1.5,0.1-2.9,0.2-4.4c0.1-1.5,0.1-3,0.2-4.4c0.1-1.5,0.2-2.8,0.4-4c0.3,0.3,0.6,0.7,0.9,1.2
			c0.3,0.6,0.6,1.2,0.9,2c0.3,0.8,0.5,1.6,0.8,2.4c0.3,0.9,0.5,1.7,0.7,2.5c0.2,0.8,0.5,1.6,0.7,2.3c0.2,0.7,0.4,1.2,0.6,1.7
			c0.1,0.6,0.3,0.8,0.5,0.8c0.2,0,0.5-0.2,0.9-0.6c0.3-0.4,0.7-0.9,1.1-1.6c0.4-0.7,0.8-1.4,1.2-2.2c0.4-0.8,0.8-1.6,1.1-2.4
			c0.4-0.8,0.7-1.5,1-2.1c0.3-0.6,0.5-1.1,0.7-1.5c0.2-0.4,0.3-0.6,0.4-0.5L258,45.9c0.1,0.1,0.3,0.3,0.5,0.4
			c0.2,0.1,0.3,0.2,0.5,0.2c0.2,0,0.3,0,0.4,0c0.1-0.1,0.2-0.2,0.3-0.4c0-1.7,0-3.4,0-5.1c0.1-1.7,0.1-3.4,0.2-5.1
			c0.1-1.7,0.2-3.3,0.3-4.9c0.1-1.6,0.2-3.1,0.3-4.6c0-0.3-0.1-0.4-0.2-0.6c-0.1-0.1-0.2-0.2-0.4-0.2c-0.1,0-0.3,0-0.4,0
			c-0.1,0.1-0.2,0.1-0.3,0.2c-0.9,1.8-1.7,3.4-2.3,4.6c-0.6,1.3-1.2,2.3-1.6,3.2c-0.4,0.8-0.8,1.5-1,2c-0.2,0.5-0.4,0.8-0.6,1
			c-0.1,0.2-0.2,0.4-0.3,0.4c-0.1,0-0.1,0.1-0.2,0.1c-0.4-0.6-0.7-1.3-0.9-2.2c-0.3-0.8-0.5-1.7-0.7-2.6c-0.2-0.9-0.5-1.8-0.7-2.7
			c-0.2-0.9-0.5-1.8-0.9-2.5c-0.3-0.8-0.8-1.5-1.2-2.1c-0.5-0.6-1-1.1-1.7-1.4c-0.2,0-0.3,0-0.5,0c-0.1,0.1-0.2,0.2-0.3,0.6
			c0,1.6,0,3.2-0.1,4.8c-0.1,1.6-0.2,3.3-0.4,4.9c-0.2,1.6-0.3,3.3-0.5,4.9c-0.2,1.6-0.2,3.2-0.3,4.8
			C245.1,43.9,245.3,44,245.5,44.1z M263.1,43.2c0.3,0.9,0.7,1.7,1.1,2.4c0.5,0.7,1.1,1.2,1.9,1.5c0.8,0.1,1.5,0,2.1-0.4
			c0.6-0.4,1.2-0.9,1.7-1.5c0.5-0.6,0.9-1.3,1.3-2.1c0.4-0.7,0.7-1.4,0.9-2l-0.4,7.2c0.1,0,0.2,0.1,0.4,0.1c0.2,0,0.3,0,0.4,0
			c0.1,0,0.3,0,0.4-0.1c0.1-0.1,0.2-0.2,0.2-0.3c-0.1-2.5,0-4.9,0.2-7c0.2-2.2,0.4-4.1,0.7-5.7c0.3-1.6,0.5-3,0.8-4.1
			c0.3-1.1,0.4-1.8,0.4-2.2c0-0.1-0.1-0.2-0.2-0.3c-0.1-0.1-0.2-0.2-0.3-0.2c-0.1,0-0.3,0-0.4,0c-0.2,0-0.3,0.1-0.4,0.3
			c0,0.2-0.1,0.6-0.2,1.1c-0.1,0.6-0.2,1.3-0.4,2.2c-0.2,0.8-0.4,1.8-0.6,2.8c-0.3,1-0.5,2.1-0.9,3.1c-0.3,1-0.7,2-1,3
			c-0.4,1-0.8,1.8-1.2,2.6c-0.4,0.7-0.9,1.3-1.4,1.8c-0.5,0.4-1,0.6-1.5,0.6c-0.3-0.1-0.7-0.4-1-0.7c-0.4-0.3-0.7-0.8-1-1.5
			c-0.3-0.6-0.6-1.4-0.8-2.3c-0.2-0.9-0.3-2.1-0.3-3.4c0-1.3,0.2-2.8,0.4-4.6c0.3-1.7,0.7-3.7,1.4-5.9c0-0.1-0.1-0.2-0.2-0.3
			c-0.2-0.1-0.4-0.2-0.6-0.2c-0.2,0-0.4,0-0.6,0.1c-0.2,0.1-0.3,0.3-0.2,0.5c-0.1,0.3-0.2,0.7-0.3,1.3c-0.1,0.6-0.3,1.4-0.4,2.2
			c-0.1,0.9-0.3,1.8-0.4,2.8c-0.1,1-0.2,2.1-0.2,3.2c0,1.1,0,2.1,0.1,3.2C262.6,41.4,262.8,42.3,263.1,43.2z M275.4,48.5l12-0.7
			c0.7-0.8,0.6-1.3-0.5-1.4L276.6,47l1.8-17.1c0-0.4,0-0.6-0.1-0.8c-0.1-0.2-0.2-0.3-0.4-0.3c-0.2,0-0.3,0-0.5,0.1
			c-0.2,0.1-0.2,0.3-0.3,0.5c0,0.2-0.1,0.6-0.1,1.3c-0.1,0.7-0.2,1.7-0.3,3c-0.2,1.4-0.4,3.2-0.6,5.4c-0.3,2.2-0.6,5-1.1,8.3
			C274.8,48.1,275,48.4,275.4,48.5z M295.2,30.4c0.2-0.1,0.5-0.3,0.8-0.5c0.3-0.2,0.6-0.4,0.9-0.6c0.3-0.2,0.5-0.4,0.7-0.6
			c0.2-0.2,0.4-0.4,0.4-0.6l0-0.2c0-0.2,0-0.4-0.1-0.6c-0.1-0.2-0.3-0.3-0.5-0.3c-0.5,0.3-0.9,0.6-1.4,0.9c-0.5,0.3-0.8,0.6-1.1,0.9
			c-0.3,0.3-0.4,0.6-0.4,0.9C294.5,30,294.7,30.2,295.2,30.4z M288.4,51.1c0.2,0.1,0.5,0.1,0.8-0.2c0.2-0.7,0.4-1.3,0.6-1.8
			c0.2-0.5,0.3-1,0.5-1.4c0.2-0.5,0.3-0.8,0.3-1c0.1-0.3,0.3-0.6,0.7-0.8c0.3-0.2,0.8-0.3,1.2-0.4c0.5-0.1,1-0.2,1.5-0.2
			c0.6,0,1.1-0.1,1.6-0.1c0.5,0,1.1,0,1.5,0c0.5,0,0.9,0,1.2-0.1l1.6,7.2c0.3,0.3,0.6,0.4,0.7,0.5c0.2,0.1,0.3,0,0.4,0
			c0.1-0.1,0.2-0.1,0.2-0.2c0-0.1,0.1-0.2,0.1-0.3l-1.5-7.2c0,0,0.1-0.1,0.2-0.1c0.1,0,0.3,0,0.5-0.1c0.2,0,0.4,0,0.6-0.1
			c0.2,0,0.4,0,0.5-0.1c0.3-0.1,0.6-0.2,0.7-0.3c0.2-0.2,0.2-0.3,0.2-0.5c0-0.2,0-0.3-0.2-0.4c-0.1-0.1-0.3-0.2-0.5-0.2l-2.5,0.4
			L297,31.7c0-0.1,0-0.2-0.1-0.3c-0.1-0.1-0.2-0.2-0.4-0.2c-0.2,0-0.3-0.1-0.5,0c-0.2,0-0.3,0.1-0.4,0.3c-1.3,3.3-2.4,6.1-3.3,8.4
			c-0.9,2.3-1.7,4.1-2.3,5.6c-0.6,1.5-1.1,2.6-1.5,3.4c-0.4,0.8-0.6,1.3-0.8,1.7C288,50.7,288.2,51,288.4,51.1z M296.1,34.1l1.9,9.4
			c-0.5,0.1-1,0.1-1.6,0.2c-0.6,0-1.1,0.1-1.7,0.1c-0.6,0-1.1,0.1-1.6,0.1c-0.5,0-0.9,0.1-1.1,0.1L296.1,34.1z M303.4,53.1
			c0.1,0,0.2,0,0.3,0c0.1,0,0.3-0.1,0.5-0.2l1.2-7.7l9.3,7.4c0.3,0.1,0.5,0,0.7-0.2c0.2-0.2,0.4-0.4,0.4-0.7l-9.9-8.2
			c0.4-0.3,0.9-0.6,1.6-0.9c0.7-0.3,1.5-0.6,2.3-1c0.8-0.3,1.7-0.7,2.5-1.1c0.9-0.4,1.6-0.8,2.4-1.1c0.7-0.4,1.3-0.8,1.7-1.2
			c0.4-0.4,0.7-0.8,0.7-1.2c0-0.4-0.2-0.8-0.7-1.3c-0.5-0.4-1.4-0.9-2.6-1.3c-0.8-0.2-1.5-0.3-2.2-0.3c-0.7,0-1.3,0.1-1.9,0.2
			c-0.6,0.1-1.1,0.2-1.5,0.4c-0.4,0.1-0.8,0.2-1.1,0.2l0.1-1.3c0-0.2-0.1-0.3-0.2-0.4c-0.1-0.1-0.2-0.2-0.4-0.2c-0.2,0-0.3,0-0.5,0
			c-0.2,0-0.3,0.1-0.3,0.2l-2.8,19.4c0,0.1,0.1,0.2,0.1,0.2C303.3,53,303.4,53.1,303.4,53.1z M306.2,40.6c0.1-0.5,0.1-0.9,0.2-1.4
			c0.1-0.5,0.2-0.9,0.2-1.4c0.1-0.4,0.2-0.8,0.2-1.1c0.4-0.4,0.8-0.6,1.4-0.8c0.6-0.2,1.2-0.3,1.9-0.4c0.7-0.1,1.3-0.1,1.9-0.1
			c0.6,0,1.2,0.1,1.6,0.2c0.8,0.3,1.3,0.6,1.6,0.9c0.2,0.3,0.3,0.6,0.1,0.9c-0.2,0.3-0.5,0.6-1,1c-0.5,0.3-1.1,0.6-1.8,1
			c-0.7,0.3-1.4,0.6-2.1,0.9c-0.7,0.3-1.4,0.5-2,0.7c-0.6,0.2-1.2,0.4-1.6,0.5c-0.4,0.1-0.7,0.3-0.8,0.3
			C306.1,41.5,306.2,41.1,306.2,40.6z M328,49.1c0,0,0.1-0.1,0.2-0.1c0.1,0,0.3,0,0.5-0.1c0.2,0,0.4,0,0.6-0.1c0.2,0,0.4,0,0.5-0.1
			c0.3-0.1,0.6-0.2,0.7-0.3c0.2-0.2,0.2-0.3,0.2-0.5c0-0.2,0-0.3-0.2-0.4c-0.1-0.1-0.3-0.2-0.5-0.2l-2.5,0.4l-2.9-11.8
			c0-0.1,0-0.2-0.1-0.3c-0.1-0.1-0.2-0.2-0.4-0.2c-0.2,0-0.3-0.1-0.5,0c-0.2,0-0.3,0.1-0.4,0.3c-1.3,3.3-2.4,6.1-3.3,8.4
			c-0.9,2.3-1.7,4.1-2.3,5.6c-0.6,1.5-1.1,2.6-1.5,3.4c-0.4,0.8-0.6,1.3-0.8,1.7c0.3,0.4,0.6,0.6,0.8,0.7c0.2,0.1,0.5,0.1,0.8-0.2
			c0.2-0.7,0.4-1.3,0.6-1.8c0.2-0.5,0.3-1,0.5-1.4c0.2-0.5,0.3-0.8,0.3-1c0.1-0.3,0.3-0.6,0.7-0.8c0.3-0.2,0.8-0.3,1.2-0.4
			c0.5-0.1,1-0.2,1.5-0.2c0.6,0,1.1-0.1,1.6-0.1c0.5,0,1.1,0,1.5,0c0.5,0,0.9,0,1.2-0.1l1.6,7.2c0.3,0.3,0.6,0.4,0.7,0.5
			c0.2,0.1,0.3,0,0.4,0c0.1-0.1,0.2-0.1,0.2-0.2c0-0.1,0.1-0.2,0.1-0.3L328,49.1z M324.3,47.8c-0.6,0-1.1,0.1-1.7,0.1
			c-0.6,0-1.1,0.1-1.6,0.1c-0.5,0-0.9,0.1-1.1,0.1l4-9.9l1.9,9.4C325.4,47.7,324.9,47.8,324.3,47.8z M133.7,54.9
			c0.2-0.6,0.4-1.2,0.5-1.9c0.2-1.3,0.3-2.6,0.4-4c0.1-1.4,0.1-2.8,0.1-4.2c0-1.4,0-2.9,0-4.3c0-1.4,0-2.8-0.1-4
			c-0.1-0.3-0.2-0.4-0.4-0.4c-0.2,0-0.3,0-0.5,0.1c-0.2,0.1-0.3,0.2-0.4,0.4c-0.1,0.2-0.1,0.3-0.1,0.5c0,0.2-0.1,0.5-0.1,1.1
			c0,0.5,0,1.2,0,2c0,0.8,0,1.7,0,2.6c0,1,0,2,0,3c0,1,0,2-0.1,3c0,1-0.1,1.9-0.2,2.8c-0.1,0.8-0.2,1.6-0.4,2.2
			c-0.2,0.6-0.4,1.1-0.6,1.4c-0.5,0.4-1.1,0.6-1.6,0.6c-0.6,0-1.1-0.1-1.6-0.3c-0.5-0.2-1-0.6-1.5-1c-0.5-0.4-0.9-0.9-1.2-1.5
			c-0.3-0.5-0.6-1-0.7-1.6c-0.1-0.5-0.2-1-0.1-1.4c0-0.1,0-0.3,0-0.4c-0.1-0.1-0.1-0.2-0.3-0.2c-0.1,0-0.2,0-0.4,0.2
			c-0.1,0.1-0.2,0.3-0.4,0.6c-0.2,0.3-0.2,0.7-0.1,1.2c0.1,0.5,0.2,0.9,0.5,1.4c0.2,0.5,0.6,1,0.9,1.5c0.4,0.5,0.8,1,1.2,1.4
			c0.4,0.4,0.9,0.8,1.4,1c0.5,0.3,0.9,0.5,1.4,0.5c0.8,0.1,1.4,0.1,1.9-0.1c0.5-0.2,1-0.5,1.3-0.8C133.2,56,133.5,55.5,133.7,54.9z
			 M137.5,37.1c-0.1,0.1-0.1,0.2-0.1,0.3c0.1,1.5,0.1,3.1,0,4.6c-0.1,1.6-0.3,3.1-0.5,4.7c-0.2,1.6-0.5,3.1-0.8,4.7
			c-0.3,1.5-0.5,3-0.8,4.5c0.1,0.2,0.3,0.4,0.4,0.5c0.1,0.1,0.3,0.2,0.5,0.2c0.6,0,1.3,0,2.2-0.1c0.9-0.1,1.8-0.2,2.8-0.4
			c0.9-0.2,1.9-0.3,2.8-0.5c0.9-0.2,1.7-0.4,2.3-0.5c0.2-0.1,0.3-0.1,0.4-0.2c0.1-0.1,0.1-0.2,0-0.3c0-0.1-0.1-0.2-0.2-0.3
			c-0.1-0.1-0.2-0.2-0.3-0.2c-0.3,0-0.7,0-1.2,0.1c-0.5,0.1-1,0.2-1.6,0.3c-0.6,0.1-1.2,0.2-1.8,0.4c-0.6,0.1-1.2,0.2-1.8,0.3
			c-0.6,0.1-1.1,0.1-1.5,0.1c-0.4,0-0.8-0.1-1-0.3l1.1-6.1c0-0.2,0.3-0.4,0.7-0.6c0.4-0.2,0.9-0.3,1.5-0.4c0.6-0.1,1.2-0.2,1.9-0.3
			c0.7-0.1,1.3-0.2,1.9-0.3c0.6-0.1,1.1-0.3,1.5-0.5c0.4-0.2,0.6-0.5,0.7-0.8c-0.1-0.2-0.2-0.4-0.4-0.4c-0.1,0-0.3,0-0.4,0
			c-0.1,0-0.3,0.1-0.5,0.3l-6.8,1.3c0.1-1,0.2-2,0.3-3c0.1-1,0.2-2,0.4-3l9.1-1.1c0.2,0,0.4-0.1,0.5-0.3c0.1-0.1,0.2-0.3,0.2-0.4
			c0-0.2,0-0.3,0-0.5c-0.1-0.1-0.2-0.2-0.3-0.3l-9.3,0.9c0-0.1,0-0.3,0-0.5c0-0.2,0-0.5,0-0.8c0-0.3-0.1-0.5-0.2-0.8
			c-0.1-0.2-0.2-0.4-0.4-0.5c-0.1-0.1-0.2-0.1-0.4,0c-0.1,0-0.2,0.1-0.3,0.2C137.7,36.9,137.6,37,137.5,37.1z M163.9,41.7
			c-0.1-0.2-0.2-0.5-0.4-0.7s-0.4-0.4-0.6-0.6c-0.2-0.1-0.4-0.1-0.6,0.1l-1.9,19.2c-0.1,0-0.1,0.1,0,0.3c0.1,0.1,0.3,0.2,0.5,0.3
			c0.2,0.1,0.4,0.1,0.6,0c0.2-0.1,0.3-0.2,0.4-0.6c0.2-1,0.3-2.2,0.4-3.5c0.1-1.3,0.2-2.7,0.4-4.1c0.1-1.4,0.3-2.7,0.5-4.1
			c0.2-1.3,0.4-2.5,0.6-3.5c0.2,0.3,0.5,0.8,0.9,1.6c0.3,0.8,0.7,1.7,1.1,2.7c0.4,1,0.8,2.1,1.2,3.3c0.4,1.1,0.8,2.2,1.2,3.3
			c0.4,1,0.7,2,1,2.8c0.3,0.8,0.6,1.4,0.8,1.8c-0.1,0.3-0.2,0.5-0.2,0.6c0,0.2,0,0.3,0.1,0.4c0.1,0.1,0.2,0.2,0.3,0.3
			c0.1,0.1,0.3,0.1,0.4,0.1c0.3,0,0.6,0,0.9-0.1c0.3-0.1,0.4-0.4,0.5-0.7c0.1-0.4,0.1-0.8,0-1.1c-0.1-0.3-0.1-0.7,0-1.2
			c0-0.3,0.1-0.8,0.2-1.5c0.1-0.7,0.2-1.5,0.3-2.3c0.1-0.9,0.3-1.8,0.4-2.7c0.1-0.9,0.3-1.9,0.4-2.7c0.1-0.9,0.2-1.6,0.3-2.3
			c0.1-0.7,0.2-1.2,0.2-1.5c0-0.1,0-0.4,0.1-0.7c0-0.4,0-0.8,0-1.2c0-0.4-0.1-0.8-0.2-1.1c-0.1-0.3-0.3-0.5-0.6-0.6
			c-0.3,0-0.5,0-0.6,0.3c-0.1,0.2-0.2,0.4-0.2,0.7c0.1,0.1,0.1,0.4,0.2,0.8c0,0.4,0,1,0,1.6c0,0.6-0.1,1.4-0.2,2.2
			c-0.1,0.8-0.2,1.6-0.3,2.5s-0.2,1.7-0.3,2.5c-0.1,0.8-0.2,1.6-0.4,2.3c-0.1,0.7-0.2,1.3-0.4,1.8c-0.1,0.5-0.2,0.9-0.3,1.1
			L163.9,42C164,42,164,41.9,163.9,41.7z M174.9,52.4c-0.2,1.6-0.5,3.1-0.8,4.7c-0.3,1.5-0.5,3-0.8,4.5c0.1,0.2,0.3,0.4,0.4,0.5
			c0.1,0.1,0.3,0.2,0.5,0.2c0.6,0,1.3,0,2.2-0.1c0.9-0.1,1.8-0.2,2.8-0.4s1.9-0.3,2.8-0.5c0.9-0.2,1.7-0.4,2.3-0.5
			c0.2-0.1,0.3-0.1,0.4-0.2c0.1-0.1,0.1-0.2,0-0.3c0-0.1-0.1-0.2-0.2-0.3c-0.1-0.1-0.2-0.2-0.3-0.2c-0.3,0-0.7,0-1.2,0.1
			c-0.5,0.1-1,0.2-1.6,0.3c-0.6,0.1-1.2,0.2-1.8,0.4c-0.6,0.1-1.2,0.2-1.8,0.3c-0.6,0.1-1.1,0.1-1.5,0.1c-0.4,0-0.8-0.1-1-0.3
			l1.1-6.1c0-0.2,0.3-0.4,0.7-0.6c0.4-0.2,0.9-0.3,1.5-0.4c0.6-0.1,1.2-0.2,1.9-0.3c0.7-0.1,1.3-0.2,1.9-0.3
			c0.6-0.1,1.1-0.3,1.5-0.5s0.6-0.5,0.7-0.8c-0.1-0.2-0.2-0.4-0.4-0.4c-0.1,0-0.3,0-0.4,0c-0.1,0-0.3,0.1-0.5,0.3l-6.8,1.3
			c0.1-1,0.2-2,0.3-3c0.1-1,0.2-2,0.4-3l9.1-1.1c0.2,0,0.4-0.1,0.5-0.3c0.1-0.1,0.2-0.3,0.2-0.4c0-0.2,0-0.3,0-0.5
			c-0.1-0.1-0.2-0.2-0.3-0.3l-9.3,0.9c0-0.1,0-0.3,0-0.5c0-0.2,0-0.5,0-0.8c0-0.3-0.1-0.5-0.2-0.8c-0.1-0.2-0.2-0.4-0.4-0.5
			c-0.1-0.1-0.2-0.1-0.4,0c-0.1,0-0.2,0.1-0.3,0.2c-0.1,0.1-0.2,0.2-0.3,0.3c-0.1,0.1-0.1,0.2-0.1,0.3c0.1,1.5,0.1,3.1,0,4.6
			C175.3,49.3,175.1,50.9,174.9,52.4z M191.7,45c-0.7-0.1-1.3-0.2-1.8-0.2c-0.5-0.1-1-0.1-1.3-0.1c-0.3,0-0.5,0-0.5,0
			c-0.1,0-0.2,0.1-0.3,0.2c-0.1,0.1-0.1,0.2-0.1,0.3c0,0.1,0,0.2,0.1,0.3c0.1,0.1,0.2,0.2,0.3,0.3l9.6,1.3l-12.4,15.1
			c0,0.1,0,0.3-0.1,0.5c0,0.2,0,0.3,0,0.5c0,0.2,0.1,0.3,0.1,0.4c0.1,0.1,0.2,0.2,0.4,0.2l10.7,1.6c0.2,0,0.3,0,0.5-0.1
			c0.1-0.1,0.2-0.2,0.2-0.4c0-0.1,0-0.3,0-0.4c0-0.1-0.1-0.3-0.3-0.3l-10-1.5l12.6-15.6l0.1-1.1c0,0-0.2,0-0.6-0.1
			c-0.3,0-0.8-0.1-1.3-0.2c-0.5-0.1-1.2-0.2-1.8-0.3c-0.7-0.1-1.4-0.2-2.1-0.3C193.1,45.1,192.4,45.1,191.7,45z M212.6,59.2
			c0-0.2,0-0.3-0.2-0.4c-0.1-0.1-0.3-0.2-0.5-0.2l-2.5,0.4l-2.9-11.8c0-0.1,0-0.2-0.1-0.3c-0.1-0.1-0.2-0.2-0.4-0.2
			c-0.2,0-0.3-0.1-0.5,0c-0.2,0-0.3,0.1-0.4,0.3c-1.3,3.3-2.4,6.1-3.3,8.4c-0.9,2.3-1.7,4.1-2.3,5.6c-0.6,1.5-1.1,2.6-1.5,3.4
			c-0.4,0.8-0.6,1.3-0.8,1.7c0.3,0.4,0.6,0.6,0.8,0.7c0.2,0.1,0.5,0.1,0.8-0.2c0.2-0.7,0.4-1.3,0.6-1.8c0.2-0.5,0.3-1,0.5-1.4
			c0.2-0.5,0.3-0.8,0.3-1c0.1-0.3,0.3-0.6,0.7-0.8c0.3-0.2,0.8-0.3,1.2-0.4c0.5-0.1,1-0.2,1.5-0.2c0.6,0,1.1-0.1,1.6-0.1
			c0.5,0,1.1,0,1.5,0c0.5,0,0.9,0,1.2-0.1l1.6,7.2c0.3,0.3,0.6,0.4,0.7,0.5s0.3,0,0.4,0c0.1-0.1,0.2-0.1,0.2-0.2
			c0-0.1,0.1-0.2,0.1-0.3l-1.5-7.2c0,0,0.1-0.1,0.2-0.1c0.1,0,0.3,0,0.5-0.1c0.2,0,0.4,0,0.6-0.1c0.2,0,0.4,0,0.5-0.1
			c0.3-0.1,0.6-0.2,0.7-0.3C212.6,59.5,212.6,59.3,212.6,59.2z M206.1,59c-0.6,0-1.1,0.1-1.7,0.1c-0.6,0-1.1,0.1-1.6,0.1
			c-0.5,0-0.9,0.1-1.1,0.1l4-9.9l1.9,9.4C207.2,58.9,206.7,59,206.1,59z M204.8,45.8c0.2-0.1,0.5-0.3,0.8-0.5
			c0.3-0.2,0.6-0.4,0.9-0.6c0.3-0.2,0.5-0.4,0.7-0.6c0.2-0.2,0.4-0.4,0.4-0.6l0-0.2c0-0.2,0-0.4-0.1-0.6c-0.1-0.2-0.3-0.3-0.5-0.3
			c-0.5,0.3-0.9,0.6-1.4,0.9c-0.5,0.3-0.8,0.6-1.1,0.9c-0.3,0.3-0.4,0.6-0.4,0.9C204.1,45.4,204.4,45.6,204.8,45.8z M228.3,50.5
			c-0.1-0.1-0.2-0.2-0.4-0.3c-0.1-0.1-0.3-0.1-0.5-0.1c-0.2,0-0.3,0.1-0.3,0.2L219.5,67l-3.1-17.8c-0.1-0.2-0.2-0.4-0.3-0.6
			c-0.2-0.1-0.3-0.2-0.5-0.2c-0.2,0-0.3,0-0.4,0.1c-0.1,0.1-0.2,0.3-0.2,0.5l3.4,19.7c0.2,0.2,0.4,0.3,0.6,0.4
			c0.3,0.1,0.6,0,1.1-0.1l8.2-18C228.4,50.7,228.4,50.6,228.3,50.5z M232.5,50.2c0.1,0.1,0.2,0.1,0.4,0c0.1,0.1,0.2,0.1,0.3,0
			c0.1,0,0.2-0.1,0.4-0.2c0.1-0.1,0.2-0.2,0.3-0.3c0.1-0.1,0.1-0.2,0.1-0.3c0.1-0.4,0-0.7-0.2-0.8c-0.2-0.2-0.5-0.3-0.7-0.3
			c-0.3,0-0.5,0.1-0.8,0.2c-0.2,0.1-0.3,0.3-0.3,0.6c-0.1,0.2-0.1,0.3,0,0.5c0,0.2,0.1,0.3,0.2,0.4
			C232.2,50.1,232.3,50.2,232.5,50.2z M235.8,50.7c0.1,0.1,0.3,0.1,0.4,0c0.1,0.1,0.2,0.1,0.3,0c0.1,0,0.2-0.1,0.4-0.2
			c0.1-0.1,0.2-0.2,0.3-0.3c0.1-0.1,0.1-0.2,0.1-0.3c0.1-0.4,0-0.6-0.2-0.8c-0.2-0.2-0.4-0.3-0.7-0.4c-0.3,0-0.5,0-0.8,0.1
			c-0.3,0.1-0.4,0.4-0.5,0.7c-0.1,0.2-0.1,0.3,0,0.5c0.1,0.2,0.1,0.3,0.3,0.4C235.6,50.6,235.7,50.7,235.8,50.7z M226.5,70.8
			c0.2,0.1,0.5,0.1,0.8-0.2c0.2-0.7,0.4-1.3,0.6-1.8c0.2-0.5,0.3-1,0.5-1.4c0.2-0.5,0.3-0.8,0.3-1c0.1-0.3,0.3-0.6,0.7-0.8
			c0.3-0.2,0.8-0.3,1.2-0.4c0.5-0.1,1-0.2,1.5-0.2c0.6,0,1.1-0.1,1.6-0.1c0.5,0,1.1,0,1.5,0c0.5,0,0.9,0,1.2-0.1l1.6,7.2
			c0.3,0.3,0.6,0.4,0.7,0.5c0.2,0.1,0.3,0,0.4,0c0.1-0.1,0.2-0.1,0.2-0.2c0-0.1,0.1-0.2,0.1-0.3l-1.5-7.2c0,0,0.1-0.1,0.2-0.1
			c0.1,0,0.3,0,0.5-0.1c0.2,0,0.4,0,0.6-0.1c0.2,0,0.4,0,0.5-0.1c0.3-0.1,0.6-0.2,0.7-0.3c0.2-0.2,0.2-0.3,0.2-0.5
			c0-0.2,0-0.3-0.2-0.4c-0.1-0.1-0.3-0.2-0.5-0.2l-2.5,0.4l-2.9-11.8c0-0.1,0-0.2-0.1-0.3c-0.1-0.1-0.2-0.2-0.4-0.2
			c-0.2,0-0.3-0.1-0.5,0c-0.2,0-0.3,0.1-0.4,0.3c-1.3,3.3-2.4,6.1-3.3,8.4c-0.9,2.3-1.7,4.1-2.3,5.6c-0.6,1.5-1.1,2.6-1.5,3.4
			c-0.4,0.8-0.6,1.3-0.8,1.7C226,70.4,226.3,70.7,226.5,70.8z M234.2,53.8l1.9,9.4c-0.5,0.1-1,0.1-1.6,0.2c-0.6,0-1.1,0.1-1.7,0.1
			c-0.6,0-1.1,0.1-1.6,0.1c-0.5,0-0.9,0.1-1.1,0.1L234.2,53.8z M252.5,73.8c0.1-0.1,0.2-0.2,0.2-0.4c0-0.1,0-0.3,0-0.4
			s-0.1-0.3-0.3-0.3l-10-1.5L255,55.5l0.1-1.1c0,0-0.2,0-0.6-0.1c-0.3,0-0.8-0.1-1.3-0.2c-0.5-0.1-1.2-0.2-1.8-0.3
			c-0.7-0.1-1.4-0.2-2.1-0.3c-0.7-0.1-1.4-0.2-2.1-0.3c-0.7-0.1-1.3-0.2-1.8-0.2c-0.5-0.1-1-0.1-1.3-0.1c-0.3,0-0.5,0-0.5,0
			c-0.1,0-0.2,0.1-0.3,0.2c-0.1,0.1-0.1,0.2-0.1,0.3c0,0.1,0,0.2,0.1,0.3c0.1,0.1,0.2,0.2,0.3,0.3l9.6,1.3l-12.4,15.1
			c0,0.1,0,0.3-0.1,0.5c0,0.2,0,0.3,0,0.5c0,0.2,0.1,0.3,0.1,0.4c0.1,0.1,0.2,0.2,0.4,0.2l10.7,1.6
			C252.2,73.9,252.4,73.9,252.5,73.8z M264,75.8c0.1,0.1,0.3,0.1,0.4,0.1c0.3,0,0.6,0,0.9-0.1c0.3-0.1,0.4-0.4,0.5-0.7
			c0.1-0.4,0.1-0.8,0-1.1c-0.1-0.3-0.1-0.7,0-1.2c0-0.3,0.1-0.8,0.2-1.5c0.1-0.7,0.2-1.5,0.3-2.3c0.1-0.9,0.3-1.8,0.4-2.7
			c0.1-0.9,0.3-1.9,0.4-2.7c0.1-0.9,0.2-1.6,0.3-2.3c0.1-0.7,0.2-1.2,0.2-1.5c0-0.1,0-0.3,0.1-0.7c0-0.4,0-0.8,0-1.2
			c0-0.4-0.1-0.8-0.2-1.1c-0.1-0.3-0.3-0.5-0.6-0.6c-0.3,0-0.5,0-0.6,0.3c-0.1,0.2-0.2,0.4-0.2,0.7c0.1,0.1,0.1,0.4,0.2,0.8
			c0,0.4,0,1,0,1.6c0,0.6-0.1,1.4-0.2,2.2c-0.1,0.8-0.2,1.6-0.3,2.5c-0.1,0.8-0.2,1.7-0.3,2.5c-0.1,0.8-0.2,1.6-0.4,2.3
			c-0.1,0.7-0.2,1.3-0.4,1.8c-0.1,0.5-0.2,0.9-0.3,1.1l-6.3-15.8c0.1,0,0-0.1,0-0.3c-0.1-0.2-0.2-0.5-0.4-0.7
			c-0.2-0.2-0.4-0.4-0.6-0.6c-0.2-0.1-0.4-0.1-0.6,0.1L254.4,74c-0.1,0-0.1,0.1,0,0.3c0.1,0.1,0.3,0.2,0.5,0.3
			c0.2,0.1,0.4,0.1,0.6,0c0.2-0.1,0.3-0.2,0.4-0.6c0.2-1,0.3-2.2,0.4-3.5c0.1-1.3,0.2-2.7,0.4-4.1c0.1-1.4,0.3-2.7,0.5-4.1
			c0.2-1.3,0.4-2.5,0.6-3.5c0.2,0.3,0.5,0.8,0.9,1.6c0.3,0.8,0.7,1.7,1.1,2.7c0.4,1,0.8,2.1,1.2,3.3c0.4,1.1,0.8,2.2,1.2,3.3
			c0.4,1,0.7,2,1,2.8c0.3,0.8,0.6,1.4,0.8,1.8c-0.1,0.3-0.2,0.5-0.2,0.6c0,0.2,0,0.3,0.1,0.4C263.8,75.7,263.9,75.8,264,75.8z
			 M275.4,57.2c0.3-0.2,0.6-0.4,0.9-0.6c0.3-0.2,0.5-0.4,0.7-0.6c0.2-0.2,0.4-0.4,0.4-0.6l0-0.2c0-0.2,0-0.4-0.1-0.6
			c-0.1-0.2-0.3-0.3-0.5-0.3c-0.5,0.3-0.9,0.6-1.4,0.9c-0.5,0.3-0.8,0.6-1.1,0.9c-0.3,0.3-0.4,0.6-0.4,0.9c0,0.3,0.2,0.5,0.7,0.6
			C274.9,57.5,275.1,57.4,275.4,57.2z M269,66.7c-0.2,1.6-0.5,3.1-0.8,4.7c-0.3,1.5-0.5,3-0.8,4.5c0.1,0.2,0.3,0.4,0.4,0.5
			c0.1,0.1,0.3,0.2,0.5,0.2c0.6,0,1.3,0,2.2-0.1c0.9-0.1,1.8-0.2,2.8-0.4c0.9-0.2,1.9-0.3,2.8-0.5c0.9-0.2,1.7-0.4,2.3-0.5
			c0.2-0.1,0.3-0.1,0.4-0.2c0.1-0.1,0.1-0.2,0-0.3c0-0.1-0.1-0.2-0.2-0.3c-0.1-0.1-0.2-0.2-0.3-0.2c-0.3,0-0.7,0-1.2,0.1
			c-0.5,0.1-1,0.2-1.6,0.3c-0.6,0.1-1.2,0.2-1.8,0.4c-0.6,0.1-1.2,0.2-1.8,0.3c-0.6,0.1-1.1,0.1-1.5,0.1c-0.4,0-0.8-0.1-1-0.3
			l1.1-6.1c0-0.2,0.3-0.4,0.7-0.6c0.4-0.2,0.9-0.3,1.5-0.4c0.6-0.1,1.2-0.2,1.9-0.3c0.7-0.1,1.3-0.2,1.9-0.3
			c0.6-0.1,1.1-0.3,1.5-0.5s0.6-0.5,0.7-0.8c-0.1-0.2-0.2-0.4-0.4-0.4c-0.1,0-0.3,0-0.4,0c-0.1,0-0.3,0.1-0.5,0.3l-6.8,1.3
			c0.1-1,0.2-2,0.3-3c0.1-1,0.2-2,0.4-3l9.1-1.1c0.2,0,0.4-0.1,0.5-0.3c0.1-0.1,0.2-0.3,0.2-0.4c0-0.2,0-0.3,0-0.5
			c-0.1-0.1-0.2-0.2-0.3-0.3l-9.3,0.9c0-0.1,0-0.3,0-0.5c0-0.2,0-0.5,0-0.8c0-0.3-0.1-0.5-0.2-0.8c-0.1-0.2-0.2-0.4-0.4-0.5
			c-0.1-0.1-0.2-0.1-0.4,0c-0.1,0-0.2,0.1-0.3,0.2c-0.1,0.1-0.2,0.2-0.3,0.3c-0.1,0.1-0.1,0.2-0.1,0.3c0.1,1.5,0.1,3.1,0,4.6
			C269.4,63.6,269.3,65.1,269,66.7z M281.3,78.2c0.2-0.1,0.3-0.3,0.4-0.6c0-0.2,0-0.5-0.2-0.6c-0.1-0.2-0.3-0.3-0.5-0.4
			c-0.2-0.1-0.4,0-0.6,0.1c-0.2,0.1-0.3,0.3-0.3,0.6c-0.1,0.3,0,0.5,0.1,0.7c0.1,0.2,0.3,0.3,0.5,0.3
			C280.9,78.4,281.1,78.3,281.3,78.2z M283.7,58.8c-0.1,0-0.3-0.1-0.4,0c-0.1,0-0.3,0.1-0.5,0.3l-2.2,14c0,0.1,0.1,0.3,0.2,0.4
			c0.1,0.1,0.2,0.2,0.4,0.2c0.1,0,0.3,0,0.5,0c0.2,0,0.3-0.2,0.4-0.3c0-0.9,0.2-2,0.3-3.3c0.2-1.2,0.4-2.5,0.6-3.8
			c0.2-1.3,0.4-2.6,0.6-3.8c0.2-1.2,0.4-2.3,0.5-3.3c0,0-0.1-0.1-0.1-0.2C283.9,59,283.8,58.9,283.7,58.8z M79.5,88.3
			c0.6,0.1,1.2,0.2,1.8,0.2c0.6,0,1.2,0,1.8,0.1c0.6,0,1.2,0,1.8,0.1c0.6,0,1.2,0.1,1.8,0.3c0,0.8-0.1,1.6-0.2,2.6
			c-0.1,1-0.3,2-0.4,3.1c-0.2,1.1-0.3,2.2-0.5,3.3c-0.2,1.1-0.3,2.2-0.5,3.3c-0.1,1.1-0.2,2-0.3,3c-0.1,0.9-0.1,1.7-0.1,2.3
			c0.5,0.2,0.8,0.2,1,0.2c0.2,0,0.3-0.3,0.3-0.8c0.2-0.8,0.3-1.7,0.5-2.6c0.1-0.9,0.2-1.9,0.3-2.9c0.1-1,0.2-2,0.3-3
			c0.1-1,0.2-2,0.3-3c0.1-1,0.3-1.9,0.4-2.9c0.2-0.9,0.4-1.8,0.6-2.6c0.3,0,0.8,0,1.4,0.1c0.6,0.1,1.2,0.1,1.9,0.2
			c0.7,0.1,1.4,0.2,2,0.2c0.7,0.1,1.3,0.1,1.8,0.1c0.5,0,1,0,1.3-0.1c0.3-0.1,0.4-0.3,0.4-0.6c-0.1,0-0.2-0.1-0.4-0.1
			c-0.2,0-0.3-0.1-0.4-0.1c-2.6-0.3-5.2-0.6-7.7-1c-0.1,0-0.2-0.1-0.2-0.2c0-0.1-0.1-0.2-0.2-0.4c-0.1-0.1-0.1-0.3-0.2-0.4
			c-0.1-0.1-0.2-0.2-0.4-0.3c-0.1,0-0.3,0-0.4,0.1c-0.1,0.1-0.2,0.2-0.3,0.3C87,87,87,87.1,86.9,87.3c-0.1,0.1-0.1,0.2-0.1,0.3
			l-7-0.6c-0.2,0-0.3,0-0.5,0.2c-0.2,0.1-0.3,0.3-0.3,0.5c-0.1,0.3,0,0.4,0.1,0.5C79.2,88.2,79.3,88.3,79.5,88.3z M111.5,90.7
			c-0.1-0.1-0.3-0.1-0.5-0.1c-0.2,0-0.3,0.1-0.3,0.2l-7.6,16.7l-3.1-17.8c-0.1-0.2-0.2-0.4-0.3-0.6c-0.2-0.1-0.3-0.2-0.5-0.2
			c-0.2,0-0.3,0-0.4,0.1c-0.1,0.1-0.2,0.3-0.2,0.5l3.4,19.7c0.2,0.2,0.4,0.3,0.6,0.4c0.3,0.1,0.6,0,1.1-0.1l8.2-18
			c0-0.1,0-0.3-0.1-0.4C111.8,90.9,111.6,90.8,111.5,90.7z M109.6,104.7c-0.1,0.5-0.1,1.1,0,1.8c0.1,0.7,0.3,1.4,0.6,2
			c0.3,0.7,0.7,1.2,1.3,1.7c0.6,0.5,1.3,0.8,2.1,0.9c1.1,0.1,2.1-0.2,3.1-0.7c0.9-0.5,1.8-1.2,2.6-2.1c0.8-0.9,1.4-1.9,1.9-3.1
			c0.5-1.1,1-2.3,1.2-3.6c0.3-1.2,0.4-2.4,0.5-3.6c0-1.2-0.1-2.3-0.4-3.2c-0.3-1.1-0.8-1.8-1.5-2.3c-0.7-0.5-1.5-0.7-2.3-0.6
			c-0.9,0.1-1.8,0.4-2.7,1c-1,0.6-1.9,1.4-2.7,2.5c-0.9,1.1-1.6,2.4-2.3,3.9C110.4,101,109.9,102.7,109.6,104.7z M111.7,101.9
			c0.3-0.9,0.6-1.7,1-2.6c0.4-0.8,0.8-1.6,1.2-2.3c0.4-0.7,0.8-1.3,1.2-1.8c0.4-0.5,0.8-0.8,1.1-1c0.9-0.5,1.6-0.8,2.3-0.9
			c0.6-0.1,1.2,0.1,1.6,0.4c0.4,0.3,0.8,0.8,1,1.3c0.2,0.6,0.4,1.3,0.4,2c0.1,0.8,0,1.6-0.1,2.5c-0.1,0.9-0.4,1.8-0.6,2.7
			c-0.3,1-0.8,2-1.3,3c-0.6,1-1.2,1.8-1.8,2.6c-0.6,0.7-1.3,1.3-2,1.7c-0.7,0.4-1.4,0.5-2,0.3c-0.8-0.2-1.4-0.6-1.8-1.1
			c-0.4-0.5-0.7-1.2-0.8-1.9c-0.1-0.7-0.1-1.5,0-2.4C111.3,103.6,111.5,102.7,111.7,101.9z M127.2,115.1c0.8,0.1,1.4,0.1,1.9-0.1
			c0.5-0.2,1-0.5,1.3-0.8c0.4-0.4,0.6-0.9,0.8-1.4c0.2-0.6,0.4-1.2,0.5-1.9c0.2-1.3,0.3-2.6,0.4-4c0.1-1.4,0.1-2.8,0.1-4.2
			c0-1.4,0-2.9,0-4.3c0-1.4,0-2.8-0.1-4c-0.1-0.3-0.2-0.4-0.4-0.4c-0.2,0-0.3,0-0.5,0.1c-0.2,0.1-0.3,0.2-0.4,0.4
			c-0.1,0.2-0.1,0.3-0.1,0.5c0,0.2-0.1,0.5-0.1,1.1c0,0.5,0,1.2,0,2c0,0.8,0,1.7,0,2.6c0,1,0,2,0,3c0,1,0,2-0.1,3
			c0,1-0.1,1.9-0.2,2.8c-0.1,0.8-0.2,1.6-0.4,2.2c-0.2,0.6-0.4,1.1-0.6,1.4c-0.5,0.4-1.1,0.6-1.6,0.6c-0.6,0-1.1-0.1-1.6-0.3
			c-0.5-0.2-1-0.6-1.5-1c-0.5-0.4-0.9-0.9-1.2-1.5c-0.3-0.5-0.6-1-0.7-1.6c-0.1-0.5-0.2-1-0.1-1.4c0-0.1,0-0.3,0-0.4
			c-0.1-0.1-0.1-0.2-0.3-0.2c-0.1,0-0.2,0-0.4,0.2c-0.1,0.1-0.2,0.3-0.4,0.6c-0.2,0.3-0.2,0.7-0.1,1.2c0.1,0.5,0.2,0.9,0.5,1.4
			c0.2,0.5,0.6,1,0.9,1.5c0.4,0.5,0.8,1,1.2,1.4c0.4,0.4,0.9,0.8,1.4,1C126.4,114.8,126.8,115,127.2,115.1z M136.5,98.7l9.1-1.1
			c0.2,0,0.4-0.1,0.5-0.3c0.1-0.1,0.2-0.3,0.2-0.4c0-0.2,0-0.3,0-0.5c-0.1-0.1-0.2-0.2-0.3-0.3l-9.3,0.9c0-0.1,0-0.3,0-0.5
			c0-0.2,0-0.5,0-0.8c0-0.3-0.1-0.5-0.2-0.8c-0.1-0.2-0.2-0.4-0.4-0.5c-0.1-0.1-0.2-0.1-0.4,0c-0.1,0-0.2,0.1-0.3,0.2
			c-0.1,0.1-0.2,0.2-0.3,0.3c-0.1,0.1-0.1,0.2-0.1,0.3c0.1,1.5,0.1,3.1,0,4.6c-0.1,1.6-0.3,3.1-0.5,4.7c-0.2,1.6-0.5,3.1-0.8,4.7
			c-0.3,1.5-0.5,3-0.8,4.5c0.1,0.2,0.3,0.4,0.4,0.5c0.1,0.1,0.3,0.2,0.5,0.2c0.6,0,1.3,0,2.2-0.1c0.9-0.1,1.8-0.2,2.8-0.4
			c0.9-0.2,1.9-0.3,2.8-0.5c0.9-0.2,1.7-0.4,2.3-0.5c0.2-0.1,0.3-0.1,0.4-0.2c0.1-0.1,0.1-0.2,0-0.3c0-0.1-0.1-0.2-0.2-0.3
			c-0.1-0.1-0.2-0.2-0.3-0.2c-0.3,0-0.7,0-1.2,0.1c-0.5,0.1-1,0.2-1.6,0.3c-0.6,0.1-1.2,0.2-1.8,0.4c-0.6,0.1-1.2,0.2-1.8,0.3
			c-0.6,0.1-1.1,0.1-1.5,0.1c-0.4,0-0.8-0.1-1-0.3l1.1-6.1c0-0.2,0.3-0.4,0.7-0.6c0.4-0.2,0.9-0.3,1.5-0.4c0.6-0.1,1.2-0.2,1.9-0.3
			c0.7-0.1,1.3-0.2,1.9-0.3c0.6-0.1,1.1-0.3,1.5-0.5c0.4-0.2,0.6-0.5,0.7-0.8c-0.1-0.2-0.2-0.4-0.4-0.4c-0.1,0-0.3,0-0.4,0
			c-0.1,0-0.3,0.1-0.5,0.3l-6.8,1.3c0.1-1,0.2-2,0.3-3C136.2,100.7,136.4,99.7,136.5,98.7z M164.8,117.6c0.9-0.5,1.8-1.2,2.6-2.1
			c0.8-0.9,1.4-1.9,1.9-3.1c0.5-1.1,1-2.3,1.2-3.6c0.3-1.2,0.4-2.4,0.5-3.6c0-1.2-0.1-2.3-0.4-3.2c-0.3-1.1-0.8-1.8-1.5-2.3
			c-0.7-0.5-1.5-0.7-2.3-0.6c-0.9,0.1-1.8,0.4-2.7,1c-1,0.6-1.9,1.4-2.7,2.5c-0.9,1.1-1.6,2.4-2.3,3.9c-0.7,1.5-1.1,3.3-1.4,5.2
			c-0.1,0.5-0.1,1.1,0,1.8c0.1,0.7,0.3,1.4,0.6,2c0.3,0.7,0.7,1.2,1.3,1.7c0.6,0.5,1.3,0.8,2.1,0.9
			C162.9,118.4,163.9,118.2,164.8,117.6z M160,116c-0.4-0.5-0.7-1.2-0.8-1.9c-0.1-0.7-0.1-1.5,0-2.4c0.1-0.8,0.3-1.7,0.6-2.6
			c0.3-0.9,0.6-1.7,1-2.6s0.8-1.6,1.2-2.3c0.4-0.7,0.8-1.3,1.2-1.8c0.4-0.5,0.8-0.8,1.1-1c0.9-0.5,1.6-0.8,2.3-0.9
			c0.6-0.1,1.2,0.1,1.6,0.4c0.4,0.3,0.8,0.8,1,1.3c0.2,0.6,0.4,1.3,0.4,2c0.1,0.8,0,1.6-0.1,2.5c-0.1,0.9-0.4,1.8-0.6,2.7
			c-0.3,1-0.8,2-1.3,3c-0.6,1-1.2,1.8-1.8,2.6c-0.6,0.7-1.3,1.3-2,1.7c-0.7,0.4-1.4,0.5-2,0.3C161,116.9,160.4,116.5,160,116z
			 M177.4,120.1c0.8-0.1,1.7-0.3,2.5-0.6c0.8-0.2,1.6-0.5,2.3-0.9c0.7-0.3,1.2-0.7,1.7-1.1c0.4-0.4,0.7-0.8,0.8-1.3
			c0.1-0.5,0-0.9-0.3-1.2c-0.3-0.3-0.7-0.6-1.2-0.9c-0.5-0.2-1.1-0.5-1.9-0.7c-0.7-0.2-1.4-0.4-2.2-0.6c-0.7-0.2-1.4-0.4-2.1-0.6
			c-0.7-0.2-1.3-0.5-1.8-0.7c-0.5-0.3-0.9-0.6-1.2-1c-0.3-0.4-0.4-0.8-0.3-1.4c0.1-0.4,0.2-0.9,0.5-1.3c0.3-0.5,0.7-1,1.1-1.4
			c0.4-0.5,0.9-0.9,1.5-1.3c0.5-0.4,1.1-0.8,1.6-1.1c0.6-0.3,1.1-0.5,1.6-0.7c0.5-0.1,1-0.2,1.4-0.1l0.9,0.5c0.5,0.1,0.9,0,1.2-0.1
			c0.4-0.2,0.6-0.5,0.6-1c0-0.2,0-0.4-0.1-0.5c-0.1-0.1-0.2-0.2-0.3-0.2c-0.1-0.1-0.3-0.1-0.4-0.1c-0.2,0-0.3,0-0.5-0.1
			c-0.6-0.1-1.2-0.1-2,0.1c-0.7,0.1-1.5,0.4-2.2,0.7c-0.8,0.3-1.5,0.7-2.2,1.2c-0.7,0.5-1.4,1-2,1.6c-0.6,0.6-1.1,1.2-1.5,1.8
			c-0.4,0.6-0.7,1.3-0.8,2c-0.1,0.7,0,1.3,0.3,1.8c0.3,0.5,0.7,1,1.2,1.3c0.5,0.4,1.1,0.7,1.8,1c0.7,0.3,1.4,0.5,2.1,0.7
			c0.7,0.2,1.5,0.4,2.2,0.6c0.7,0.2,1.3,0.3,1.9,0.5c0.5,0.2,1,0.4,1.3,0.6c0.3,0.2,0.5,0.4,0.4,0.7c-0.3,0.4-0.8,0.8-1.5,1.1
			c-0.6,0.3-1.3,0.6-2.1,0.8c-0.8,0.2-1.6,0.4-2.4,0.5c-0.8,0.1-1.5,0.3-2.2,0.4c-0.7,0.1-1.2,0.2-1.7,0.3c-0.4,0.1-0.7,0.2-0.7,0.2
			c-0.1,0.2-0.1,0.4,0,0.5c0.1,0.1,0.2,0.2,0.4,0.2c0.5,0.1,1.2,0.1,2,0.1C175.8,120.3,176.6,120.2,177.4,120.1z M199,109.5
			c0-1.2-0.1-2.3-0.4-3.2c-0.3-1.1-0.8-1.8-1.5-2.3c-0.7-0.5-1.5-0.7-2.3-0.6c-0.9,0.1-1.8,0.4-2.7,1c-1,0.6-1.9,1.5-2.7,2.5
			c-0.9,1.1-1.6,2.4-2.3,3.9c-0.7,1.5-1.1,3.3-1.4,5.2c-0.1,0.5-0.1,1.1,0,1.8c0.1,0.7,0.3,1.4,0.6,2c0.3,0.7,0.7,1.2,1.3,1.7
			c0.6,0.5,1.3,0.8,2.1,0.9c1.1,0.1,2.1-0.2,3.1-0.7c0.9-0.5,1.8-1.2,2.6-2.1c0.8-0.9,1.4-1.9,1.9-3.1c0.5-1.1,1-2.3,1.2-3.6
			C198.8,111.9,199,110.7,199,109.5z M197.5,111.1c-0.1,0.9-0.3,1.8-0.6,2.7c-0.3,1-0.8,2-1.3,3c-0.6,1-1.2,1.8-1.8,2.6
			c-0.6,0.7-1.3,1.3-2,1.7c-0.7,0.4-1.4,0.5-2,0.3c-0.8-0.2-1.4-0.6-1.8-1.1c-0.4-0.5-0.7-1.2-0.8-1.9c-0.1-0.7-0.1-1.5,0-2.4
			c0.1-0.8,0.3-1.7,0.6-2.6c0.3-0.9,0.6-1.7,1-2.6c0.4-0.8,0.8-1.6,1.2-2.3c0.4-0.7,0.8-1.3,1.2-1.8c0.4-0.5,0.8-0.8,1.1-1
			c0.9-0.5,1.6-0.8,2.3-0.9c0.6-0.1,1.2,0.1,1.6,0.4c0.4,0.3,0.8,0.8,1,1.3c0.2,0.6,0.4,1.3,0.4,2
			C197.7,109.4,197.6,110.2,197.5,111.1z M210.7,114.4c-0.5-0.4-1.1-0.6-1.8-0.8c-0.7-0.2-1.4-0.2-2.1-0.2c-0.7,0-1.4,0.1-1.9,0.2
			c0.2-0.2,0.4-0.4,0.8-0.7c0.3-0.3,0.7-0.6,1.1-0.9c0.4-0.3,0.8-0.7,1.2-1.1c0.4-0.4,0.8-0.8,1.1-1.2c0.3-0.4,0.6-0.8,0.9-1.2
			c0.2-0.4,0.4-0.8,0.5-1.3c0.1-0.2,0-0.4-0.1-0.6c-0.1-0.2-0.2-0.3-0.4-0.5c-0.2-0.1-0.4-0.3-0.6-0.4c-0.2-0.1-0.4-0.2-0.6-0.2
			c-0.5-0.1-1-0.2-1.6-0.2c-0.6,0-1.1,0-1.7,0.1c-0.6,0.1-1.1,0.2-1.7,0.4c-0.5,0.2-1.1,0.4-1.5,0.5c0-0.1,0-0.2,0-0.4
			c0-0.1-0.1-0.3-0.1-0.5c0-0.2-0.1-0.3-0.2-0.4c-0.1-0.1-0.2-0.2-0.2-0.3c-0.1-0.1-0.3-0.1-0.4-0.1c-0.1,0-0.2,0-0.2,0.1
			c-0.1,0-0.1,0.1-0.1,0.2c0,0.1-0.1,0.2-0.1,0.2c-0.1,0.2-0.1,0.5-0.1,0.7c0,0.2,0,0.5,0.1,0.7l-2.7,17.3c0,0,0,0,0.1,0.1
			c0.1,0,0.1,0,0.2,0c0.4,0.1,0.6,0.1,0.7-0.1c0.1-0.2,0.2-0.5,0.3-0.8c0.1-0.5,0.2-0.9,0.3-1.4c0.1-0.5,0.2-1,0.3-1.5
			c0.1-0.5,0.2-1,0.3-1.5c0.1-0.5,0.2-1,0.3-1.5c0.2-0.4,0.6-0.8,1.2-1.2c0.6-0.4,1.2-0.6,2-0.9c0.7-0.2,1.5-0.4,2.3-0.5
			c0.8-0.1,1.5-0.1,2.1,0c0.6,0.1,1.1,0.3,1.4,0.6c0.3,0.3,0.4,0.7,0.3,1.2c-0.1,0.4-0.4,0.8-0.9,1.3c-0.5,0.5-1.1,0.9-1.7,1.4
			c-0.7,0.5-1.4,1-2.1,1.4c-0.8,0.5-1.4,0.9-2.1,1.2c-0.6,0.4-1.2,0.6-1.7,0.8c-0.5,0.2-0.7,0.3-0.8,0.3l0.4,1
			c0.1,0.1,0.4,0,0.8-0.1c0.4-0.1,0.8-0.3,1.3-0.5c0.5-0.2,1.1-0.5,1.7-0.9c0.6-0.3,1.2-0.7,1.9-1.2c0.6-0.4,1.2-0.9,1.8-1.3
			c0.6-0.5,1.1-0.9,1.6-1.4c0.5-0.5,0.8-1,1.1-1.4c0.3-0.5,0.4-0.9,0.4-1.3C211.5,115.3,211.2,114.7,210.7,114.4z M202.6,113.4
			c-0.5,0.3-1,0.6-1.3,0.8c0-0.3,0-0.7,0-1.2c0-0.5,0.1-1,0.2-1.5c0.1-0.5,0.2-1,0.3-1.5c0.1-0.5,0.2-0.9,0.3-1.2
			c0.1-0.3,0.3-0.6,0.6-0.9c0.3-0.3,0.6-0.5,1-0.6c0.4-0.2,0.8-0.3,1.3-0.4c0.5-0.1,0.9-0.1,1.4-0.2c0.4,0,0.9,0,1.3,0
			c0.4,0,0.7,0.1,1,0.2c0.3,0.3,0.3,0.7,0.2,1.1c-0.2,0.4-0.5,0.9-0.9,1.4c-0.4,0.5-0.9,1-1.6,1.5c-0.6,0.5-1.2,1-1.9,1.4
			C203.7,112.7,203.1,113.1,202.6,113.4z M217.4,115.1c0.4,1,0.8,2.1,1.2,3.3c0.4,1.1,0.8,2.2,1.2,3.3c0.4,1,0.7,2,1,2.8
			c0.3,0.8,0.6,1.4,0.8,1.8c-0.1,0.3-0.2,0.5-0.2,0.6c0,0.2,0,0.3,0.1,0.4c0.1,0.1,0.2,0.2,0.3,0.3c0.1,0.1,0.3,0.1,0.4,0.1
			c0.3,0,0.6,0,0.9-0.1c0.3-0.1,0.4-0.4,0.5-0.7c0.1-0.4,0.1-0.8,0-1.1c-0.1-0.3-0.1-0.7,0-1.2c0-0.3,0.1-0.8,0.2-1.5
			c0.1-0.7,0.2-1.5,0.3-2.3c0.1-0.9,0.3-1.8,0.4-2.7c0.1-0.9,0.3-1.9,0.4-2.7c0.1-0.9,0.2-1.6,0.3-2.3c0.1-0.7,0.2-1.2,0.2-1.5
			c0-0.1,0-0.3,0.1-0.7c0-0.4,0-0.8,0-1.2c0-0.4-0.1-0.8-0.2-1.1c-0.1-0.3-0.3-0.5-0.6-0.6c-0.3,0-0.5,0-0.6,0.3
			c-0.1,0.2-0.2,0.4-0.2,0.7c0.1,0.1,0.1,0.4,0.2,0.8c0,0.4,0,1,0,1.6c0,0.6-0.1,1.4-0.2,2.2c-0.1,0.8-0.2,1.6-0.3,2.5
			s-0.2,1.7-0.3,2.5c-0.1,0.8-0.2,1.6-0.4,2.3c-0.1,0.7-0.2,1.3-0.4,1.8c-0.1,0.5-0.2,0.9-0.3,1.1l-6.3-15.8c0.1,0,0-0.1,0-0.3
			c-0.1-0.2-0.2-0.5-0.4-0.7c-0.2-0.2-0.4-0.4-0.6-0.6c-0.2-0.1-0.4-0.1-0.6,0.1l-1.9,19.2c-0.1,0-0.1,0.1,0,0.3
			c0.1,0.1,0.3,0.2,0.5,0.3c0.2,0.1,0.4,0.1,0.6,0c0.2-0.1,0.3-0.2,0.4-0.6c0.2-1,0.3-2.2,0.4-3.5c0.1-1.3,0.2-2.7,0.4-4.1
			c0.1-1.4,0.3-2.7,0.5-4.1c0.2-1.3,0.4-2.5,0.6-3.5c0.2,0.3,0.5,0.8,0.9,1.6C216.7,113.1,217.1,114,217.4,115.1z M225.6,128.1
			c0.1,0.1,0.3,0.2,0.5,0.2c0.6,0,1.3,0,2.2-0.1c0.9-0.1,1.8-0.2,2.8-0.4c0.9-0.2,1.9-0.3,2.8-0.5c0.9-0.2,1.7-0.4,2.3-0.5
			c0.2-0.1,0.3-0.1,0.4-0.2c0.1-0.1,0.1-0.2,0-0.3c0-0.1-0.1-0.2-0.2-0.3c-0.1-0.1-0.2-0.2-0.3-0.2c-0.3,0-0.7,0-1.2,0.1
			c-0.5,0.1-1,0.2-1.6,0.3c-0.6,0.1-1.2,0.2-1.8,0.4c-0.6,0.1-1.2,0.2-1.8,0.3c-0.6,0.1-1.1,0.1-1.5,0.1c-0.4,0-0.8-0.1-1-0.3
			l1.1-6.1c0-0.2,0.3-0.4,0.7-0.6c0.4-0.2,0.9-0.3,1.5-0.4c0.6-0.1,1.2-0.2,1.9-0.3c0.7-0.1,1.3-0.2,1.9-0.3
			c0.6-0.1,1.1-0.3,1.5-0.5c0.4-0.2,0.6-0.5,0.7-0.8c-0.1-0.2-0.2-0.4-0.4-0.4c-0.1,0-0.3,0-0.4,0c-0.1,0-0.3,0.1-0.5,0.3l-6.8,1.3
			c0.1-1,0.2-2,0.3-3c0.1-1,0.2-2,0.4-3l9.1-1.1c0.2,0,0.4-0.1,0.5-0.3c0.1-0.1,0.2-0.3,0.2-0.4c0-0.2,0-0.3,0-0.5
			c-0.1-0.1-0.2-0.2-0.3-0.3L229,111c0-0.1,0-0.3,0-0.5c0-0.2,0-0.5,0-0.8c0-0.3-0.1-0.5-0.2-0.8c-0.1-0.2-0.2-0.4-0.4-0.5
			c-0.1-0.1-0.2-0.1-0.4,0c-0.1,0-0.2,0.1-0.3,0.2c-0.1,0.1-0.2,0.2-0.3,0.3c-0.1,0.1-0.1,0.2-0.1,0.3c0.1,1.5,0.1,3.1,0,4.6
			c-0.1,1.6-0.3,3.1-0.5,4.7c-0.2,1.6-0.5,3.1-0.8,4.7c-0.3,1.5-0.5,3-0.8,4.5C225.4,127.8,225.5,128,225.6,128.1z M234.6,106.1
			c-0.5,0.3-0.9,0.6-1.4,0.9c-0.5,0.3-0.8,0.6-1.1,0.9c-0.3,0.3-0.4,0.6-0.4,0.9c0,0.3,0.2,0.5,0.7,0.6c0.2-0.1,0.5-0.3,0.8-0.5
			c0.3-0.2,0.6-0.4,0.9-0.6c0.3-0.2,0.5-0.4,0.7-0.6c0.2-0.2,0.4-0.4,0.4-0.6l0-0.2c0-0.2,0-0.4-0.1-0.6
			C235,106.2,234.9,106.1,234.6,106.1z M262.4,120.6c0.3-1.6,0.5-3,0.8-4.1c0.3-1.1,0.4-1.8,0.4-2.2c0-0.1-0.1-0.2-0.2-0.3
			c-0.1-0.1-0.2-0.2-0.3-0.2c-0.1,0-0.3,0-0.4,0c-0.2,0-0.3,0.1-0.4,0.3c0,0.2-0.1,0.6-0.2,1.1c-0.1,0.6-0.2,1.3-0.4,2.2
			c-0.2,0.8-0.4,1.8-0.6,2.8c-0.3,1-0.5,2.1-0.9,3.1c-0.3,1-0.7,2-1,3c-0.4,1-0.8,1.8-1.2,2.6c-0.4,0.7-0.9,1.3-1.4,1.8
			c-0.5,0.4-1,0.6-1.5,0.6c-0.3-0.1-0.7-0.4-1-0.7c-0.4-0.3-0.7-0.8-1-1.5c-0.3-0.6-0.6-1.4-0.8-2.3c-0.2-0.9-0.3-2.1-0.3-3.4
			c0-1.3,0.2-2.8,0.4-4.6c0.3-1.7,0.7-3.7,1.4-5.9c0-0.1-0.1-0.2-0.2-0.3c-0.2-0.1-0.4-0.2-0.6-0.2c-0.2,0-0.4,0-0.6,0.1
			c-0.2,0.1-0.3,0.3-0.2,0.5c-0.1,0.3-0.2,0.7-0.3,1.3c-0.1,0.6-0.3,1.4-0.4,2.2c-0.1,0.9-0.3,1.8-0.4,2.8c-0.1,1-0.2,2.1-0.2,3.2
			c0,1.1,0,2.1,0.1,3.2c0.1,1,0.3,2,0.6,2.9c0.3,0.9,0.7,1.7,1.1,2.4c0.5,0.7,1.1,1.2,1.9,1.5c0.8,0.1,1.5,0,2.1-0.4
			c0.6-0.4,1.2-0.9,1.7-1.5c0.5-0.6,0.9-1.3,1.3-2.1c0.4-0.7,0.7-1.4,0.9-2l-0.4,7.2c0.1,0,0.2,0.1,0.4,0.1c0.2,0,0.3,0,0.4,0
			c0.1,0,0.3,0,0.4-0.1c0.1-0.1,0.2-0.2,0.2-0.3c-0.1-2.5,0-4.9,0.2-7C261.9,124.2,262.2,122.3,262.4,120.6z M257.8,112
			c0.3-0.2,0.6-0.4,0.9-0.6c0.3-0.2,0.5-0.4,0.7-0.6c0.2-0.2,0.4-0.4,0.4-0.6l0-0.2c0-0.2,0-0.4-0.1-0.6c-0.1-0.2-0.3-0.3-0.5-0.3
			c-0.5,0.3-0.9,0.6-1.4,0.9c-0.5,0.3-0.8,0.6-1.1,0.9c-0.3,0.3-0.4,0.6-0.4,0.9c0,0.3,0.2,0.5,0.7,0.6
			C257.2,112.3,257.5,112.2,257.8,112z M275.2,124.8c-0.6,0.9-1.3,1.8-2.1,2.6c-0.8,0.8-1.6,1.5-2.5,2.2c-0.9,0.7-1.6,1.3-2.3,1.8
			c-0.7,0.5-1.3,0.9-1.8,1.3c-0.5,0.4-0.7,0.6-0.7,0.8c0,0.2,0,0.3,0.1,0.6c0.1,0.2,0.2,0.4,0.3,0.4c0,0,0,0,0.1,0c0,0,0.1,0,0.1,0
			c1.4-0.9,2.7-1.7,3.9-2.6c1.2-0.9,2.3-1.8,3.3-2.8c1-1,1.8-2,2.5-3.1c0.7-1.1,1.2-2.3,1.5-3.5c0.2-0.8,0.1-1.5-0.1-2.2
			c-0.2-0.7-0.6-1.3-1.2-1.8c-0.5-0.5-1.1-1-1.8-1.3c-0.7-0.4-1.4-0.7-2.2-0.9c-0.7-0.3-1.5-0.4-2.1-0.6c-0.7-0.1-1.3-0.2-1.8-0.2
			c-0.2-0.1-0.3-0.2-0.3-0.4c0-0.2,0-0.3,0-0.5c0-0.2,0-0.3-0.1-0.5c-0.1-0.1-0.3-0.2-0.6-0.3c-0.1,0.5-0.2,0.9-0.4,1.2
			c-0.2,0.3-0.4,0.6-0.6,0.7c-0.2,0.2-0.4,0.3-0.7,0.4c-0.2,0.1-0.4,0.2-0.6,0.3c-0.2,0.1-0.4,0.2-0.5,0.4c-0.1,0.1-0.2,0.3-0.3,0.6
			c0,0.2,0,0.3,0.1,0.3c0.1,0.1,0.2,0.1,0.3,0.1c0,0,0,0,0.1,0c0,0,0.1,0,0.1,0c0,0,0.1,0,0.3-0.1c0.1-0.1,0.3-0.1,0.4-0.1
			c0.1,0,0.3-0.1,0.4-0.1c0.1,0,0.2-0.1,0.3-0.1l-1.1,14.6c0.1,0.2,0.2,0.4,0.4,0.4c0.2,0,0.4,0,0.6-0.1c0.2-0.1,0.3-0.3,0.4-0.5
			c0.1-0.2,0.1-0.4,0.1-0.6l1.1-14.2c0.2-0.1,0.4-0.1,0.6-0.1c0.2,0,0.4,0,0.6-0.1c0.2,0,0.4,0,0.5,0c0.1,0,0.3,0,0.3,0
			c0.3,0,0.7,0.1,1.2,0.3c0.5,0.1,1,0.3,1.4,0.6c0.5,0.2,1,0.5,1.5,0.8c0.5,0.3,0.9,0.6,1.3,1c0.4,0.4,0.6,0.8,0.9,1.2
			c0.2,0.4,0.3,0.9,0.2,1.3C276.2,122.9,275.8,123.9,275.2,124.8z M287.9,130c0.2,0,0.4,0,0.6-0.1c0.2,0,0.4,0,0.5-0.1
			c0.3-0.1,0.6-0.2,0.7-0.3c0.2-0.2,0.2-0.3,0.2-0.5c0-0.2,0-0.3-0.2-0.4c-0.1-0.1-0.3-0.2-0.5-0.2l-2.5,0.4L284,117
			c0-0.1,0-0.2-0.1-0.3c-0.1-0.1-0.2-0.2-0.4-0.2c-0.2,0-0.3-0.1-0.5,0c-0.2,0-0.3,0.1-0.4,0.3c-1.3,3.3-2.4,6.1-3.3,8.4
			c-0.9,2.3-1.7,4.1-2.3,5.6c-0.6,1.5-1.1,2.6-1.5,3.4c-0.4,0.8-0.6,1.3-0.8,1.7c0.3,0.4,0.6,0.6,0.8,0.7c0.2,0.1,0.5,0.1,0.8-0.2
			c0.2-0.7,0.4-1.3,0.6-1.8c0.2-0.5,0.3-1,0.5-1.4c0.2-0.5,0.3-0.8,0.3-1c0.1-0.3,0.3-0.6,0.7-0.8c0.3-0.2,0.8-0.3,1.2-0.4
			c0.5-0.1,1-0.2,1.5-0.2c0.6,0,1.1-0.1,1.6-0.1c0.5,0,1.1,0,1.5,0c0.5,0,0.9,0,1.2-0.1l1.6,7.2c0.3,0.3,0.6,0.4,0.7,0.5
			c0.2,0.1,0.3,0,0.4,0c0.1-0.1,0.2-0.1,0.2-0.2c0-0.1,0.1-0.2,0.1-0.3l-1.5-7.2c0,0,0.1-0.1,0.2-0.1C287.5,130,287.7,130,287.9,130
			z M283.4,128.9c-0.6,0-1.1,0.1-1.7,0.1c-0.6,0-1.1,0.1-1.6,0.1c-0.5,0-0.9,0.1-1.1,0.1l4-9.9l1.9,9.4
			C284.5,128.8,284,128.8,283.4,128.9z M298.1,139.5c0.4-0.4,0.6-0.9,0.8-1.4c0.2-0.6,0.4-1.2,0.5-1.9c0.2-1.3,0.3-2.6,0.4-4
			c0.1-1.4,0.1-2.8,0.1-4.2c0-1.4,0-2.9,0-4.3c0-1.4,0-2.8-0.1-4c-0.1-0.3-0.2-0.4-0.4-0.4c-0.2,0-0.3,0-0.5,0.1
			c-0.2,0.1-0.3,0.2-0.4,0.4c-0.1,0.2-0.1,0.3-0.1,0.5c0,0.2-0.1,0.5-0.1,1.1c0,0.5,0,1.2,0,2c0,0.8,0,1.7,0,2.6c0,1,0,2,0,3
			c0,1,0,2-0.1,3c0,1-0.1,1.9-0.2,2.8c-0.1,0.8-0.2,1.6-0.4,2.2c-0.2,0.6-0.4,1.1-0.6,1.4c-0.5,0.4-1.1,0.6-1.6,0.6
			c-0.6,0-1.1-0.1-1.6-0.3c-0.5-0.2-1-0.6-1.5-1c-0.5-0.4-0.9-0.9-1.2-1.5c-0.3-0.5-0.6-1-0.7-1.6c-0.1-0.5-0.2-1-0.1-1.4
			c0-0.1,0-0.3,0-0.4c-0.1-0.1-0.1-0.2-0.3-0.2c-0.1,0-0.2,0-0.4,0.2c-0.1,0.1-0.2,0.3-0.4,0.6c-0.2,0.3-0.2,0.7-0.1,1.2
			c0.1,0.5,0.2,0.9,0.5,1.4c0.2,0.5,0.6,1,0.9,1.5c0.4,0.5,0.8,1,1.2,1.4c0.4,0.4,0.9,0.8,1.4,1c0.5,0.3,0.9,0.5,1.4,0.5
			c0.8,0.1,1.4,0.1,1.9-0.1C297.3,140.2,297.8,139.9,298.1,139.5z M302.6,120.5c0.1,1.5,0.1,3.1,0,4.6c-0.1,1.6-0.3,3.1-0.5,4.7
			c-0.2,1.6-0.5,3.1-0.8,4.7c-0.3,1.5-0.5,3-0.8,4.5c0.1,0.2,0.3,0.4,0.4,0.5c0.1,0.1,0.3,0.2,0.5,0.2c0.6,0,1.3,0,2.2-0.1
			c0.9-0.1,1.8-0.2,2.8-0.4c0.9-0.2,1.9-0.3,2.8-0.5c0.9-0.2,1.7-0.4,2.3-0.5c0.2-0.1,0.3-0.1,0.4-0.2c0.1-0.1,0.1-0.2,0-0.3
			c0-0.1-0.1-0.2-0.2-0.3c-0.1-0.1-0.2-0.2-0.3-0.2c-0.3,0-0.7,0-1.2,0.1c-0.5,0.1-1,0.2-1.6,0.3c-0.6,0.1-1.2,0.2-1.8,0.4
			c-0.6,0.1-1.2,0.2-1.8,0.3c-0.6,0.1-1.1,0.1-1.5,0.1c-0.4,0-0.8-0.1-1-0.3l1.1-6.1c0-0.2,0.3-0.4,0.7-0.6c0.4-0.2,0.9-0.3,1.5-0.4
			c0.6-0.1,1.2-0.2,1.9-0.3c0.7-0.1,1.3-0.2,1.9-0.3c0.6-0.1,1.1-0.3,1.5-0.5c0.4-0.2,0.6-0.5,0.7-0.8c-0.1-0.2-0.2-0.4-0.4-0.4
			c-0.1,0-0.3,0-0.4,0c-0.1,0-0.3,0.1-0.5,0.3l-6.8,1.3c0.1-1,0.2-2,0.3-3c0.1-1,0.2-2,0.4-3l9.1-1.1c0.2,0,0.4-0.1,0.5-0.3
			c0.1-0.1,0.2-0.3,0.2-0.4c0-0.2,0-0.3,0-0.5c-0.1-0.1-0.2-0.2-0.3-0.3l-9.3,0.9c0-0.1,0-0.3,0-0.5c0-0.2,0-0.5,0-0.8
			c0-0.3-0.1-0.5-0.2-0.8c-0.1-0.2-0.2-0.4-0.4-0.5c-0.1-0.1-0.2-0.1-0.4,0c-0.1,0-0.2,0.1-0.3,0.2c-0.1,0.1-0.2,0.2-0.3,0.3
			C302.7,120.4,302.7,120.5,302.6,120.5z M69.1,116.7c0-0.7-0.2-1.2-0.4-1.7c-0.3-0.5-0.6-0.9-1.1-1.2c-0.5-0.3-1-0.5-1.5-0.7
			c-0.6-0.1-1.2-0.2-1.8-0.2c-0.6,0-1.3,0.1-1.9,0.2c-0.7,0.1-1.3,0.3-1.8,0.5c-0.1-0.1-0.2-0.2-0.2-0.3c0-0.1-0.1-0.3-0.1-0.4
			c0-0.1-0.1-0.2-0.2-0.3c-0.1-0.1-0.2-0.1-0.3-0.2c-0.2,0-0.4,0.1-0.6,0.3c-0.3,0.3-0.5,0.5-0.8,0.9c-0.3,0.3-0.5,0.7-0.8,1
			c-0.2,0.3-0.5,0.6-0.6,0.7c0,0,0,0.1,0,0.1l0,0.1c0,0.2,0,0.3,0.1,0.4c0.1,0.1,0.2,0.2,0.3,0.2c0.1,0,0.2,0,0.3-0.1
			c0.1-0.1,0.2-0.1,0.4-0.2c0.1-0.1,0.2-0.2,0.4-0.3c0.1-0.1,0.2-0.2,0.3-0.2c-0.1,1.2-0.2,2.3-0.4,3.5c-0.2,1.2-0.4,2.5-0.7,3.8
			c-0.2,1.3-0.5,2.7-0.8,4.1c-0.3,1.4-0.5,2.9-0.8,4.5c0,0.1,0.1,0.2,0.3,0.2c0.1,0.1,0.3,0.1,0.4,0.2c0.1,0,0.3,0,0.4,0
			c0.1,0,0.2-0.1,0.2-0.2l1.5-7.7c0-0.1,0.2-0.1,0.7-0.3c0.5-0.1,1.1-0.3,1.8-0.6c0.7-0.2,1.5-0.5,2.4-0.9c0.9-0.3,1.7-0.8,2.5-1.3
			c0.8-0.5,1.5-1.1,2.1-1.8C68.6,118.3,69,117.5,69.1,116.7z M66.3,119.1c-0.7,0.6-1.4,1-2.2,1.4c-0.8,0.4-1.7,0.7-2.6,1
			c-0.9,0.3-1.8,0.5-2.6,0.6l1.1-6.9c0.8-0.5,1.7-0.8,2.6-1c0.9-0.2,1.8-0.2,2.6-0.1c0.8,0.1,1.4,0.4,1.9,0.9
			c0.5,0.5,0.8,1.2,0.7,2.1C67.4,117.9,66.9,118.5,66.3,119.1z M66.5,127.2c-0.1,0.5-0.1,1.1,0,1.8c0.1,0.7,0.3,1.4,0.6,2
			c0.3,0.7,0.7,1.2,1.3,1.7c0.6,0.5,1.3,0.8,2.1,0.9c1.1,0.1,2.1-0.2,3.1-0.7c0.9-0.5,1.8-1.2,2.6-2.1c0.8-0.9,1.4-1.9,1.9-3.1
			c0.5-1.1,1-2.3,1.2-3.6c0.3-1.2,0.4-2.4,0.5-3.6c0-1.2-0.1-2.3-0.4-3.2c-0.3-1.1-0.8-1.8-1.5-2.3c-0.7-0.5-1.5-0.7-2.3-0.6
			c-0.9,0.1-1.8,0.4-2.7,1c-1,0.6-1.9,1.5-2.7,2.5c-0.9,1.1-1.6,2.4-2.3,3.9C67.2,123.5,66.8,125.3,66.5,127.2z M68.6,124.4
			c0.3-0.9,0.6-1.7,1-2.6c0.4-0.8,0.8-1.6,1.2-2.3c0.4-0.7,0.8-1.3,1.2-1.8c0.4-0.5,0.8-0.8,1.1-1c0.9-0.5,1.6-0.8,2.3-0.9
			c0.6-0.1,1.2,0.1,1.6,0.4c0.4,0.3,0.8,0.8,1,1.3c0.2,0.6,0.4,1.3,0.4,2c0.1,0.8,0,1.6-0.1,2.5c-0.1,0.9-0.4,1.8-0.6,2.7
			c-0.3,1-0.8,2-1.3,3c-0.6,1-1.2,1.8-1.8,2.6c-0.6,0.7-1.3,1.3-2,1.7c-0.7,0.4-1.4,0.5-2,0.3c-0.8-0.2-1.4-0.6-1.8-1.1
			c-0.4-0.5-0.7-1.2-0.8-1.9c-0.1-0.7-0.1-1.5,0-2.4C68.1,126.2,68.3,125.3,68.6,124.4z M97.8,119.1c0.5,0,1,0,1.3-0.1
			c0.3-0.1,0.4-0.3,0.4-0.6c-0.1,0-0.2-0.1-0.4-0.1c-0.2,0-0.3-0.1-0.4-0.1c-2.6-0.3-5.2-0.6-7.7-1c-0.1,0-0.2-0.1-0.2-0.2
			c0-0.1-0.1-0.2-0.2-0.4c-0.1-0.1-0.1-0.3-0.2-0.4c-0.1-0.1-0.2-0.2-0.4-0.3c-0.1,0-0.3,0-0.4,0.1c-0.1,0.1-0.2,0.2-0.3,0.3
			c-0.1,0.1-0.2,0.3-0.3,0.4c-0.1,0.1-0.1,0.2-0.1,0.3l-7-0.6c-0.2,0-0.3,0-0.5,0.2c-0.2,0.1-0.3,0.3-0.3,0.5
			c-0.1,0.3,0,0.4,0.1,0.5c0.2,0.1,0.3,0.2,0.5,0.2c0.6,0.1,1.2,0.2,1.8,0.2c0.6,0,1.2,0,1.8,0.1c0.6,0,1.2,0,1.8,0.1
			c0.6,0,1.2,0.1,1.8,0.3c0,0.8-0.1,1.6-0.2,2.6c-0.1,1-0.3,2-0.4,3.1c-0.2,1.1-0.3,2.2-0.5,3.3c-0.2,1.1-0.3,2.2-0.5,3.3
			c-0.1,1.1-0.2,2-0.3,3c-0.1,0.9-0.1,1.7-0.1,2.3c0.5,0.2,0.8,0.2,1,0.2c0.2,0,0.3-0.3,0.3-0.8c0.2-0.8,0.3-1.7,0.5-2.6
			c0.1-0.9,0.2-1.9,0.3-2.9c0.1-1,0.2-2,0.3-3c0.1-1,0.2-2,0.3-3c0.1-1,0.3-1.9,0.4-2.9c0.2-0.9,0.4-1.8,0.6-2.6
			c0.3,0,0.8,0,1.4,0.1c0.6,0.1,1.2,0.1,1.9,0.2c0.7,0.1,1.4,0.2,2,0.2C96.7,119.1,97.3,119.1,97.8,119.1z M98,138.3
			c0.1,0,0.2,0,0.3,0c0.1,0,0.3-0.1,0.5-0.2l1.2-7.7l9.3,7.4c0.3,0.1,0.5,0,0.7-0.2c0.2-0.2,0.4-0.4,0.4-0.7l-9.9-8.2
			c0.4-0.3,0.9-0.6,1.6-0.9c0.7-0.3,1.5-0.6,2.3-1c0.8-0.3,1.7-0.7,2.5-1.1c0.9-0.4,1.6-0.8,2.4-1.1c0.7-0.4,1.3-0.8,1.7-1.2
			c0.5-0.4,0.7-0.8,0.7-1.2c0-0.4-0.2-0.8-0.7-1.3c-0.5-0.4-1.4-0.9-2.6-1.3c-0.8-0.2-1.5-0.3-2.2-0.3c-0.7,0-1.3,0.1-1.9,0.2
			c-0.6,0.1-1.1,0.2-1.5,0.4c-0.4,0.1-0.8,0.2-1.1,0.2l0.1-1.3c0-0.2-0.1-0.3-0.2-0.4c-0.1-0.1-0.2-0.2-0.4-0.2c-0.2,0-0.3,0-0.5,0
			c-0.2,0-0.3,0.1-0.3,0.2l-2.8,19.4c0,0.1,0.1,0.2,0.1,0.2C97.9,138.2,98,138.3,98,138.3z M100.9,125.9c0.1-0.5,0.1-0.9,0.2-1.4
			c0.1-0.5,0.2-0.9,0.2-1.4c0.1-0.4,0.2-0.8,0.2-1.1c0.4-0.4,0.8-0.6,1.4-0.8c0.6-0.2,1.2-0.3,1.9-0.4c0.7-0.1,1.3-0.1,1.9-0.1
			c0.6,0,1.2,0.1,1.6,0.2c0.8,0.3,1.3,0.6,1.6,0.9c0.2,0.3,0.3,0.6,0.1,0.9c-0.2,0.3-0.5,0.6-1,1c-0.5,0.3-1.1,0.6-1.8,1
			c-0.7,0.3-1.4,0.6-2.1,0.9c-0.7,0.3-1.4,0.5-2,0.7c-0.6,0.2-1.2,0.4-1.6,0.5c-0.4,0.1-0.7,0.3-0.8,0.3
			C100.7,126.8,100.8,126.3,100.9,125.9z M114.9,124.5l9.1-1.1c0.2,0,0.4-0.1,0.5-0.3c0.1-0.1,0.2-0.3,0.2-0.4c0-0.2,0-0.3,0-0.5
			c-0.1-0.1-0.2-0.2-0.3-0.3l-9.3,0.9c0-0.1,0-0.3,0-0.5c0-0.2,0-0.5,0-0.8c0-0.3-0.1-0.5-0.2-0.8c-0.1-0.2-0.2-0.4-0.4-0.5
			c-0.1-0.1-0.2-0.1-0.4,0c-0.1,0-0.2,0.1-0.3,0.2c-0.1,0.1-0.2,0.2-0.3,0.3c-0.1,0.1-0.1,0.2-0.1,0.3c0.1,1.5,0.1,3.1,0,4.6
			c-0.1,1.6-0.3,3.1-0.5,4.7c-0.2,1.6-0.5,3.1-0.8,4.7c-0.3,1.5-0.5,3-0.8,4.5c0.1,0.2,0.3,0.4,0.4,0.5c0.1,0.1,0.3,0.2,0.5,0.2
			c0.6,0,1.3,0,2.2-0.1c0.9-0.1,1.8-0.2,2.8-0.4c0.9-0.2,1.9-0.3,2.8-0.5c0.9-0.2,1.7-0.4,2.3-0.5c0.2-0.1,0.3-0.1,0.4-0.2
			c0.1-0.1,0.1-0.2,0-0.3c0-0.1-0.1-0.2-0.2-0.3c-0.1-0.1-0.2-0.2-0.3-0.2c-0.3,0-0.7,0-1.2,0.1c-0.5,0.1-1,0.2-1.6,0.3
			c-0.6,0.1-1.2,0.2-1.8,0.4c-0.6,0.1-1.2,0.2-1.8,0.3c-0.6,0.1-1.1,0.1-1.5,0.1c-0.4,0-0.8-0.1-1-0.3l1.1-6.1
			c0-0.2,0.3-0.4,0.7-0.6c0.4-0.2,0.9-0.3,1.5-0.4c0.6-0.1,1.2-0.2,1.9-0.3c0.7-0.1,1.3-0.2,1.9-0.3c0.6-0.1,1.1-0.3,1.5-0.5
			c0.4-0.2,0.6-0.5,0.7-0.8c-0.1-0.2-0.2-0.4-0.4-0.4c-0.1,0-0.3,0-0.4,0c-0.1,0-0.3,0.1-0.5,0.3l-6.8,1.3c0.1-1,0.2-2,0.3-3
			C114.6,126.5,114.7,125.5,114.9,124.5z M136.1,132.1c-0.5-0.4-1.1-0.6-1.8-0.8c-0.7-0.2-1.4-0.2-2.1-0.2c-0.7,0-1.4,0.1-1.9,0.2
			c0.2-0.2,0.4-0.4,0.8-0.7c0.3-0.3,0.7-0.6,1.1-0.9c0.4-0.3,0.8-0.7,1.2-1.1c0.4-0.4,0.8-0.8,1.1-1.2c0.3-0.4,0.6-0.8,0.9-1.2
			c0.2-0.4,0.4-0.8,0.5-1.3c0.1-0.2,0-0.4-0.1-0.6c-0.1-0.2-0.2-0.3-0.4-0.5c-0.2-0.1-0.4-0.3-0.6-0.4c-0.2-0.1-0.4-0.2-0.6-0.2
			c-0.5-0.1-1-0.2-1.6-0.2c-0.6,0-1.1,0-1.7,0.1c-0.6,0.1-1.1,0.2-1.7,0.4c-0.5,0.2-1.1,0.4-1.5,0.5c0-0.1,0-0.2,0-0.4
			c0-0.1-0.1-0.3-0.1-0.5c0-0.2-0.1-0.3-0.2-0.4c-0.1-0.1-0.2-0.2-0.2-0.3c-0.1-0.1-0.3-0.1-0.4-0.1c-0.1,0-0.2,0-0.2,0.1
			c-0.1,0-0.1,0.1-0.1,0.2c0,0.1-0.1,0.2-0.1,0.2c-0.1,0.2-0.1,0.5-0.1,0.7c0,0.2,0,0.5,0.1,0.7l-2.7,17.3c0,0,0,0,0.1,0.1
			c0.1,0,0.1,0,0.2,0c0.4,0.1,0.6,0.1,0.7-0.1c0.1-0.2,0.2-0.5,0.3-0.8c0.1-0.5,0.2-0.9,0.3-1.4c0.1-0.5,0.2-1,0.3-1.5
			c0.1-0.5,0.2-1,0.3-1.5c0.1-0.5,0.2-1,0.3-1.5c0.2-0.4,0.6-0.8,1.2-1.2c0.6-0.4,1.2-0.6,2-0.9c0.7-0.2,1.5-0.4,2.3-0.5
			c0.8-0.1,1.5-0.1,2.1,0c0.6,0.1,1.1,0.3,1.4,0.6c0.3,0.3,0.4,0.7,0.3,1.2c-0.1,0.4-0.4,0.8-0.9,1.3c-0.5,0.5-1.1,0.9-1.7,1.4
			c-0.7,0.5-1.4,1-2.1,1.4c-0.8,0.5-1.4,0.9-2.1,1.2s-1.2,0.6-1.7,0.8c-0.5,0.2-0.7,0.3-0.8,0.3l0.4,1c0.1,0.1,0.4,0,0.8-0.1
			c0.4-0.1,0.8-0.3,1.3-0.5c0.5-0.2,1.1-0.5,1.7-0.9c0.6-0.3,1.2-0.7,1.9-1.2c0.6-0.4,1.2-0.9,1.8-1.3c0.6-0.5,1.1-0.9,1.6-1.4
			c0.5-0.5,0.8-1,1.1-1.4c0.3-0.5,0.4-0.9,0.4-1.3C136.9,133,136.6,132.5,136.1,132.1z M128,131.2c-0.6,0.3-1,0.6-1.3,0.8
			c0-0.3,0-0.7,0-1.2c0-0.5,0.1-1,0.2-1.5c0.1-0.5,0.2-1,0.3-1.5c0.1-0.5,0.2-0.9,0.3-1.2c0.1-0.3,0.3-0.6,0.6-0.9
			c0.3-0.3,0.6-0.5,1-0.6c0.4-0.2,0.8-0.3,1.3-0.4c0.5-0.1,0.9-0.1,1.4-0.2c0.4,0,0.9,0,1.3,0c0.4,0,0.7,0.1,1,0.2
			c0.3,0.3,0.3,0.7,0.2,1.1c-0.2,0.4-0.5,0.9-0.9,1.4c-0.4,0.5-0.9,1-1.6,1.5c-0.6,0.5-1.2,1-1.9,1.4
			C129.1,130.5,128.5,130.9,128,131.2z M149.9,132.7c0.3-1.6,0.5-3,0.8-4.1c0.3-1.1,0.4-1.8,0.4-2.2c0-0.1-0.1-0.2-0.2-0.3
			c-0.1-0.1-0.2-0.2-0.3-0.2c-0.1,0-0.3,0-0.4,0c-0.2,0-0.3,0.1-0.4,0.3c0,0.2-0.1,0.6-0.2,1.1c-0.1,0.6-0.2,1.3-0.4,2.2
			c-0.2,0.8-0.4,1.8-0.6,2.8c-0.3,1-0.5,2.1-0.9,3.1c-0.3,1-0.7,2-1,3c-0.4,1-0.8,1.8-1.2,2.6c-0.4,0.7-0.9,1.3-1.4,1.8
			c-0.5,0.4-1,0.6-1.5,0.6c-0.3-0.1-0.7-0.4-1-0.7c-0.4-0.3-0.7-0.8-1-1.5c-0.3-0.6-0.6-1.4-0.8-2.3c-0.2-0.9-0.3-2.1-0.3-3.4
			c0-1.3,0.2-2.8,0.4-4.6c0.3-1.7,0.7-3.7,1.4-5.9c0-0.1-0.1-0.2-0.2-0.3c-0.2-0.1-0.4-0.2-0.6-0.2c-0.2,0-0.4,0-0.6,0.1
			c-0.2,0.1-0.3,0.3-0.2,0.5c-0.1,0.3-0.2,0.7-0.3,1.3c-0.1,0.6-0.3,1.4-0.4,2.2c-0.1,0.9-0.3,1.8-0.4,2.8c-0.1,1-0.2,2.1-0.2,3.2
			c0,1.1,0,2.1,0.1,3.2c0.1,1,0.3,2,0.6,2.9c0.3,0.9,0.7,1.7,1.1,2.4c0.5,0.7,1.1,1.2,1.9,1.5c0.8,0.1,1.5,0,2.1-0.4
			c0.6-0.4,1.2-0.9,1.7-1.5c0.5-0.6,0.9-1.3,1.3-2.1c0.4-0.7,0.7-1.4,0.9-2l-0.4,7.2c0.1,0,0.2,0.1,0.4,0.1c0.2,0,0.3,0,0.4,0
			c0.1,0,0.3,0,0.4-0.1c0.1-0.1,0.2-0.2,0.2-0.3c-0.1-2.5,0-4.9,0.2-7C149.4,136.2,149.7,134.3,149.9,132.7z M151.3,140.7
			c-0.1-0.1-0.1-0.2-0.3-0.2c-0.1,0-0.2,0-0.4,0.2c-0.1,0.1-0.2,0.3-0.4,0.6c-0.2,0.3-0.2,0.7-0.1,1.2c0.1,0.5,0.2,0.9,0.5,1.4
			c0.2,0.5,0.6,1,0.9,1.5c0.4,0.5,0.8,1,1.2,1.4c0.4,0.4,0.9,0.8,1.4,1c0.5,0.3,0.9,0.5,1.4,0.5c0.8,0.1,1.4,0.1,1.9-0.1
			c0.5-0.2,1-0.5,1.3-0.8c0.4-0.4,0.6-0.9,0.8-1.4c0.2-0.6,0.4-1.2,0.5-1.9c0.2-1.3,0.3-2.6,0.4-4c0.1-1.4,0.1-2.8,0.1-4.2
			c0-1.4,0-2.9,0-4.3c0-1.4,0-2.8-0.1-4c-0.1-0.3-0.2-0.4-0.4-0.4c-0.2,0-0.3,0-0.5,0.1c-0.2,0.1-0.3,0.2-0.4,0.4
			c-0.1,0.2-0.1,0.3-0.1,0.5c0,0.2-0.1,0.5-0.1,1.1c0,0.5,0,1.2,0,2c0,0.8,0,1.7,0,2.6c0,1,0,2,0,3c0,1,0,2-0.1,3
			c0,1-0.1,1.9-0.2,2.8c-0.1,0.8-0.2,1.6-0.4,2.2c-0.2,0.6-0.4,1.1-0.6,1.4c-0.5,0.4-1.1,0.6-1.6,0.6c-0.6,0-1.1-0.1-1.6-0.3
			c-0.5-0.2-1-0.6-1.5-1c-0.5-0.4-0.9-0.9-1.2-1.5c-0.3-0.5-0.6-1-0.7-1.6c-0.1-0.5-0.2-1-0.1-1.4
			C151.4,140.9,151.4,140.8,151.3,140.7z M164.9,132.1l9.1-1.1c0.2,0,0.4-0.1,0.5-0.3c0.1-0.1,0.2-0.3,0.2-0.4c0-0.2,0-0.3,0-0.5
			c-0.1-0.1-0.2-0.2-0.3-0.3l-9.3,0.9c0-0.1,0-0.3,0-0.5c0-0.2,0-0.5,0-0.8c0-0.3-0.1-0.5-0.2-0.8c-0.1-0.2-0.2-0.4-0.4-0.5
			c-0.1-0.1-0.2-0.1-0.4,0c-0.1,0-0.2,0.1-0.3,0.2c-0.1,0.1-0.2,0.2-0.3,0.3c-0.1,0.1-0.1,0.2-0.1,0.3c0.1,1.5,0.1,3.1,0,4.6
			c-0.1,1.6-0.3,3.1-0.5,4.7c-0.2,1.6-0.5,3.1-0.8,4.7c-0.3,1.5-0.5,3-0.8,4.5c0.1,0.2,0.3,0.4,0.4,0.5c0.1,0.1,0.3,0.2,0.5,0.2
			c0.6,0,1.3,0,2.2-0.1c0.9-0.1,1.8-0.2,2.8-0.4c0.9-0.2,1.9-0.3,2.8-0.5c0.9-0.2,1.7-0.4,2.3-0.5c0.2-0.1,0.3-0.1,0.4-0.2
			c0.1-0.1,0.1-0.2,0-0.3c0-0.1-0.1-0.2-0.2-0.3c-0.1-0.1-0.2-0.2-0.3-0.2c-0.3,0-0.7,0-1.2,0.1c-0.5,0.1-1,0.2-1.6,0.3
			c-0.6,0.1-1.2,0.2-1.8,0.4c-0.6,0.1-1.2,0.2-1.8,0.3c-0.6,0.1-1.1,0.1-1.5,0.1c-0.4,0-0.8-0.1-1-0.3l1.1-6.1
			c0-0.2,0.3-0.4,0.7-0.6c0.4-0.2,0.9-0.3,1.5-0.4c0.6-0.1,1.2-0.2,1.9-0.3c0.7-0.1,1.3-0.2,1.9-0.3c0.6-0.1,1.1-0.3,1.5-0.5
			c0.4-0.2,0.6-0.5,0.7-0.8c-0.1-0.2-0.2-0.4-0.4-0.4c-0.1,0-0.3,0-0.4,0c-0.1,0-0.3,0.1-0.5,0.3l-6.8,1.3c0.1-1,0.2-2,0.3-3
			C164.6,134.1,164.7,133.1,164.9,132.1z M189.8,141.6c0.1-1.7,0.2-3.3,0.3-4.9c0.1-1.6,0.2-3.1,0.3-4.6c0-0.3-0.1-0.4-0.2-0.6
			c-0.1-0.1-0.2-0.2-0.4-0.2c-0.1,0-0.3,0-0.4,0c-0.1,0.1-0.2,0.1-0.3,0.2c-0.9,1.8-1.7,3.4-2.3,4.6c-0.6,1.3-1.2,2.3-1.6,3.2
			c-0.4,0.8-0.8,1.5-1,2c-0.2,0.5-0.4,0.8-0.6,1c-0.1,0.2-0.2,0.4-0.3,0.4c-0.1,0-0.1,0.1-0.2,0.1c-0.4-0.6-0.7-1.3-0.9-2.2
			c-0.3-0.8-0.5-1.7-0.7-2.6c-0.2-0.9-0.5-1.8-0.7-2.7c-0.2-0.9-0.5-1.8-0.9-2.5c-0.3-0.8-0.8-1.5-1.2-2.1c-0.5-0.6-1-1.1-1.7-1.4
			c-0.2,0-0.3,0-0.5,0c-0.1,0.1-0.2,0.2-0.3,0.6c0,1.6,0,3.2-0.1,4.8c-0.1,1.6-0.2,3.3-0.4,4.9c-0.2,1.6-0.3,3.3-0.5,4.9
			c-0.2,1.6-0.2,3.2-0.3,4.8c0.1,0.3,0.3,0.4,0.4,0.5s0.3,0.1,0.5,0c0.2-0.1,0.3-0.2,0.4-0.3c0.1-0.1,0.1-0.3,0.1-0.5
			c0.2-1.2,0.3-2.6,0.4-4c0.1-1.5,0.1-2.9,0.2-4.4c0.1-1.5,0.1-3,0.2-4.4c0.1-1.5,0.2-2.8,0.4-4c0.3,0.3,0.6,0.7,0.9,1.2
			c0.3,0.6,0.6,1.2,0.9,2c0.3,0.8,0.5,1.6,0.8,2.4c0.3,0.9,0.5,1.7,0.7,2.5c0.2,0.8,0.5,1.6,0.7,2.3c0.2,0.7,0.4,1.2,0.6,1.7
			c0.1,0.6,0.3,0.8,0.5,0.8c0.2,0,0.5-0.2,0.9-0.6c0.3-0.4,0.7-0.9,1.1-1.6c0.4-0.7,0.8-1.4,1.2-2.2c0.4-0.8,0.8-1.6,1.1-2.4
			c0.4-0.8,0.7-1.5,1-2.1c0.3-0.6,0.5-1.1,0.7-1.5c0.2-0.4,0.3-0.6,0.4-0.5l-1.1,17.3c0.1,0.1,0.3,0.3,0.5,0.4
			c0.2,0.1,0.3,0.2,0.5,0.2c0.2,0,0.3,0,0.4,0c0.1-0.1,0.2-0.2,0.3-0.4c0-1.7,0-3.4,0-5.1C189.6,144.9,189.7,143.2,189.8,141.6z
			 M194.7,136.6l9.1-1.1c0.2,0,0.4-0.1,0.5-0.3c0.1-0.1,0.2-0.3,0.2-0.4c0-0.2,0-0.3,0-0.5c-0.1-0.1-0.2-0.2-0.3-0.3L195,135
			c0-0.1,0-0.3,0-0.5c0-0.2,0-0.5,0-0.8c0-0.3-0.1-0.5-0.2-0.8c-0.1-0.2-0.2-0.4-0.4-0.5c-0.1-0.1-0.2-0.1-0.4,0
			c-0.1,0-0.2,0.1-0.3,0.2c-0.1,0.1-0.2,0.2-0.3,0.3c-0.1,0.1-0.1,0.2-0.1,0.3c0.1,1.5,0.1,3.1,0,4.6c-0.1,1.6-0.3,3.1-0.5,4.7
			c-0.2,1.6-0.5,3.1-0.8,4.7c-0.3,1.5-0.5,3-0.8,4.5c0.1,0.2,0.3,0.4,0.4,0.5c0.1,0.1,0.3,0.2,0.5,0.2c0.6,0,1.3,0,2.2-0.1
			c0.9-0.1,1.8-0.2,2.8-0.4c0.9-0.2,1.9-0.3,2.8-0.5c0.9-0.2,1.7-0.4,2.3-0.5c0.2-0.1,0.3-0.1,0.4-0.2c0.1-0.1,0.1-0.2,0-0.3
			c0-0.1-0.1-0.2-0.2-0.3c-0.1-0.1-0.2-0.2-0.3-0.2c-0.3,0-0.7,0-1.2,0.1c-0.5,0.1-1,0.2-1.6,0.3c-0.6,0.1-1.2,0.2-1.8,0.4
			c-0.6,0.1-1.2,0.2-1.8,0.3c-0.6,0.1-1.1,0.1-1.5,0.1c-0.4,0-0.8-0.1-1-0.3l1.1-6.1c0-0.2,0.3-0.4,0.7-0.6c0.4-0.2,0.9-0.3,1.5-0.4
			c0.6-0.1,1.2-0.2,1.9-0.3c0.7-0.1,1.3-0.2,1.9-0.3c0.6-0.1,1.1-0.3,1.5-0.5c0.4-0.2,0.6-0.5,0.7-0.8c-0.1-0.2-0.2-0.4-0.4-0.4
			c-0.1,0-0.3,0-0.4,0c-0.1,0-0.3,0.1-0.5,0.3l-6.8,1.3c0.1-1,0.2-2,0.3-3C194.4,138.6,194.5,137.6,194.7,136.6z M219.3,136.4
			c-0.1-0.1-0.3-0.1-0.4-0.2c-0.1,0-0.3,0-0.4,0c-0.1,0-0.2,0.1-0.3,0.2l-2.4,19.4c0.1,0.1,0.2,0.2,0.3,0.3c0.1,0.1,0.3,0.1,0.4,0.1
			c0.1,0,0.3,0,0.4-0.1c0.1-0.1,0.2-0.2,0.2-0.4l2.5-19C219.5,136.5,219.4,136.5,219.3,136.4z M229.4,150.1
			c-0.5,0.5-1.1,0.9-1.7,1.4c-0.7,0.5-1.4,1-2.1,1.4c-0.8,0.5-1.4,0.9-2.1,1.2c-0.6,0.4-1.2,0.6-1.7,0.8c-0.5,0.2-0.7,0.3-0.8,0.3
			l0.4,1c0.1,0.1,0.4,0,0.8-0.1c0.4-0.1,0.8-0.3,1.3-0.5c0.5-0.2,1.1-0.5,1.7-0.9c0.6-0.3,1.2-0.7,1.9-1.2c0.6-0.4,1.2-0.9,1.8-1.3
			c0.6-0.5,1.1-0.9,1.6-1.4c0.5-0.5,0.8-1,1.1-1.4c0.3-0.5,0.4-0.9,0.4-1.3c-0.1-0.7-0.4-1.2-0.9-1.6c-0.5-0.4-1.1-0.6-1.8-0.8
			c-0.7-0.2-1.4-0.2-2.1-0.2c-0.7,0-1.4,0.1-1.9,0.2c0.2-0.2,0.4-0.4,0.8-0.7c0.3-0.3,0.7-0.6,1.1-0.9c0.4-0.3,0.8-0.7,1.2-1.1
			c0.4-0.4,0.8-0.8,1.1-1.2c0.3-0.4,0.6-0.8,0.9-1.2c0.2-0.4,0.4-0.8,0.5-1.3c0.1-0.2,0-0.4-0.1-0.6c-0.1-0.2-0.2-0.3-0.4-0.5
			c-0.2-0.1-0.4-0.3-0.6-0.4c-0.2-0.1-0.4-0.2-0.6-0.2c-0.5-0.1-1-0.2-1.6-0.2c-0.6,0-1.1,0-1.7,0.1c-0.6,0.1-1.1,0.2-1.7,0.4
			c-0.5,0.2-1.1,0.4-1.5,0.5c0-0.1,0-0.2,0-0.4c0-0.1-0.1-0.3-0.1-0.5c0-0.2-0.1-0.3-0.2-0.4c-0.1-0.1-0.2-0.2-0.2-0.3
			c-0.1-0.1-0.3-0.1-0.4-0.1c-0.1,0-0.2,0-0.2,0.1c-0.1,0-0.1,0.1-0.1,0.2c0,0.1-0.1,0.2-0.1,0.2c-0.1,0.2-0.1,0.5-0.1,0.7
			c0,0.2,0,0.5,0.1,0.7l-2.7,17.3c0,0,0,0,0.1,0.1c0.1,0,0.1,0,0.2,0c0.4,0.1,0.6,0.1,0.7-0.1c0.1-0.2,0.2-0.5,0.3-0.8
			c0.1-0.5,0.2-0.9,0.3-1.4c0.1-0.5,0.2-1,0.3-1.5c0.1-0.5,0.2-1,0.3-1.5c0.1-0.5,0.2-1,0.3-1.5c0.2-0.4,0.6-0.8,1.2-1.2
			c0.6-0.4,1.2-0.6,2-0.9c0.7-0.2,1.5-0.4,2.3-0.5c0.8-0.1,1.5-0.1,2.1,0c0.6,0.1,1.1,0.3,1.4,0.6c0.3,0.3,0.4,0.7,0.3,1.2
			C230.2,149.2,229.9,149.7,229.4,150.1z M223,145.6c-0.6,0.3-1,0.6-1.3,0.8c0-0.3,0-0.7,0-1.2c0-0.5,0.1-1,0.2-1.5
			c0.1-0.5,0.2-1,0.3-1.5c0.1-0.5,0.2-0.9,0.3-1.2c0.1-0.3,0.3-0.6,0.6-0.9c0.3-0.3,0.6-0.5,1-0.6c0.4-0.2,0.8-0.3,1.3-0.4
			c0.5-0.1,0.9-0.1,1.4-0.2c0.4,0,0.9,0,1.3,0c0.4,0,0.7,0.1,1,0.2c0.3,0.3,0.3,0.7,0.2,1.1c-0.2,0.4-0.5,0.9-0.9,1.4
			c-0.4,0.5-0.9,1-1.6,1.5c-0.6,0.5-1.2,1-1.9,1.4C224.1,144.9,223.6,145.3,223,145.6z M242.7,152.2c0.2,0,0.4,0,0.6-0.1
			c0.2,0,0.4,0,0.5-0.1c0.3-0.1,0.6-0.2,0.7-0.3c0.2-0.2,0.2-0.3,0.2-0.5c0-0.2,0-0.3-0.2-0.4c-0.1-0.1-0.3-0.2-0.5-0.2l-2.5,0.4
			l-2.9-11.8c0-0.1,0-0.2-0.1-0.3c-0.1-0.1-0.2-0.2-0.4-0.2c-0.2,0-0.3-0.1-0.5,0c-0.2,0-0.3,0.1-0.4,0.3c-1.3,3.3-2.4,6.1-3.3,8.4
			c-0.9,2.3-1.7,4.1-2.3,5.6c-0.6,1.5-1.1,2.6-1.5,3.4c-0.4,0.8-0.6,1.3-0.8,1.7c0.3,0.4,0.6,0.6,0.8,0.7c0.2,0.1,0.5,0.1,0.8-0.2
			c0.2-0.7,0.4-1.3,0.6-1.8c0.2-0.5,0.3-1,0.5-1.4c0.2-0.5,0.3-0.8,0.3-1c0.1-0.3,0.3-0.6,0.7-0.8c0.3-0.2,0.8-0.3,1.2-0.4
			c0.5-0.1,1-0.2,1.5-0.2c0.6,0,1.1-0.1,1.6-0.1c0.5,0,1.1,0,1.5,0c0.5,0,0.9,0,1.2-0.1l1.6,7.2c0.3,0.3,0.6,0.4,0.7,0.5
			c0.2,0.1,0.3,0,0.4,0c0.1-0.1,0.2-0.1,0.2-0.2c0-0.1,0.1-0.2,0.1-0.3l-1.5-7.2c0,0,0.1-0.1,0.2-0.1
			C242.3,152.3,242.5,152.2,242.7,152.2z M238.2,151.1c-0.6,0-1.1,0.1-1.7,0.1c-0.6,0-1.1,0.1-1.6,0.1c-0.5,0-0.9,0.1-1.1,0.1l4-9.9
			l1.9,9.4C239.3,151,238.8,151.1,238.2,151.1z M260.5,153.9c0.5-0.1,1.1-0.3,1.8-0.6c0.7-0.2,1.5-0.5,2.4-0.9
			c0.9-0.3,1.7-0.8,2.5-1.3c0.8-0.5,1.5-1.1,2.1-1.8c0.6-0.7,1-1.4,1.1-2.3c0-0.7-0.2-1.2-0.4-1.7c-0.3-0.5-0.6-0.9-1.1-1.2
			c-0.5-0.3-1-0.5-1.5-0.7c-0.6-0.1-1.2-0.2-1.8-0.2c-0.6,0-1.3,0.1-1.9,0.2c-0.7,0.1-1.3,0.3-1.8,0.5c-0.1-0.1-0.2-0.2-0.2-0.3
			c0-0.1-0.1-0.3-0.1-0.4c0-0.1-0.1-0.2-0.2-0.3c-0.1-0.1-0.2-0.1-0.3-0.2c-0.2,0-0.4,0.1-0.6,0.3c-0.3,0.3-0.5,0.5-0.8,0.9
			c-0.3,0.3-0.5,0.7-0.8,1c-0.2,0.3-0.5,0.6-0.6,0.7c0,0,0,0.1,0,0.1l0,0.1c0,0.2,0,0.3,0.1,0.4c0.1,0.1,0.2,0.2,0.3,0.2
			c0.1,0,0.2,0,0.3-0.1c0.1-0.1,0.2-0.1,0.4-0.2c0.1-0.1,0.2-0.2,0.4-0.3c0.1-0.1,0.2-0.2,0.3-0.2c-0.1,1.2-0.2,2.3-0.4,3.5
			c-0.2,1.2-0.4,2.5-0.7,3.8c-0.2,1.3-0.5,2.7-0.8,4.1c-0.3,1.4-0.5,2.9-0.8,4.5c0,0.1,0.1,0.2,0.3,0.2c0.1,0.1,0.3,0.1,0.4,0.2
			c0.1,0,0.3,0,0.4,0c0.1,0,0.2-0.1,0.2-0.2l1.5-7.7C259.9,154.2,260.1,154.1,260.5,153.9z M261.2,145.7c0.8-0.5,1.7-0.8,2.6-1
			c0.9-0.2,1.8-0.2,2.6-0.1c0.8,0.1,1.4,0.4,1.9,0.9c0.5,0.5,0.8,1.2,0.7,2.1c-0.3,0.8-0.8,1.5-1.5,2c-0.7,0.6-1.4,1-2.2,1.4
			c-0.8,0.4-1.7,0.7-2.6,1c-0.9,0.3-1.8,0.5-2.6,0.6L261.2,145.7z M275.9,152.9c0.8-0.3,1.7-0.7,2.5-1.1c0.9-0.4,1.6-0.8,2.4-1.1
			c0.7-0.4,1.3-0.8,1.7-1.2c0.5-0.4,0.7-0.8,0.7-1.2c0-0.4-0.2-0.8-0.7-1.3c-0.5-0.4-1.4-0.9-2.6-1.3c-0.8-0.2-1.5-0.3-2.2-0.3
			c-0.7,0-1.3,0.1-1.9,0.2c-0.6,0.1-1.1,0.2-1.5,0.4c-0.4,0.1-0.8,0.2-1.1,0.2l0.1-1.3c0-0.2-0.1-0.3-0.2-0.4
			c-0.1-0.1-0.2-0.2-0.4-0.2c-0.2,0-0.3,0-0.5,0c-0.2,0-0.3,0.1-0.3,0.2l-2.8,19.4c0,0.1,0.1,0.2,0.1,0.2c0.1,0.1,0.1,0.1,0.2,0.2
			c0.1,0,0.2,0,0.3,0c0.1,0,0.3-0.1,0.5-0.2l1.2-7.7l9.3,7.4c0.3,0.1,0.5,0,0.7-0.2c0.2-0.2,0.4-0.4,0.4-0.7l-9.9-8.2
			c0.4-0.3,0.9-0.6,1.6-0.9C274.3,153.6,275.1,153.2,275.9,152.9z M272,153.1c0.1-0.4,0.1-0.8,0.2-1.3c0.1-0.5,0.1-0.9,0.2-1.4
			c0.1-0.5,0.2-0.9,0.2-1.4c0.1-0.4,0.2-0.8,0.2-1.1c0.4-0.4,0.8-0.6,1.4-0.8c0.6-0.2,1.2-0.3,1.9-0.4s1.3-0.1,1.9-0.1
			c0.6,0,1.2,0.1,1.6,0.2c0.8,0.3,1.3,0.6,1.6,0.9c0.2,0.3,0.3,0.6,0.1,0.9c-0.2,0.3-0.5,0.6-1,1c-0.5,0.3-1.1,0.6-1.8,1
			c-0.7,0.3-1.4,0.6-2.1,0.9c-0.7,0.3-1.4,0.5-2,0.7c-0.6,0.2-1.2,0.4-1.6,0.5C272.3,152.9,272.1,153,272,153.1z M286.2,150.5
			l9.1-1.1c0.2,0,0.4-0.1,0.5-0.3c0.1-0.1,0.2-0.3,0.2-0.4c0-0.2,0-0.3,0-0.5c-0.1-0.1-0.2-0.2-0.3-0.3l-9.3,0.9c0-0.1,0-0.3,0-0.5
			c0-0.2,0-0.5,0-0.8c0-0.3-0.1-0.5-0.2-0.8c-0.1-0.2-0.2-0.4-0.4-0.5c-0.1-0.1-0.2-0.1-0.4,0c-0.1,0-0.2,0.1-0.3,0.2
			c-0.1,0.1-0.2,0.2-0.3,0.3c-0.1,0.1-0.1,0.2-0.1,0.3c0.1,1.5,0.1,3.1,0,4.6c-0.1,1.6-0.3,3.1-0.5,4.7c-0.2,1.6-0.5,3.1-0.8,4.7
			c-0.3,1.5-0.5,3-0.8,4.5c0.1,0.2,0.3,0.4,0.4,0.5c0.1,0.1,0.3,0.2,0.5,0.2c0.6,0,1.3,0,2.2-0.1c0.9-0.1,1.8-0.2,2.8-0.4
			c0.9-0.2,1.9-0.3,2.8-0.5c0.9-0.2,1.7-0.4,2.3-0.5c0.2-0.1,0.3-0.1,0.4-0.2c0.1-0.1,0.1-0.2,0-0.3c0-0.1-0.1-0.2-0.2-0.3
			c-0.1-0.1-0.2-0.2-0.3-0.2c-0.3,0-0.7,0-1.2,0.1c-0.5,0.1-1,0.2-1.6,0.3c-0.6,0.1-1.2,0.2-1.8,0.4c-0.6,0.1-1.2,0.2-1.8,0.3
			c-0.6,0.1-1.1,0.1-1.5,0.1c-0.4,0-0.8-0.1-1-0.3l1.1-6.1c0-0.2,0.3-0.4,0.7-0.6c0.4-0.2,0.9-0.3,1.5-0.4c0.6-0.1,1.2-0.2,1.9-0.3
			c0.7-0.1,1.3-0.2,1.9-0.3c0.6-0.1,1.1-0.3,1.5-0.5c0.4-0.2,0.6-0.5,0.7-0.8c-0.1-0.2-0.2-0.4-0.4-0.4c-0.1,0-0.3,0-0.4,0
			c-0.1,0-0.3,0.1-0.5,0.3l-6.8,1.3c0.1-1,0.2-2,0.3-3C285.9,152.5,286,151.5,286.2,150.5z M304.1,156.8c-0.2,1.1-0.3,2.2-0.5,3.3
			c-0.2,1.1-0.3,2.2-0.5,3.3c-0.1,1.1-0.2,2-0.3,3c-0.1,0.9-0.1,1.7-0.1,2.3c0.5,0.2,0.8,0.2,1,0.2c0.2,0,0.3-0.3,0.3-0.8
			c0.2-0.8,0.3-1.7,0.5-2.6c0.1-0.9,0.2-1.9,0.3-2.9c0.1-1,0.2-2,0.3-3c0.1-1,0.2-2,0.3-3c0.1-1,0.3-1.9,0.4-2.9
			c0.2-0.9,0.4-1.8,0.6-2.6c0.3,0,0.8,0,1.4,0.1c0.6,0.1,1.2,0.1,1.9,0.2c0.7,0.1,1.4,0.2,2,0.2c0.7,0.1,1.3,0.1,1.8,0.1
			c0.5,0,1,0,1.3-0.1c0.3-0.1,0.4-0.3,0.4-0.6c-0.1,0-0.2-0.1-0.4-0.1c-0.2,0-0.3-0.1-0.4-0.1c-2.6-0.3-5.2-0.6-7.7-1
			c-0.1,0-0.2-0.1-0.2-0.2c0-0.1-0.1-0.2-0.2-0.4c-0.1-0.1-0.1-0.3-0.2-0.4c-0.1-0.1-0.2-0.2-0.4-0.3c-0.1,0-0.3,0-0.4,0.1
			c-0.1,0.1-0.2,0.2-0.3,0.3c-0.1,0.1-0.2,0.3-0.3,0.4c-0.1,0.1-0.1,0.2-0.1,0.3l-7-0.6c-0.2,0-0.3,0-0.5,0.2
			c-0.2,0.1-0.3,0.3-0.3,0.5c-0.1,0.3,0,0.4,0.1,0.5c0.2,0.1,0.3,0.2,0.5,0.2c0.6,0.1,1.2,0.2,1.8,0.2c0.6,0,1.2,0,1.8,0.1
			c0.6,0,1.2,0,1.8,0.1c0.6,0,1.2,0.1,1.8,0.3c0,0.8-0.1,1.6-0.2,2.6C304.4,154.7,304.3,155.7,304.1,156.8z M322.3,152.1
			c-0.7-0.5-1.5-0.7-2.3-0.6c-0.9,0.1-1.8,0.4-2.7,1c-1,0.6-1.9,1.5-2.7,2.5c-0.9,1.1-1.6,2.4-2.3,3.9c-0.7,1.5-1.1,3.3-1.4,5.2
			c-0.1,0.5-0.1,1.1,0,1.8c0.1,0.7,0.3,1.4,0.6,2c0.3,0.7,0.7,1.2,1.3,1.7c0.6,0.5,1.3,0.8,2.1,0.9c1.1,0.1,2.1-0.2,3.1-0.7
			c0.9-0.5,1.8-1.2,2.6-2.1c0.8-0.9,1.4-1.9,1.9-3.1c0.5-1.1,1-2.3,1.2-3.6c0.3-1.2,0.4-2.4,0.5-3.6c0-1.2-0.1-2.3-0.4-3.2
			C323.5,153.3,323,152.6,322.3,152.1z M322.7,159.1c-0.1,0.9-0.3,1.8-0.6,2.7c-0.3,1-0.8,2-1.3,3c-0.6,1-1.2,1.8-1.8,2.6
			c-0.6,0.7-1.3,1.3-2,1.7c-0.7,0.4-1.4,0.5-2,0.3c-0.8-0.2-1.4-0.6-1.8-1.1c-0.4-0.5-0.7-1.2-0.8-1.9c-0.1-0.7-0.1-1.5,0-2.4
			c0.1-0.8,0.3-1.7,0.6-2.6c0.3-0.9,0.6-1.7,1-2.6c0.4-0.8,0.8-1.6,1.2-2.3c0.4-0.7,0.8-1.3,1.2-1.8c0.4-0.5,0.8-0.8,1.1-1
			c0.9-0.5,1.6-0.8,2.3-0.9c0.6-0.1,1.2,0.1,1.6,0.4c0.4,0.3,0.8,0.8,1,1.3c0.2,0.6,0.4,1.3,0.4,2
			C322.9,157.4,322.9,158.2,322.7,159.1z M323.5,172.5c-0.1,0.4-0.2,0.8-0.4,1.1c-0.1,0.4-0.3,0.7-0.4,0.9c0.1,0.3,0.2,0.5,0.4,0.6
			c0.2,0.1,0.5,0.1,0.8,0c0.4-0.8,0.7-1.6,0.8-2.2c0.2-0.6,0.3-1.1,0.3-1.6c0-0.4,0-0.8-0.1-1.1c-0.1-0.3-0.2-0.6-0.3-0.9
			c-0.2,0-0.4,0-0.6,0c-0.2,0-0.3,0-0.3,0.1c-0.1,0.1-0.1,0.2-0.2,0.3c0,0.1-0.1,0.3-0.1,0.6c0.1,0.3,0.1,0.7,0.1,1
			C323.7,171.7,323.6,172.1,323.5,172.5z M13.3,146.6c0.2,0,0.4,0,0.6-0.1c0.2,0,0.4,0,0.5-0.1c0.3-0.1,0.6-0.2,0.7-0.3
			c0.2-0.2,0.2-0.3,0.2-0.5c0-0.2,0-0.3-0.2-0.4c-0.1-0.1-0.3-0.2-0.5-0.2l-2.5,0.4l-2.9-11.8c0-0.1,0-0.2-0.1-0.3
			c-0.1-0.1-0.2-0.2-0.4-0.2c-0.2,0-0.3-0.1-0.5,0c-0.2,0-0.3,0.1-0.4,0.3c-1.3,3.3-2.4,6.1-3.3,8.4c-0.9,2.3-1.7,4.1-2.3,5.6
			c-0.6,1.5-1.1,2.6-1.5,3.4c-0.4,0.8-0.6,1.3-0.8,1.7c0.3,0.4,0.6,0.6,0.8,0.7c0.2,0.1,0.5,0.1,0.8-0.2c0.2-0.7,0.4-1.3,0.6-1.8
			c0.2-0.5,0.3-1,0.5-1.4c0.2-0.5,0.3-0.8,0.3-1c0.1-0.3,0.3-0.6,0.7-0.8c0.3-0.2,0.8-0.3,1.2-0.4c0.5-0.1,1-0.2,1.5-0.2
			c0.6,0,1.1-0.1,1.6-0.1c0.5,0,1.1,0,1.5,0c0.5,0,0.9,0,1.2-0.1l1.6,7.2c0.3,0.3,0.6,0.4,0.7,0.5c0.2,0.1,0.3,0,0.4,0
			c0.1-0.1,0.2-0.1,0.2-0.2c0-0.1,0.1-0.2,0.1-0.3l-1.5-7.2c0,0,0.1-0.1,0.2-0.1C12.9,146.6,13.1,146.6,13.3,146.6z M8.8,145.5
			c-0.6,0-1.1,0.1-1.7,0.1c-0.6,0-1.1,0.1-1.6,0.1c-0.5,0-0.9,0.1-1.1,0.1l4-9.9l1.9,9.4C9.9,145.4,9.4,145.4,8.8,145.5z
			 M27.3,144.7c-0.5-0.4-1.1-0.6-1.8-0.8c-0.7-0.2-1.4-0.2-2.1-0.2c-0.7,0-1.4,0.1-1.9,0.2c0.2-0.2,0.4-0.4,0.8-0.7
			c0.3-0.3,0.7-0.6,1.1-0.9c0.4-0.3,0.8-0.7,1.2-1.1c0.4-0.4,0.8-0.8,1.1-1.2c0.3-0.4,0.6-0.8,0.9-1.2c0.2-0.4,0.4-0.8,0.5-1.3
			c0.1-0.2,0-0.4-0.1-0.6c-0.1-0.2-0.2-0.3-0.4-0.5c-0.2-0.1-0.4-0.3-0.6-0.4c-0.2-0.1-0.4-0.2-0.6-0.2c-0.5-0.1-1-0.2-1.6-0.2
			c-0.6,0-1.1,0-1.7,0.1c-0.6,0.1-1.1,0.2-1.7,0.4c-0.5,0.2-1.1,0.4-1.5,0.5c0-0.1,0-0.2,0-0.4c0-0.1-0.1-0.3-0.1-0.5
			c0-0.2-0.1-0.3-0.2-0.4c-0.1-0.1-0.2-0.2-0.2-0.3c-0.1-0.1-0.3-0.1-0.4-0.1c-0.1,0-0.2,0-0.2,0.1c-0.1,0-0.1,0.1-0.1,0.2
			c0,0.1-0.1,0.2-0.1,0.2c-0.1,0.2-0.1,0.5-0.1,0.7c0,0.2,0,0.5,0.1,0.7l-2.7,17.3c0,0,0,0,0.1,0.1c0.1,0,0.1,0,0.2,0
			c0.4,0.1,0.6,0.1,0.7-0.1c0.1-0.2,0.2-0.5,0.3-0.8c0.1-0.5,0.2-0.9,0.3-1.4c0.1-0.5,0.2-1,0.3-1.5c0.1-0.5,0.2-1,0.3-1.5
			c0.1-0.5,0.2-1,0.3-1.5c0.2-0.4,0.6-0.8,1.2-1.2c0.6-0.4,1.2-0.6,2-0.9c0.7-0.2,1.5-0.4,2.3-0.5c0.8-0.1,1.5-0.1,2.1,0
			c0.6,0.1,1.1,0.3,1.4,0.6c0.3,0.3,0.4,0.7,0.3,1.2c-0.1,0.4-0.4,0.8-0.9,1.3c-0.5,0.5-1.1,0.9-1.7,1.4c-0.7,0.5-1.4,1-2.1,1.4
			c-0.8,0.5-1.4,0.9-2.1,1.2s-1.2,0.6-1.7,0.8c-0.5,0.2-0.7,0.3-0.8,0.3l0.4,1c0.1,0.1,0.4,0,0.8-0.1c0.4-0.1,0.8-0.3,1.3-0.5
			c0.5-0.2,1.1-0.5,1.7-0.9c0.6-0.3,1.2-0.7,1.9-1.2c0.6-0.4,1.2-0.9,1.8-1.3c0.6-0.5,1.1-0.9,1.6-1.4c0.5-0.5,0.8-1,1.1-1.4
			c0.3-0.5,0.4-0.9,0.4-1.3C28.1,145.7,27.8,145.1,27.3,144.7z M19.1,143.8c-0.6,0.3-1,0.6-1.3,0.8c0-0.3,0-0.7,0-1.2
			c0-0.5,0.1-1,0.2-1.5c0.1-0.5,0.2-1,0.3-1.5c0.1-0.5,0.2-0.9,0.3-1.2c0.1-0.3,0.3-0.6,0.6-0.9c0.3-0.3,0.6-0.5,1-0.6
			c0.4-0.2,0.8-0.3,1.3-0.4c0.5-0.1,0.9-0.1,1.4-0.2c0.4,0,0.9,0,1.3,0c0.4,0,0.7,0.1,1,0.2c0.3,0.3,0.3,0.7,0.2,1.1
			c-0.2,0.4-0.5,0.9-0.9,1.4c-0.4,0.5-0.9,1-1.6,1.5c-0.6,0.5-1.2,1-1.9,1.4C20.3,143.1,19.7,143.5,19.1,143.8z M40.6,138.3
			c-0.1-0.1-0.2-0.2-0.3-0.2c-0.1-0.1-0.3,0-0.4,0.1c-0.1,0.4-0.3,0.9-0.6,1.5c-0.3,0.6-0.6,1.2-0.9,1.9c-0.3,0.7-0.7,1.4-1,2
			c-0.4,0.7-0.7,1.3-1,1.9c-0.3,0.6-0.6,1.1-0.8,1.5c-0.2,0.4-0.4,0.7-0.5,0.8l-5.5-9.3c-0.2,0-0.4,0-0.6,0.1
			c-0.2,0.1-0.4,0.2-0.4,0.4l5.7,10.5l-3.4,7.2c0,0.2,0.1,0.4,0.3,0.4c0.2,0,0.5,0.1,0.7,0.1c0.6-1.2,1.1-2.2,1.6-3
			c0.4-0.8,0.8-1.5,1-2c0.3-0.5,0.5-1,0.6-1.3c0.2-0.3,0.3-0.6,0.4-0.8c0.1-0.2,0.2-0.5,0.3-0.7c0.1-0.2,0.2-0.5,0.3-0.8
			c0.1-0.3,0.3-0.7,0.5-1.2c0.2-0.5,0.5-1.1,0.9-1.8c0.4-0.7,0.8-1.6,1.4-2.7c0.5-1.1,1.2-2.4,2-3.9c0-0.1,0-0.2-0.1-0.4
			C40.7,138.6,40.7,138.4,40.6,138.3z M62.9,154.1c-0.5-0.2-1.1-0.5-1.9-0.7c-0.7-0.2-1.4-0.4-2.2-0.6c-0.7-0.2-1.4-0.4-2.2-0.6
			c-0.7-0.2-1.3-0.5-1.8-0.7c-0.5-0.3-0.9-0.6-1.2-1c-0.3-0.4-0.4-0.8-0.3-1.4c0.1-0.4,0.2-0.9,0.5-1.3c0.3-0.5,0.7-1,1.1-1.4
			c0.4-0.5,0.9-0.9,1.5-1.3c0.5-0.4,1.1-0.8,1.6-1.1c0.6-0.3,1.1-0.5,1.6-0.7c0.5-0.1,1-0.2,1.4-0.1l0.9,0.5c0.5,0.1,0.9,0,1.2-0.1
			c0.4-0.2,0.6-0.5,0.6-1c0-0.2,0-0.4-0.1-0.5c-0.1-0.1-0.2-0.2-0.3-0.2c-0.1-0.1-0.3-0.1-0.4-0.1c-0.2,0-0.3,0-0.5-0.1
			c-0.6-0.1-1.2-0.1-2,0.1c-0.7,0.1-1.5,0.4-2.2,0.7c-0.8,0.3-1.5,0.7-2.2,1.2c-0.7,0.5-1.4,1-2,1.6c-0.6,0.6-1.1,1.2-1.5,1.8
			c-0.4,0.6-0.7,1.3-0.8,2c-0.1,0.7,0,1.3,0.3,1.8c0.3,0.5,0.7,1,1.2,1.3c0.5,0.4,1.1,0.7,1.8,1c0.7,0.3,1.4,0.5,2.1,0.7
			c0.7,0.2,1.5,0.4,2.2,0.6c0.7,0.2,1.3,0.3,1.9,0.5c0.5,0.2,1,0.4,1.3,0.6c0.3,0.2,0.5,0.4,0.4,0.7c-0.3,0.4-0.8,0.8-1.5,1.1
			c-0.6,0.3-1.3,0.6-2.1,0.8c-0.8,0.2-1.6,0.4-2.4,0.5c-0.8,0.1-1.5,0.3-2.2,0.4c-0.7,0.1-1.2,0.2-1.7,0.3c-0.4,0.1-0.7,0.2-0.7,0.2
			c-0.1,0.2-0.1,0.4,0,0.5c0.1,0.1,0.2,0.2,0.4,0.2c0.5,0.1,1.2,0.1,2,0.1c0.8,0,1.6-0.1,2.4-0.2c0.8-0.1,1.7-0.3,2.5-0.6
			c0.8-0.2,1.6-0.5,2.3-0.9c0.7-0.3,1.2-0.7,1.7-1.1c0.4-0.4,0.7-0.8,0.8-1.3c0.1-0.5,0-0.9-0.3-1.2
			C63.8,154.7,63.4,154.4,62.9,154.1z M78.2,151.1c0.4-0.8,0.7-1.5,1-2.1c0.3-0.6,0.5-1.1,0.7-1.5c0.2-0.4,0.3-0.6,0.4-0.5
			l-1.1,17.3c0.1,0.1,0.3,0.3,0.5,0.4c0.2,0.1,0.3,0.2,0.5,0.2c0.2,0,0.3,0,0.4,0c0.1-0.1,0.2-0.2,0.3-0.4c0-1.7,0-3.4,0-5.1
			c0.1-1.7,0.1-3.4,0.2-5.1c0.1-1.7,0.2-3.3,0.3-4.9c0.1-1.6,0.2-3.1,0.3-4.6c0-0.3-0.1-0.4-0.2-0.6c-0.1-0.1-0.2-0.2-0.4-0.2
			c-0.1,0-0.3,0-0.4,0c-0.1,0.1-0.2,0.1-0.3,0.2c-0.9,1.8-1.7,3.4-2.3,4.6c-0.6,1.3-1.2,2.3-1.6,3.2c-0.4,0.8-0.8,1.5-1,2
			c-0.2,0.5-0.4,0.8-0.6,1c-0.1,0.2-0.2,0.4-0.3,0.4c-0.1,0-0.1,0.1-0.2,0.1c-0.4-0.6-0.7-1.3-0.9-2.2c-0.3-0.8-0.5-1.7-0.7-2.6
			c-0.2-0.9-0.5-1.8-0.7-2.7c-0.3-0.9-0.5-1.8-0.9-2.5c-0.3-0.8-0.8-1.5-1.2-2.1c-0.5-0.6-1-1.1-1.7-1.4c-0.2,0-0.3,0-0.5,0
			c-0.1,0.1-0.2,0.2-0.3,0.6c0,1.6,0,3.2-0.1,4.8c-0.1,1.6-0.2,3.3-0.4,4.9c-0.2,1.6-0.3,3.3-0.5,4.9c-0.2,1.6-0.2,3.2-0.3,4.8
			c0.1,0.3,0.3,0.4,0.4,0.5c0.2,0.1,0.3,0.1,0.5,0c0.2-0.1,0.3-0.2,0.4-0.3c0.1-0.1,0.1-0.3,0.1-0.5c0.2-1.2,0.3-2.6,0.4-4
			c0.1-1.5,0.1-2.9,0.2-4.4c0.1-1.5,0.1-3,0.2-4.4c0.1-1.5,0.2-2.8,0.4-4c0.3,0.3,0.6,0.7,0.9,1.2c0.3,0.6,0.6,1.2,0.9,2
			c0.3,0.8,0.5,1.6,0.8,2.4c0.3,0.9,0.5,1.7,0.7,2.5c0.2,0.8,0.5,1.6,0.7,2.3c0.2,0.7,0.4,1.2,0.6,1.7c0.1,0.6,0.3,0.8,0.5,0.8
			c0.2,0,0.5-0.2,0.9-0.6c0.3-0.4,0.7-0.9,1.1-1.6c0.4-0.7,0.8-1.4,1.2-2.2C77.5,152.7,77.9,151.9,78.2,151.1z M86,149.2l9.1-1.1
			c0.2,0,0.4-0.1,0.5-0.3c0.1-0.1,0.2-0.3,0.2-0.4c0-0.2,0-0.3,0-0.5c-0.1-0.1-0.2-0.2-0.3-0.3l-9.3,0.9c0-0.1,0-0.3,0-0.5
			c0-0.2,0-0.5,0-0.8c0-0.3-0.1-0.5-0.2-0.8c-0.1-0.2-0.2-0.4-0.4-0.5c-0.1-0.1-0.2-0.1-0.4,0c-0.1,0-0.2,0.1-0.3,0.2
			s-0.2,0.2-0.3,0.3c-0.1,0.1-0.1,0.2-0.1,0.3c0.1,1.5,0.1,3.1,0,4.6c-0.1,1.6-0.3,3.1-0.5,4.7c-0.2,1.6-0.5,3.1-0.8,4.7
			c-0.3,1.5-0.5,3-0.8,4.5c0.1,0.2,0.3,0.4,0.4,0.5c0.1,0.1,0.3,0.2,0.5,0.2c0.6,0,1.3,0,2.2-0.1c0.9-0.1,1.8-0.2,2.8-0.4
			c0.9-0.2,1.9-0.3,2.8-0.5c0.9-0.2,1.7-0.4,2.3-0.5c0.2-0.1,0.3-0.1,0.4-0.2c0.1-0.1,0.1-0.2,0-0.3c0-0.1-0.1-0.2-0.2-0.3
			c-0.1-0.1-0.2-0.2-0.3-0.2c-0.3,0-0.7,0-1.2,0.1c-0.5,0.1-1,0.2-1.6,0.3c-0.6,0.1-1.2,0.2-1.8,0.4c-0.6,0.1-1.2,0.2-1.8,0.3
			c-0.6,0.1-1.1,0.1-1.5,0.1c-0.4,0-0.8-0.1-1-0.3l1.1-6.1c0-0.2,0.3-0.4,0.7-0.6c0.4-0.2,0.9-0.3,1.5-0.4c0.6-0.1,1.2-0.2,1.9-0.3
			c0.7-0.1,1.3-0.2,1.9-0.3c0.6-0.1,1.1-0.3,1.5-0.5c0.4-0.2,0.6-0.5,0.7-0.8c-0.1-0.2-0.2-0.4-0.4-0.4c-0.1,0-0.3,0-0.4,0
			c-0.1,0-0.3,0.1-0.5,0.3l-6.8,1.3c0.1-1,0.2-2,0.3-3C85.7,151.2,85.9,150.2,86,149.2z M117.5,148.4c0.1,0,0.2,0.1,0.4,0
			c0.1,0,0.3-0.1,0.4-0.1c0.1-0.1,0.2-0.1,0.2-0.2l2.9-3.9c0-0.2,0-0.3-0.1-0.4c-0.1-0.1-0.2-0.2-0.3-0.3c-0.1-0.1-0.3-0.1-0.4-0.1
			c-0.2,0-0.3,0-0.4,0.1l-2.2,2.9l-1.6-3.4c-0.1-0.1-0.2-0.1-0.4-0.1c-0.2,0-0.4,0-0.5,0.1c-0.2,0.1-0.3,0.2-0.4,0.3
			c-0.1,0.1-0.1,0.3,0,0.5l2.2,4.4C117.3,148.2,117.4,148.3,117.5,148.4z M115.8,157.4c-0.2,1.1-0.3,2.2-0.5,3.3
			c-0.2,1.1-0.3,2.2-0.5,3.3c-0.1,1.1-0.2,2-0.3,3c-0.1,0.9-0.1,1.7-0.1,2.3c0.5,0.2,0.8,0.2,1,0.2c0.2,0,0.3-0.3,0.3-0.8
			c0.2-0.8,0.3-1.7,0.5-2.6c0.1-0.9,0.2-1.9,0.3-2.9c0.1-1,0.2-2,0.3-3c0.1-1,0.2-2,0.3-3c0.1-1,0.3-1.9,0.4-2.9
			c0.2-0.9,0.4-1.8,0.6-2.6c0.3,0,0.8,0,1.4,0.1c0.6,0.1,1.2,0.1,1.9,0.2c0.7,0.1,1.4,0.2,2,0.2c0.7,0.1,1.3,0.1,1.8,0.1
			c0.5,0,1,0,1.3-0.1c0.3-0.1,0.4-0.3,0.4-0.6c-0.1,0-0.2-0.1-0.4-0.1c-0.2,0-0.3-0.1-0.4-0.1c-2.6-0.3-5.2-0.6-7.7-1
			c-0.1,0-0.2-0.1-0.2-0.2c0-0.1-0.1-0.2-0.2-0.4c-0.1-0.1-0.1-0.3-0.2-0.4c-0.1-0.1-0.2-0.2-0.4-0.3c-0.1,0-0.3,0-0.4,0.1
			c-0.1,0.1-0.2,0.2-0.3,0.3c-0.1,0.1-0.2,0.3-0.3,0.4c-0.1,0.1-0.1,0.2-0.1,0.3l-7-0.6c-0.2,0-0.3,0-0.5,0.2
			c-0.2,0.1-0.3,0.3-0.3,0.5c-0.1,0.3,0,0.4,0.1,0.5c0.2,0.1,0.3,0.2,0.5,0.2c0.6,0.1,1.2,0.2,1.8,0.2c0.6,0,1.2,0,1.8,0.1
			c0.6,0,1.2,0,1.8,0.1c0.6,0,1.2,0.1,1.8,0.3c0,0.8-0.1,1.6-0.2,2.6C116.1,155.3,116,156.3,115.8,157.4z M136.2,163.4l-2.5,0.4
			l-2.9-11.8c0-0.1,0-0.2-0.1-0.3c-0.1-0.1-0.2-0.2-0.4-0.2c-0.2,0-0.3-0.1-0.5,0c-0.2,0-0.3,0.1-0.4,0.3c-1.3,3.3-2.4,6.1-3.3,8.4
			c-0.9,2.3-1.7,4.1-2.3,5.6c-0.6,1.5-1.1,2.6-1.5,3.4c-0.4,0.8-0.6,1.3-0.8,1.7c0.3,0.4,0.6,0.6,0.8,0.7c0.2,0.1,0.5,0.1,0.8-0.2
			c0.2-0.7,0.4-1.3,0.6-1.8c0.2-0.5,0.3-1,0.5-1.4c0.2-0.5,0.3-0.8,0.3-1c0.1-0.3,0.3-0.6,0.7-0.8c0.3-0.2,0.8-0.3,1.2-0.4
			c0.5-0.1,1-0.2,1.5-0.2c0.6,0,1.1-0.1,1.6-0.1c0.5,0,1.1,0,1.5,0c0.5,0,0.9,0,1.2-0.1l1.6,7.2c0.3,0.3,0.6,0.4,0.7,0.5
			s0.3,0,0.4,0c0.1-0.1,0.2-0.1,0.2-0.2c0-0.1,0.1-0.2,0.1-0.3l-1.5-7.2c0,0,0.1-0.1,0.2-0.1c0.1,0,0.3,0,0.5-0.1
			c0.2,0,0.4,0,0.6-0.1c0.2,0,0.4,0,0.5-0.1c0.3-0.1,0.6-0.2,0.7-0.3c0.2-0.2,0.2-0.3,0.2-0.5c0-0.2,0-0.3-0.2-0.4
			C136.5,163.5,136.4,163.4,136.2,163.4z M130.3,163.9c-0.6,0-1.1,0.1-1.7,0.1c-0.6,0-1.1,0.1-1.6,0.1c-0.5,0-0.9,0.1-1.1,0.1l4-9.9
			l1.9,9.4C131.4,163.8,130.8,163.8,130.3,163.9z M164.3,156.5c-0.1,0-0.3,0-0.4,0c-0.1,0.1-0.2,0.1-0.3,0.2
			c-0.9,1.8-1.7,3.4-2.3,4.6c-0.6,1.3-1.2,2.3-1.6,3.2c-0.4,0.8-0.8,1.5-1,2c-0.2,0.5-0.4,0.8-0.6,1c-0.1,0.2-0.2,0.4-0.3,0.4
			c-0.1,0-0.1,0.1-0.2,0.1c-0.4-0.6-0.7-1.3-0.9-2.2c-0.3-0.8-0.5-1.7-0.7-2.6c-0.2-0.9-0.5-1.8-0.7-2.7c-0.3-0.9-0.5-1.8-0.9-2.5
			c-0.3-0.8-0.8-1.5-1.2-2.1c-0.5-0.6-1-1.1-1.7-1.4c-0.2,0-0.3,0-0.5,0c-0.1,0.1-0.2,0.2-0.3,0.6c0,1.6,0,3.2-0.1,4.8
			c-0.1,1.6-0.2,3.3-0.4,4.9c-0.2,1.6-0.3,3.3-0.5,4.9c-0.2,1.6-0.2,3.2-0.3,4.8c0.1,0.3,0.3,0.4,0.4,0.5c0.2,0.1,0.3,0.1,0.5,0
			c0.2-0.1,0.3-0.2,0.4-0.3c0.1-0.1,0.1-0.3,0.1-0.5c0.2-1.2,0.3-2.6,0.4-4c0.1-1.5,0.1-2.9,0.2-4.4c0.1-1.5,0.1-3,0.2-4.4
			c0.1-1.5,0.2-2.8,0.4-4c0.3,0.3,0.6,0.7,0.9,1.2c0.3,0.6,0.6,1.2,0.9,2c0.3,0.8,0.5,1.6,0.8,2.4c0.3,0.9,0.5,1.7,0.7,2.5
			c0.2,0.8,0.5,1.6,0.7,2.3c0.2,0.7,0.4,1.2,0.6,1.7c0.1,0.6,0.3,0.8,0.5,0.8c0.2,0,0.5-0.2,0.9-0.6c0.3-0.4,0.7-0.9,1.1-1.6
			c0.4-0.7,0.8-1.4,1.2-2.2c0.4-0.8,0.8-1.6,1.1-2.4c0.4-0.8,0.7-1.5,1-2.1c0.3-0.6,0.5-1.1,0.7-1.5c0.2-0.4,0.3-0.6,0.4-0.5
			l-1.1,17.3c0.1,0.1,0.3,0.3,0.5,0.4c0.2,0.1,0.3,0.2,0.5,0.2c0.2,0,0.3,0,0.4,0c0.1-0.1,0.2-0.2,0.3-0.4c0-1.7,0-3.4,0-5.1
			c0.1-1.7,0.1-3.4,0.2-5.1c0.1-1.7,0.2-3.3,0.3-4.9c0.1-1.6,0.2-3.1,0.3-4.6c0-0.3-0.1-0.4-0.2-0.6
			C164.6,156.6,164.5,156.6,164.3,156.5z M179.3,164.7c0-1.2-0.1-2.3-0.4-3.2c-0.3-1.1-0.8-1.8-1.5-2.3c-0.7-0.5-1.5-0.7-2.3-0.6
			c-0.9,0.1-1.8,0.4-2.7,1c-1,0.6-1.9,1.5-2.7,2.5c-0.9,1.1-1.6,2.4-2.3,3.9c-0.7,1.5-1.1,3.3-1.4,5.2c-0.1,0.5-0.1,1.1,0,1.8
			c0.1,0.7,0.3,1.4,0.6,2c0.3,0.7,0.7,1.2,1.3,1.7c0.6,0.5,1.3,0.8,2.1,0.9c1.1,0.1,2.1-0.2,3.1-0.7c0.9-0.5,1.8-1.2,2.6-2.1
			c0.8-0.9,1.4-1.9,1.9-3.1c0.5-1.1,1-2.3,1.2-3.6C179.1,167.1,179.2,165.9,179.3,164.7z M177.8,166.3c-0.1,0.9-0.4,1.8-0.6,2.7
			c-0.3,1-0.8,2-1.3,3c-0.6,1-1.2,1.8-1.8,2.6c-0.6,0.7-1.3,1.3-2,1.7c-0.7,0.4-1.4,0.5-2,0.3c-0.8-0.2-1.4-0.6-1.8-1.1
			c-0.4-0.5-0.7-1.2-0.8-1.9c-0.1-0.7-0.1-1.5,0-2.4c0.1-0.8,0.3-1.7,0.6-2.6c0.3-0.9,0.6-1.7,1-2.6c0.4-0.8,0.8-1.6,1.2-2.3
			c0.4-0.7,0.8-1.3,1.2-1.8c0.4-0.5,0.8-0.8,1.1-1c0.9-0.5,1.6-0.8,2.3-0.9c0.6-0.1,1.2,0.1,1.6,0.4c0.4,0.3,0.8,0.8,1,1.3
			c0.2,0.6,0.4,1.3,0.5,2C177.9,164.5,177.9,165.4,177.8,166.3z M190.3,164.2c0.1-0.6,0.1-1,0.1-1.2c0-0.2,0-0.4,0.1-0.6
			c0-0.2,0-0.4,0-0.6c0-0.2-0.1-0.3-0.2-0.4c-0.1-0.1-0.3-0.2-0.5-0.2c-0.2,0-0.4,0-0.5,0.1c-0.1,0.1-0.2,0.3-0.3,0.6
			c0,0.5,0.1,1,0.1,1.3c0,0.4,0,0.7,0,1.1c0,0.3-0.1,0.7-0.1,1c0,0.3-0.1,0.7-0.2,1.1c-0.2,0.8-0.5,1.4-1,1.8
			c-0.5,0.4-1.1,0.7-1.8,0.9c-0.7,0.2-1.4,0.4-2.3,0.5c-0.8,0.1-1.6,0.3-2.4,0.5c0-0.6,0-1.3,0.1-2.2c0.1-0.8,0.2-1.7,0.3-2.6
			c0.1-0.9,0.3-1.8,0.4-2.7c0.1-0.9,0.2-1.7,0.3-2.3c-0.1-0.1-0.2-0.2-0.4-0.3c-0.1-0.1-0.3-0.1-0.4-0.1c-0.1,0-0.3,0-0.4,0.1
			c-0.1,0.1-0.2,0.2-0.2,0.5l-2.8,18.9c0,0.1,0,0.2,0.1,0.3c0.1,0.1,0.2,0.1,0.3,0.1c0.2,0,0.5,0,0.7-0.2c0.2-0.2,0.3-0.4,0.4-0.6
			c0-0.3,0.1-0.7,0.1-1.1c0-0.5,0.1-0.9,0.1-1.4c0-0.5,0.1-1,0.2-1.5c0.1-0.5,0.2-1,0.3-1.4c0.1-0.4,0.3-0.8,0.5-1.2
			c0.2-0.3,0.4-0.6,0.8-0.7c0.1-0.1,0.4-0.2,0.7-0.2c0.4-0.1,0.8-0.2,1.2-0.3c0.4-0.1,0.9-0.2,1.4-0.3c0.5-0.1,1-0.2,1.4-0.3
			c0.4-0.1,0.8-0.2,1.2-0.3c0.3-0.1,0.6-0.2,0.7-0.2c0,0.2-0.1,0.5-0.1,1c-0.1,0.5-0.2,1-0.3,1.7c-0.1,0.6-0.2,1.3-0.3,2
			c-0.1,0.7-0.2,1.4-0.3,2c-0.1,0.6-0.2,1.2-0.3,1.7c-0.1,0.5-0.1,0.8-0.2,1c0,0.3-0.1,0.6-0.1,0.9c0,0.3,0.1,0.5,0.4,0.8
			c0.2,0,0.4-0.1,0.5-0.1c0.1-0.1,0.2-0.2,0.3-0.3c0.1-0.1,0.1-0.2,0.1-0.4c0-0.1,0.1-0.3,0.1-0.4c0.1-0.3,0.1-0.8,0.2-1.3
			c0.1-0.5,0.2-1.1,0.3-1.7c0.1-0.6,0.2-1.1,0.3-1.7c0.1-0.5,0.1-1,0.2-1.3c0-0.3,0.1-0.7,0.2-1.2c0.1-0.6,0.1-1.2,0.2-1.9
			c0.1-0.7,0.2-1.4,0.3-2.2c0.1-0.8,0.2-1.5,0.3-2.2C190.2,165.4,190.3,164.7,190.3,164.2z M201.9,178.9l-10.4,0.6l1.8-17.1
			c0-0.4,0-0.6-0.1-0.8c-0.1-0.2-0.2-0.3-0.4-0.3c-0.2,0-0.3,0-0.5,0.1c-0.2,0.1-0.2,0.3-0.3,0.5c0,0.2-0.1,0.6-0.1,1.3
			c-0.1,0.7-0.2,1.7-0.3,3c-0.2,1.4-0.4,3.2-0.7,5.4c-0.3,2.2-0.6,5-1.1,8.3c-0.1,0.7,0.1,1,0.5,1.1l12-0.7
			C203.1,179.5,202.9,179,201.9,178.9z M207.4,163.7c-0.1-0.1-0.3-0.1-0.4-0.2c-0.1,0-0.3,0-0.4,0c-0.1,0-0.2,0.1-0.3,0.2l-2.4,19.4
			c0.1,0.1,0.2,0.2,0.3,0.3c0.1,0.1,0.3,0.1,0.4,0.1c0.1,0,0.3,0,0.4-0.1c0.1-0.1,0.2-0.2,0.2-0.4l2.5-19
			C207.6,163.8,207.5,163.7,207.4,163.7z M222.6,177.2c0.6-0.8,1.4-1.6,2.3-2.5c0.9-0.9,2-1.9,3.2-3.1c1.2-1.1,2.6-2.4,4.3-4
			c-0.1-0.3-0.4-0.5-0.8-0.4c-0.4,0.1-0.8,0.3-1.4,0.6c-0.5,0.3-1.1,0.8-1.8,1.4c-0.6,0.6-1.3,1.2-2,1.8c-0.7,0.7-1.3,1.3-1.9,2
			c-0.6,0.7-1.2,1.3-1.7,1.9c-0.5,0.6-0.9,1.1-1.3,1.5c-0.3,0.4-0.5,0.6-0.6,0.7c0.2-1.5,0.4-2.9,0.6-4c0.2-1.1,0.3-2.1,0.4-3
			c0.1-0.8,0.2-1.5,0.3-2c0.1-0.5,0.1-0.9,0.2-1.2c0-0.3,0-0.5,0-0.6c0-0.1-0.1-0.2-0.1-0.2c-0.1-0.2-0.2-0.2-0.3-0.3
			c-0.1,0-0.2,0-0.4,0.1c-0.1,0.1-0.2,0.2-0.3,0.3c-0.1,0.1-0.2,0.3-0.2,0.5l-2.5,18.7c0.2,0.3,0.5,0.3,0.7,0.3
			c0.3-0.1,0.4-0.3,0.4-0.6c0-0.2,0.1-0.5,0.2-0.8c0.1-0.3,0.2-0.7,0.3-1c0.1-0.4,0.1-0.7,0.2-1.1c0.1-0.3,0.1-0.6,0.1-0.9l8.4,5.6
			c0.3,0.1,0.6,0,0.8-0.2c0.2-0.2,0.3-0.4,0.4-0.7l-9-6.1C221.5,178.8,222,178,222.6,177.2z M244.3,171.4c-0.3-1.1-0.8-1.8-1.5-2.3
			c-0.7-0.5-1.5-0.7-2.3-0.6c-0.9,0.1-1.8,0.4-2.7,1c-1,0.6-1.9,1.4-2.7,2.5c-0.9,1.1-1.6,2.4-2.3,3.9c-0.7,1.5-1.1,3.3-1.4,5.2
			c-0.1,0.5-0.1,1.1,0,1.8c0.1,0.7,0.3,1.4,0.6,2c0.3,0.7,0.7,1.2,1.3,1.7c0.6,0.5,1.3,0.8,2.1,0.9c1.1,0.1,2.1-0.2,3.1-0.7
			c0.9-0.5,1.8-1.2,2.6-2.1c0.8-0.9,1.4-1.9,1.9-3.1c0.5-1.1,1-2.3,1.2-3.6c0.3-1.2,0.4-2.4,0.5-3.6
			C244.7,173.4,244.6,172.4,244.3,171.4z M243.2,176.2c-0.1,0.9-0.4,1.8-0.6,2.7c-0.3,1-0.8,2-1.3,3c-0.6,1-1.2,1.8-1.8,2.6
			c-0.6,0.7-1.3,1.3-2,1.7c-0.7,0.4-1.4,0.5-2,0.3c-0.8-0.2-1.4-0.6-1.8-1.1c-0.4-0.5-0.7-1.2-0.8-1.9c-0.1-0.7-0.1-1.5,0-2.4
			c0.1-0.8,0.3-1.7,0.6-2.6c0.3-0.9,0.6-1.7,1-2.6c0.4-0.8,0.8-1.6,1.2-2.3c0.4-0.7,0.8-1.3,1.2-1.8c0.4-0.5,0.8-0.8,1.1-1
			c0.9-0.5,1.6-0.8,2.3-0.9c0.6-0.1,1.2,0.1,1.6,0.4c0.4,0.3,0.8,0.8,1,1.3c0.2,0.6,0.4,1.3,0.4,2
			C243.4,174.5,243.3,175.3,243.2,176.2z M257.8,171.7c-0.1-0.3-0.3-0.5-0.6-0.6c-0.3,0-0.5,0-0.6,0.3c-0.1,0.2-0.2,0.4-0.2,0.7
			c0.1,0.1,0.1,0.4,0.2,0.8c0,0.4,0,1,0,1.6c0,0.6-0.1,1.4-0.2,2.2c-0.1,0.8-0.2,1.6-0.3,2.5c-0.1,0.8-0.2,1.7-0.3,2.5
			c-0.1,0.8-0.2,1.6-0.4,2.3c-0.1,0.7-0.2,1.3-0.4,1.8c-0.1,0.5-0.2,0.9-0.3,1.1l-6.3-15.8c0.1,0,0-0.1,0-0.3
			c-0.1-0.2-0.2-0.5-0.4-0.7c-0.2-0.2-0.4-0.4-0.6-0.6c-0.2-0.1-0.4-0.1-0.6,0.1l-1.9,19.2c-0.1,0-0.1,0.1,0,0.3
			c0.1,0.1,0.3,0.2,0.5,0.3c0.2,0.1,0.4,0.1,0.6,0c0.2-0.1,0.3-0.2,0.4-0.6c0.2-1,0.3-2.2,0.4-3.5c0.1-1.3,0.2-2.7,0.4-4.1
			c0.1-1.4,0.3-2.7,0.5-4.1c0.2-1.3,0.4-2.5,0.6-3.5c0.2,0.3,0.5,0.8,0.9,1.6c0.3,0.8,0.7,1.7,1.1,2.7c0.4,1,0.8,2.1,1.2,3.3
			c0.4,1.1,0.8,2.2,1.2,3.3c0.4,1,0.7,2,1,2.8c0.3,0.8,0.6,1.4,0.8,1.8c-0.1,0.3-0.2,0.5-0.2,0.6c0,0.2,0,0.3,0.1,0.4
			c0.1,0.1,0.2,0.2,0.3,0.3c0.1,0.1,0.3,0.1,0.4,0.1c0.3,0,0.6,0,0.9-0.1c0.3-0.1,0.4-0.4,0.5-0.7c0.1-0.4,0.1-0.8,0-1.1
			c-0.1-0.3-0.1-0.7,0-1.2c0-0.3,0.1-0.8,0.2-1.5c0.1-0.7,0.2-1.5,0.3-2.3c0.1-0.9,0.3-1.8,0.4-2.7c0.1-0.9,0.3-1.9,0.4-2.7
			c0.1-0.9,0.2-1.6,0.3-2.3c0.1-0.7,0.2-1.2,0.2-1.5c0-0.1,0-0.3,0.1-0.7c0-0.4,0-0.8,0-1.2C258,172.4,257.9,172,257.8,171.7z
			 M274.4,175.1c0.7,0.1,1.3,0.1,1.8,0.1c0.5,0,1,0,1.3-0.1c0.3-0.1,0.4-0.3,0.4-0.6c-0.1,0-0.2-0.1-0.4-0.1c-0.2,0-0.3-0.1-0.4-0.1
			c-2.6-0.3-5.2-0.6-7.7-1c-0.1,0-0.2-0.1-0.2-0.2c0-0.1-0.1-0.2-0.2-0.4c-0.1-0.1-0.1-0.3-0.2-0.4c-0.1-0.1-0.2-0.2-0.4-0.3
			c-0.1,0-0.3,0-0.4,0.1c-0.1,0.1-0.2,0.2-0.3,0.3c-0.1,0.1-0.2,0.3-0.3,0.4c-0.1,0.1-0.1,0.2-0.1,0.3l-7-0.6c-0.2,0-0.3,0-0.5,0.2
			c-0.2,0.1-0.3,0.3-0.3,0.5c-0.1,0.3,0,0.4,0.1,0.5c0.2,0.1,0.3,0.2,0.5,0.2c0.6,0.1,1.2,0.2,1.8,0.2c0.6,0,1.2,0,1.8,0.1
			c0.6,0,1.2,0,1.8,0.1c0.6,0,1.2,0.1,1.8,0.3c0,0.8-0.1,1.6-0.2,2.6c-0.1,1-0.3,2-0.4,3.1c-0.2,1.1-0.3,2.2-0.5,3.3
			c-0.2,1.1-0.3,2.2-0.5,3.3c-0.1,1.1-0.2,2-0.3,3c-0.1,0.9-0.1,1.7-0.1,2.3c0.5,0.2,0.8,0.2,1,0.2c0.2,0,0.3-0.3,0.3-0.8
			c0.2-0.8,0.3-1.7,0.5-2.6c0.1-0.9,0.2-1.9,0.3-2.9c0.1-1,0.2-2,0.3-3c0.1-1,0.2-2,0.3-3c0.1-1,0.3-1.9,0.4-2.9
			c0.2-0.9,0.4-1.8,0.6-2.6c0.3,0,0.8,0,1.4,0.1c0.6,0.1,1.2,0.1,1.9,0.2C273,174.9,273.7,175,274.4,175.1z M285.6,187.8
			c0.2,0,0.4,0,0.6-0.1c0.2,0,0.4,0,0.5-0.1c0.3-0.1,0.6-0.2,0.7-0.3c0.2-0.2,0.2-0.3,0.2-0.5c0-0.2,0-0.3-0.2-0.4
			c-0.1-0.1-0.3-0.2-0.5-0.2l-2.5,0.4l-2.9-11.8c0-0.1,0-0.2-0.1-0.3c-0.1-0.1-0.2-0.2-0.4-0.2c-0.2,0-0.3-0.1-0.5,0
			c-0.2,0-0.3,0.1-0.4,0.3c-1.3,3.3-2.4,6.1-3.3,8.4c-0.9,2.3-1.7,4.1-2.3,5.6c-0.6,1.5-1.1,2.6-1.5,3.4c-0.4,0.8-0.6,1.3-0.8,1.7
			c0.3,0.4,0.6,0.6,0.8,0.7c0.2,0.1,0.5,0.1,0.8-0.2c0.2-0.7,0.4-1.3,0.6-1.8c0.2-0.5,0.3-1,0.5-1.4c0.2-0.5,0.3-0.8,0.3-1
			c0.1-0.3,0.3-0.6,0.7-0.8c0.3-0.2,0.8-0.3,1.2-0.4c0.5-0.1,1-0.2,1.5-0.2c0.6,0,1.1-0.1,1.6-0.1c0.5,0,1.1,0,1.5,0
			c0.5,0,0.9,0,1.2-0.1l1.6,7.2c0.3,0.3,0.6,0.4,0.7,0.5c0.2,0.1,0.3,0,0.4,0c0.1-0.1,0.2-0.1,0.2-0.2c0-0.1,0.1-0.2,0.1-0.3
			l-1.5-7.2c0,0,0.1-0.1,0.2-0.1C285.2,187.8,285.4,187.8,285.6,187.8z M281.1,186.7c-0.6,0-1.1,0.1-1.7,0.1c-0.6,0-1.1,0.1-1.6,0.1
			c-0.5,0-0.9,0.1-1.1,0.1l4-9.9l1.9,9.4C282.2,186.6,281.7,186.7,281.1,186.7z M293.4,185c0.9-0.9,2-1.9,3.2-3.1
			c1.2-1.1,2.6-2.4,4.3-4c-0.1-0.3-0.4-0.5-0.8-0.4c-0.4,0.1-0.8,0.3-1.4,0.6c-0.5,0.3-1.1,0.8-1.8,1.4c-0.6,0.6-1.3,1.2-2,1.8
			c-0.7,0.7-1.3,1.3-1.9,2c-0.6,0.7-1.2,1.3-1.7,1.9c-0.5,0.6-0.9,1.1-1.3,1.5c-0.3,0.4-0.5,0.6-0.6,0.7c0.2-1.5,0.4-2.9,0.6-4
			c0.2-1.1,0.3-2.1,0.4-3c0.1-0.8,0.2-1.5,0.3-2c0.1-0.5,0.1-0.9,0.2-1.2c0-0.3,0-0.5,0-0.6c0-0.1-0.1-0.2-0.1-0.2
			c-0.1-0.2-0.2-0.2-0.3-0.3c-0.1,0-0.2,0-0.4,0.1c-0.1,0.1-0.2,0.2-0.3,0.3c-0.1,0.1-0.2,0.3-0.2,0.5l-2.5,18.7
			c0.2,0.3,0.5,0.3,0.7,0.3c0.3-0.1,0.4-0.3,0.4-0.6c0-0.2,0.1-0.5,0.2-0.8c0.1-0.3,0.2-0.7,0.3-1c0.1-0.4,0.1-0.7,0.2-1.1
			c0.1-0.3,0.1-0.6,0.1-0.9l8.4,5.6c0.3,0.1,0.6,0,0.8-0.2c0.2-0.2,0.3-0.4,0.4-0.7l-9-6.1c0.4-0.8,1-1.7,1.6-2.5
			C291.7,186.8,292.5,186,293.4,185z M318,181.5c0.5,0,1,0,1.3-0.1c0.3-0.1,0.4-0.3,0.4-0.6c-0.1,0-0.2-0.1-0.4-0.1
			c-0.2,0-0.3-0.1-0.4-0.1c-2.6-0.3-5.2-0.6-7.7-1c-0.1,0-0.2-0.1-0.2-0.2c0-0.1-0.1-0.2-0.2-0.4c-0.1-0.1-0.1-0.3-0.2-0.4
			c-0.1-0.1-0.2-0.2-0.4-0.3c-0.1,0-0.3,0-0.4,0.1c-0.1,0.1-0.2,0.2-0.3,0.3c-0.1,0.1-0.2,0.3-0.3,0.4c-0.1,0.1-0.1,0.2-0.1,0.3
			l-7-0.6c-0.2,0-0.3,0-0.5,0.2c-0.2,0.1-0.3,0.3-0.3,0.5c-0.1,0.3,0,0.4,0.1,0.5c0.2,0.1,0.3,0.2,0.5,0.2c0.6,0.1,1.2,0.2,1.8,0.2
			c0.6,0,1.2,0,1.8,0.1c0.6,0,1.2,0,1.8,0.1c0.6,0,1.2,0.1,1.8,0.3c0,0.8-0.1,1.6-0.2,2.6c-0.1,1-0.3,2-0.4,3.1
			c-0.2,1.1-0.3,2.2-0.5,3.3c-0.2,1.1-0.3,2.2-0.5,3.3c-0.1,1.1-0.2,2-0.3,3c-0.1,0.9-0.1,1.7-0.1,2.3c0.5,0.2,0.8,0.2,1,0.2
			c0.2,0,0.3-0.3,0.3-0.8c0.2-0.8,0.3-1.7,0.5-2.6c0.1-0.9,0.2-1.9,0.3-2.9c0.1-1,0.2-2,0.3-3c0.1-1,0.2-2,0.3-3
			c0.1-1,0.3-1.9,0.4-2.9c0.2-0.9,0.4-1.8,0.6-2.6c0.3,0,0.8,0,1.4,0.1c0.6,0.1,1.2,0.1,1.9,0.2c0.7,0.1,1.4,0.2,2,0.2
			C316.8,181.5,317.5,181.5,318,181.5z M326.6,181.8c-0.7-0.5-1.5-0.7-2.3-0.6c-0.9,0.1-1.8,0.4-2.7,1c-1,0.6-1.9,1.4-2.7,2.5
			c-0.9,1.1-1.6,2.4-2.3,3.9c-0.7,1.5-1.1,3.3-1.4,5.2c-0.1,0.5-0.1,1.1,0,1.8c0.1,0.7,0.3,1.4,0.6,2c0.3,0.7,0.7,1.2,1.3,1.7
			c0.6,0.5,1.3,0.8,2.1,0.9c1.1,0.1,2.1-0.2,3.1-0.7c0.9-0.5,1.8-1.2,2.6-2.1c0.8-0.9,1.4-1.9,1.9-3.1c0.5-1.1,1-2.3,1.2-3.6
			c0.3-1.2,0.4-2.4,0.5-3.6c0-1.2-0.1-2.3-0.4-3.2C327.8,183.1,327.3,182.3,326.6,181.8z M327,188.9c-0.1,0.9-0.4,1.8-0.6,2.7
			c-0.3,1-0.8,2-1.3,3c-0.6,1-1.2,1.8-1.8,2.6c-0.6,0.7-1.3,1.3-2,1.7c-0.7,0.4-1.4,0.5-2,0.3c-0.8-0.2-1.4-0.6-1.8-1.1
			c-0.4-0.5-0.7-1.2-0.8-1.9c-0.1-0.7-0.1-1.5,0-2.4c0.1-0.8,0.3-1.7,0.6-2.6c0.3-0.9,0.6-1.7,1-2.6c0.4-0.8,0.8-1.6,1.2-2.3
			c0.4-0.7,0.8-1.3,1.2-1.8c0.4-0.5,0.8-0.8,1.1-1c0.9-0.5,1.6-0.8,2.3-0.9c0.6-0.1,1.2,0.1,1.6,0.4c0.4,0.3,0.8,0.8,1,1.3
			c0.2,0.6,0.4,1.3,0.4,2C327.2,187.1,327.1,188,327,188.9z M342.8,184.1c-0.1-0.1-0.2-0.2-0.4-0.3c-0.1-0.1-0.3-0.1-0.5-0.1
			c-0.2,0-0.3,0.1-0.3,0.2l-7.6,16.7l-3.1-17.8c-0.1-0.2-0.2-0.4-0.3-0.6c-0.2-0.1-0.3-0.2-0.5-0.2c-0.2,0-0.3,0-0.4,0.1
			c-0.1,0.1-0.2,0.3-0.2,0.5l3.4,19.7c0.2,0.2,0.4,0.3,0.6,0.4c0.3,0.1,0.6,0,1.1-0.1l8.2-18C343,184.4,342.9,184.3,342.8,184.1z
			 M352.4,196.1l-2.5,0.4l-2.9-11.8c0-0.1,0-0.2-0.1-0.3c-0.1-0.1-0.2-0.2-0.4-0.2c-0.2,0-0.3-0.1-0.5,0c-0.2,0-0.3,0.1-0.4,0.3
			c-1.3,3.3-2.4,6.1-3.3,8.4c-0.9,2.3-1.7,4.1-2.3,5.6c-0.6,1.5-1.1,2.6-1.5,3.4c-0.4,0.8-0.6,1.3-0.8,1.7c0.3,0.4,0.6,0.6,0.8,0.7
			c0.2,0.1,0.5,0.1,0.8-0.2c0.2-0.7,0.4-1.3,0.6-1.8c0.2-0.5,0.3-1,0.5-1.4c0.2-0.5,0.3-0.8,0.3-1c0.1-0.3,0.3-0.6,0.7-0.8
			c0.3-0.2,0.8-0.3,1.2-0.4c0.5-0.1,1-0.2,1.5-0.2c0.6,0,1.1-0.1,1.6-0.1c0.5,0,1.1,0,1.5,0c0.5,0,0.9,0,1.2-0.1l1.6,7.2
			c0.3,0.3,0.6,0.4,0.7,0.5c0.2,0.1,0.3,0,0.4,0c0.1-0.1,0.2-0.1,0.2-0.2c0-0.1,0.1-0.2,0.1-0.3l-1.5-7.2c0,0,0.1-0.1,0.2-0.1
			c0.1,0,0.3,0,0.5-0.1c0.2,0,0.4,0,0.6-0.1c0.2,0,0.4,0,0.5-0.1c0.3-0.1,0.6-0.2,0.7-0.3c0.2-0.2,0.2-0.3,0.2-0.5
			c0-0.2,0-0.3-0.2-0.4C352.8,196.2,352.6,196.1,352.4,196.1z M346.5,196.6c-0.6,0-1.1,0.1-1.7,0.1c-0.6,0-1.1,0.1-1.6,0.1
			c-0.5,0-0.9,0.1-1.1,0.1l4-9.9l1.9,9.4C347.6,196.5,347.1,196.6,346.5,196.6z M363.1,185.3c0,0.1,0.1,0.2,0.2,0.3
			c0.1,0,0.2,0.1,0.4,0c0.1,0,0.3-0.1,0.4-0.1c0.1-0.1,0.2-0.1,0.2-0.2l2.9-3.9c0-0.2,0-0.3-0.1-0.4c-0.1-0.1-0.2-0.2-0.3-0.3
			c-0.1-0.1-0.3-0.1-0.4-0.1c-0.2,0-0.3,0-0.4,0.1l-2.2,2.9l-1.6-3.4c-0.1-0.1-0.2-0.1-0.4-0.1c-0.2,0-0.4,0-0.5,0.1
			c-0.2,0.1-0.3,0.2-0.4,0.3c-0.1,0.1-0.1,0.3,0,0.5L363.1,185.3z M372.9,188.9c-0.1,0-0.2-0.1-0.4-0.1c-0.2,0-0.3-0.1-0.4-0.1
			c-2.6-0.3-5.2-0.6-7.7-1c-0.1,0-0.2-0.1-0.2-0.2c0-0.1-0.1-0.2-0.2-0.4c-0.1-0.1-0.1-0.3-0.2-0.4c-0.1-0.1-0.2-0.2-0.4-0.3
			c-0.1,0-0.3,0-0.4,0.1c-0.1,0.1-0.2,0.2-0.3,0.3c-0.1,0.1-0.2,0.3-0.3,0.4c-0.1,0.1-0.1,0.2-0.1,0.3l-7-0.6c-0.2,0-0.3,0-0.5,0.2
			c-0.2,0.1-0.3,0.3-0.3,0.5c-0.1,0.3,0,0.4,0.1,0.5c0.2,0.1,0.3,0.2,0.5,0.2c0.6,0.1,1.2,0.2,1.8,0.2c0.6,0,1.2,0,1.8,0.1
			c0.6,0,1.2,0,1.8,0.1c0.6,0,1.2,0.1,1.8,0.3c0,0.8-0.1,1.6-0.2,2.6c-0.1,1-0.3,2-0.4,3.1c-0.2,1.1-0.3,2.2-0.5,3.3
			c-0.2,1.1-0.3,2.2-0.5,3.3c-0.1,1.1-0.2,2-0.3,3c-0.1,0.9-0.1,1.7-0.1,2.3c0.5,0.2,0.8,0.2,1,0.2c0.2,0,0.3-0.3,0.3-0.8
			c0.2-0.8,0.3-1.7,0.5-2.6c0.1-0.9,0.2-1.9,0.3-2.9c0.1-1,0.2-2,0.3-3c0.1-1,0.2-2,0.3-3c0.1-1,0.3-1.9,0.4-2.9
			c0.2-0.9,0.4-1.8,0.6-2.6c0.3,0,0.8,0,1.4,0.1c0.6,0.1,1.2,0.1,1.9,0.2c0.7,0.1,1.4,0.2,2,0.2c0.7,0.1,1.3,0.1,1.8,0.1
			c0.5,0,1,0,1.3-0.1C372.9,189.3,373,189.1,372.9,188.9z M369.6,206.1c-0.4-0.1-0.6,0-0.9,0.2c-0.2,0.2-0.4,0.4-0.5,0.7
			c-0.1,0.3,0,0.5,0.1,0.8c0.1,0.2,0.3,0.4,0.7,0.4c0.2,0.1,0.5,0.1,0.6-0.1c0.2-0.2,0.3-0.4,0.4-0.7c0.1-0.3,0.1-0.5,0-0.8
			C370.1,206.3,369.9,206.1,369.6,206.1z"/>
	</g>
</g>
</svg>
