<?xml version="1.0" encoding="utf-8"?>
<!-- Generator: Adobe Illustrator 22.0.1, SVG Export Plug-In . SVG Version: 6.00 Build 0)  -->
<svg version="1.1" id="Vrstva_1" xmlns="http://www.w3.org/2000/svg" xmlns:xlink="http://www.w3.org/1999/xlink" x="0px" y="0px"
	 viewBox="0 0 112.4 30" style="enable-background:new 0 0 112.4 30;" xml:space="preserve">
<style type="text/css">
	.st0{fill:#6F6F6F;}
</style>
<path class="st0" d="M13,24H6.3c-0.6,0-1.1,0.5-1.1,1.1v1.1c0,0.9,0.7,1.7,1.5,1.8L7,29c0.2,0.6,0.7,1,1.2,1H11c0.6,0,1.1-0.4,1.2-1
	l0.3-1c0.9-0.1,1.5-0.9,1.5-1.8v-1.1C14.1,24.4,13.6,24,13,24z M9.6,0C4.2,0-0.1,4.4,0,9.7c0,2.6,1,4.9,2.7,6.6
	c0.2,0.2,0.3,0.3,0.5,0.5V6.9h0.3l6.2,7l6.2-7h0.3v9.9c0.1-0.2,0.3-0.3,0.4-0.4c1.7-1.7,2.7-4.1,2.7-6.7C19.3,4.3,14.9,0,9.6,0z
	 M31.3,18.7H38v-1h-4.9c1.5-1.9,3.6-4.7,5-7v-0.3h-6.6v1h4.8c-1.4,2.1-3.4,4.8-5,7C31.3,18.3,31.3,18.7,31.3,18.7z M40.4,12.6h-1.1
	v6.1h1.1V12.6z M40.1,11.9l1.7-1.5h-1.3L39,11.9H40.1z M46.5,12.7c-0.6-0.2-1.4-0.3-2-0.3c-1.6,0-2.5,0.4-2.5,2
	c0,1.2,0.8,1.6,2.2,1.7c1.1,0.1,1.4,0.3,1.4,0.9c0,0.8-0.5,0.9-1.3,0.9c-0.6,0-1.5-0.1-1.9-0.3l-0.3,1c0.6,0.2,1.6,0.3,2.2,0.3
	c1.6,0,2.5-0.5,2.5-2c0-1.2-0.7-1.6-2.2-1.8c-1-0.1-1.4-0.3-1.4-0.8c0-0.8,0.4-0.9,1.3-0.9c0.6,0,1.3,0.1,1.8,0.3L46.5,12.7z
	 M49.3,10h-1.1v8.7h1.1V10z M53.5,18.7c-1.5-2-2.4-3.1-2.7-3.3c0.3-0.3,1.3-1.2,2.5-2.8h-1.4c-1.3,1.6-2.2,2.6-2.6,2.9
	c0.4,0.1,1.3,1.2,2.8,3.2L53.5,18.7L53.5,18.7z M59.2,14.8c0-1.8-0.8-2.4-2.6-2.4c-0.9,0-1.7,0.2-2.2,0.3l0.2,1
	c0.5-0.2,1.2-0.3,1.8-0.3c1.3,0,1.7,0.3,1.7,1.6c-0.6-0.1-1-0.2-1.6-0.2c-1.4,0-2.4,0.3-2.4,2c0,1.6,0.7,2,2.5,2
	c0.8,0,1.9-0.2,2.6-0.5L59.2,14.8L59.2,14.8z M58.1,17.7c-0.4,0.1-0.9,0.2-1.4,0.2c-1.1,0-1.4-0.2-1.4-1.2c0-0.9,0.3-1.1,1.4-1.1
	c0.5,0,1,0,1.4,0.1C58.1,15.8,58.1,17.7,58.1,17.7z M61.5,10.2c-0.5,0-0.7,0.1-0.7,0.6c0,0.6,0.2,0.7,0.7,0.7c0.5,0,0.7-0.1,0.7-0.7
	C62.2,10.2,62,10.2,61.5,10.2z M62.1,12.6h-1.1v6.3c0,1-0.4,1.2-1.1,1.2v1c1.4,0,2.2-0.4,2.2-2.2C62.1,18.9,62.1,12.6,62.1,12.6z
	 M71.7,16.1c-0.7-1.9-1.6-4-2.5-5.8h-1.7v8.4h1.2v-6.8c0.9,1.9,1.8,4.1,2.5,6H72c0.8-1.9,1.7-4,2.6-6v6.8h1.2v-8.4h-1.6
	C73.3,12.2,72.4,14.2,71.7,16.1z M82.4,17.6c-0.5,0.2-1.3,0.3-1.7,0.3c-1.2,0-1.8-0.3-1.8-2H83c0.1-2.8-0.7-3.4-2.6-3.4
	c-1.8,0-2.8,0.8-2.8,3.2c0,2.5,1.1,3.2,2.9,3.2c0.6,0,1.5-0.1,2.1-0.3L82.4,17.6z M80.5,13.4c1,0,1.3,0.3,1.4,1.6h-3
	C79,13.7,79.4,13.4,80.5,13.4z M85.6,13.6c0.4-0.1,0.8-0.2,1.3-0.2c1.2,0,1.5,0.3,1.5,1.9v3.3h1.1v-3.4c0-2.2-0.7-2.8-2.4-2.8
	c-0.9,0-2,0.2-2.7,0.5v5.8h1.1L85.6,13.6L85.6,13.6z M94.8,13.6v-1h-2.1V11l-1.1,0.5v1.2h-1v1h1v3c0,1.8,0.6,2.2,2,2.2
	c0.5,0,1.1-0.1,1.5-0.3l-0.2-0.9c-0.3,0.1-0.7,0.2-1.1,0.2c-0.8,0-1-0.4-1-1.3v-3L94.8,13.6L94.8,13.6z M98.7,18.9
	c1.9,0,2.8-0.7,2.8-3.2c0-2.5-0.9-3.2-2.8-3.2c-1.9,0-2.8,0.7-2.8,3.2C95.9,18.1,96.8,18.9,98.7,18.9z M98.7,13.4
	c1.2,0,1.6,0.3,1.6,2.2c0,1.8-0.4,2.3-1.6,2.3c-1.2,0-1.6-0.4-1.6-2.3C97.1,13.7,97.5,13.4,98.7,13.4z M103.1,18.7h1.1v-4.4
	c0-0.5,0.7-0.7,1.5-0.7c0.3,0,0.5,0,0.7,0.1v-1.1c-0.2,0-0.4,0-0.6,0c-0.9,0-1.4,0.3-1.6,0.6v-0.4h-1.1V18.7z M112.4,14.8
	c0-1.8-0.8-2.4-2.6-2.4c-0.9,0-1.7,0.2-2.2,0.3l0.2,1c0.5-0.2,1.2-0.3,1.8-0.3c1.3,0,1.7,0.3,1.7,1.6c-0.6-0.1-1-0.2-1.6-0.2
	c-1.4,0-2.4,0.3-2.4,2c0,1.6,0.7,2,2.5,2c0.8,0,1.9-0.2,2.6-0.5L112.4,14.8L112.4,14.8z M111.3,17.7c-0.4,0.1-0.9,0.2-1.4,0.2
	c-1.1,0-1.4-0.2-1.4-1.2c0-0.9,0.3-1.1,1.4-1.1c0.5,0,1,0,1.4,0.1V17.7z M14.2,11.3l-4.6,5.1l-4.6-5.1v10c0.2,0.7,0.8,1.2,1.5,1.2h6
	c0.8,0,1.5-0.6,1.6-1.3c0,0,0,0,0,0L14.2,11.3z"/>
</svg>
