<svg xmlns="http://www.w3.org/2000/svg" viewBox="0 0 185.084 49.98">
  <defs>
    <style>
      .cls-1, .cls-2 {
        fill: #209edb;
      }

      .cls-1 {
        font-size: 20px;
        font-family: ArialMT, Arial;
      }
    </style>
  </defs>
  <g id="LOGO" transform="translate(-475.435 -19.786)">
    <text id="Získaj_Mentora" data-name="Získaj Mentora" class="cls-1" transform="translate(527.519 50.77)"><tspan x="0" y="0">Získaj Mentora</tspan></text>
    <path id="ICON" class="cls-2" d="M489.165,69.766a2.156,2.156,0,0,1-2.081-1.6l-.456-1.732a3.037,3.037,0,0,1-2.577-3.007V61.526a1.833,1.833,0,0,1,1.839-1.839H497.1a1.853,1.853,0,0,1,1.838,1.853v1.9a3.022,3.022,0,0,1-2.562,2.993l-.47,1.732a2.157,2.157,0,0,1-2.081,1.6Zm-2.658-12.522a2.638,2.638,0,0,1-2.569-1.982V38.551l7.585,8.427,7.583-8.425.015,16.383c0,.022-.008.045-.012.068a2.658,2.658,0,0,1-2.632,2.241Zm-6.59-10.254A16.072,16.072,0,1,1,503.056,47c-.231.24-.452.489-.665.742V31.291h-.562L491.523,43.006l-10.29-11.714h-.562V47.834Q480.313,47.4,479.918,46.991Z"/>
  </g>
</svg>
